<svg width="1920" height="880" viewBox="0 0 1920 880" fill="none" xmlns="http://www.w3.org/2000/svg">
<path d="M1995.93 -12.2925L1996.28 -12.8617L1995.93 -12.2926C1927.86 -54.4067 1820.01 -104.15 1692.86 -102.184C1517.61 -99.4694 1351.33 -2.00328 1198.65 187.823C1151.39 246.55 1118.15 305.261 1085.97 362.098L1085.87 362.288L1085.71 362.559C1034.12 453.687 989.437 532.617 903.382 577.417C809.3 626.439 672.91 628.598 474.296 584.525C451.401 579.455 429.152 574.332 407.514 569.349C403.05 568.321 398.611 567.299 394.198 566.284L394.346 565.633L394.198 566.284L394.049 566.25C270.408 537.748 163.769 513.165 70.8707 518.956C-28.9266 525.177 -108.297 567.265 -178.785 651.479L-178.231 651.968C-102.205 561.129 -22.3656 525.265 70.0506 519.425C162.526 513.582 267.583 537.808 393.931 566.944L394.128 566.99L393.989 567.596L394.128 566.99C419.957 572.952 446.632 579.087 474.244 585.202C673.277 629.381 809.697 627.013 903.746 578.017C989.915 533.145 1034.58 454.269 1086.4 362.749L1086.45 362.665C1118.6 305.829 1151.88 247.046 1199.18 188.238C1351.65 -1.28191 1517.74 -98.8588 1692.93 -101.537C1819.94 -103.514 1927.62 -53.8117 1995.59 -11.8139L1995.59 -11.8136C2065.21 31.2862 2108.53 75.2871 2113.46 80.4151L2113.93 79.9727C2113.89 79.9308 2113.84 79.8863 2113.8 79.8392C2113.43 79.4611 2112.9 78.9137 2112.2 78.2088C2110.81 76.7991 2108.76 74.7593 2106.08 72.1821C2100.71 67.0275 2092.84 59.7232 2082.67 51.0082C2062.32 33.5777 2032.81 10.5072 1995.93 -12.2925Z" fill="#FFEEDB" stroke="#FFC565" stroke-width="1.33197" stroke-miterlimit="5.75877"/>
<path d="M1952.8 61.0737L1953.15 60.5073L1952.8 61.0735C1897.13 25.9985 1807.51 -16.545 1696.9 -20.0835C1527.31 -25.5065 1358.4 59.3073 1194.87 232.249C1131.63 299.126 1092.34 368.203 1057.67 429.252L1057.13 428.943L1057.67 429.252L1057.61 429.361C1012.58 508.551 973.684 576.965 896.933 616.196C820.15 655.443 705.615 665.429 509.422 628.19C498.069 626.037 486.807 623.873 475.637 621.725C472.873 621.194 470.115 620.664 467.363 620.135L467.477 619.532L467.362 620.135C332.627 594.163 216.426 571.779 114.036 582.096L113.98 581.531L114.035 582.096C1.29641 593.411 -79.2939 644.534 -139.596 742.854L-139.005 743.244C-73.4623 636.353 11.7509 592.934 113.704 582.651C215.72 572.362 334.514 595.25 467.102 620.796L467.302 620.835C470.089 621.37 472.883 621.907 475.681 622.445C486.817 624.586 498.042 626.744 509.358 628.889C706.163 666.233 820.747 656.122 897.416 616.908C974.082 577.695 1012.97 509.326 1058.25 429.685L1058.82 430.016L1058.25 429.684L1058.43 429.361C1093.03 368.537 1132.27 299.534 1195.38 232.835C1358.65 60.1604 1527.42 -24.7557 1696.92 -19.3296C1807.38 -15.8131 1896.81 26.6743 1952.4 61.6685C2009.01 97.1998 2042.91 132.504 2047.17 137.048L2047.64 136.617C2043.38 132.074 2009.4 96.6905 1952.8 61.0737Z" fill="#FFEEDB" stroke="#FFC565" stroke-width="1.33197" stroke-miterlimit="5.75877"/>
<path d="M508.127 654.261L508.126 654.261L507.961 654.234C376.133 632.49 251.72 611.969 145.58 625.669L145.521 625.2L145.58 625.669C86.2032 633.325 36.3002 651.18 -5.6439 680.245C-47.4319 709.203 -81.3534 749.31 -108.873 801.618L-108.274 801.944C-48.1258 687.627 39.4237 639.872 145.144 626.204C250.956 612.524 375.001 632.988 507.988 654.927L508.071 654.941C508.071 654.941 508.071 654.941 508.072 654.941C511.931 655.572 515.794 656.208 519.662 656.844C524.414 657.627 529.173 658.411 533.944 659.187L533.838 659.846L533.945 659.187C705.41 687.237 821.375 681.517 899.057 641.393C970.938 604.265 1007.19 540.718 1049.32 466.866L1049.35 466.826C1085.5 403.432 1126.51 331.523 1198.61 261.369C1367.46 97.1257 1536.59 17.6892 1701.29 25.5185C1888.37 34.3981 2004.89 156.183 2013.14 165.061L2013.58 164.647C2005.48 155.936 1888.68 33.7736 1701.21 24.8375C1536.45 16.9978 1367.2 96.3805 1198.09 260.851C1125.95 331.035 1084.93 402.946 1048.71 466.458L1048.68 466.513C1006.77 540.011 970.466 603.688 898.714 640.764C821.033 680.894 705.095 686.455 534.001 658.507C529.222 657.73 524.448 656.944 519.684 656.159C515.825 655.524 511.972 654.889 508.127 654.261Z" fill="#FFEEDB" stroke="#FFC565" stroke-width="1.33197" stroke-miterlimit="5.75877"/>
<path d="M571.973 697.419L571.978 697.42C728.645 718.857 833.504 712.321 901.716 676.72C964.859 643.785 994.666 588.173 1029.04 524.034L1029.1 523.917C1065.79 455.46 1107.34 378.042 1199.09 302.625C1309.82 211.673 1418.64 151.056 1522.47 122.381C1605.59 99.4065 1685.76 96.7769 1760.73 114.515C1883.23 143.506 1951.96 218.296 1957.95 225.041L1957.56 225.394C1951.36 218.412 1882.77 143.998 1760.67 115.166C1642.92 87.3449 1450.12 97.4624 1199.69 303.18C1108.04 378.375 1066.53 455.816 1029.96 524.033L1029.81 524.304L1030.29 524.565L1029.81 524.304C995.229 588.851 965.418 644.338 902.165 677.355C833.914 712.922 729.104 719.584 572.021 698.12C572.02 698.12 572.019 698.12 572.018 698.12L569.335 697.731L569.33 697.73C436.998 679.553 300.057 660.807 184.823 679.379C119.771 689.854 66.3553 711.886 24.0096 745.971C-18.1807 779.931 -49.3455 825.826 -70.0906 884.091L-70.7675 883.82C-49.9693 825.369 -18.7384 779.404 23.4938 745.412C65.8742 711.299 119.371 689.213 184.603 678.692C299.859 660.147 436.755 678.863 569.285 697.029L569.29 697.03M571.973 697.419L569.38 696.368L569.29 697.03M571.973 697.419L569.29 697.03M571.973 697.419L569.29 697.03" fill="#FFEEDB" stroke="#FFC565" stroke-width="1.33197" stroke-miterlimit="5.75877"/>
<path d="M1199.81 338.614L1199.41 338.079L1199.81 338.614C1097.24 415.612 1056.38 495.182 1020.29 565.48L1019.7 565.174L1020.29 565.48L1020.17 565.725C989.428 625.566 962.758 677.484 903.901 708.921C840.224 742.95 741.105 750.552 592.118 733.035C465.749 718.166 322.692 701.336 203.526 723.67C136.076 736.326 81.7469 760.677 39.9192 797.212C-1.76434 833.62 -31.0717 882.163 -48.5621 943.388L-47.8842 943.606C-30.4427 882.569 -1.20044 834.096 40.4461 797.723C82.2402 761.22 136.487 736.937 203.742 724.337C322.784 702.03 465.853 718.839 591.991 733.658L592.134 733.675C741.514 751.247 840.644 743.53 904.282 709.502C963.319 677.939 989.964 626.128 1020.94 565.826C1056.94 495.688 1097.83 416.079 1200.31 339.152C1451.2 150.758 1635.5 141.366 1746.07 166.76L1745.92 167.411L1746.07 166.76C1860.34 193.03 1921.14 260.741 1926.84 267.396L1927.34 266.996C1921.61 260.366 1860.59 192.429 1746.08 166.108C1675.72 149.953 1599.19 152.436 1518.62 173.474C1418 199.771 1310.7 255.317 1199.81 338.614Z" fill="#FFEEDB" stroke="#FFC565" stroke-width="1.33197" stroke-miterlimit="5.75877"/>
<circle cx="129" cy="418" r="15" fill="#FFC565"/>
<circle cx="697" cy="178" r="15" fill="#FFC565"/>
<rect x="666" y="574" width="32" height="32" rx="3" fill="#FFC565"/>
<path d="M377.5 693L393.521 722.25H361.479L377.5 693Z" fill="white"/>
</svg>
