<svg width="350" height="59" viewBox="0 0 350 59" fill="none" xmlns="http://www.w3.org/2000/svg">
<g clip-path="url(#clip0_29_1227)">
<rect x="185.914" y="1.04883" width="163.295" height="57.512" rx="6.04796" fill="black"/>
<path d="M218.535 28.0709C218.501 24.384 221.576 22.5903 221.717 22.5068C219.975 19.9867 217.276 19.6424 216.328 19.615C214.061 19.3782 211.862 20.9614 210.707 20.9614C209.529 20.9614 207.751 19.6378 205.834 19.6767C203.368 19.7145 201.06 21.1318 199.795 23.3327C197.183 27.8203 199.131 34.4151 201.633 38.0425C202.885 39.819 204.347 41.8026 206.262 41.7328C208.134 41.6561 208.834 40.5477 211.094 40.5477C213.333 40.5477 213.99 41.7328 215.943 41.6882C217.953 41.6561 219.218 39.9036 220.426 38.1111C221.872 36.0749 222.453 34.0696 222.476 33.9667C222.429 33.9506 218.573 32.4899 218.535 28.0709Z" fill="white"/>
<path d="M214.852 17.2291C215.859 15.9788 216.548 14.2778 216.357 12.5516C214.899 12.6156 213.076 13.5525 212.026 14.7754C211.097 15.8529 210.267 17.6192 210.481 19.2801C212.119 19.4014 213.801 18.46 214.852 17.2291Z" fill="white"/>
<path d="M245.644 41.4777H243.026L241.593 37.0061H236.609L235.244 41.4777H232.695L237.633 26.2543H240.682L245.644 41.4777ZM241.16 35.1301L239.864 31.1549C239.727 30.7488 239.47 29.7925 239.091 28.2871H239.044C238.893 28.9346 238.65 29.8909 238.316 31.1549L237.043 35.1301H241.16V35.1301Z" fill="white"/>
<path d="M258.338 35.8543C258.338 37.7212 257.83 39.1969 256.813 40.2802C255.903 41.2445 254.772 41.7261 253.422 41.7261C251.966 41.7261 250.919 41.2067 250.282 40.1681H250.236V45.9506H247.779V34.1144C247.779 32.9407 247.747 31.7362 247.688 30.5007H249.848L249.986 32.2407H250.032C250.851 30.9297 252.095 30.2754 253.764 30.2754C255.068 30.2754 256.157 30.7867 257.029 31.8105C257.902 32.8355 258.338 34.183 258.338 35.8543ZM255.835 35.9435C255.835 34.8751 255.593 33.9943 255.106 33.3011C254.575 32.5781 253.861 32.2166 252.967 32.2166C252.361 32.2166 251.81 32.418 251.318 32.8149C250.825 33.2153 250.502 33.7381 250.351 34.3855C250.275 34.6875 250.237 34.9346 250.237 35.1291V36.9594C250.237 37.7578 250.483 38.4316 250.977 38.9818C251.47 39.532 252.111 39.8066 252.899 39.8066C253.825 39.8066 254.545 39.452 255.06 38.745C255.576 38.0369 255.835 37.1035 255.835 35.9435Z" fill="white"/>
<path d="M271.065 35.8543C271.065 37.7212 270.557 39.1969 269.539 40.2802C268.63 41.2445 267.499 41.7261 266.15 41.7261C264.693 41.7261 263.646 41.2067 263.01 40.1681H262.964V45.9506H260.507V34.1144C260.507 32.9407 260.476 31.7362 260.416 30.5007H262.577L262.714 32.2407H262.76C263.578 30.9297 264.822 30.2754 266.492 30.2754C267.796 30.2754 268.885 30.7867 269.758 31.8105C270.628 32.8355 271.065 34.183 271.065 35.8543ZM268.562 35.9435C268.562 34.8751 268.319 33.9943 267.832 33.3011C267.301 32.5781 266.59 32.2166 265.694 32.2166C265.087 32.2166 264.537 32.418 264.044 32.8149C263.551 33.2153 263.229 33.7381 263.078 34.3855C263.003 34.6875 262.964 34.9346 262.964 35.1291V36.9594C262.964 37.7578 263.211 38.4316 263.702 38.9818C264.195 39.5309 264.836 39.8066 265.627 39.8066C266.552 39.8066 267.272 39.452 267.787 38.745C268.304 38.0369 268.562 37.1035 268.562 35.9435Z" fill="white"/>
<path d="M285.273 37.2091C285.273 38.504 284.82 39.5576 283.911 40.3709C282.911 41.2597 281.52 41.7036 279.733 41.7036C278.082 41.7036 276.759 41.3879 275.758 40.7553L276.327 38.7225C277.406 39.37 278.59 39.6949 279.879 39.6949C280.805 39.6949 281.525 39.4867 282.042 39.0726C282.558 38.6585 282.815 38.1025 282.815 37.4093C282.815 36.7916 282.603 36.2711 282.177 35.849C281.754 35.4269 281.048 35.0345 280.061 34.6719C277.376 33.6778 276.034 32.2216 276.034 30.3067C276.034 29.0552 276.505 28.0291 277.446 27.2306C278.384 26.431 279.636 26.0318 281.201 26.0318C282.597 26.0318 283.756 26.2732 284.682 26.7548L284.067 28.7429C283.203 28.2762 282.226 28.0428 281.132 28.0428C280.268 28.0428 279.592 28.2544 279.108 28.6754C278.699 29.0518 278.494 29.5105 278.494 30.0538C278.494 30.6555 278.728 31.1532 279.198 31.5444C279.607 31.9059 280.351 32.2971 281.429 32.7192C282.749 33.2465 283.718 33.8631 284.342 34.5701C284.963 35.2747 285.273 36.1567 285.273 37.2091Z" fill="white"/>
<path d="M293.407 32.331H290.699V37.6606C290.699 39.0161 291.176 39.6933 292.132 39.6933C292.572 39.6933 292.936 39.6556 293.224 39.5801L293.292 41.4321C292.808 41.6117 292.17 41.7021 291.381 41.7021C290.411 41.7021 289.652 41.4081 289.105 40.8213C288.56 40.2333 288.285 39.2472 288.285 37.8619V32.3287H286.672V30.4985H288.285V28.4886L290.699 27.7656V30.4985H293.407V32.331Z" fill="white"/>
<path d="M305.627 35.8993C305.627 37.5865 305.141 38.9718 304.171 40.0551C303.153 41.1705 301.802 41.7264 300.118 41.7264C298.496 41.7264 297.204 41.1922 296.24 40.1238C295.277 39.0553 294.795 37.7067 294.795 36.0811C294.795 34.3801 295.29 32.9868 296.285 31.9035C297.277 30.8191 298.617 30.2769 300.3 30.2769C301.923 30.2769 303.229 30.8111 304.214 31.8806C305.157 32.9182 305.627 34.2577 305.627 35.8993ZM303.078 35.9782C303.078 34.9658 302.86 34.0976 302.419 33.3735C301.904 32.4972 301.167 32.0602 300.213 32.0602C299.225 32.0602 298.475 32.4984 297.96 33.3735C297.518 34.0987 297.3 34.9807 297.3 36.0239C297.3 37.0363 297.518 37.9046 297.96 38.6275C298.491 39.5038 299.233 39.9407 300.191 39.9407C301.129 39.9407 301.866 39.4946 302.397 38.6046C302.85 37.8668 303.078 36.9894 303.078 35.9782Z" fill="white"/>
<path d="M313.608 32.6456C313.365 32.601 313.106 32.5781 312.834 32.5781C311.97 32.5781 311.301 32.9018 310.831 33.5505C310.422 34.1224 310.217 34.8454 310.217 35.7182V41.4779H307.761L307.784 33.9577C307.784 32.6925 307.752 31.5406 307.691 30.5019H309.832L309.922 32.6021H309.99C310.249 31.8803 310.658 31.2992 311.218 30.8634C311.766 30.471 312.357 30.2754 312.994 30.2754C313.221 30.2754 313.426 30.2914 313.608 30.32V32.6456Z" fill="white"/>
<path d="M324.602 35.4702C324.602 35.9072 324.573 36.2756 324.512 36.5764H317.141C317.169 37.6608 317.526 38.4902 318.21 39.0622C318.831 39.5735 319.635 39.8297 320.621 39.8297C321.713 39.8297 322.708 39.657 323.604 39.3104L323.989 41.0034C322.942 41.4564 321.707 41.6817 320.281 41.6817C318.566 41.6817 317.22 41.1807 316.241 40.1798C315.263 39.1788 314.773 37.8347 314.773 36.1486C314.773 34.4933 315.229 33.1149 316.14 32.0156C317.095 30.8419 318.384 30.2551 320.007 30.2551C321.601 30.2551 322.808 30.8419 323.627 32.0156C324.276 32.9479 324.602 34.1009 324.602 35.4702ZM322.259 34.8376C322.275 34.1147 322.115 33.4901 321.782 32.9627C321.357 32.2844 320.703 31.9458 319.824 31.9458C319.02 31.9458 318.367 32.2764 317.868 32.9399C317.459 33.4672 317.216 34.0998 317.141 34.8365H322.259V34.8376Z" fill="white"/>
<path d="M240.342 16.8899C240.342 18.2363 239.935 19.2498 239.123 19.9305C238.37 20.5585 237.301 20.8731 235.915 20.8731C235.228 20.8731 234.641 20.8433 234.148 20.7838V13.4272C234.79 13.3243 235.482 13.2717 236.229 13.2717C237.548 13.2717 238.543 13.5565 239.214 14.1262C239.965 14.7702 240.342 15.6911 240.342 16.8899ZM239.068 16.9231C239.068 16.0503 238.836 15.3811 238.37 14.9143C237.904 14.4488 237.224 14.2154 236.329 14.2154C235.949 14.2154 235.625 14.2406 235.356 14.2932V19.8858C235.505 19.9087 235.777 19.919 236.172 19.919C237.097 19.919 237.81 19.6639 238.312 19.1537C238.815 18.6435 239.068 17.9 239.068 16.9231Z" fill="white"/>
<path d="M247.097 18.0644C247.097 18.8938 246.858 19.5733 246.381 20.1063C245.881 20.6543 245.218 20.9277 244.39 20.9277C243.593 20.9277 242.958 20.6657 242.484 20.1395C242.012 19.6144 241.775 18.9521 241.775 18.1536C241.775 17.3186 242.019 16.6334 242.507 16.1014C242.996 15.5695 243.653 15.303 244.48 15.303C245.278 15.303 245.919 15.5649 246.404 16.09C246.865 16.6002 247.097 17.2591 247.097 18.0644ZM245.844 18.1033C245.844 17.6057 245.735 17.179 245.52 16.8233C245.266 16.3931 244.906 16.1781 244.437 16.1781C243.951 16.1781 243.583 16.3931 243.329 16.8233C243.112 17.179 243.005 17.6126 243.005 18.125C243.005 18.6227 243.113 19.0493 243.329 19.4051C243.591 19.8352 243.955 20.0503 244.425 20.0503C244.886 20.0503 245.248 19.8318 245.508 19.3937C245.732 19.031 245.844 18.6009 245.844 18.1033Z" fill="white"/>
<path d="M256.147 15.4133L254.447 20.8058H253.341L252.636 18.4642C252.458 17.8796 252.313 17.2985 252.2 16.722H252.178C252.073 17.3145 251.928 17.8945 251.741 18.4642L250.993 20.8058H249.874L248.275 15.4133H249.517L250.131 17.9769C250.28 18.5832 250.402 19.1608 250.5 19.7076H250.522C250.612 19.2569 250.76 18.6827 250.97 17.9883L251.741 15.4145H252.725L253.464 17.9334C253.643 18.5477 253.788 19.1391 253.9 19.7088H253.933C254.015 19.154 254.138 18.5626 254.302 17.9334L254.961 15.4145H256.147V15.4133Z" fill="white"/>
<path d="M262.413 20.8053H261.205V17.7167C261.205 16.765 260.841 16.2891 260.11 16.2891C259.751 16.2891 259.462 16.4195 259.237 16.6815C259.015 16.9434 258.902 17.2523 258.902 17.6058V20.8042H257.694V16.9537C257.694 16.4802 257.679 15.9665 257.65 15.4106H258.712L258.768 16.2537H258.802C258.942 15.9917 259.152 15.7755 259.428 15.6028C259.755 15.4014 260.121 15.2996 260.522 15.2996C261.03 15.2996 261.451 15.4621 261.787 15.7881C262.204 16.1873 262.413 16.7833 262.413 17.5749V20.8053V20.8053Z" fill="white"/>
<path d="M265.746 20.8056H264.539V12.9388H265.746V20.8056Z" fill="white"/>
<path d="M272.854 18.0644C272.854 18.8938 272.616 19.5733 272.139 20.1063C271.638 20.6543 270.975 20.9277 270.148 20.9277C269.35 20.9277 268.715 20.6657 268.242 20.1395C267.769 19.6144 267.533 18.9521 267.533 18.1536C267.533 17.3186 267.776 16.6334 268.265 16.1014C268.754 15.5695 269.411 15.303 270.237 15.303C271.036 15.303 271.675 15.5649 272.162 16.09C272.623 16.6002 272.854 17.2591 272.854 18.0644ZM271.6 18.1033C271.6 17.6057 271.492 17.179 271.277 16.8233C271.024 16.3931 270.662 16.1781 270.194 16.1781C269.708 16.1781 269.339 16.3931 269.087 16.8233C268.87 17.179 268.763 17.6126 268.763 18.125C268.763 18.6227 268.871 19.0493 269.087 19.4051C269.348 19.8352 269.713 20.0503 270.183 20.0503C270.644 20.0503 271.005 19.8318 271.265 19.3937C271.49 19.031 271.6 18.6009 271.6 18.1033Z" fill="white"/>
<path d="M278.697 20.8053H277.612L277.522 20.1841H277.489C277.118 20.6794 276.589 20.9277 275.902 20.9277C275.389 20.9277 274.974 20.7641 274.662 20.4392C274.378 20.1441 274.236 19.7769 274.236 19.341C274.236 18.6821 274.513 18.18 275.07 17.8322C275.625 17.4844 276.407 17.314 277.413 17.322V17.2213C277.413 16.511 277.037 16.1563 276.284 16.1563C275.748 16.1563 275.276 16.2902 274.868 16.5556L274.622 15.7686C275.127 15.4586 275.751 15.303 276.486 15.303C277.906 15.303 278.618 16.0465 278.618 17.5336V19.5195C278.618 20.0583 278.645 20.4873 278.697 20.8053ZM277.443 18.9521V18.1205C276.11 18.0976 275.444 18.4602 275.444 19.2072C275.444 19.4886 275.52 19.6991 275.676 19.8398C275.831 19.9805 276.03 20.0503 276.266 20.0503C276.531 20.0503 276.779 19.9668 277.005 19.8009C277.232 19.6339 277.371 19.4223 277.423 19.1626C277.436 19.1042 277.443 19.0333 277.443 18.9521Z" fill="white"/>
<path d="M285.557 20.8056H284.486L284.429 19.9397H284.396C284.053 20.5986 283.47 20.928 282.651 20.928C281.996 20.928 281.451 20.6729 281.019 20.1627C280.587 19.6525 280.371 18.9902 280.371 18.1769C280.371 17.3041 280.605 16.5971 281.075 16.0572C281.531 15.5539 282.088 15.3022 282.752 15.3022C283.482 15.3022 283.992 15.5459 284.283 16.0343H284.306V12.9388H285.515V19.3528C285.515 19.8779 285.529 20.3618 285.557 20.8056ZM284.306 18.5315V17.6324C284.306 17.4768 284.294 17.351 284.272 17.2549C284.204 16.9666 284.058 16.7241 283.836 16.5285C283.611 16.3329 283.34 16.2345 283.028 16.2345C282.577 16.2345 282.224 16.4118 281.965 16.7676C281.708 17.1233 281.578 17.5775 281.578 18.1323C281.578 18.6653 281.701 19.0977 281.949 19.4306C282.21 19.7852 282.563 19.9625 283.005 19.9625C283.401 19.9625 283.718 19.815 283.959 19.5187C284.192 19.2453 284.306 18.9159 284.306 18.5315Z" fill="white"/>
<path d="M295.886 18.0644C295.886 18.8938 295.647 19.5733 295.17 20.1063C294.67 20.6543 294.008 20.9277 293.179 20.9277C292.383 20.9277 291.748 20.6657 291.273 20.1395C290.801 19.6144 290.564 18.9521 290.564 18.1536C290.564 17.3186 290.808 16.6334 291.296 16.1014C291.785 15.5695 292.442 15.303 293.271 15.303C294.067 15.303 294.709 15.5649 295.193 16.09C295.654 16.6002 295.886 17.2591 295.886 18.0644ZM294.634 18.1033C294.634 17.6057 294.526 17.179 294.31 16.8233C294.055 16.3931 293.696 16.1781 293.226 16.1781C292.742 16.1781 292.373 16.3931 292.118 16.8233C291.901 17.179 291.794 17.6126 291.794 18.125C291.794 18.6227 291.903 19.0493 292.118 19.4051C292.38 19.8352 292.744 20.0503 293.214 20.0503C293.675 20.0503 294.038 19.8318 294.299 19.3937C294.521 19.031 294.634 18.6009 294.634 18.1033Z" fill="white"/>
<path d="M302.382 20.8053H301.175V17.7167C301.175 16.765 300.811 16.2891 300.079 16.2891C299.721 16.2891 299.432 16.4195 299.208 16.6815C298.985 16.9434 298.873 17.2523 298.873 17.6058V20.8042H297.664V16.9537C297.664 16.4802 297.65 15.9665 297.621 15.4106H298.681L298.738 16.2537H298.771C298.913 15.9917 299.123 15.7755 299.397 15.6028C299.726 15.4014 300.091 15.2996 300.493 15.2996C300.999 15.2996 301.421 15.4621 301.756 15.7881C302.175 16.1873 302.382 16.7833 302.382 17.5749V20.8053V20.8053Z" fill="white"/>
<path d="M310.516 16.3108H309.186V18.9304C309.186 19.5962 309.422 19.9291 309.89 19.9291C310.107 19.9291 310.287 19.9108 310.428 19.873L310.459 20.7824C310.221 20.8717 309.907 20.9163 309.521 20.9163C309.044 20.9163 308.673 20.7722 308.404 20.4839C308.135 20.1956 308.001 19.7106 308.001 19.0299V16.3108H307.207V15.4129H308.001V14.4245L309.185 14.0699V15.4117H310.515V16.3108H310.516Z" fill="white"/>
<path d="M316.908 20.8056H315.699V17.7399C315.699 16.7733 315.335 16.2894 314.605 16.2894C314.045 16.2894 313.662 16.5697 313.453 17.1302C313.417 17.248 313.396 17.3921 313.396 17.5614V20.8045H312.189V12.9388H313.396V16.1887H313.419C313.8 15.5973 314.345 15.3022 315.051 15.3022C315.551 15.3022 315.965 15.4646 316.294 15.7907C316.703 16.1967 316.908 16.8007 316.908 17.5992V20.8056V20.8056Z" fill="white"/>
<path d="M323.504 17.8546C323.504 18.0696 323.488 18.2504 323.459 18.398H319.837C319.853 18.931 320.026 19.3371 320.361 19.6185C320.668 19.8702 321.063 19.996 321.547 19.996C322.083 19.996 322.572 19.9114 323.012 19.7409L323.201 20.5737C322.686 20.7956 322.079 20.9066 321.378 20.9066C320.536 20.9066 319.874 20.6606 319.394 20.1687C318.912 19.6769 318.674 19.0168 318.674 18.1886C318.674 17.3753 318.896 16.6981 319.345 16.1581C319.813 15.5816 320.445 15.2933 321.244 15.2933C322.025 15.2933 322.619 15.5816 323.02 16.1581C323.344 16.6157 323.504 17.182 323.504 17.8546ZM322.351 17.5446C322.361 17.1888 322.281 16.8822 322.118 16.6237C321.908 16.2908 321.589 16.1238 321.156 16.1238C320.762 16.1238 320.441 16.2863 320.195 16.6123C319.995 16.872 319.876 17.182 319.837 17.5446H322.351Z" fill="white"/>
</g>
<rect width="163.295" height="57.5121" rx="6.04796" fill="black"/>
<path d="M81.9429 32.5689C80.9272 32.5737 79.9357 32.8769 79.0935 33.4405C78.2513 34.004 77.5962 34.8026 77.2108 35.7353C76.8254 36.6681 76.727 37.6933 76.9281 38.6815C77.1292 39.6697 77.6207 40.5766 78.3406 41.2878C79.0605 41.999 79.9765 42.4826 80.9731 42.6776C81.9696 42.8725 83.002 42.7701 83.94 42.3832C84.8779 41.9963 85.6794 41.3423 86.2432 40.5037C86.807 39.6651 87.1079 38.6796 87.1079 37.6714C87.1178 36.9966 86.9907 36.3267 86.7343 35.7017C86.478 35.0766 86.0975 34.5091 85.6156 34.033C85.1337 33.5569 84.5601 33.182 83.9292 32.9304C83.2983 32.6789 82.6228 32.556 81.9429 32.5689V32.5689ZM81.9429 40.7689C81.3183 40.8123 80.6949 40.6681 80.1539 40.3552C79.6129 40.0423 79.1792 39.575 78.9093 39.0142C78.6394 38.4534 78.5457 37.8249 78.6404 37.2106C78.7351 36.5962 79.0138 36.0243 79.4403 35.5692C79.8668 35.1142 80.4213 34.797 81.0318 34.6589C81.6424 34.5208 82.2806 34.5682 82.8637 34.7949C83.4467 35.0216 83.9475 35.4172 84.3011 35.9302C84.6546 36.4432 84.8444 37.0499 84.846 37.6714C84.8654 38.0652 84.8053 38.4589 84.669 38.8293C84.5328 39.1997 84.3232 39.5392 84.0526 39.8279C83.7821 40.1166 83.456 40.3486 83.0937 40.5102C82.7313 40.6718 82.3401 40.7598 81.9429 40.7689ZM70.6816 32.5689C69.6654 32.5713 68.6727 32.8726 67.8289 33.4347C66.9851 33.9968 66.3281 34.7945 65.9408 35.7271C65.5536 36.6596 65.4535 37.6852 65.6532 38.6742C65.8529 39.6632 66.3435 40.5713 67.0629 41.2836C67.7824 41.996 68.6984 42.4808 69.6953 42.6767C70.6921 42.8726 71.7252 42.7709 72.6638 42.3844C73.6025 41.9978 74.4046 41.3438 74.969 40.505C75.5333 39.6661 75.8345 38.6801 75.8345 37.6714C75.8444 36.9966 75.7173 36.3267 75.4609 35.7017C75.2046 35.0766 74.8241 34.5091 74.3422 34.033C73.8603 33.5569 73.2868 33.182 72.6558 32.9304C72.0249 32.6789 71.3494 32.556 70.6695 32.5689H70.6816ZM70.6816 40.7689C70.0567 40.8147 69.4323 40.6727 68.8898 40.3614C68.3473 40.0501 67.9118 39.5838 67.6399 39.0234C67.3681 38.4629 67.2726 37.8343 67.3658 37.2192C67.459 36.6041 67.7366 36.0311 68.1624 35.5748C68.5883 35.1185 69.1427 34.8 69.7535 34.6609C70.3643 34.5217 71.0031 34.5682 71.5868 34.7944C72.1706 35.0207 72.6722 35.4161 73.0264 35.9292C73.3805 36.4423 73.5709 37.0494 73.5726 37.6714C73.5921 38.0652 73.5319 38.4589 73.3956 38.8293C73.2594 39.1997 73.0498 39.5392 72.7792 39.8279C72.5087 40.1166 72.1826 40.3486 71.8203 40.5102C71.458 40.6718 71.0667 40.7598 70.6695 40.7689H70.6816ZM57.2673 34.1417V36.3027H62.4927C62.4108 37.3206 61.9845 38.2811 61.2831 39.0281C60.7603 39.5566 60.1319 39.9707 59.4381 40.2436C58.7444 40.5166 58.0008 40.6423 57.2552 40.6129C55.7153 40.6129 54.2385 40.0057 53.1497 38.925C52.0608 37.8442 51.4491 36.3784 51.4491 34.85C51.4491 33.3216 52.0608 31.8558 53.1497 30.7751C54.2385 29.6944 55.7153 29.0872 57.2552 29.0872C58.7282 29.0634 60.1506 29.6203 61.2105 30.636L62.7467 29.1112C62.0312 28.3921 61.1776 27.8228 60.2363 27.4372C59.2951 27.0515 58.2855 26.8573 57.2673 26.8661C56.1919 26.8246 55.1192 26.9989 54.1134 27.3787C53.1076 27.7585 52.1894 28.336 51.4138 29.0764C50.6382 29.8169 50.0211 30.7051 49.5997 31.6879C49.1782 32.6707 48.9609 33.7279 48.9609 34.796C48.9609 35.8641 49.1782 36.9213 49.5997 37.9041C50.0211 38.8869 50.6382 39.7751 51.4138 40.5156C52.1894 41.2561 53.1076 41.8335 54.1134 42.2133C55.1192 42.5931 56.1919 42.7674 57.2673 42.7259C58.3026 42.7723 59.336 42.5981 60.2978 42.215C61.2597 41.8319 62.1277 41.2487 62.8435 40.5048C64.1107 39.1228 64.7874 37.3061 64.7304 35.4383C64.7344 34.9833 64.6938 34.5289 64.6095 34.0816L57.2673 34.1417ZM112.074 35.8225C111.758 34.9013 111.169 34.097 110.382 33.516C109.596 32.935 108.651 32.6047 107.671 32.5689C107.009 32.5676 106.354 32.7011 105.747 32.9609C105.139 33.2208 104.592 33.6017 104.138 34.0799C103.685 34.5581 103.335 35.1236 103.11 35.7413C102.886 36.3591 102.791 37.016 102.833 37.6714C102.818 38.3424 102.94 39.0095 103.19 39.6328C103.441 40.2561 103.816 40.8228 104.293 41.2991C104.769 41.7754 105.337 42.1514 105.964 42.4048C106.59 42.6582 107.261 42.7838 107.937 42.7739C108.783 42.7784 109.617 42.5746 110.364 42.1807C111.112 41.7868 111.749 41.2151 112.219 40.5168L110.465 39.3162C110.203 39.7494 109.833 40.1076 109.39 40.356C108.946 40.6043 108.446 40.7342 107.937 40.7329C107.413 40.7527 106.895 40.6156 106.451 40.3394C106.007 40.0632 105.656 39.6607 105.445 39.1842L112.328 36.3628L112.074 35.8225ZM105.058 37.5273C105.034 37.156 105.084 36.7835 105.206 36.4317C105.329 36.0799 105.521 35.7559 105.771 35.4786C106.021 35.2014 106.324 34.9764 106.663 34.8169C107.002 34.6574 107.369 34.5667 107.744 34.5499C108.134 34.5244 108.523 34.6132 108.863 34.8053C109.202 34.9974 109.478 35.2843 109.655 35.6304L105.058 37.5273ZM99.4699 42.4738H101.732V27.4664H99.4699V42.4738ZM95.7686 33.7095H95.6839C95.343 33.3312 94.9254 33.0286 94.4585 32.8217C93.9915 32.6148 93.4858 32.5082 92.9744 32.5089C91.6526 32.5725 90.406 33.1385 89.4932 34.0896C88.5803 35.0406 88.0711 36.3038 88.0711 37.6174C88.0711 38.931 88.5803 40.1942 89.4932 41.1452C90.406 42.0963 91.6526 42.6623 92.9744 42.7259C93.487 42.7344 93.9952 42.6314 94.4634 42.424C94.9315 42.2165 95.3481 41.9098 95.6839 41.5253H95.7565V42.2577C95.7565 44.2146 94.7041 45.2591 93.0107 45.2591C92.4467 45.246 91.8994 45.0666 91.4384 44.7438C90.9774 44.421 90.6237 43.9693 90.4222 43.4462L88.4505 44.2626C88.8217 45.1587 89.4541 45.9243 90.2666 46.4612C91.0791 46.9981 92.0346 47.2819 93.0107 47.2761C95.6597 47.2761 97.8491 45.7274 97.8491 41.9575V32.8691H95.7686V33.7095ZM93.1801 40.7689C92.3998 40.7007 91.6736 40.3448 91.1446 39.7714C90.6156 39.1981 90.3222 38.4489 90.3222 37.6714C90.3222 36.894 90.6156 36.1447 91.1446 35.5714C91.6736 34.998 92.3998 34.6421 93.1801 34.5739C93.5669 34.5936 93.9459 34.69 94.2946 34.8573C94.6434 35.0246 94.9549 35.2595 95.2108 35.5482C95.4667 35.8368 95.6617 36.1734 95.7845 36.538C95.9073 36.9027 95.9554 37.2881 95.9258 37.6714C95.9588 38.0564 95.9128 38.4441 95.7905 38.811C95.6683 39.1778 95.4723 39.5163 95.2145 39.8058C94.9567 40.0954 94.6425 40.33 94.2907 40.4955C93.9389 40.6611 93.557 40.7541 93.168 40.7689H93.1801ZM122.67 27.4664H117.263V42.4738H119.525V36.783H122.682C123.327 36.8289 123.974 36.7426 124.583 36.5293C125.193 36.3161 125.752 35.9804 126.225 35.5434C126.698 35.1063 127.075 34.5772 127.333 33.989C127.591 33.4008 127.724 32.7662 127.724 32.1247C127.724 31.4832 127.591 30.8486 127.333 30.2604C127.075 29.6722 126.698 29.1431 126.225 28.706C125.752 28.269 125.193 27.9333 124.583 27.7201C123.974 27.5068 123.327 27.4204 122.682 27.4664H122.67ZM122.67 34.6699H119.513V29.5554H122.718C123.406 29.5554 124.066 29.8268 124.553 30.3097C125.04 30.7927 125.313 31.4477 125.313 32.1307C125.313 32.8137 125.04 33.4687 124.553 33.9517C124.066 34.4346 123.406 34.706 122.718 34.706L122.67 34.6699ZM136.616 32.5089C135.793 32.46 134.973 32.651 134.258 33.0584C133.542 33.4658 132.962 34.0718 132.589 34.802L134.596 35.6304C134.794 35.2683 135.094 34.971 135.459 34.7749C135.824 34.5788 136.239 34.4923 136.653 34.5259C136.94 34.4926 137.231 34.5164 137.509 34.5959C137.786 34.6754 138.045 34.809 138.271 34.9889C138.496 35.1689 138.683 35.3915 138.82 35.6439C138.958 35.8962 139.043 36.1733 139.072 36.4588V36.6149C138.345 36.2331 137.535 36.0352 136.713 36.0386C134.548 36.0386 132.359 37.2392 132.359 39.4123C132.38 39.8756 132.495 40.33 132.696 40.7486C132.898 41.1672 133.181 41.5414 133.531 41.8492C133.881 42.157 134.289 42.3921 134.731 42.5407C135.174 42.6892 135.642 42.7481 136.108 42.7139C136.678 42.7545 137.248 42.6421 137.759 42.3886C138.27 42.1351 138.702 41.7498 139.011 41.2732H139.084V42.4738H141.261V36.6989C141.261 34.0696 139.253 32.5449 136.677 32.5449L136.616 32.5089ZM136.338 40.7329C135.6 40.7329 134.572 40.3607 134.572 39.4603C134.572 38.2597 135.854 37.8635 136.991 37.8635C137.71 37.8459 138.42 38.0201 139.048 38.3678C138.972 39.0178 138.662 39.6187 138.176 40.06C137.689 40.5012 137.058 40.753 136.399 40.7689L136.338 40.7329ZM149.196 32.8691L146.608 39.3762H146.535L143.85 32.8691H141.431L145.459 41.9695L143.16 47.024H145.519L151.712 32.8691H149.196ZM128.863 42.4738H131.125V27.4664H128.863V42.4738Z" fill="white"/>
<path d="M56.8075 18.8249C56.8281 19.2653 56.7583 19.7052 56.6023 20.118C56.4464 20.5307 56.2076 20.9077 55.9003 21.2261C55.5573 21.5798 55.143 21.8577 54.6845 22.0419C54.226 22.226 53.7335 22.3121 53.2392 22.2946C52.4893 22.2888 51.7577 22.0634 51.1362 21.6467C50.5148 21.23 50.031 20.6406 49.7456 19.9522C49.4601 19.2638 49.3857 18.5071 49.5317 17.7769C49.6776 17.0467 50.0375 16.3756 50.566 15.8475C50.9135 15.4954 51.3299 15.2179 51.7898 15.032C52.2496 14.8462 52.7429 14.756 53.2392 14.7669C53.7506 14.7652 54.2569 14.8674 54.727 15.0671C55.1647 15.2423 55.5544 15.518 55.8641 15.8715L55.223 16.5078C54.9816 16.2228 54.6767 15.9974 54.3324 15.8494C53.9881 15.7015 53.6139 15.6351 53.2392 15.6554C52.8614 15.6535 52.4871 15.7274 52.1388 15.8727C51.7904 16.0179 51.4752 16.2314 51.212 16.5005C50.9488 16.7696 50.7431 17.0886 50.6072 17.4385C50.4712 17.7884 50.4079 18.162 50.4209 18.5368C50.413 19.0964 50.5722 19.6458 50.8785 20.1158C51.1848 20.5857 51.6245 20.955 52.1421 21.1772C52.6596 21.3994 53.2319 21.4644 53.7866 21.3642C54.3414 21.2639 54.8538 21.0028 55.2593 20.6138C55.6315 20.2134 55.8461 19.6936 55.8641 19.1491H53.2392V18.2847H56.7592C56.7914 18.463 56.8076 18.6438 56.8075 18.8249ZM62.3475 15.8235H59.0816V18.1046H62.0572V18.969H59.0816V21.2501H62.3475V22.1385H58.1139V14.935H62.3475V15.8235ZM66.3149 22.1385H65.3836V15.8235H63.3514V14.935H68.3954V15.8235H66.3149V22.1385ZM71.9516 22.1385V14.935H72.883V22.1385H71.9516ZM77.0198 22.1385H76.0884V15.8235H74.0563V14.935H79.0398V15.8235H77.0198V22.1385ZM88.4868 21.2021C87.7796 21.9 86.8229 22.2918 85.8257 22.2918C84.8284 22.2918 83.8717 21.9 83.1646 21.2021C82.4772 20.48 82.0943 19.5242 82.0943 18.5308C82.0943 17.5374 82.4772 16.5816 83.1646 15.8595C83.5131 15.511 83.9277 15.2344 84.3844 15.0457C84.8411 14.8569 85.3309 14.7598 85.8257 14.7598C86.3204 14.7598 86.8102 14.8569 87.2669 15.0457C87.7236 15.2344 88.1382 15.511 88.4868 15.8595C89.1768 16.5802 89.5616 17.5365 89.5616 18.5308C89.5616 19.5251 89.1768 20.4813 88.4868 21.2021ZM83.854 20.6018C84.3777 21.1194 85.0866 21.41 85.8257 21.41C86.5647 21.41 87.2736 21.1194 87.7973 20.6018C88.3141 20.0363 88.6003 19.3002 88.6003 18.5368C88.6003 17.7733 88.3141 17.0372 87.7973 16.4718C87.2736 15.9542 86.5647 15.6636 85.8257 15.6636C85.0866 15.6636 84.3777 15.9542 83.854 16.4718C83.3372 17.0372 83.051 17.7733 83.051 18.5368C83.051 19.3002 83.3372 20.0363 83.854 20.6018ZM90.8697 22.1385V14.935H92.0067L95.5387 20.5418V14.935H96.4701V22.1385H95.5024L91.8131 16.2677V22.1385H90.8697Z" fill="white"/>
<path fill-rule="evenodd" clip-rule="evenodd" d="M85.8257 14.8798C85.3469 14.8798 84.8729 14.9739 84.4309 15.1565C83.9894 15.339 83.5885 15.6063 83.2515 15.943C82.586 16.6427 82.2153 17.5685 82.2153 18.5308C82.2153 19.4929 82.5859 20.4186 83.2512 21.1183C83.9355 21.793 84.861 22.1718 85.8257 22.1718C86.7904 22.1718 87.7159 21.793 88.4003 21.1181C89.0682 20.4199 89.4406 19.4937 89.4406 18.5308C89.4406 17.5677 89.0681 16.6415 88.4 15.9432C88.0629 15.6063 87.662 15.339 87.2204 15.1565C86.7784 14.9739 86.3044 14.8798 85.8257 14.8798ZM84.3379 14.9348C84.8093 14.74 85.315 14.6397 85.8257 14.6397C86.3363 14.6397 86.842 14.74 87.3134 14.9348C87.7849 15.1297 88.2128 15.4152 88.5726 15.7749L88.5745 15.7767C89.2859 16.5198 89.6825 17.5057 89.6825 18.5308C89.6825 19.5558 89.2859 20.5417 88.5744 21.2848L88.5721 21.2873C87.8423 22.0076 86.8549 22.4119 85.8257 22.4119C84.7964 22.4119 83.8091 22.0075 83.0793 21.2872L83.0766 21.2846C82.368 20.5402 81.9733 19.5549 81.9733 18.5308C81.9733 17.5067 82.3681 16.5214 83.0766 15.777L83.0787 15.7749C83.4385 15.4151 83.8664 15.1297 84.3379 14.9348ZM53.2366 14.887C52.7567 14.8763 52.2799 14.9636 51.8354 15.1432C51.3909 15.3229 50.9883 15.5912 50.6525 15.9315L50.6519 15.9321C50.1401 16.4434 49.7917 17.0933 49.6503 17.8003C49.509 18.5073 49.5811 19.2399 49.8574 19.9065C50.1338 20.573 50.6022 21.1438 51.204 21.5472C51.8057 21.9507 52.514 22.1689 53.2402 22.1746L53.2436 22.1746C53.7209 22.1915 54.1964 22.1083 54.6392 21.9306C55.0819 21.7528 55.4819 21.4844 55.8131 21.143C56.1089 20.8364 56.3389 20.4733 56.4891 20.0758C56.6393 19.6783 56.7065 19.2546 56.6867 18.8305L56.8075 18.8249L56.6866 18.8249C56.6866 18.6842 56.6765 18.5438 56.6562 18.4047H53.3602V19.029H55.989L55.985 19.153C55.9661 19.7263 55.7401 20.2737 55.3482 20.6952L55.3435 20.7003C54.9209 21.1057 54.3866 21.3778 53.8083 21.4823C53.23 21.5868 52.6335 21.519 52.0941 21.2874C51.5546 21.0558 51.0963 20.6708 50.777 20.181C50.4582 19.692 50.2922 19.1204 50.2999 18.538C50.2867 18.148 50.3529 17.7594 50.4943 17.3953C50.6361 17.0304 50.8507 16.6976 51.1252 16.4169C51.3998 16.1362 51.7286 15.9135 52.0919 15.762C52.4542 15.6109 52.8434 15.5339 53.2362 15.5353C53.6284 15.5146 54.02 15.5844 54.3804 15.7393C54.7016 15.8773 54.9901 16.0795 55.2283 16.3327L55.6972 15.8673C55.4132 15.5678 55.0669 15.3326 54.6818 15.1784L54.6794 15.1775C54.2245 14.9842 53.7345 14.8854 53.2397 14.887L53.2366 14.887ZM56.9285 18.8222C56.9494 19.2778 56.877 19.733 56.7156 20.1601C56.5539 20.5881 56.3063 20.979 55.9877 21.3091C55.6329 21.675 55.2042 21.9627 54.7299 22.1532C54.2561 22.3434 53.7473 22.4325 53.2366 22.4147C52.4634 22.4083 51.7093 22.1758 51.0685 21.7462C50.4273 21.3163 49.9282 20.7081 49.6337 19.9979C49.3392 19.2876 49.2625 18.5069 49.4131 17.7536C49.5636 17.0003 49.9347 16.308 50.4799 15.7631C50.8389 15.3995 51.2691 15.1128 51.7441 14.9209C52.2188 14.729 52.728 14.6357 53.2404 14.6469C53.7673 14.6453 54.289 14.7506 54.7735 14.9562C55.2284 15.1386 55.6334 15.4252 55.9553 15.7927L56.0294 15.8772L55.2153 16.6852L55.1304 16.585C54.901 16.3143 54.6114 16.1001 54.2843 15.9596C53.9572 15.8191 53.6017 15.7559 53.2458 15.7752L53.2387 15.7756C52.8771 15.7739 52.5189 15.8444 52.1856 15.9834C51.8523 16.1223 51.5506 16.3267 51.2988 16.5841C51.047 16.8416 50.8501 17.1469 50.72 17.4817C50.5899 17.8166 50.5293 18.174 50.5418 18.5326L50.542 18.5385C50.5344 19.0744 50.6867 19.6005 50.9801 20.0505C51.2734 20.5005 51.6945 20.8542 52.1901 21.067C52.6857 21.2798 53.2337 21.3421 53.765 21.246C54.2951 21.1502 54.7848 20.9011 55.1727 20.5299C55.4955 20.1816 55.6926 19.7382 55.7355 19.2691H53.1183V18.1646H56.8603L56.8782 18.2634C56.9116 18.4478 56.9284 18.6348 56.9285 18.8222ZM57.9929 14.815H62.4684V15.9435H59.2025V17.9845H62.1781V19.0891H59.2025V21.1301H62.4684V22.2586H57.9929V14.815ZM58.2349 15.0551V22.0185H62.2265V21.3702H58.9606V18.8489H61.9362V18.2246H58.9606V15.7034H62.2265V15.0551H58.2349ZM63.2305 14.815H68.5164V15.9435H66.4359V22.2586H65.2626V15.9435H63.2305V14.815ZM63.4724 15.0551V15.7034H65.5045V22.0185H66.194V15.7034H68.2745V15.0551H63.4724ZM71.8307 14.815H73.004V22.2586H71.8307V14.815ZM72.0726 15.0551V22.0185H72.7621V15.0551H72.0726ZM73.9354 14.815H79.1608V15.9435H77.1408V22.2586H75.9675V15.9435H73.9354V14.815ZM74.1773 15.0551V15.7034H76.2094V22.0185H76.8989V15.7034H78.9189V15.0551H74.1773ZM90.7487 14.815H92.0737L95.4177 20.1233V14.815H96.591V22.2586H95.4353L91.9341 16.687V22.2586H90.7487V14.815ZM90.9906 15.0551V22.0185H91.6922V15.8483L95.5695 22.0185H96.3491V15.0551H95.6596V20.9602L91.9396 15.0551H90.9906ZM83.7687 16.3867C84.315 15.8467 85.0546 15.5435 85.8257 15.5435C86.5967 15.5435 87.3363 15.8467 87.8826 16.3867L87.887 16.391C88.424 16.9785 88.7213 17.7435 88.7213 18.5368C88.7213 19.33 88.4238 20.0949 87.8869 20.6825L87.8828 20.687C87.3364 21.227 86.5967 21.5301 85.8257 21.5301C85.0546 21.5301 84.315 21.2269 83.7687 20.6869L83.854 20.6018L83.7644 20.6825C83.2275 20.0949 82.93 19.33 82.93 18.5368C82.93 17.7435 83.2275 16.9786 83.7644 16.3911L83.7687 16.3867ZM83.9416 20.5189C84.4423 21.0127 85.1196 21.2899 85.8257 21.2899C86.5317 21.2899 87.209 21.0127 87.7098 20.5189C88.2051 19.9758 88.4794 19.2694 88.4794 18.5368C88.4794 17.8042 88.2051 17.0978 87.7098 16.5547C87.209 16.0608 86.5317 15.7836 85.8257 15.7836C85.1196 15.7836 84.4423 16.0608 83.9416 16.5547C83.4463 17.0978 83.1719 17.8042 83.1719 18.5368C83.1719 19.2694 83.4463 19.9758 83.9416 20.5189Z" fill="white"/>
<path d="M12.2157 45.7129L27.0339 30.4579L12.2281 15.2302C11.8326 15.4673 11.5879 16.0162 11.5879 16.7348V44.2229C11.5932 44.9414 11.8291 45.4502 12.2157 45.7129V45.7129Z" fill="white"/>
<path d="M27.5634 30.0369L31.9773 25.4923L14.0025 15.3454C13.6998 15.1643 13.356 15.0687 13.0059 15.0682L27.5616 30.035L27.5634 30.0369Z" fill="white"/>
<path d="M27.5647 30.881L12.9629 45.9135C13.3294 45.9198 13.6904 45.8213 14.0056 45.629L32.0159 35.4548L27.5647 30.881Z" fill="white"/>
<path d="M38.4926 29.1742L32.511 25.7913L27.9766 30.4599L32.5447 35.1577L38.4908 31.7839C39.7552 31.0672 39.7552 29.8873 38.4926 29.1742Z" fill="white"/>
<rect width="163.295" height="57.5121" rx="6.04796" stroke="white"/>
<defs>
<clipPath id="clip0_29_1227">
<rect x="185.914" y="1.04883" width="163.295" height="57.512" rx="6.04796" fill="white"/>
</clipPath>
</defs>
</svg>
