<svg width="78" height="78" viewBox="0 0 78 78" fill="none" xmlns="http://www.w3.org/2000/svg">
<g clip-path="url(#clip0_29_2871)">
<path d="M77.1784 15.9041L61.9446 0.669398C61.5161 0.240703 60.9348 0 60.3287 0H25.2891C21.509 0 18.4336 3.07536 18.4336 6.85547V36.9949C8.16471 38.1353 0.152344 46.8657 0.152344 57.4336C0.152344 68.7739 9.37843 78 20.7188 78H70.9922C74.7723 78 77.8477 74.9246 77.8477 71.1445V17.52C77.8477 16.9138 77.607 16.3328 77.1784 15.9041V15.9041ZM62.6133 7.80198L67.5782 12.767L70.0455 15.2344H62.6133V7.80198ZM4.72266 57.4336C4.72266 48.6133 11.8985 41.4375 20.7188 41.4375C29.539 41.4375 36.7148 48.6133 36.7148 57.4336C36.7148 66.2538 29.539 73.4297 20.7188 73.4297C11.8985 73.4297 4.72266 66.2538 4.72266 57.4336ZM70.9922 73.4297H33.6297C37.7374 70.1078 40.5445 65.2398 41.1576 59.7188H64.8984C66.1605 59.7188 67.1836 58.6956 67.1836 57.4336C67.1836 56.1716 66.1605 55.1484 64.8984 55.1484H41.1575C40.7849 51.7938 39.603 48.6801 37.8108 46.0078H64.8984C66.1605 46.0078 67.1836 44.9847 67.1836 43.7227C67.1836 42.4606 66.1605 41.4375 64.8984 41.4375H33.6297C30.6558 39.0326 27.0011 37.4388 23.0039 36.9949V6.85547C23.0039 5.59543 24.029 4.57031 25.2891 4.57031H58.043V17.5195C58.043 18.7815 59.0661 19.8047 60.3281 19.8047H73.2773V71.1445C73.2773 72.4046 72.2522 73.4297 70.9922 73.4297V73.4297Z" fill="#222222"/>
<path d="M64.8965 27.7263H31.3809C30.1188 27.7263 29.0957 28.7495 29.0957 30.0115C29.0957 31.2735 30.1188 32.2966 31.3809 32.2966H64.8965C66.1585 32.2966 67.1816 31.2735 67.1816 30.0115C67.1816 28.7495 66.1585 27.7263 64.8965 27.7263Z" fill="#222222"/>
<path d="M29.7994 51.7049C28.9072 50.8126 27.4602 50.8126 26.5678 51.7049L17.5196 60.753L14.5651 57.7984C13.6728 56.9062 12.2258 56.9062 11.3334 57.7984C10.441 58.6907 10.441 60.1377 11.3334 61.0301L15.9037 65.6004C16.3499 66.0466 16.9348 66.2698 17.5196 66.2698C18.1045 66.2698 18.6893 66.0466 19.1354 65.6004L29.7994 54.9364C30.6919 54.0441 30.6919 52.5971 29.7994 51.7049V51.7049Z" fill="#222222"/>
</g>
<defs>
<clipPath id="clip0_29_2871">
<rect width="78" height="78" fill="white"/>
</clipPath>
</defs>
</svg>
