<svg width="78" height="78" viewBox="0 0 78 78" fill="none" xmlns="http://www.w3.org/2000/svg">
<g clip-path="url(#clip0_29_2823)">
<path d="M17.8221 14.3916C18.4531 14.3916 18.9646 13.88 18.9646 13.249C18.9646 12.618 18.4531 12.1064 17.8221 12.1064C17.1911 12.1064 16.6795 12.618 16.6795 13.249C16.6795 13.88 17.1909 14.3916 17.8221 14.3916ZM8.68143 14.3916C9.31244 14.3916 9.82401 13.88 9.82401 13.249C9.82401 12.618 9.31244 12.1064 8.68143 12.1064C8.05043 12.1064 7.53886 12.618 7.53886 13.249C7.53886 13.88 8.05027 14.3916 8.68143 14.3916ZM13.2517 14.3916C13.8828 14.3916 14.3943 13.88 14.3943 13.249C14.3943 12.618 13.8828 12.1064 13.2517 12.1064C12.6207 12.1064 12.1092 12.618 12.1092 13.249C12.1092 13.88 12.6206 14.3916 13.2517 14.3916ZM13.0011 26.4958C13.0081 26.4959 13.0152 26.4959 13.0222 26.4959L23.3524 26.4985H23.3531C24.0668 26.4985 24.6727 26.0362 24.8611 25.3479C25.0497 24.6593 24.7634 23.9525 24.1492 23.5892L22.5781 22.6596C25.1033 20.1567 26.5236 16.7418 26.5011 13.1639C26.4558 6.00858 20.5994 0.103893 13.4463 0.000908594C6.034 -0.10558 0.00195312 5.89021 0.00195312 13.2493C0.00195312 20.3064 5.81661 26.343 13.0011 26.4958V26.4958ZM5.55488 5.44019C7.6618 3.36344 10.4466 2.24447 13.4135 2.28576C19.3325 2.37092 24.1784 7.25719 24.2159 13.1782C24.2362 16.3727 22.8663 19.4106 20.4575 21.5126C20.0547 21.8639 19.8437 22.3912 19.8924 22.923C19.9412 23.4545 20.2448 23.9341 20.7041 24.2057L20.7155 24.2124L13.0334 24.2106C7.09477 24.0967 2.28711 19.2043 2.28711 13.2493C2.28711 10.2907 3.44766 7.5174 5.55488 5.44019V5.44019ZM76.8594 75.7144H75.7168V58.6991C75.7168 54.2412 73.0826 50.1931 68.9931 48.3804L62.9716 45.7996C64.4368 45.3372 65.7605 44.5127 66.8376 43.3691C68.4626 41.6438 69.3945 39.3027 69.3945 36.9461C69.3945 34.7807 68.638 32.7368 67.2064 31.035C65.4158 28.9087 64.4296 26.2065 64.4296 23.4256V17.9504C64.4296 13.1549 62.5621 8.64733 59.1712 5.25814C55.7803 1.86697 51.2723 -0.0004625 46.4775 -0.0004625C36.5794 -0.0004625 28.5268 8.05212 28.5268 17.9502V23.2472C28.5274 26.1247 27.3966 28.8713 25.559 31.0853C23.2463 33.8716 22.7658 37.639 24.3052 40.9169C25.4478 43.3502 27.5087 45.0983 29.9759 45.8383L23.9964 48.4385C19.8013 50.2038 17.0905 54.2853 17.0905 58.8364V72.2868C17.0905 72.9178 17.6019 73.4294 18.2331 73.4294C18.8642 73.4294 19.3757 72.9178 19.3757 72.2868V58.8364C19.3757 55.2072 21.5373 51.9524 24.8952 50.5394L32.3902 47.2802V54.1577H28.9468C27.9764 54.1577 27.0475 54.5715 26.3984 55.293C25.7494 56.0145 25.4359 56.9817 25.5383 57.9467L27.4217 75.7144H1.14453C0.513371 75.7144 0.00195313 76.226 0.00195313 76.857C0.00195313 77.488 0.513371 77.9995 1.14453 77.9995H76.8594C77.4905 77.9995 78.002 77.488 78.002 76.857C78.002 76.226 77.4905 75.7144 76.8594 75.7144V75.7144ZM65.4581 32.5063C66.5384 33.7906 67.1094 35.3258 67.1094 36.9459C67.1094 38.7264 66.404 40.4963 65.1742 41.8022C63.8719 43.1847 62.0829 43.9461 60.1368 43.9461H58.6477L56.6918 43.1078C54.9833 42.375 53.8145 40.8042 53.5756 38.996C57.101 37.0978 59.503 33.3724 59.503 29.0957V20.5061C59.8374 20.5288 60.1715 20.5411 60.5047 20.5411C61.0542 20.5411 61.6015 20.5099 62.1446 20.4483V23.4254C62.1445 26.7441 63.3215 29.9692 65.4581 32.5063V32.5063ZM46.7552 50.544C42.6676 50.6164 38.6109 50.0984 34.6754 49.0068V46.2864L35.0058 46.1428C35.0084 46.1417 35.011 46.1405 35.0137 46.1394L37.0521 45.2531C39.3211 44.2667 40.9245 42.2463 41.4107 39.8853C42.4056 40.1746 43.4557 40.3327 44.5428 40.3327H48.266C49.3572 40.3327 50.4113 40.1733 51.4096 39.8819C51.9117 42.2321 53.5212 44.2344 55.7913 45.2082L57.9668 46.1405C57.9681 46.1411 57.9695 46.1417 57.9709 46.1422L58.1321 46.2112V48.7823C54.4342 49.884 50.6113 50.4767 46.7552 50.544V50.544ZM58.1318 51.1613V54.1579H34.6754V51.3731C38.3795 52.3442 42.1826 52.8357 46.0114 52.8357C46.2726 52.8357 46.5338 52.8334 46.7951 52.8288C50.6326 52.7618 54.4388 52.201 58.1318 51.1613V51.1613ZM62.1445 18.1443C58.9972 18.5695 55.4496 17.7264 53.0054 15.8326C52.5068 15.4463 51.7891 15.5371 51.4024 16.036C51.0159 16.5348 51.107 17.2525 51.6058 17.639C53.2037 18.8769 55.131 19.7489 57.2178 20.1886V26.4089C56.6688 27.6603 56.0576 28.7009 54.6796 29.8377C54.0995 30.3164 53.4646 30.7139 52.7845 31.0292C52.2292 29.9456 51.1014 29.2019 49.8025 29.2019H47.1249C45.2781 29.2019 43.7756 30.7044 43.7756 32.5511C43.7756 34.3978 45.2781 35.9004 47.1249 35.9004H49.8025C51.3567 35.9004 52.6669 34.8361 53.043 33.3983C54.5715 32.8159 57.0637 30.7382 57.0643 30.7375C56.2905 34.8914 52.641 38.0469 48.2661 38.0469H44.5427C39.6068 38.0469 35.591 34.0313 35.591 29.0952V20.2632C39.4716 19.6549 43.1378 18.3417 46.5 16.353C51.6194 13.3249 54.9031 9.36792 56.8848 6.24167C60.2755 9.26158 62.2044 13.591 62.1445 18.1443V18.1443ZM50.8663 32.5543C50.8647 33.1398 50.3881 33.6156 49.8024 33.6156H47.1248C46.5379 33.6156 46.0607 33.1381 46.0607 32.5514C46.0607 31.9648 46.5381 31.4873 47.1248 31.4873H49.8024C50.388 31.4873 50.8644 31.9628 50.8663 32.5479V32.5543ZM30.812 17.9502C30.812 9.31216 37.8394 2.28469 46.4775 2.28469C49.5754 2.28469 52.5357 3.17895 55.0654 4.84376C53.2417 7.76709 50.1721 11.5263 45.3366 14.3867C42.0193 16.3489 38.3805 17.6016 34.5211 18.1102H34.4498C34.4493 18.1102 34.4489 18.1102 34.4482 18.1102C34.4476 18.1102 34.4473 18.1102 34.4467 18.1102H30.8118V17.9502H30.812ZM26.3734 39.9456C25.2148 37.4779 25.5765 34.642 27.316 32.5464C29.4986 29.9168 30.8144 26.6676 30.812 23.2472V20.3953H33.3058V29.0957C33.3058 33.3749 35.7109 37.1021 39.2395 38.9992C39.0187 40.8211 37.8534 42.4126 36.1408 43.1573L34.3267 43.9461H32.6705C29.9451 43.9461 27.5323 42.4133 26.3734 39.9456V39.9456ZM66.1484 57.706L64.2394 75.7144H29.7196L27.8106 57.706C27.776 57.3795 27.8778 57.0654 28.0973 56.8215C28.3169 56.5774 28.6187 56.4431 28.9468 56.4431H65.0122C65.3404 56.4431 65.6422 56.5774 65.8617 56.8215C66.0812 57.0654 66.183 57.3795 66.1484 57.706ZM73.4316 75.7144H66.5373L68.4208 57.947C68.5231 56.9819 68.2095 56.0147 67.5606 55.2932C66.9115 54.5717 65.9828 54.1579 65.0122 54.1579H60.4169V47.1908L68.08 50.4751C71.331 51.9163 73.4316 55.1443 73.4316 58.6991V75.7144ZM46.9794 61.7368C44.5854 61.7368 42.6376 63.6846 42.6376 66.0786C42.6376 68.4727 44.5854 70.4204 46.9794 70.4204C49.3735 70.4204 51.3212 68.4727 51.3212 66.0786C51.3212 63.6846 49.3735 61.7368 46.9794 61.7368ZM46.9794 68.1353C45.8454 68.1353 44.9228 67.2127 44.9228 66.0786C44.9228 64.9446 45.8454 64.022 46.9794 64.022C48.1135 64.022 49.0361 64.9446 49.0361 66.0786C49.0361 67.2127 48.1136 68.1353 46.9794 68.1353Z" fill="#222222"/>
</g>
<defs>
<clipPath id="clip0_29_2823">
<rect width="78" height="78" fill="white"/>
</clipPath>
</defs>
</svg>
