<svg width="108" height="109" viewBox="0 0 108 109" fill="none" xmlns="http://www.w3.org/2000/svg">
<g filter="url(#filter0_d_29_2161)">
<rect x="14" y="5" width="80" height="80" rx="40" fill="white"/>
<g clip-path="url(#clip0_29_2161)">
<path d="M42.0354 59.2816C41.9035 59.1496 41.7204 59.0737 41.5338 59.0737C41.3472 59.0737 41.1641 59.1496 41.0321 59.2816C40.9001 59.4137 40.8242 59.5967 40.8242 59.7833C40.8242 59.9699 40.9001 60.153 41.0321 60.2849C41.1641 60.4169 41.3472 60.4929 41.5338 60.4929C41.7204 60.4929 41.9035 60.417 42.0354 60.2849C42.1674 60.153 42.2434 59.9699 42.2434 59.7833C42.2434 59.5967 42.1675 59.4136 42.0354 59.2816Z" fill="#222222"/>
<path d="M69.3148 39.981C69.1828 39.8489 69.0004 39.7731 68.8131 39.7731C68.6265 39.7731 68.4434 39.8489 68.3114 39.981C68.1795 40.113 68.1035 40.296 68.1035 40.4827C68.1035 40.6693 68.1794 40.8524 68.3114 40.9843C68.4434 41.1163 68.6265 41.1923 68.8131 41.1923C69.0004 41.1923 69.1828 41.1163 69.3148 40.9843C69.4474 40.8524 69.5233 40.6693 69.5233 40.4827C69.5233 40.296 69.4474 40.113 69.3148 39.981Z" fill="#222222"/>
<path d="M72.1203 27.2078C71.9872 27.0748 71.8066 27 71.6184 27L54.1629 27.0009C53.7711 27.0009 53.4534 27.3186 53.4534 27.7105V29.7397L46.7273 31.542C46.3487 31.6435 46.124 32.0325 46.2255 32.411L49.7115 45.4208L46.6958 48.4365C46.312 47.876 45.6676 47.5075 44.9386 47.5075H38.1267C36.9529 47.5075 35.998 48.4624 35.998 49.6362V61.2022C35.998 62.376 36.9529 63.331 38.1267 63.331H44.9387C45.9359 63.331 46.7747 62.6415 47.0046 61.7145L47.8483 62.4503C48.4997 63.0182 49.3341 63.331 50.1984 63.331H71.6185C72.0104 63.331 72.3281 63.0133 72.3281 62.6214V27.7096C72.328 27.5214 72.2533 27.3409 72.1203 27.2078ZM45.6481 61.2023C45.6481 61.5935 45.3298 61.9119 44.9385 61.9119H38.1267C37.7354 61.9119 37.4171 61.5935 37.4171 61.2023V49.6362C37.4171 49.245 37.7354 48.9266 38.1267 48.9266H40.823V57.1008C40.823 57.4926 41.1408 57.8104 41.5326 57.8104C41.9245 57.8104 42.2422 57.4926 42.2422 57.1008V48.9266H44.9386C45.3299 48.9266 45.6482 49.245 45.6482 49.6362V61.2023H45.6481ZM47.7799 32.7291L53.4534 31.2089V33.8383L52.9778 33.9657C52.796 34.0145 52.641 34.1333 52.547 34.2963C52.4529 34.4593 52.4273 34.653 52.4761 34.8348C52.7488 35.8524 52.1427 36.9021 51.1251 37.1748C50.9431 37.2236 50.7879 37.3427 50.6939 37.506C50.5998 37.6693 50.5745 37.8633 50.6237 38.0452L53.3896 48.2873H51.9654L51.2315 45.416C51.2082 45.3246 51.1673 45.2404 51.1126 45.1672L47.7799 32.7291ZM53.4534 37.0924V43.08L52.1592 38.2878C52.6998 38.0086 53.1422 37.591 53.4534 37.0924ZM63.6476 61.9118H50.1982C49.677 61.9118 49.1737 61.7232 48.7809 61.3807L47.0673 59.8862V50.0721L50.1652 46.9741L50.7271 49.1725C50.8074 49.4866 51.0903 49.7063 51.4145 49.7063L65.3653 49.7071C65.9131 49.7071 66.3588 50.1527 66.3588 50.7006C66.3588 51.2484 65.9131 51.694 65.3653 51.694H58.2169C57.8251 51.694 57.5073 52.0117 57.5073 52.4036C57.5073 52.7954 57.8251 53.1132 58.2169 53.1132H67.5864C68.1342 53.1132 68.5798 53.5588 68.5798 54.1066C68.5798 54.6544 68.1342 55.1 67.5864 55.1H58.2169C57.8251 55.1 57.5073 55.4178 57.5073 55.8096C57.5073 56.2014 57.8251 56.5192 58.2169 56.5192H66.068C66.6159 56.5192 67.0615 56.9648 67.0615 57.5126C67.0615 58.0604 66.6159 58.506 66.068 58.506H58.2169C57.8251 58.506 57.5073 58.8238 57.5073 59.2156C57.5073 59.6075 57.8251 59.9252 58.2169 59.9252H63.6476C64.1954 59.9252 64.6411 60.3708 64.6411 60.9186C64.641 61.4662 64.1954 61.9118 63.6476 61.9118ZM70.9089 61.9118H70.9089H65.8453C65.9829 61.6086 66.0602 61.2724 66.0602 60.9184C66.0602 60.5643 65.9829 60.2281 65.8453 59.9249H66.068C67.3983 59.9249 68.4806 58.8427 68.4806 57.5124C68.4806 57.1244 68.388 56.7578 68.2245 56.4326C69.246 56.152 69.9988 55.2157 69.9988 54.1064C69.9988 53.5683 69.8216 53.0708 69.5226 52.6692V43.6758C69.5226 43.284 69.2049 42.9662 68.813 42.9662C68.4212 42.9662 68.1034 43.284 68.1034 43.6758V51.7504C67.9367 51.7138 67.7638 51.694 67.5862 51.694H67.5629C67.7005 51.3908 67.7778 51.0546 67.7778 50.7006C67.7778 49.3702 66.6955 48.288 65.3653 48.288H64.2246C65.4358 47.7686 66.2865 46.5647 66.2865 45.1655C66.2865 43.2929 64.7631 41.7695 62.8906 41.7695C61.0181 41.7695 59.4947 43.2929 59.4947 45.1655C59.4947 46.5647 60.3454 47.7686 61.5565 48.288H57.6777V34.7957C58.9453 34.5195 59.9456 33.5193 60.2217 32.2516H65.5593C65.8355 33.5193 66.8358 34.5195 68.1034 34.7957V37.0019C68.1034 37.3937 68.4211 37.7114 68.813 37.7114C69.2048 37.7114 69.5225 37.3937 69.5225 37.0019V34.1622C69.5225 33.7704 69.2048 33.4526 68.813 33.4526C67.7594 33.4526 66.9025 32.5955 66.9025 31.5421C66.9025 31.1502 66.5847 30.8325 66.1929 30.8325H59.5883C59.1965 30.8325 58.8787 31.1502 58.8787 31.5421C58.8787 32.5956 58.0217 33.4526 56.9682 33.4526C56.5764 33.4526 56.2586 33.7704 56.2586 34.1622V48.2879H54.8726V28.4199L70.9089 28.4191V61.9118ZM62.8907 47.1422C61.8007 47.1422 60.914 46.2555 60.914 45.1655C60.914 44.0756 61.8008 43.1888 62.8907 43.1888C63.9806 43.1888 64.8674 44.0755 64.8674 45.1655C64.8674 46.2554 63.9807 47.1422 62.8907 47.1422Z" fill="#222222"/>
</g>
</g>
<defs>
<filter id="filter0_d_29_2161" x="0.336127" y="0.685092" width="107.328" height="107.328" filterUnits="userSpaceOnUse" color-interpolation-filters="sRGB">
<feFlood flood-opacity="0" result="BackgroundImageFix"/>
<feColorMatrix in="SourceAlpha" type="matrix" values="0 0 0 0 0 0 0 0 0 0 0 0 0 0 0 0 0 0 127 0" result="hardAlpha"/>
<feOffset dy="9.34896"/>
<feGaussianBlur stdDeviation="6.83194"/>
<feColorMatrix type="matrix" values="0 0 0 0 1 0 0 0 0 0.772549 0 0 0 0 0.396078 0 0 0 0.07 0"/>
<feBlend mode="normal" in2="BackgroundImageFix" result="effect1_dropShadow_29_2161"/>
<feBlend mode="normal" in="SourceGraphic" in2="effect1_dropShadow_29_2161" result="shape"/>
</filter>
<clipPath id="clip0_29_2161">
<rect width="36.331" height="36.331" fill="white" transform="translate(36 27)"/>
</clipPath>
</defs>
</svg>
