<svg width="108" height="109" viewBox="0 0 108 109" fill="none" xmlns="http://www.w3.org/2000/svg">
<g filter="url(#filter0_d_29_2183)">
<rect x="14" y="5" width="80" height="80" rx="40" fill="white"/>
<path d="M68.68 55.8632H67.0451V33.5196C67.0451 33.3751 66.9876 33.2365 66.8854 33.1343C66.7832 33.0321 66.6446 32.9747 66.5001 32.9747H61.4138C61.2692 32.9747 61.1306 33.0321 61.0284 33.1343C60.9262 33.2365 60.8688 33.3751 60.8688 33.5196V55.8632H57.9623V41.8758C57.9623 41.7312 57.9049 41.5926 57.8027 41.4904C57.7005 41.3882 57.5619 41.3308 57.4173 41.3308H52.331C52.1865 41.3308 52.0479 41.3882 51.9457 41.4904C51.8435 41.5926 51.786 41.7312 51.786 41.8758V55.8632H48.8796V49.8686C48.8796 49.724 48.8222 49.5854 48.7199 49.4832C48.6177 49.381 48.4791 49.3236 48.3346 49.3236H43.2483C43.1037 49.3236 42.9651 49.381 42.8629 49.4832C42.7607 49.5854 42.7033 49.724 42.7033 49.8686V55.8632H41.0684C40.9239 55.8632 40.7853 55.9206 40.6831 56.0228C40.5809 56.125 40.5234 56.2636 40.5234 56.4082C40.5234 56.5527 40.5809 56.6913 40.6831 56.7935C40.7853 56.8957 40.9239 56.9531 41.0684 56.9531H68.68C68.8245 56.9531 68.9631 56.8957 69.0653 56.7935C69.1675 56.6913 69.2249 56.5527 69.2249 56.4082C69.2249 56.2636 69.1675 56.125 69.0653 56.0228C68.9631 55.9206 68.8245 55.8632 68.68 55.8632ZM61.9587 34.0646H65.9551V55.8632H61.9587V34.0646ZM52.876 42.4207H56.8724V55.8632H52.876V42.4207ZM43.7932 50.4135H47.7896V55.8632H43.7932V50.4135Z" fill="#222222"/>
<path d="M41.4312 45.6907C41.5757 45.6906 41.7142 45.6331 41.8163 45.5308L56.8719 30.4753V32.7932C56.8719 32.9377 56.9293 33.0763 57.0315 33.1785C57.1337 33.2807 57.2723 33.3381 57.4168 33.3381C57.5614 33.3381 57.7 33.2807 57.8022 33.1785C57.9044 33.0763 57.9618 32.9377 57.9618 32.7932V29.1601C57.9613 29.0915 57.9477 29.0237 57.9218 28.9603C57.8944 28.8933 57.854 28.8325 57.8028 28.7813C57.7517 28.7302 57.6909 28.6897 57.6239 28.6623C57.5587 28.6331 57.4883 28.617 57.4168 28.6151H53.7837C53.6392 28.6151 53.5006 28.6725 53.3984 28.7747C53.2962 28.8769 53.2388 29.0155 53.2388 29.1601C53.2388 29.3046 53.2962 29.4432 53.3984 29.5454C53.5006 29.6476 53.6392 29.705 53.7837 29.705H56.1017L41.0461 44.7606C40.97 44.8368 40.9182 44.9339 40.8972 45.0395C40.8762 45.1452 40.887 45.2547 40.9282 45.3542C40.9694 45.4537 41.0392 45.5388 41.1287 45.5987C41.2182 45.6586 41.3235 45.6906 41.4312 45.6907V45.6907Z" fill="#222222"/>
</g>
<defs>
<filter id="filter0_d_29_2183" x="0.336127" y="0.685092" width="107.328" height="107.328" filterUnits="userSpaceOnUse" color-interpolation-filters="sRGB">
<feFlood flood-opacity="0" result="BackgroundImageFix"/>
<feColorMatrix in="SourceAlpha" type="matrix" values="0 0 0 0 0 0 0 0 0 0 0 0 0 0 0 0 0 0 127 0" result="hardAlpha"/>
<feOffset dy="9.34896"/>
<feGaussianBlur stdDeviation="6.83194"/>
<feColorMatrix type="matrix" values="0 0 0 0 1 0 0 0 0 0.772549 0 0 0 0 0.396078 0 0 0 0.07 0"/>
<feBlend mode="normal" in2="BackgroundImageFix" result="effect1_dropShadow_29_2183"/>
<feBlend mode="normal" in="SourceGraphic" in2="effect1_dropShadow_29_2183" result="shape"/>
</filter>
</defs>
</svg>
