<svg width="1920" height="2627" viewBox="0 0 1920 2627" fill="none" xmlns="http://www.w3.org/2000/svg">
<path d="M2115.62 1360.68L2116.17 1360.3L2115.62 1360.67C2070.46 1294.01 1991.92 1203.97 1874.4 1153.45C1712.4 1083.83 1519.66 1104.88 1301.4 1216.31L1301.15 1215.83L1301.4 1216.32C1233.85 1250.78 1179.18 1291 1126.25 1329.93L1126.08 1330.06L1125.82 1330.25C1040.97 1392.67 967.472 1446.74 870.042 1452.45C763.507 1458.74 637.417 1404.6 473.231 1282.42C454.293 1268.34 435.97 1254.48 418.15 1240.99C414.482 1238.22 410.836 1235.46 407.21 1232.72L407.582 1232.22L407.209 1232.72L407.086 1232.62C305.316 1155.59 217.541 1089.14 129.881 1056.23C35.7103 1020.88 -54.4675 1026.86 -153.825 1075.16L-153.517 1075.83C-46.3497 1023.73 41.697 1023.66 128.935 1056.33C216.228 1089.01 302.698 1154.48 406.693 1233.21L406.855 1233.34L406.482 1233.83L406.855 1233.34C428.112 1249.44 450.074 1266.05 472.905 1283.02L472.505 1283.56L472.905 1283.02C637.432 1405.47 763.635 1459.43 870.129 1453.15C967.693 1447.42 1041.15 1393.39 1126.37 1330.7L1126.45 1330.64C1179.35 1291.7 1234.09 1251.43 1301.71 1216.91C1519.65 1105.68 1712.27 1084.45 1874.19 1154.07C1991.6 1204.52 2069.99 1294.45 2115.1 1360.97L2115.1 1360.97C2161.28 1429.18 2182.94 1487.4 2185.36 1494.14L2185.96 1493.92C2185.95 1493.87 2185.92 1493.81 2185.9 1493.75C2185.72 1493.25 2185.46 1492.53 2185.11 1491.59C2184.41 1489.73 2183.36 1487.01 2181.96 1483.54C2179.16 1476.6 2174.94 1466.66 2169.19 1454.47C2157.69 1430.1 2140.09 1396.78 2115.62 1360.68Z" fill="#FFC565" stroke="#FFC565" stroke-width="1.33992" stroke-miterlimit="5.75877"/>
<path d="M2045.83 1410.27L2046.39 1409.9L2045.83 1410.27C2009.16 1355.17 1944.4 1279.24 1844.32 1230.48C1690.88 1155.72 1500.92 1164.07 1279.65 1255.54C1194.08 1290.91 1129.59 1338.15 1072.64 1379.93L1072.54 1380C998.622 1434.17 934.764 1480.97 848.166 1485.4C761.533 1489.83 652.285 1451.87 487.509 1336.96C477.995 1330.32 468.568 1323.72 459.219 1317.17C456.879 1315.53 454.545 1313.89 452.215 1312.26L452.599 1311.71L452.214 1312.26C339.219 1232.97 241.76 1164.61 143.525 1131.95C35.3782 1095.95 -59.6369 1109.72 -155.448 1175.16L-155.066 1175.76C-50.9172 1104.61 45.1715 1099.81 142.992 1132.33C240.873 1164.86 340.504 1234.75 451.704 1312.76L451.871 1312.87C454.21 1314.51 456.553 1316.16 458.901 1317.8C468.242 1324.35 477.659 1330.95 487.163 1337.57C652.457 1452.83 761.801 1490.7 848.317 1486.25C934.828 1481.8 998.657 1435.04 1072.99 1380.56L1073.29 1380.34C1130.08 1338.74 1194.5 1291.55 1279.87 1256.29C1500.8 1164.96 1690.66 1156.45 1844.02 1231.18C1943.98 1279.86 2008.59 1355.66 2045.22 1410.66C2082.56 1466.56 2099.16 1512.92 2101.2 1518.85L2101.81 1518.65C2099.77 1512.72 2083.13 1466.26 2045.83 1410.27Z" fill="#FFC565" stroke="#FFC565" stroke-width="1.33992" stroke-miterlimit="5.75877"/>
<path d="M475.592 1360.36L475.591 1360.36L475.448 1360.26C363.383 1286.06 257.621 1216.03 154.552 1184.93C96.8953 1167.53 43.7394 1163.38 -6.72352 1172.81C-56.9985 1182.19 -104.641 1205.05 -151.426 1241.75L-151.01 1242.29C-48.758 1162.1 51.2596 1154.29 153.931 1185.24C256.692 1216.22 362.14 1286.05 475.19 1360.91L475.261 1360.96C475.261 1360.96 475.261 1360.96 475.262 1360.96C478.544 1363.12 481.826 1365.3 485.113 1367.47C489.155 1370.15 493.203 1372.82 497.265 1375.5L496.918 1376.03L497.265 1375.5C643.122 1471.8 751.928 1514.27 839.747 1509.4C921.009 1504.9 980.437 1461.48 1049.5 1411.02L1049.54 1410.99C1108.81 1367.68 1176.05 1318.54 1271.09 1283.81C1493.67 1202.52 1681.62 1199.19 1829.58 1274.14C1997.67 1359.28 2054.52 1519.02 2058.44 1530.56L2059.01 1530.36C2055.16 1519.03 1998.21 1358.83 1829.79 1273.49C1681.77 1198.5 1493.74 1201.73 1270.83 1283.12C1175.74 1317.86 1108.49 1367 1049.11 1410.4L1049.06 1410.43C980.343 1460.66 920.813 1504.17 839.692 1508.68C751.87 1513.56 643.156 1470.96 497.596 1374.9C493.543 1372.23 489.499 1369.55 485.462 1366.88C482.167 1364.7 478.877 1362.52 475.592 1360.36Z" fill="#FFC565" stroke="#FFC565" stroke-width="1.33992" stroke-miterlimit="5.75877"/>
<path d="M1847.21 1380.87C1947.43 1457.58 1979.77 1554.11 1982.59 1563.07L1983.09 1562.91C1980.37 1554.25 1948.05 1457.32 1847.53 1380.3C1786.01 1333.17 1711.34 1302.6 1625.58 1289.48C1518.47 1273.08 1393.63 1283.95 1254.56 1321.88C1139.31 1353.36 1069.31 1407.33 1007.47 1455.07L1007.36 1455.16C949.414 1499.89 899.17 1538.67 827.655 1542.92C750.39 1547.54 651.444 1510.39 516.45 1426.25L516.445 1426.25L514.142 1424.78C399.958 1353.57 281.991 1280.06 168.559 1249.66C104.348 1232.48 46.1525 1230.74 -6.78759 1244.62C-59.5424 1258.44 -107.124 1287.79 -150.268 1332.89L-149.758 1333.41C-106.74 1288.46 -59.247 1259.16 -6.54404 1245.34C46.3528 1231.48 104.452 1233.23 168.477 1250.38C281.9 1280.75 399.894 1354.31 513.891 1425.44L513.895 1425.45L516.198 1426.91C651.564 1511.25 750.518 1548.26 827.805 1543.69C899.456 1539.41 949.653 1500.74 1007.96 1455.72L1008.2 1455.53C1069.84 1407.96 1139.82 1353.95 1254.88 1322.63C1569.42 1236.84 1750.57 1306.88 1847.21 1380.87Z" fill="#FFC565" stroke="#FFC565" stroke-width="1.33992" stroke-miterlimit="5.75877"/>
<path d="M1812.57 1422.23C1906.66 1493.36 1934.61 1580.53 1937.11 1588.99L1937.73 1588.83C1935.19 1580.38 1907.14 1492.91 1812.85 1421.63C1754.91 1377.85 1683.64 1348.64 1601.02 1334.8C1497.83 1317.54 1376.48 1324.38 1240.41 1355.21L1240.29 1354.65L1240.41 1355.21C1114.57 1383.69 1044.32 1439.92 982.276 1489.6L981.861 1489.08L982.276 1489.6L982.06 1489.77C929.218 1532.06 883.373 1568.74 816.409 1573.38C743.953 1578.42 649.837 1544.61 520.281 1467.23C410.396 1401.58 286 1327.27 167.42 1298.74C100.295 1282.6 40.4034 1282.6 -13.026 1298.93C-66.2713 1315.2 -113.149 1347.7 -154.396 1396.7L-153.864 1397.18C-112.738 1348.33 -65.9494 1315.86 -12.7526 1299.61C40.6327 1283.3 100.421 1283.33 167.343 1299.44C285.799 1327.94 410.215 1402.24 519.908 1467.75L520.032 1467.82L519.688 1468.4L520.032 1467.82C649.927 1545.42 744.1 1579.12 816.52 1574.07C883.701 1569.39 929.479 1532.79 982.722 1490.18C1044.64 1440.61 1114.92 1384.36 1240.65 1355.91C1548.48 1286.21 1721.53 1353.42 1812.57 1422.23Z" fill="#FFC565" stroke="#FFC565" stroke-width="1.33992" stroke-miterlimit="5.75877"/>
</svg>
