<svg width="479" height="311" viewBox="0 0 479 311" fill="none" xmlns="http://www.w3.org/2000/svg">
<path d="M583.43 191.671L583.848 191.436C583.756 191.324 574.426 180.519 557.569 169.068C542.015 158.495 516.67 145.194 484.31 141.856C439.698 137.257 393.517 152.226 347.042 186.371C332.638 196.949 321.799 207.936 311.312 218.562C294.488 235.611 279.964 250.34 256.351 256.917C230.558 264.109 195.939 260.56 147.388 245.767C140.636 243.712 134.126 241.67 127.826 239.706C97.6331 230.276 71.5624 222.13 47.7338 220.579C22.0761 218.908 0.154833 225.182 -21.223 240.329L-20.885 240.653C25.1046 208.063 65.9016 220.814 127.651 240.103C133.956 242.074 140.47 244.105 147.222 246.16C195.889 260.991 230.622 264.53 256.525 257.309C280.265 250.694 294.837 235.918 311.709 218.824C322.179 208.207 333.007 197.236 347.386 186.672C393.75 152.616 439.793 137.671 484.251 142.262C516.489 145.584 541.734 158.838 557.24 169.366C574.043 180.796 583.344 191.566 583.43 191.671Z" fill="#FFC565"/>
<path d="M557.481 169.162L557.569 169.068L557.481 169.162C541.94 158.598 516.624 145.313 484.302 141.98C439.746 137.386 393.603 152.334 347.145 186.467C332.766 197.026 321.942 207.994 311.465 218.609L311.43 218.645L311.383 218.692C294.583 235.716 280.041 250.452 256.407 257.035C230.567 264.24 195.907 260.679 147.347 245.883C141.749 244.18 136.317 242.485 131.033 240.836C129.944 240.496 128.86 240.158 127.783 239.822L127.743 239.809C97.561 230.383 71.5254 222.252 47.7332 220.702C22.1619 219.037 0.306697 225.274 -21.0129 240.349L-20.877 240.479C2.10322 224.227 23.8043 219.275 47.4735 220.8C71.1547 222.326 96.8005 230.337 127.649 239.973L127.693 239.987L127.651 240.103L127.693 239.987C133.999 241.958 140.512 243.989 147.263 246.044L147.222 246.16L147.263 246.044C195.922 260.872 230.613 264.399 256.469 257.19C280.157 250.59 294.704 235.851 311.573 218.761L311.592 218.741C322.062 208.124 332.895 197.147 347.283 186.576C393.664 152.508 439.744 137.542 484.258 142.139C516.536 145.465 541.808 158.734 557.328 169.272L557.328 169.272C573.257 180.107 582.452 190.351 583.459 191.5L583.639 191.399C583.629 191.387 583.617 191.375 583.605 191.361C583.528 191.274 583.416 191.147 583.268 190.983C582.972 190.655 582.535 190.18 581.96 189.577C580.811 188.371 579.112 186.654 576.888 184.583C572.442 180.441 565.902 174.882 557.481 169.162Z" stroke="#11493E" stroke-opacity="0.2" stroke-width="0.27363" stroke-miterlimit="5.75877"/>
<path d="M564.309 201.243L564.733 201.015C564.664 200.931 557.409 192.232 543.641 182.725C530.944 173.947 509.931 162.648 481.992 158.675C439.153 152.584 392.819 164.899 344.282 195.289C325.503 207.047 312.712 219.956 301.432 231.355C272.113 260.954 250.934 282.341 154.508 255.678C151.027 254.716 147.583 253.755 144.173 252.805C111.079 243.569 82.5058 235.597 56.0954 234.688C26.942 233.676 4.3431 241.76 -15.0141 260.092L-14.6282 260.371C27.3095 220.636 78.81 235.013 144.012 253.205C147.422 254.155 150.866 255.117 154.347 256.079C251.115 282.831 272.38 261.357 301.826 231.628C313.093 220.257 325.858 207.362 344.592 195.638C393.008 165.324 439.211 153.029 481.9 159.099C509.725 163.052 530.638 174.304 543.292 183.044C557.02 192.502 564.234 201.152 564.309 201.243Z" fill="#FFC565"/>
<path d="M543.551 182.819L543.641 182.725L543.551 182.818C530.869 174.05 509.881 162.765 481.978 158.798C439.193 152.715 392.897 165.011 344.376 195.39C325.611 207.139 312.83 220.039 301.549 231.438L301.432 231.355L301.549 231.438L301.532 231.455C286.884 246.243 274.238 259.01 253.19 264.733C232.134 270.459 202.695 269.13 154.471 255.796C151.681 255.025 148.914 254.254 146.171 253.49C145.491 253.3 144.813 253.111 144.136 252.923L144.172 252.809L144.136 252.923C111.036 243.685 82.4848 235.72 56.1003 234.812C27.04 233.804 4.50694 241.843 -14.803 260.087L-14.6501 260.197C6.32357 240.372 29.6938 234.04 55.9629 234.942C82.244 235.844 111.427 243.986 144.003 253.075L144.05 253.088C144.732 253.278 145.416 253.468 146.101 253.659C148.839 254.422 151.6 255.191 154.384 255.961L154.347 256.079L154.384 255.961C202.757 269.334 232.228 270.644 253.277 264.915C274.327 259.186 286.982 246.413 301.709 231.545L301.768 231.486C313.02 220.129 325.782 207.249 344.498 195.537C392.93 165.212 439.171 152.899 481.914 158.977C509.774 162.935 530.713 174.201 543.381 182.951C556.315 191.862 563.475 200.057 564.341 201.074L564.524 200.975C563.658 199.959 556.481 191.746 543.551 182.819Z" stroke="#11493E" stroke-opacity="0.2" stroke-width="0.27363" stroke-miterlimit="5.75877"/>
<path d="M554.95 205.715C554.702 205.411 529.995 175.505 481.256 167.939C439.74 161.498 393.543 172.697 343.938 201.198C322.765 213.368 309.418 226.805 297.644 238.66C284.012 252.389 272.238 264.244 252.585 269.665C231.308 275.531 201.733 273.271 159.5 262.566C157.363 262.025 155.235 261.48 153.113 260.942C120.569 252.648 89.8228 244.807 62.3121 244.477C31.5355 244.105 8.67867 253.156 -9.6211 272.962L-9.21199 273.209C30.5769 230.144 87.2881 244.6 152.963 261.341C155.085 261.879 157.213 262.424 159.35 262.964C201.684 273.705 231.364 275.958 252.751 270.062C272.546 264.605 284.359 252.709 298.047 238.93C309.801 227.095 323.12 213.684 344.243 201.541C393.729 173.103 439.802 161.932 481.177 168.35C529.713 175.875 554.298 205.648 554.541 205.945L554.95 205.715Z" fill="#FFC565"/>
<path d="M153.08 261.061L153.112 260.944L153.079 261.061L153.035 261.05C120.502 252.758 89.7936 244.931 62.321 244.601L62.3121 244.477L62.321 244.601C31.6407 244.23 8.84956 253.234 -9.40882 272.943L-9.24899 273.039C10.6583 251.545 34.797 244.4 62.1593 244.724C89.5411 245.047 120.154 252.851 152.979 261.218L152.996 261.222C153.95 261.464 154.905 261.707 155.86 261.951C157.032 262.249 158.206 262.548 159.383 262.845L159.35 262.964L159.383 262.845C201.71 273.584 231.353 275.828 252.695 269.944C272.446 264.499 284.236 252.631 297.928 238.849L297.931 238.846L297.937 238.84C309.69 227.006 323.017 213.587 344.153 201.437C393.655 172.99 439.766 161.802 481.194 168.228C528.323 175.535 552.901 203.792 554.572 205.773L554.744 205.676C553.102 203.73 528.469 175.392 481.24 168.061C439.777 161.628 393.618 172.81 344.028 201.302C322.871 213.463 309.534 226.888 297.761 238.743L297.755 238.75C284.129 252.472 272.333 264.351 252.641 269.783C231.32 275.662 201.706 273.392 159.466 262.684C158.289 262.386 157.114 262.087 155.94 261.788C154.985 261.545 154.032 261.302 153.08 261.061Z" stroke="#11493E" stroke-opacity="0.2" stroke-width="0.27363" stroke-miterlimit="5.75877"/>
<path d="M538.378 216.37C538.237 216.183 523.912 197.847 492.716 187.934C474.402 182.116 453.941 180.296 431.904 182.531C404.38 185.318 374.295 194.462 342.497 209.718C316.128 222.379 302.419 236.925 290.324 249.774C278.979 261.825 269.182 272.234 251.876 277.066C233.184 282.29 206.376 280.553 167.534 271.594L166.869 271.436C134.015 263.852 100.044 256.019 70.0353 256.408C36.0534 256.858 12.0574 268.112 -3.30613 290.824L-2.85276 291.036C12.4184 268.464 36.2674 257.27 70.0621 256.828C100.005 256.434 133.934 264.26 166.751 271.844L167.416 272.002C206.372 280.98 233.262 282.714 252.07 277.468C269.511 272.593 279.362 262.145 290.758 250.037C302.823 237.224 316.491 222.689 342.796 210.083C414.641 175.611 463.88 179.222 492.544 188.32C523.592 198.171 537.845 216.404 537.98 216.584L538.378 216.37Z" fill="#FFC565"/>
<path d="M167.504 271.714L167.505 271.714C206.353 280.674 233.197 282.42 251.932 277.184C269.273 272.343 279.091 261.913 290.426 249.874L290.443 249.855C302.537 237.008 316.232 222.476 342.578 209.827C374.365 194.576 404.432 185.439 431.933 182.654C453.95 180.421 474.386 182.24 492.673 188.05C522.6 197.56 536.975 214.833 538.173 216.328L538.016 216.413C536.769 214.858 522.416 197.668 492.588 188.205C463.873 179.091 414.589 175.489 342.715 209.974C316.421 222.575 302.74 237.104 290.686 249.905L290.639 249.956C279.24 262.068 269.411 272.487 252.014 277.35C233.248 282.584 206.396 280.859 167.447 271.883L167.504 271.714ZM167.504 271.714L166.839 271.556L167.504 271.714ZM166.781 271.724L167.446 271.882L166.838 271.555C133.979 263.97 100.031 256.143 70.0486 256.532C36.1673 256.981 12.2395 268.18 -3.10165 290.782L-2.91554 290.869C12.3837 268.327 36.2579 257.145 70.0488 256.704C100.018 256.31 133.969 264.142 166.78 271.724L166.781 271.724Z" stroke="#11493E" stroke-opacity="0.2" stroke-width="0.27363" stroke-miterlimit="5.75877"/>
<path d="M528.913 224.013C528.789 223.847 516.219 207.137 486.899 197.997C469.691 192.637 450.159 190.894 428.848 192.81C402.237 195.207 372.747 203.363 341.221 217.056C312.038 229.722 298.414 244.729 286.396 257.971C276.139 269.265 267.286 279.024 251.118 283.68C233.638 288.717 208.242 287.365 171.187 279.429C139.761 272.696 104.151 265.066 72.9966 266.112C37.7161 267.301 13.8008 279.563 -0.0993477 303.604L0.367937 303.788C14.1815 279.895 37.947 267.703 73.0318 266.528C104.104 265.486 139.68 273.104 171.072 279.825C208.232 287.785 233.725 289.136 251.3 284.068C267.613 279.365 276.511 269.571 286.818 258.22C298.805 245.014 312.399 230.044 341.483 217.421C412.74 186.483 459.798 189.992 486.741 198.386C515.882 207.47 528.357 224.049 528.472 224.22L528.913 224.013Z" fill="#FFC565"/>
<path d="M171.099 279.705L171.072 279.825L171.099 279.705C208.254 287.664 233.709 289.007 251.243 283.95C267.512 279.26 276.387 269.495 286.698 258.14C298.687 244.931 312.295 229.944 341.407 217.31C412.691 186.36 459.792 189.86 486.784 198.27L486.741 198.386L486.784 198.27C514.724 206.98 527.373 222.57 528.515 224.053L528.705 223.964C527.567 222.503 514.874 206.847 486.857 198.113C469.675 192.761 450.167 191.019 428.875 192.933C402.286 195.329 372.812 203.478 341.297 217.167C312.141 229.821 298.532 244.811 286.516 258.051L286.478 258.093C276.241 269.365 267.368 279.135 251.175 283.798C233.653 288.847 208.221 287.486 171.161 279.549L171.187 279.429L171.161 279.549C139.729 272.815 104.142 265.191 73.0135 266.236C37.8356 267.422 13.9877 279.626 0.101645 303.55L0.292645 303.625C14.1387 279.759 37.9338 267.579 73.015 266.404C104.102 265.361 139.687 272.98 171.065 279.697L171.099 279.705Z" stroke="#11493E" stroke-opacity="0.2" stroke-width="0.27363" stroke-miterlimit="5.75877"/>
</svg>
