<svg width="1627" height="504" viewBox="0 0 1627 504" fill="none" xmlns="http://www.w3.org/2000/svg">
<path d="M1775.73 90.1993L1776.1 89.7997L1775.73 90.1992C1728.02 45.6064 1649.72 -11.4609 1547.69 -30.2553C1407.07 -56.158 1258.45 -4.82798 1105.91 122.562L1105.61 122.206L1105.91 122.562C1058.7 161.968 1022.7 203.608 987.857 243.919L987.74 244.053L987.574 244.246C931.708 308.877 883.319 364.858 807.305 386.909C724.193 411.052 614.746 390.931 462.929 323.86C445.424 316.136 428.443 308.471 411.929 301.018C408.526 299.482 405.143 297.955 401.779 296.438L402.002 295.941L401.779 296.438L401.664 296.386C307.327 253.781 225.962 217.035 150.723 206.786C69.8956 195.776 -0.33711 216.729 -70.2122 272.803L-69.8469 273.283C5.51945 212.797 75.1299 196.897 149.991 207.03C224.901 217.17 305.058 253.378 401.461 296.924L401.609 296.991L401.386 297.488L401.61 296.991C421.316 305.898 441.671 315.079 462.779 324.393C614.914 391.616 724.419 411.575 807.5 387.447C883.617 365.356 931.978 309.415 988.092 244.507L988.143 244.448C1022.97 204.134 1059 162.443 1106.26 122.978C1258.59 -4.19998 1407.08 -55.6476 1547.65 -29.7272C1649.56 -10.9628 1727.74 46.0446 1775.38 90.5272L1775.01 90.9269L1775.38 90.5275C1824.16 136.156 1851.77 178.293 1854.89 183.185L1855.33 182.906C1855.31 182.866 1855.28 182.823 1855.25 182.778C1855.02 182.417 1854.68 181.894 1854.24 181.219C1853.35 179.868 1852.03 177.907 1850.3 175.416C1846.84 170.434 1841.71 163.329 1834.97 154.728C1821.49 137.527 1801.58 114.345 1775.73 90.1993Z" fill="#FFEEDB" stroke="#2F2F2F" stroke-width="1.08663" stroke-miterlimit="5.75877"/>
<path d="M1729.47 141.976L1729.81 141.613L1729.47 141.976C1690.56 105.001 1625.68 56.614 1537.77 36.0649C1402.98 4.56131 1254.28 45.3481 1095.76 157.493C1034.47 200.859 991.971 249.822 954.456 293.102L954.055 292.752L954.456 293.102L954.389 293.179C905.687 349.313 863.612 397.808 795.932 416.896C728.225 435.991 635.006 425.632 484.031 364.415C475.308 360.88 466.659 357.35 458.081 353.848C455.942 352.975 453.807 352.104 451.677 351.235L451.882 350.73L451.676 351.235C348.059 308.876 258.692 272.356 175.135 264.208C83.1396 255.199 10.4841 283.184 -53.503 352.173L-53.0922 352.58C16.4595 277.574 91.5789 256.492 174.781 264.598C258.034 272.709 349.395 310.048 451.363 351.722L451.517 351.785C453.655 352.657 455.798 353.532 457.945 354.409C466.515 357.907 475.154 361.433 483.868 364.965L483.664 365.47L483.868 364.965C635.315 426.363 728.593 436.63 796.205 417.542C863.813 398.456 905.871 349.995 954.85 293.541L955.048 293.313C992.464 250.199 1034.91 201.289 1096.07 158.043C1254.34 46.0701 1402.94 5.17811 1537.66 36.6704C1625.47 57.1791 1690.19 105.49 1729.06 142.388C1768.64 179.879 1790.11 213.551 1792.79 217.868L1793.24 217.599C1790.56 213.283 1769.04 179.534 1729.47 141.976Z" fill="#FFEEDB" stroke="#2F2F2F" stroke-width="1.08663" stroke-miterlimit="5.75877"/>
<path d="M1761.5 234.564C1756.42 226.299 1682.56 109.868 1534.03 72.6894C1403.48 40.0253 1255.38 76.4135 1093.76 180.888C1024.81 225.475 980.478 276.427 941.331 321.43L941.298 321.469C896.002 373.549 856.759 418.67 793.423 436.834C724.855 456.491 631.223 442.368 498.837 392.604C495.142 391.218 491.453 389.826 487.77 388.436C484.782 387.309 481.798 386.183 478.82 385.063L479.011 384.553L478.819 385.063L478.691 385.014C376.722 346.504 280.489 310.159 193.39 304.116C144.667 300.729 101.888 307.017 63.6798 323.549C25.6139 340.018 -7.94562 366.668 -38.3386 404.102L-37.9111 404.458C28.5149 322.648 106.198 298.472 192.955 304.474C279.789 310.481 375.738 346.721 478.604 385.574L478.667 385.598C481.648 386.719 484.631 387.844 487.618 388.971C491.299 390.36 494.986 391.752 498.683 393.139L498.503 393.622L498.684 393.139C631.35 443.044 725.03 457.045 793.596 437.392C857.044 419.207 896.223 374.182 941.756 321.855L941.781 321.826C980.856 276.907 1025.18 225.955 1094.09 181.385C1255.47 77.0509 1403.48 40.6006 1533.98 73.2461C1682.21 110.318 1755.91 226.402 1761.08 234.826L1761.5 234.564Z" fill="#FFEEDB" stroke="#2F2F2F" stroke-width="1.08663" stroke-miterlimit="5.75877"/>
<path d="M-20.526 476.286L-21.024 475.96C4.97622 432.535 37.3216 400.77 76.5494 380.343C115.915 359.845 162.246 350.747 216.113 352.78C311.279 356.408 417.788 393.309 520.892 429.07L520.896 429.072M-20.526 476.286L521.074 428.557L520.896 429.072M-20.526 476.286C5.40185 433.001 37.6833 401.28 76.8725 380.873C116.206 360.391 162.463 351.324 216.178 353.365C311.332 356.968 417.872 393.9 520.815 429.638L520.819 429.64L522.903 430.381C522.905 430.381 522.906 430.382 522.907 430.382M-20.526 476.286L522.907 430.382M520.896 429.072L522.98 429.813L522.984 429.814C644.872 472.059 729.798 483.628 790.065 466.076C845.851 449.845 878.602 410.134 916.375 364.335L916.444 364.251C956.757 315.367 1002.39 260.094 1087.87 214.464C1191.01 159.446 1287.77 128.389 1375.42 122.084C1445.59 117.021 1510.14 127.759 1567.27 153.959C1660.61 196.771 1703.62 267.609 1707.32 273.963M520.896 429.072L1707.32 273.963M1707.32 273.963L1707.78 273.687L1708.06 274.154L1707.32 273.963ZM1707.32 273.963C1707.48 274.234 1707.57 274.387 1707.59 274.417L1708.06 274.154L1707.23 274.654C1707.2 274.596 1707.11 274.437 1706.96 274.183M1707.32 273.963L1706.96 274.183M1706.96 274.183C1703.12 267.605 1660.17 197.092 1567.12 154.469C1477.38 113.352 1321.54 90.5609 1088.26 215.004C1002.9 260.474 957.289 315.771 917.107 364.481L916.947 364.674C878.944 410.767 846.209 450.377 790.322 466.656C730.029 484.174 645.123 472.714 522.907 430.382M1706.96 274.183L1706.49 274.463C1702.73 268.01 1659.86 197.547 1566.89 154.965C1477.33 113.927 1321.66 91.1103 1088.51 215.485C1003.25 260.905 957.694 316.132 917.515 364.838L917.364 365.021C879.377 411.095 846.543 450.847 790.471 467.18C730.005 484.748 644.957 473.234 522.725 430.896L522.907 430.382" fill="#FFEEDB" stroke="#2F2F2F" stroke-width="1.08663" stroke-miterlimit="5.75877"/>
<path d="M1082.68 243.368L1082.46 242.91L1082.68 243.368C988.293 288.529 942.86 345.635 902.738 396.088L902.361 395.785L902.738 396.088L902.598 396.264C868.422 439.208 838.771 476.466 786.654 492.185C730.266 509.206 649.761 499.409 533.388 461.53C434.684 429.394 322.945 393.014 224.044 391.792C168.062 391.11 120.702 401.886 81.3901 424.411C42.2142 446.858 10.9943 480.994 -12.8042 527.168L-12.2967 527.451C11.4326 481.419 42.589 447.329 81.7297 424.905C121.009 402.4 168.292 391.665 224.109 392.36C322.908 393.585 434.659 429.948 533.186 462.008L533.299 462.045L533.162 462.467L533.299 462.045C649.977 500.03 730.509 509.737 786.866 492.711C839.147 476.92 868.761 439.743 903.195 396.467C943.234 346.13 988.691 288.998 1082.99 243.879C1313.86 133.367 1462.8 155.377 1547.17 193.402C1634.37 232.721 1672.16 296.624 1675.66 302.861L1676.12 302.62C1672.6 296.399 1634.67 232.28 1547.29 192.882C1493.59 168.689 1431.98 158.417 1364.15 162.337C1279.45 167.255 1184.73 194.501 1082.68 243.368Z" fill="#FFEEDB" stroke="#2F2F2F" stroke-width="1.08663" stroke-miterlimit="5.75877"/>
</svg>
