<svg width="78" height="78" viewBox="0 0 78 78" fill="none" xmlns="http://www.w3.org/2000/svg">
<g clip-path="url(#clip0_29_2862)">
<path d="M23.3984 22.1001C23.3984 24.972 25.7266 27.3001 28.5984 27.3001C31.4703 27.3001 33.7984 24.972 33.7984 22.1001C33.7984 19.2283 31.4703 16.9001 28.5984 16.9001C25.7266 16.9001 23.3984 19.2283 23.3984 22.1001ZM31.1984 22.1001C31.1984 23.5361 30.0344 24.7001 28.5984 24.7001C27.1625 24.7001 25.9984 23.5361 25.9984 22.1001C25.9984 20.6642 27.1625 19.5001 28.5984 19.5001C30.0344 19.5001 31.1984 20.6642 31.1984 22.1001Z" fill="#222222"/>
<path d="M5.56293 33.267L4.66593 34.164C4.11267 34.7196 3.83966 35.4951 3.92292 36.2748C4.00618 37.0544 4.43682 37.7548 5.09493 38.181L7.51293 39.845C6.77624 40.0904 6.18778 40.6522 5.90854 41.3767C5.62929 42.1013 5.68849 42.9127 6.06993 43.589C7.16565 45.0405 8.72559 46.0728 10.4899 46.514C11.4687 46.9526 12.5886 46.9504 13.5657 46.5079C14.5427 46.0653 15.283 45.225 15.5989 44.2L16.0799 44.681C16.0799 47.138 16.4569 55.523 18.8099 60.281C21.4099 65.377 25.1799 70.525 25.1799 73.97C25.0719 75.0361 25.4358 76.0962 26.1758 76.8712C26.9159 77.6462 27.9579 78.0587 29.0279 78C30.1667 78.1338 31.2676 77.5417 31.7839 76.518C32.7069 74.503 34.2799 75.907 35.5929 74.152C35.9928 73.616 36.1528 72.9383 36.0349 72.28C36.0527 71.0017 36.3593 69.744 36.9319 68.601C38.4139 64.701 38.8559 62.595 36.9319 57.746C41.2999 54.834 44.9529 50.895 51.8039 44.057C53.0129 42.861 52.1809 41.457 53.4159 40.261C53.844 40.1657 54.2878 40.1657 54.7159 40.261C55.6428 40.2894 56.5273 39.8726 57.0955 39.1398C57.6638 38.407 57.8472 37.4466 57.5889 36.556C56.7691 34.5766 55.5975 32.7619 54.1309 31.2L53.7279 30.901L54.9239 29.874C54.9239 29.874 54.9239 29.77 54.9239 29.744L56.6139 30.797C57.257 31.1205 58.0054 31.1628 58.6809 30.914L59.8249 30.342L59.1099 32.383C58.8272 33.5367 59.3623 34.7352 60.4099 35.295L63.3609 37.219C64.0269 37.6035 64.8289 37.6734 65.5514 37.41C66.2739 37.1466 66.8427 36.5769 67.1049 35.854C67.8069 33.891 69.4449 28.99 69.4449 25.896C69.4449 24.232 71.1479 23.569 72.1619 23.296C73.297 22.9967 74.0908 21.9739 74.0989 20.8V18.46C74.2084 17.2652 73.7221 16.0933 72.7989 15.327C71.5639 14.326 68.4699 13.286 64.7259 15.769C60.6179 18.512 60.8259 22.204 57.5759 23.283C57.4362 23.3261 57.2867 23.3261 57.1469 23.283C56.5619 22.984 56.0809 20.839 55.6389 19.747C55.3188 18.9557 54.6307 18.372 53.7978 18.1852C52.9649 17.9984 52.0934 18.2323 51.4659 18.811L49.5939 20.423C48.7994 21.213 48.6004 22.4231 49.0999 23.426C49.1779 23.569 49.2169 23.608 49.8149 24.44L48.2289 26L46.1749 25.389C44.9685 25.0168 43.6691 25.5651 43.0939 26.689C43.0079 26.8464 42.8139 26.9092 42.6519 26.832L39.5709 25.155C40.0115 24.0394 40.2577 22.8567 40.2989 21.658C40.2194 16.2259 36.3096 11.6082 30.9649 10.634C31.5417 9.71527 32.2415 8.87984 33.0449 8.151C33.9748 7.28274 34.1399 5.86909 33.4349 4.81L32.1349 2.834C31.4076 1.7417 29.9804 1.36259 28.8069 1.95L25.4529 3.601L22.5929 0.754C22.1151 0.279914 21.472 0.00962894 20.7989 0H16.3009C15.4336 0.00160576 14.6243 0.435549 14.1429 1.157L12.6479 3.38C12.2612 3.95608 12.1208 4.66284 12.2579 5.343C12.5179 6.643 13.1939 6.864 15.2349 8.268L15.0789 8.567C14.516 9.69609 14.8448 11.0664 15.8589 11.817L19.5899 14.547C18.67 15.6209 17.964 16.8609 17.5099 18.2L13.0639 24.219L12.2969 23.725C11.1117 23.0422 9.60014 23.3946 8.83893 24.531C8.76093 24.635 8.73493 24.713 7.39593 27.339C6.84704 28.1945 6.84704 29.2915 7.39593 30.147L9.60593 33.033L7.98093 32.552C7.10556 32.3574 6.1917 32.6276 5.56293 33.267V33.267ZM37.6989 21.658C37.6989 24.258 34.5399 30.16 29.2619 37.388C29.1101 37.5951 28.8687 37.7174 28.6119 37.7174C28.3552 37.7174 28.1138 37.5951 27.9619 37.388C22.7099 30.16 19.4989 24.271 19.4989 21.658C19.5568 19.3029 20.5483 17.0673 22.255 15.4435C23.9618 13.8197 26.2439 12.9407 28.5989 13C30.954 12.9407 33.2361 13.8197 34.9428 15.4435C36.6496 17.0673 37.641 19.3029 37.6989 21.658V21.658ZM28.5989 44.2C26.7444 44.1935 25.0338 43.1998 24.1093 41.5921C23.1849 39.9844 23.1867 38.0061 24.1139 36.4C24.7119 37.258 25.3099 38.09 25.8949 38.883C26.5373 39.7499 27.5525 40.2611 28.6314 40.2611C29.7104 40.2611 30.7255 39.7499 31.3679 38.883C31.9269 38.103 32.5249 37.284 33.1099 36.439C34.0197 38.0466 34.0083 40.0161 33.0801 41.6131C32.1518 43.2101 30.4461 44.1948 28.5989 44.2ZM16.6909 6.11L14.8059 4.81L16.3009 2.6H20.7989L23.6589 5.447C24.452 6.23711 25.6618 6.43088 26.6619 5.928L30.0029 4.277L31.3029 6.227C29.9826 7.3907 28.9123 8.81039 28.1569 10.4C25.7621 10.4743 23.4479 11.282 21.5269 12.714L17.4189 9.724L17.5619 9.425C18.1441 8.25794 17.7716 6.84014 16.6909 6.11V6.11ZM11.6989 34.593C12.349 33.7098 12.375 32.5136 11.7639 31.603C9.34593 28.405 9.59293 28.782 9.68393 28.6L10.9839 26L11.7379 26.494C12.9014 27.1626 14.3826 26.836 15.1569 25.74L17.0939 23.14C17.7179 26.143 19.9799 30.238 22.5279 34.125C19.9523 37.3093 20.2781 41.9433 23.2739 44.7358C26.2697 47.5284 30.9151 47.5284 33.9109 44.7358C36.9068 41.9433 37.2325 37.3093 34.6569 34.125C36.099 31.9792 37.4017 29.7429 38.5569 27.43L41.4039 28.977C42.845 29.7406 44.6322 29.2085 45.4209 27.781L47.5009 28.405C48.3825 28.6555 49.3307 28.4233 49.9969 27.794L51.7259 26.286C52.5694 25.4375 52.725 24.123 52.1029 23.101L51.5049 22.269L53.2989 20.8C53.8709 22.23 54.2219 24.765 56.0289 25.688C56.8086 26.0507 57.7047 26.0696 58.4989 25.74C62.9969 24.258 62.6589 20.345 66.2989 17.94C68.7819 16.289 70.6409 16.835 71.2779 17.342C71.6289 17.628 71.5509 17.68 71.5899 20.839C68.6389 21.541 66.8839 23.439 66.8839 25.935C66.8839 28.691 65.2069 33.566 64.6869 35.035L61.8139 33.163C61.6839 33.059 61.3849 33.969 62.3599 31.174C62.5893 30.2432 62.2878 29.2618 61.5755 28.6202C60.8633 27.9786 59.8558 27.781 58.9539 28.106L57.8359 28.548L56.2499 27.547C55.2832 27.0644 54.1188 27.23 53.3249 27.963L52.0249 29.068C51.0931 29.9895 50.9928 31.4605 51.7909 32.5C53.1477 33.9144 54.2671 35.5386 55.1059 37.31C55.0972 37.4445 55.0366 37.5703 54.9369 37.661C53.7642 37.3801 52.5273 37.6428 51.5699 38.376C50.5844 39.4183 50.0035 40.7783 49.9319 42.211C43.5099 48.607 39.5319 52.858 35.4499 55.575C34.4752 56.2342 34.0646 57.4658 34.4489 58.578C35.1453 60.1361 35.538 61.8127 35.6059 63.518C35.6059 66.43 33.0059 69.628 33.4609 72.618C31.7112 72.7149 30.1663 73.7918 29.4699 75.4C28.1699 75.569 27.8059 75.127 27.8059 73.931C27.8059 69.589 23.8019 64.35 21.1629 59.085C19.0049 54.769 18.7319 46.306 18.7059 44.655C18.6829 43.9937 18.4086 43.3661 17.9389 42.9L17.4579 42.419C16.8296 41.793 15.9255 41.5304 15.0596 41.7226C14.1937 41.9147 13.4855 42.535 13.1809 43.368C12.8819 44.148 12.5049 44.499 11.3089 44.096C10.1674 43.8268 9.13138 43.2251 8.33193 42.367C9.28864 42.0544 9.97897 41.2177 10.1041 40.219C10.2293 39.2203 9.76687 38.2391 8.91693 37.7L6.49893 35.997L7.34393 35.087L8.98193 35.568C10.0014 35.8218 11.0734 35.4371 11.6989 34.593V34.593Z" fill="#222222"/>
</g>
<defs>
<clipPath id="clip0_29_2862">
<rect width="78" height="78" fill="white"/>
</clipPath>
</defs>
</svg>
