<svg width="78" height="79" viewBox="0 0 78 79" fill="none" xmlns="http://www.w3.org/2000/svg">
<path d="M68.6414 61.1568H65.1314V13.1868C65.1314 12.8765 65.0081 12.5789 64.7887 12.3595C64.5693 12.1401 64.2717 12.0168 63.9614 12.0168H53.0414C52.7311 12.0168 52.4335 12.1401 52.2141 12.3595C51.9947 12.5789 51.8714 12.8765 51.8714 13.1868V61.1568H45.6314V31.1268C45.6314 30.8165 45.5081 30.5189 45.2887 30.2995C45.0693 30.0801 44.7717 29.9568 44.4614 29.9568H33.5414C33.2311 29.9568 32.9335 30.0801 32.7141 30.2995C32.4947 30.5189 32.3714 30.8165 32.3714 31.1268V61.1568H26.1314V48.2868C26.1314 47.9765 26.0081 47.6789 25.7887 47.4595C25.5693 47.2401 25.2717 47.1168 24.9614 47.1168H14.0414C13.7311 47.1168 13.4335 47.2401 13.2141 47.4595C12.9947 47.6789 12.8714 47.9765 12.8714 48.2868V61.1568H9.36141C9.0511 61.1568 8.75351 61.2801 8.53409 61.4995C8.31467 61.7189 8.19141 62.0165 8.19141 62.3268C8.19141 62.6371 8.31467 62.9347 8.53409 63.1542C8.75351 63.3736 9.0511 63.4968 9.36141 63.4968H68.6414C68.9517 63.4968 69.2493 63.3736 69.4687 63.1542C69.6881 62.9347 69.8114 62.6371 69.8114 62.3268C69.8114 62.0165 69.6881 61.7189 69.4687 61.4995C69.2493 61.2801 68.9517 61.1568 68.6414 61.1568ZM54.2114 14.3568H62.7914V61.1568H54.2114V14.3568ZM34.7114 32.2968H43.2914V61.1568H34.7114V32.2968ZM15.2114 49.4568H23.7914V61.1568H15.2114V49.4568Z" fill="#222222"/>
<path d="M10.1416 39.3172C10.4518 39.317 10.7492 39.1935 10.9684 38.974L43.2916 6.65083V11.6272C43.2916 11.9375 43.4149 12.2351 43.6343 12.4545C43.8537 12.674 44.1513 12.7972 44.4616 12.7972C44.7719 12.7972 45.0695 12.674 45.2889 12.4545C45.5084 12.2351 45.6316 11.9375 45.6316 11.6272V3.82723C45.6304 3.68008 45.6013 3.53451 45.5458 3.39823C45.487 3.2545 45.4001 3.12393 45.2903 3.01412C45.1805 2.90431 45.0499 2.81745 44.9062 2.75863C44.7662 2.6958 44.6151 2.66133 44.4616 2.65723H36.6616C36.3513 2.65723 36.0537 2.78049 35.8343 2.99991C35.6149 3.21933 35.4916 3.51692 35.4916 3.82723C35.4916 4.13753 35.6149 4.43512 35.8343 4.65454C36.0537 4.87396 36.3513 4.99723 36.6616 4.99723H41.638L9.31483 37.3204C9.15141 37.484 9.04014 37.6924 8.99508 37.9193C8.95002 38.1461 8.97319 38.3812 9.06166 38.5948C9.15013 38.8085 9.29993 38.9911 9.49215 39.1197C9.68437 39.2483 9.91037 39.317 10.1416 39.3172V39.3172Z" fill="#222222"/>
</svg>
