<svg width="78" height="78" viewBox="0 0 78 78" fill="none" xmlns="http://www.w3.org/2000/svg">
<g clip-path="url(#clip0_29_2847)">
<path d="M56.0501 50.1571C56.6666 49.584 56.7018 48.6197 56.1287 48.0031C55.5557 47.3864 54.5914 47.3514 53.9749 47.9244C49.8977 51.7141 44.5794 53.8014 38.9991 53.8014C34.5401 53.8014 30.248 52.4776 26.587 49.9733C25.6816 49.3541 24.817 48.6641 24.0172 47.9229C23.3998 47.3508 22.4355 47.3873 21.8633 48.0048C21.2912 48.6222 21.3277 49.5865 21.9451 50.1588C22.8546 51.0015 23.8373 51.7856 24.8659 52.4893C29.0361 55.342 33.9233 56.8496 38.9991 56.8496C45.3518 56.8496 51.4072 54.4729 56.0501 50.1571V50.1571Z" fill="#222222"/>
<path d="M38.9998 6.7146C32.6474 6.7146 26.5915 9.09129 21.9476 13.407C21.3309 13.98 21.2956 14.9443 21.8686 15.561C22.4415 16.1775 23.4059 16.2127 24.0225 15.6399C28.1007 11.8501 33.4197 9.76281 38.9998 9.76281C44.5798 9.76281 49.8983 11.8499 53.9755 15.6398C54.269 15.9127 54.6414 16.0476 55.0128 16.0476C55.4216 16.0476 55.8293 15.8842 56.1295 15.5613C56.7026 14.9446 56.6674 13.9803 56.0509 13.4073C51.4078 9.09145 45.3524 6.7146 38.9998 6.7146V6.7146Z" fill="#222222"/>
<path d="M77.5702 58.9152L65.9744 47.3195C66.4987 46.4098 66.9775 45.472 67.4094 44.5076H68.4072C71.0238 44.5076 73.1525 42.3788 73.1525 39.7623V38.6686C73.1525 37.8269 72.4702 37.1444 71.6284 37.1444C70.7867 37.1444 70.1043 37.8269 70.1043 38.6686V39.7623C70.1043 40.6981 69.343 41.4593 68.4072 41.4593H9.59087C8.65506 41.4593 7.89362 40.6981 7.89362 39.7623V23.8023C7.89362 22.8663 8.65506 22.105 9.59087 22.105H68.4072C69.343 22.105 70.1043 22.8663 70.1043 23.8023V25.2608C70.1043 26.1024 70.7867 26.7849 71.6284 26.7849C72.4702 26.7849 73.1525 26.1024 73.1525 25.2608V23.8023C73.1525 21.1857 71.0238 19.0568 68.4072 19.0568H67.4094C65.8604 15.5972 63.7113 12.4775 61.0074 9.77361C55.1286 3.89498 47.3127 0.657471 38.9993 0.657471C30.6865 0.657471 22.8701 3.89498 16.9898 9.77361C14.2857 12.4777 12.1366 15.5974 10.5878 19.0568H9.59087C6.97428 19.0568 4.84541 21.1857 4.84541 23.8023V39.7623C4.84541 42.3788 6.97413 44.5076 9.59087 44.5076H10.5866C11.0188 45.4722 11.4983 46.4106 12.0223 47.3203L0.428544 58.9154C-0.453762 59.7977 0.108786 61.3928 1.36419 61.5103L14.5902 62.7496L15.8293 75.9755C15.9459 77.2184 17.5299 77.8056 18.4244 76.9111L33.0068 62.3302C36.9536 63.0992 41.0471 63.0986 44.9942 62.3326L59.5743 76.9111C60.4579 77.7948 62.0517 77.2303 62.1694 75.9755L63.4085 62.7496L76.6345 61.5103C77.877 61.3941 78.4616 59.807 77.5702 58.9152V58.9152ZM19.1452 11.9293C24.4497 6.62618 31.5007 3.70569 38.9994 3.70569C46.4986 3.70569 53.549 6.62618 58.852 11.9292C60.9629 14.04 62.7001 16.4303 64.0349 19.0569H13.9625C15.2971 16.4303 17.0343 14.04 19.1452 11.9293V11.9293ZM18.5618 72.4633L17.5074 61.2078C17.4391 60.4784 16.8615 59.9009 16.132 59.8326L4.8765 58.7781L13.7121 49.9415C15.815 52.8679 18.4228 55.4211 21.4463 57.4893C23.9696 59.2152 26.7037 60.5438 29.5722 61.454L18.5618 72.4633ZM32.8259 59.1782C25.6115 57.5599 19.1999 53.0275 15.2328 46.7405C15.2288 46.7343 15.2241 46.7288 15.22 46.7227C14.7689 46.0051 14.3487 45.2666 13.9629 44.5076H64.0346C63.6488 45.2666 63.2285 46.0051 62.7763 46.7236C58.6894 52.9801 52.5076 57.5391 45.1544 59.1826C41.1129 60.0859 36.8674 60.0839 32.8259 59.1782V59.1782ZM61.8667 59.8326C61.1372 59.9009 60.5596 60.4784 60.4913 61.2078L59.4369 72.4633L48.4303 61.4578C54.7809 59.4473 60.3945 55.3406 64.283 49.939L73.1221 58.7781L61.8667 59.8326Z" fill="#222222"/>
<path d="M24.123 26.1266V37.4375C24.123 38.2791 24.8054 38.9616 25.6472 38.9616C26.4889 38.9616 27.1713 38.2791 27.1713 37.4375V26.1266C27.1713 25.285 26.4889 24.6025 25.6472 24.6025C24.8054 24.6025 24.123 25.285 24.123 26.1266Z" fill="#222222"/>
<path d="M35.8329 35.913C34.7393 35.913 33.688 35.4733 33.0206 34.7368C32.4553 34.1132 31.4913 34.0659 30.8678 34.6312C30.2441 35.1964 30.1967 36.1602 30.762 36.784C32.016 38.1676 33.8643 38.9612 35.8329 38.9612C38.2701 38.9612 40.3172 37.4021 40.7009 35.2537C40.9903 33.6326 40.2599 31.517 37.3423 30.441C35.972 29.9354 34.6948 29.3852 34.283 29.2054C34.0302 28.9929 34.0391 28.702 34.0568 28.5798C34.0824 28.401 34.214 27.9637 34.8791 27.7634C36.4164 27.3007 37.8523 28.4327 37.8906 28.4633C38.5348 28.9971 39.49 28.9111 40.0292 28.2699C40.5709 27.6255 40.4875 26.6643 39.8432 26.1226C39.7347 26.0311 37.1465 23.8969 34 24.8446C32.3969 25.3276 31.2627 26.5928 31.0395 28.1466C30.83 29.6072 31.4631 31.0122 32.6921 31.8135C32.7595 31.8573 32.8302 31.8959 32.9035 31.9287C32.9692 31.9578 34.5299 32.6526 36.2875 33.301C36.6542 33.4363 37.8395 33.9381 37.7002 34.7181C37.5953 35.3053 36.8682 35.913 35.8329 35.913V35.913Z" fill="#222222"/>
<path d="M42.5664 31.782C42.5664 35.7409 45.7872 38.9615 49.7459 38.9615C53.7046 38.9615 56.9253 35.7407 56.9253 31.782C56.9253 27.8233 53.7046 24.6025 49.7459 24.6025C45.7872 24.6025 42.5664 27.8231 42.5664 31.782ZM53.8773 31.782C53.8773 34.0599 52.0239 35.9132 49.746 35.9132C47.4681 35.9132 45.6148 34.0599 45.6148 31.782C45.6148 29.5041 47.4681 27.6508 49.746 27.6508C52.0239 27.6508 53.8773 29.5039 53.8773 31.782Z" fill="#222222"/>
<path d="M73.0358 31.1989C72.7206 30.4305 71.8111 30.0572 71.0453 30.3744C70.2785 30.6918 69.9026 31.5982 70.2207 32.365C70.539 33.1319 71.4444 33.5061 72.2112 33.1896C72.9777 32.873 73.3546 31.9648 73.0358 31.1989Z" fill="#222222"/>
</g>
<defs>
<clipPath id="clip0_29_2847">
<rect width="78" height="78" fill="white"/>
</clipPath>
</defs>
</svg>
