<svg width="1627" height="427" viewBox="0 0 1627 427" fill="none" xmlns="http://www.w3.org/2000/svg">
<path d="M1745.9 74.1509L1746.29 73.7599L1745.9 74.1507C1710.39 35.6588 1648.86 -13.8269 1557.56 -31.053C1431.69 -54.7991 1282.89 -12.9356 1115.21 93.5892C1063.32 126.541 1021.44 161.528 980.895 195.394L980.756 195.509L980.576 195.66C915.563 249.97 859.283 296.984 784.06 314.81C701.8 334.332 603.837 315.893 475.769 256.984C461.002 250.199 446.711 243.473 432.813 236.931C429.95 235.583 427.104 234.244 424.273 232.913L424.507 232.407L424.273 232.913L424.179 232.868C344.796 195.478 276.336 163.234 208.278 153.601C192.965 151.434 177.803 150.464 162.699 150.717C177.703 150.511 192.545 151.532 207.373 153.619C275.156 163.156 342.613 194.935 423.731 233.15L423.857 233.21L423.623 233.715L423.857 233.21C440.439 241.026 457.569 249.083 475.374 257.263L475.145 257.771L475.375 257.263C603.67 316.288 701.723 334.605 784.001 315.085C859.385 297.212 915.674 250.196 980.949 195.674L981.022 195.613C1021.54 161.742 1063.47 126.72 1115.4 93.7281C1282.79 -12.59 1431.45 -54.5422 1557.24 -30.7852C1648.47 -13.5815 1709.93 35.8743 1745.44 74.3145L1745.44 74.3149C1781.52 113.453 1798.83 149.413 1800.98 154.057L1801.44 153.826C1801.44 153.825 1801.44 153.824 1801.44 153.824C1801.3 153.515 1801.09 153.066 1800.81 152.487C1800.25 151.329 1799.42 149.647 1798.31 147.509C1796.08 143.232 1792.72 137.13 1788.16 129.736C1779.05 114.948 1765.14 94.9957 1745.9 74.1509ZM90.4281 161.366C57.418 170.544 23.9778 185.699 -10.8561 207.073L-10.7216 207.3C25.3454 185.162 58.6702 170.289 90.4281 161.366Z" stroke="#FFE1B0" stroke-opacity="0.5" stroke-width="1.08663" stroke-miterlimit="5.75877"/>
<path d="M1692.42 117.629L1692.82 117.242L1692.42 117.629C1663.58 85.7241 1612.84 43.7857 1535.04 25.2396C1415.73 -3.19908 1268.97 29.6909 1098.77 123.174C1032.95 159.325 983.544 200.466 939.919 236.826L939.596 236.398L939.919 236.826L939.854 236.881C883.219 284.048 834.323 324.771 767.46 340.178C700.565 355.593 615.771 345.654 487.318 291.737C479.89 288.621 472.53 285.51 465.23 282.424C463.419 281.658 461.611 280.894 459.806 280.132L460.022 279.617L459.806 280.131C371.727 242.839 295.764 210.689 219.533 202.742L219.604 202.191L219.532 202.742C135.618 193.961 62.2929 216.874 -11.1569 274.771L-10.9891 274.966C68.8275 212.005 143.032 194.98 218.95 202.888C294.913 210.801 372.583 243.678 459.264 280.369L459.393 280.423C461.2 281.186 463.01 281.952 464.824 282.719C472.122 285.803 479.478 288.913 486.903 292.028C615.726 346.092 700.599 355.966 767.45 340.546C834.309 325.125 883.229 284.39 940.168 236.967L940.396 236.777C983.897 200.556 1033.24 159.472 1098.88 123.434C1268.76 30.1217 1415.41 -2.85371 1534.64 25.5729C1612.37 44.0895 1663.04 85.9846 1691.89 117.866C1721.05 149.988 1734.35 178.7 1736.16 182.802L1736.63 182.579C1736.53 182.339 1736.38 182.016 1736.19 181.613C1735.77 180.683 1735.13 179.33 1734.26 177.605C1732.54 174.157 1729.92 169.223 1726.33 163.218C1719.15 151.207 1708.06 134.909 1692.42 117.629Z" stroke="#FFE1B0" stroke-opacity="0.5" stroke-width="1.08663" stroke-miterlimit="5.75877"/>
<path d="M478.33 309.242L478.531 308.723L478.329 309.242L478.218 309.199C390.906 275.2 308.508 243.115 228.554 236.915C139.314 229.985 64.3352 256.098 -7.41166 319.117L-7.22937 319.289C71.0376 250.498 148.25 230.872 227.903 237.033C307.623 243.199 389.788 275.197 477.871 309.5L477.923 309.519C480.479 310.51 483.036 311.505 485.596 312.501C488.746 313.726 491.9 314.953 495.066 316.177L494.865 316.697L495.066 316.177C608.69 360.237 693.191 373.293 761.045 357.403C823.843 342.698 869.39 304.854 922.289 260.903L922.297 260.896L922.323 260.875C967.732 223.138 1019.23 180.341 1092.36 143.272C1263.61 56.4936 1408.82 27.2882 1523.89 56.6449C1654.08 89.8514 1699.72 188.835 1703.22 196.845L1703.66 196.628C1700.22 188.752 1654.54 89.6209 1524.21 56.3521C1409.1 26.9783 1263.78 56.1328 1092.23 143.052C1019.03 180.149 967.507 222.961 922.017 260.767L921.99 260.789C869.342 304.55 823.759 342.438 761.13 357.112C693.319 372.994 608.896 359.848 495.474 315.901C492.304 314.675 489.14 313.444 485.982 312.215C483.427 311.222 480.877 310.229 478.33 309.242Z" stroke="#FFE1B0" stroke-opacity="0.5" stroke-width="1.08663" stroke-miterlimit="5.75877"/>
<path d="M510.524 347.846L510.528 347.848C615.671 385.271 692.492 396.138 752.146 381.946C807.351 368.825 845.801 335.462 890.181 296.952L890.25 296.892C937.604 255.798 991.211 209.323 1080.02 171.538C1187.17 125.986 1283.57 100.74 1366.52 96.4416L1366.51 95.8884L1366.52 96.4416C1432.94 92.988 1490.93 102.91 1538.91 125.884C1579.77 145.453 1606.36 171.328 1622.76 192.384C1630.96 202.913 1636.62 212.238 1640.23 218.967C1642.04 222.332 1643.34 225.047 1644.19 226.94C1644.62 227.886 1644.94 228.627 1645.15 229.14C1645.2 229.268 1645.25 229.383 1645.29 229.483L1644.9 229.665C1642.36 223.38 1616.28 163.331 1538.52 126.146C1463.11 90.0671 1322.45 68.7974 1080.18 171.803C991.557 209.437 937.99 255.91 890.792 296.858L890.608 297.018C845.97 335.76 807.511 369.081 752.136 382.257C692.419 396.431 615.584 385.644 510.179 348.151L508.385 347.496L508.381 347.495C419.602 315.841 327.709 283.128 239.757 278.906C140.607 274.134 60.3889 307.419 -5.40342 380.607L-5.65513 380.429C60.2836 307.128 140.634 273.831 239.985 278.588C327.944 282.832 419.807 315.516 508.727 347.19L508.731 347.191M510.524 347.846L508.919 346.666L508.731 347.191M510.524 347.846L508.731 347.191M510.524 347.846L508.731 347.191" stroke="#FFE1B0" stroke-opacity="0.5" stroke-width="1.08663" stroke-miterlimit="5.75877"/>
<path d="M1512.14 159.02L1511.91 159.526L1512.14 159.02C1585.07 193.311 1607.71 247.662 1609.99 253.678L1610.47 253.48C1608.22 247.636 1585.57 193.109 1512.5 158.751C1467.32 137.525 1411.96 128.035 1347.96 130.545C1268.03 133.699 1174.29 155.727 1069.4 196.059C972.378 233.338 918.593 281.376 871.102 323.807L870.948 323.944C830.491 360.069 795.422 391.383 743.738 404.113C687.805 417.901 614.75 408.594 513.875 374.953L514.053 374.425L513.875 374.953C428.329 346.417 331.487 314.112 239.564 311.869C135.739 309.354 54.6823 346.054 -8.24444 424.072L-7.97515 424.232C54.8129 346.303 135.735 309.637 239.341 312.172C331.165 314.416 428.029 346.709 513.431 375.18L513.525 375.212L513.346 375.74L513.525 375.212C614.638 408.939 687.748 418.181 743.699 404.377C795.616 391.572 830.679 360.283 871.427 323.894C918.816 281.561 972.601 233.528 1069.49 196.302C1306.73 105.116 1441.1 125.638 1512.14 159.02Z" stroke="#FFE1B0" stroke-opacity="0.5" stroke-width="1.08663" stroke-miterlimit="5.75877"/>
</svg>
