<svg width="78" height="78" viewBox="0 0 78 78" fill="none" xmlns="http://www.w3.org/2000/svg">
<g clip-path="url(#clip0_29_2832)">
<path d="M12.9597 69.3062C12.6765 69.0227 12.2835 68.8599 11.8828 68.8599C11.4821 68.8599 11.0891 69.0227 10.8057 69.3062C10.5224 69.5897 10.3594 69.9826 10.3594 70.3833C10.3594 70.784 10.5222 71.177 10.8057 71.4602C11.0891 71.7436 11.4821 71.9067 11.8828 71.9067C12.2835 71.9067 12.6765 71.7437 12.9597 71.4602C13.2431 71.177 13.4062 70.784 13.4062 70.3833C13.4062 69.9826 13.2432 69.5896 12.9597 69.3062Z" fill="#222222"/>
<path d="M71.5263 27.8692C71.2429 27.5857 70.8514 27.4229 70.4492 27.4229C70.0486 27.4229 69.6555 27.5857 69.3721 27.8692C69.0889 28.1526 68.9258 28.5456 68.9258 28.9463C68.9258 29.347 69.0888 29.74 69.3721 30.0232C69.6555 30.3066 70.0486 30.4697 70.4492 30.4697C70.8514 30.4697 71.2429 30.3067 71.5263 30.0232C71.811 29.74 71.974 29.347 71.974 28.9463C71.974 28.5456 71.811 28.1526 71.5263 27.8692Z" fill="#222222"/>
<path d="M77.5479 0.446215C77.2621 0.16057 76.8745 0 76.4704 0L38.9947 0.00198047C38.1535 0.00198047 37.4714 0.684176 37.4714 1.52542V5.88199L23.0309 9.75137C22.2182 9.96922 21.7359 10.8045 21.9537 11.6171L29.4379 39.5481L22.9634 46.0226C22.1394 44.8194 20.7558 44.0281 19.1908 44.0281H4.56625C2.04618 44.0281 -0.00390625 46.0783 -0.00390625 48.5983V73.4297C-0.00390625 75.9498 2.04618 78 4.56625 78H19.1909C21.3318 78 23.1328 76.5198 23.6264 74.5296L25.4378 76.1093C26.8362 77.3286 28.6277 78.0001 30.4831 78.0001H76.4707C77.3119 78.0001 77.9941 77.318 77.9941 76.4767V1.52344C77.9938 1.11942 77.8335 0.731859 77.5479 0.446215ZM20.7141 73.4298C20.7141 74.2697 20.0307 74.9533 19.1906 74.9533H4.5661C3.72608 74.9533 3.04266 74.2699 3.04266 73.4298V48.5984C3.04266 47.7584 3.72608 47.075 4.5661 47.075H10.355V64.6242C10.355 65.4655 11.0372 66.1477 11.8784 66.1477C12.7197 66.1477 13.4019 65.4655 13.4019 64.6242V47.075H19.1908C20.0308 47.075 20.7142 47.7584 20.7142 48.5984V73.4298H20.7141ZM25.2909 12.3001L37.4714 9.03627V14.6814L36.4504 14.955C36.06 15.0596 35.7274 15.3148 35.5254 15.6647C35.3234 16.0147 35.2685 16.4304 35.3732 16.8207C35.9587 19.0055 34.6575 21.2591 32.4727 21.8446C32.082 21.9494 31.7488 22.205 31.5469 22.5557C31.3451 22.9063 31.2907 23.3228 31.3963 23.7134L37.3345 45.7024H34.2769L32.7012 39.5379C32.6511 39.3417 32.5634 39.1609 32.4459 39.0037L25.2909 12.3001ZM37.4714 21.6677V34.5226L34.6928 24.2341C35.8535 23.6348 36.8034 22.7381 37.4714 21.6677ZM59.3577 74.9531H30.4828C29.3639 74.9531 28.2833 74.5482 27.4399 73.8128L23.761 70.6043V49.5341L30.412 42.8831L31.6182 47.6027C31.7907 48.2771 32.3981 48.7488 33.0941 48.7488L63.0455 48.7506C64.2216 48.7506 65.1783 49.7073 65.1783 50.8834C65.1783 52.0595 64.2216 53.0162 63.0455 53.0162H47.6984C46.8572 53.0162 46.175 53.6984 46.175 54.5397C46.175 55.3809 46.8572 56.0631 47.6984 56.0631H67.8139C68.99 56.0631 69.9467 57.0198 69.9467 58.1959C69.9467 59.372 68.99 60.3287 67.8139 60.3287H47.6984C46.8572 60.3287 46.175 61.0109 46.175 61.8522C46.175 62.6934 46.8572 63.3756 47.6984 63.3756H64.5542C65.7303 63.3756 66.687 64.3323 66.687 65.5084C66.687 66.6845 65.7303 67.6412 64.5542 67.6412H47.6984C46.8572 67.6412 46.175 68.3234 46.175 69.1647C46.175 70.0059 46.8572 70.6881 47.6984 70.6881H59.3577C60.5338 70.6881 61.4906 71.6448 61.4906 72.8209C61.4904 73.9964 60.5337 74.9531 59.3577 74.9531ZM74.9472 74.9531H74.9471H64.076C64.3714 74.3022 64.5373 73.5805 64.5373 72.8203C64.5373 72.0601 64.3714 71.3385 64.076 70.6875H64.5542C67.4102 70.6875 69.7337 68.364 69.7337 65.508C69.7337 64.675 69.5349 63.8878 69.1839 63.1897C71.3771 62.5874 72.9933 60.5772 72.9933 58.1956C72.9933 57.0402 72.6127 55.9722 71.9709 55.1099V35.8018C71.9709 34.9606 71.2887 34.2784 70.4475 34.2784C69.6062 34.2784 68.924 34.9606 68.924 35.8018V53.1373C68.566 53.0589 68.1947 53.0162 67.8136 53.0162H67.7636C68.059 52.3653 68.2249 51.6436 68.2249 50.8834C68.2249 48.0273 65.9014 45.7039 63.0454 45.7039H60.5965C63.1968 44.5887 65.0231 42.0041 65.0231 39C65.0231 34.9798 61.7526 31.7091 57.7324 31.7091C53.7123 31.7091 50.4417 34.9798 50.4417 39C50.4417 42.0041 52.2681 44.5887 54.8683 45.7039H46.5408V16.7369C49.2622 16.1439 51.4097 13.9966 52.0026 11.275H63.462C64.055 13.9966 66.2024 16.1439 68.9239 16.7369V21.4733C68.9239 22.3146 69.6061 22.9967 70.4473 22.9967C71.2885 22.9967 71.9707 22.3146 71.9707 21.4733V15.3768C71.9707 14.5356 71.2885 13.8534 70.4473 13.8534C68.1855 13.8534 66.3456 12.0132 66.3456 9.75152C66.3456 8.91028 65.6634 8.22809 64.8222 8.22809H50.6426C49.8014 8.22809 49.1192 8.91028 49.1192 9.75152C49.1192 12.0134 47.2792 13.8534 45.0175 13.8534C44.1762 13.8534 43.494 14.5356 43.494 15.3768V45.7037H40.5185V3.04855L74.9472 3.04688V74.9531ZM57.7327 43.244C55.3925 43.244 53.4889 41.3402 53.4889 39.0002C53.4889 36.6602 55.3927 34.7562 57.7327 34.7562C60.0727 34.7562 61.9765 36.66 61.9765 39C61.9765 41.34 60.0728 43.244 57.7327 43.244Z" fill="#222222"/>
</g>
<defs>
<clipPath id="clip0_29_2832">
<rect width="78" height="78" fill="white"/>
</clipPath>
</defs>
</svg>
