<svg width="475" height="274" viewBox="0 0 475 274" fill="none" xmlns="http://www.w3.org/2000/svg">
<path d="M394.564 97.5589C394.564 100.359 365.881 105.104 365.433 105.104C364.985 105.104 359.399 104.138 359.399 104.138L349.194 105.104C348.882 104.791 348.627 104.426 348.438 104.026C348.029 103.175 347.787 102.253 347.724 101.311C347.724 101.031 347.724 100.737 347.724 100.415C347.749 98.1772 348.06 95.9521 348.648 93.7932C350.744 93.9816 352.856 93.7466 354.86 93.1021C356.863 92.4576 358.716 91.4167 360.309 90.0414C361.793 86.3737 363.809 82.384 366.021 80.6621C366.021 80.6621 386.179 82.062 390.393 84.4979C394.536 86.9477 394.564 97.5589 394.564 97.5589Z" fill="#EB222A"/>
<g opacity="0.2">
<path d="M394.564 97.5589C394.564 100.359 365.881 105.104 365.433 105.104C364.985 105.104 359.399 104.138 359.399 104.138L349.194 105.104C348.882 104.791 348.627 104.426 348.438 104.026C348.029 103.175 347.787 102.253 347.724 101.311C347.724 101.031 347.724 100.737 347.724 100.415C347.749 98.1772 348.06 95.9521 348.648 93.7932C350.744 93.9816 352.856 93.7466 354.86 93.1021C356.863 92.4576 358.716 91.4167 360.309 90.0414C361.793 86.3737 363.809 82.384 366.021 80.6621C366.021 80.6621 386.179 82.062 390.393 84.4979C394.536 86.9477 394.564 97.5589 394.564 97.5589Z" fill="black"/>
</g>
<path d="M383.813 98.0487C383.813 98.0487 367.659 63.6672 304.663 12.8229C304.663 12.8229 169.237 -5.64179 80.4835 13.0329C80.4835 13.0329 44.7721 62.1273 40.8804 86.6955C36.9887 111.264 383.813 98.0487 383.813 98.0487Z" fill="#263238"/>
<g opacity="0.7">
<path d="M130.25 11.5068C129.186 19.6682 126.974 41.1427 126.47 82.4956C176.67 87.5913 215.196 93.7788 215.196 93.7788C203.521 49.1641 172.107 14.8946 172.107 14.8946C158.245 12.8426 144.262 11.7109 130.25 11.5068Z" fill="white"/>
<path d="M46.508 76.602C54.4174 76.924 62.3548 77.33 70.2222 77.8339L72.0701 77.9459L75.5418 78.1839L77.1938 78.2819C91.9347 79.2758 106.438 80.5217 120.171 81.8656C120.703 64.7029 121.99 32.8692 124.832 11.4788C110.563 11.3711 96.3109 12.4905 82.2334 14.8245L81.7714 14.9085C81.7674 14.9364 81.7674 14.9647 81.7714 14.9925C81.3794 15.4685 80.9875 15.9724 80.5955 16.3924L80.1475 16.9804C59.807 43.0745 46.508 76.602 46.508 76.602Z" fill="white"/>
<path d="M375.624 87.8015C375.624 87.8015 324.682 78.0022 227.081 87.8015C227.081 87.8015 207.412 43.6067 181.458 14.9088C181.458 14.9088 244.579 5.36147 305.041 14.9088C331.357 36.3417 355.049 60.8089 375.624 87.8015Z" fill="white"/>
</g>
<path opacity="0.2" d="M199.839 10.6671C199.839 10.6671 254.435 7.74128 284.561 10.4711C314.686 13.2009 319.922 25.576 319.922 25.576C311.886 22.385 303.592 19.8887 295.13 18.1145C295.13 20.7743 295.018 24.764 293.926 26.3179C293.1 27.4798 280.431 25.912 277.841 24.4701C276.091 23.4901 273.865 18.6465 272.605 15.5947C245.867 13.4949 199.839 10.6671 199.839 10.6671ZM279.073 22.4822C280.095 22.9022 289.572 24.708 292.092 24.2741C292.82 24.1481 292.946 20.6483 292.918 17.7085C291.42 17.4426 289.908 17.2046 288.41 17.0226C285.611 16.7006 281.089 16.2807 275.405 15.8187C276.665 18.7865 278.177 22.1042 279.073 22.4822Z" fill="black"/>
<path opacity="0.2" d="M63.5446 64.157C65.348 60.7472 68.3886 58.1574 72.042 56.9196C72.042 56.9196 69.5501 40.9048 72.042 38.4269C74.5338 35.9491 96.2322 36.6211 101.104 38.4269C104.618 39.7149 107.165 48.3942 108.313 53.1399H177.524C176.95 48.2402 176.306 40.1348 178.014 38.4269C180.506 35.9351 202.218 36.6211 207.09 38.4269C211.962 40.2328 214.986 56.3036 214.986 56.3036C218.901 57.0581 222.575 58.7487 225.695 61.2313C231.294 65.431 236.208 106.7 236.208 106.7H65.1405C65.1405 106.7 60.8988 69.6446 63.5446 64.157Z" fill="black"/>
<path d="M292.904 104.138C292.904 104.138 287.92 62.9114 282.405 58.6697C279.282 56.1805 275.602 54.485 271.681 53.728C271.681 53.728 268.658 37.7272 263.786 35.9213C258.914 34.1155 237.188 33.4435 234.724 35.9213C232.26 38.3991 234.724 54.414 234.724 54.414C231.073 55.6498 228.036 58.2407 226.241 61.6515C223.581 67.1531 227.823 104.138 227.823 104.138H292.904Z" fill="#263238"/>
<path opacity="0.4" d="M292.904 104.138C292.904 104.138 287.92 62.9114 282.405 58.6697C279.282 56.1805 275.602 54.485 271.681 53.728C271.681 53.728 268.658 37.7272 263.786 35.9213C258.914 34.1155 237.188 33.4435 234.724 35.9213C232.26 38.3991 234.724 54.414 234.724 54.414C231.073 55.6498 228.036 58.2407 226.241 61.6515C223.581 67.1531 227.823 104.138 227.823 104.138H292.904Z" fill="white"/>
<path d="M276.343 77.3023C277.409 76.7796 278.447 76.2001 279.451 75.5665C280.417 74.9505 281.383 74.3346 282.251 73.6346C284.159 72.2003 285.926 70.5878 287.528 68.819C289.315 66.8312 290.69 64.5094 291.574 61.9875C291.793 61.2807 291.966 60.5606 292.092 59.8316L292.33 57.9278C292.4 56.7659 292.456 55.6039 292.442 54.512C292.392 50.2569 292.097 46.0083 291.56 41.7869C291.084 37.5873 290.496 33.4995 289.684 29.3558C289.574 28.7723 289.25 28.2507 288.776 27.8924C288.303 27.5341 287.713 27.3647 287.121 27.417C286.53 27.4694 285.979 27.7398 285.575 28.1757C285.172 28.6116 284.945 29.1819 284.939 29.7758L284.659 42.1089C284.519 46.1826 284.463 50.2983 284.113 54.1761C284.083 55.7945 283.79 57.3973 283.245 58.9217C282.571 60.2401 281.676 61.4333 280.599 62.4495C279.359 63.6904 278.005 64.8107 276.553 65.7952C275.797 66.3131 275.055 66.8451 274.257 67.3211C273.459 67.797 272.62 68.315 271.99 68.721L271.808 68.833C270.692 69.4355 269.86 70.4534 269.49 71.6659C269.121 72.8784 269.244 74.1877 269.834 75.3098C270.423 76.4319 271.431 77.2763 272.64 77.6598C273.848 78.0433 275.158 77.935 276.287 77.3584L276.343 77.3023Z" fill="#E4897B"/>
<path d="M282.265 23.0141L281.509 25.2679C281.37 25.6859 281.332 26.1307 281.398 26.566C281.464 27.0014 281.631 27.4152 281.887 27.7737L284.351 31.1055C284.831 31.7684 285.463 32.3072 286.193 32.6772C286.923 33.0473 287.731 33.2379 288.55 33.2334H289.572C291.098 29.5796 290.048 24.526 290.048 24.526L289.908 23.0561C289.887 22.7525 289.806 22.4561 289.67 22.1839C289.533 21.9117 289.345 21.6691 289.114 21.4701C288.884 21.271 288.617 21.1195 288.328 21.0241C288.039 20.9287 287.734 20.8914 287.43 20.9143L284.505 21.1522C283.991 21.2111 283.505 21.4186 283.107 21.7493C282.709 22.08 282.417 22.5196 282.265 23.0141Z" fill="#E4897B"/>
<path d="M270.044 66.7752C270.044 66.7752 281.159 60.5177 282.405 58.6698C283.651 56.8219 284.21 42.585 284.21 42.585L292.904 46.5047C292.904 46.5047 294.374 59.1038 292.904 64.0454C291.434 68.987 280.305 80.6762 280.305 80.6762L270.044 66.7752Z" fill="white"/>
<path d="M268.518 33.6254C275.181 39.057 274.397 54.6239 266.908 64.9411C266.908 64.9411 250.935 66.341 242.06 62.3093C233.184 58.2776 242.998 33.0375 252.377 31.0356C257.891 29.8345 263.656 30.7595 268.518 33.6254Z" fill="#263238"/>
<path d="M268.14 49.8641C270.575 45.6644 272.997 34.3112 262.848 30.7975C250.249 26.4298 244.509 34.4932 243.417 42.5006C242.325 50.508 246.833 56.4996 255.205 55.9536C263.576 55.4077 266.446 52.7759 268.14 49.8641Z" fill="#263238"/>
<path d="M281.733 81.866C282.965 87.7175 280.795 101.465 280.445 111.908L250.613 115.352C250.396 110.097 249.541 104.888 248.065 99.8407C246.945 95.445 245.349 90.0413 243.152 83.5038C242.83 82.5239 242.508 81.53 242.144 80.4941C241.754 79.459 241.6 78.3501 241.693 77.248C241.786 76.1459 242.124 75.0784 242.682 74.1235C243.24 73.1685 244.004 72.3501 244.918 71.7279C245.832 71.1056 246.874 70.6953 247.967 70.5268C249.213 70.3308 250.557 70.1628 251.915 70.0228C257.221 69.4908 260.174 68.3569 264.92 68.5389C266.488 68.5389 269.652 67.139 271.234 67.321C276.875 67.797 280.571 76.3784 281.733 81.866Z" fill="#EB222A"/>
<path d="M252.069 53.728C253.567 58.3057 255.555 66.7191 252.713 69.9808C252.713 69.9808 257.067 69.0849 266.712 74.3625C269.204 70.3448 267.132 69.2109 267.132 69.2109C261.798 68.259 261.434 64.4232 261.882 60.8115L252.069 53.728Z" fill="#E4897B"/>
<path opacity="0.2" d="M256.073 56.6118L261.882 60.8115C261.764 61.6647 261.722 62.5267 261.756 63.3873C259.74 63.2053 256.759 61.1895 256.283 59.1876C256.048 58.3504 255.977 57.4759 256.073 56.6118Z" fill="black"/>
<path d="M250.067 43.0471C249.969 50.6905 249.759 53.9103 253.315 58.096C258.649 64.3955 268.042 62.8556 270.422 55.4082C272.563 48.7026 272.368 37.3495 265.158 33.7657C263.572 32.9689 261.809 32.5907 260.036 32.6668C258.262 32.743 256.538 33.271 255.026 34.2008C253.514 35.1307 252.265 36.4314 251.397 37.9796C250.529 39.5279 250.071 41.2722 250.067 43.0471Z" fill="#E4897B"/>
<path d="M256.549 35.9075C258.663 38.5673 253.833 46.9247 250.039 48.3386C242.662 45.9167 250.235 27.998 256.549 35.9075Z" fill="#263238"/>
<path d="M265.578 32.3516C268.378 33.5975 271.023 38.8751 271.373 40.8349C267.174 41.1569 256.437 36.3273 256.437 36.3273C256.437 36.3273 248.863 37.7272 252.937 34.2974C257.01 30.8677 265.578 32.3516 265.578 32.3516Z" fill="#263238"/>
<path d="M262.764 46.155C262.764 46.7709 263.016 47.3029 263.408 47.3309C263.8 47.3589 264.178 46.8829 264.234 46.2669C264.29 45.651 263.982 45.119 263.576 45.091C263.17 45.063 262.806 45.539 262.764 46.155Z" fill="#263238"/>
<path d="M269.764 46.6867C269.764 47.3026 270.002 47.8206 270.408 47.8626C270.814 47.9046 271.178 47.4146 271.22 46.7987C271.262 46.1827 270.982 45.6508 270.576 45.6228C270.17 45.5948 269.806 46.0707 269.764 46.6867Z" fill="#263238"/>
<path d="M270.394 45.6369L271.905 45.3149C271.905 45.3149 271.065 46.4209 270.394 45.6369Z" fill="#263238"/>
<path d="M266.796 47.4565C267.242 48.9082 267.882 50.2927 268.7 51.5722C268.367 51.7739 267.994 51.9009 267.607 51.9444C267.221 51.9879 266.829 51.9469 266.46 51.8242L266.796 47.4565Z" fill="#DE5753"/>
<path d="M262.904 53.994C263.204 54.0584 263.508 54.1005 263.814 54.1199C263.838 54.1219 263.862 54.119 263.885 54.1116C263.908 54.1042 263.929 54.0923 263.947 54.0767C263.965 54.0611 263.98 54.042 263.991 54.0206C264.002 53.9992 264.008 53.9759 264.01 53.952C264.012 53.9281 264.009 53.904 264.002 53.8812C263.994 53.8584 263.982 53.8372 263.967 53.819C263.951 53.8008 263.932 53.7859 263.911 53.7751C263.889 53.7642 263.866 53.7577 263.842 53.756C263.071 53.7187 262.32 53.4987 261.651 53.1141C260.981 52.7296 260.413 52.1915 259.992 51.5441C259.968 51.5014 259.928 51.4701 259.881 51.4569C259.834 51.4438 259.783 51.45 259.74 51.4741C259.698 51.4983 259.666 51.5384 259.653 51.5856C259.64 51.6329 259.646 51.6834 259.67 51.7261C260.034 52.2983 260.506 52.7931 261.061 53.1823C261.616 53.5714 262.242 53.8473 262.904 53.994Z" fill="#263238"/>
<path d="M247.491 49.8643C247.907 51.2846 248.869 52.4825 250.165 53.1961C251.887 54.12 253.175 52.6781 253.049 50.8303C252.923 48.9824 251.915 46.6306 250.025 46.5046C249.609 46.4781 249.192 46.5554 248.813 46.7295C248.434 46.9036 248.105 47.1691 247.853 47.5021C247.602 47.8351 247.438 48.2253 247.374 48.6375C247.311 49.0498 247.351 49.4714 247.491 49.8643Z" fill="#E4897B"/>
<path d="M259.334 44.3484C259.411 44.3642 259.491 44.3566 259.563 44.3267C259.635 44.2967 259.697 44.2458 259.74 44.1804C260.109 43.7132 260.57 43.3276 261.096 43.0481C261.621 42.7686 262.199 42.6012 262.792 42.5565C262.889 42.5565 262.981 42.5182 263.049 42.45C263.118 42.3817 263.156 42.2891 263.156 42.1926C263.156 42.096 263.118 42.0035 263.049 41.9352C262.981 41.8669 262.889 41.8286 262.792 41.8286C262.082 41.8821 261.392 42.0858 260.767 42.4261C260.142 42.7664 259.596 43.2355 259.166 43.8025C259.141 43.8437 259.124 43.8896 259.117 43.9374C259.11 43.9852 259.112 44.034 259.124 44.0809C259.135 44.1278 259.156 44.1719 259.185 44.2106C259.214 44.2494 259.251 44.2819 259.292 44.3064L259.334 44.3484Z" fill="#263238"/>
<path d="M271.373 43.4251C271.435 43.4409 271.5 43.4401 271.561 43.4229C271.623 43.4057 271.679 43.3727 271.723 43.3271C271.789 43.257 271.826 43.1644 271.826 43.0681C271.826 42.9719 271.789 42.8792 271.723 42.8091C271.316 42.3984 270.816 42.0922 270.265 41.9167C269.714 41.7412 269.129 41.7015 268.56 41.8012C268.507 41.8057 268.457 41.8214 268.411 41.8473C268.366 41.8731 268.326 41.9085 268.296 41.951C268.265 41.9935 268.244 42.0421 268.234 42.0935C268.224 42.1449 268.225 42.1978 268.237 42.2488C268.249 42.2997 268.272 42.3474 268.305 42.3886C268.337 42.4298 268.378 42.4635 268.424 42.4875C268.471 42.5115 268.522 42.5251 268.575 42.5274C268.627 42.5298 268.679 42.5208 268.728 42.5012C269.18 42.437 269.64 42.4796 270.073 42.6254C270.506 42.7713 270.898 43.0164 271.219 43.3411C271.265 43.3784 271.317 43.4069 271.373 43.4251Z" fill="#263238"/>
<path d="M263.394 45.1047L264.92 44.7827C264.92 44.7827 264.066 45.9026 263.394 45.1047Z" fill="#263238"/>
<path opacity="0.2" d="M259.558 87.4795C257.641 93.0791 252.755 97.3488 248.065 99.8406C246.945 95.4449 245.349 90.0413 243.152 83.5038C246.105 79.3881 250.221 76.5043 255.457 77.2602C255.457 77.3022 261.504 81.7539 259.558 87.4795Z" fill="black"/>
<path d="M248.863 113.056C249.227 116.751 244.272 128.455 244.272 128.455H248.219C248.219 128.455 250.641 121.175 253.077 112.496C254.127 108.814 255.163 104.866 256.017 101.115C256.423 99.3647 256.787 97.6568 257.095 96.0469C257.403 94.437 257.697 92.5612 257.865 91.0493C258.281 87.289 257.952 83.4836 256.899 79.8501C255.904 76.2853 254.21 72.9542 251.915 70.0508H252.699C245.237 69.9668 241.22 72.5566 240.702 77.2043C240.864 80.4105 241.38 83.5891 242.242 86.6816C244.398 95.9209 248.037 108.674 248.751 112.44C248.799 112.643 248.836 112.849 248.863 113.056Z" fill="white"/>
<path d="M268.7 67.3209C268.7 67.3209 277.645 81.8939 279.759 87.1855C281.873 92.4771 280.669 107.624 280.669 107.624C280.669 107.624 284.701 89.4253 282.069 80.368C279.437 71.3107 274.887 64.0452 268.7 67.3209Z" fill="white"/>
<path opacity="0.2" d="M242.242 86.6117C244.397 95.851 248.037 108.604 248.751 112.37C250.263 112.44 251.761 112.482 253.077 112.496C254.127 108.814 255.163 104.866 256.017 101.115C256.423 99.3647 256.787 97.6569 257.094 96.047C255.247 95.319 252.713 94.2971 251.733 93.7931C250.137 92.9952 250.683 78.0303 250.683 78.0303C247.199 80.1437 244.297 83.0933 242.242 86.6117Z" fill="black"/>
<path d="M278.905 106.7L276.763 107.722C276.369 107.915 275.934 108.009 275.495 107.997C275.056 107.985 274.626 107.867 274.243 107.652L270.59 105.636C269.872 105.236 269.26 104.67 268.805 103.986C268.349 103.302 268.064 102.519 267.972 101.703L267.86 100.681C271.29 98.7348 276.427 99.1687 276.427 99.1687H277.911C278.215 99.1537 278.518 99.1986 278.804 99.3009C279.09 99.4033 279.353 99.5611 279.578 99.7652C279.803 99.9694 279.985 100.216 280.115 100.491C280.245 100.765 280.319 101.063 280.333 101.367L280.445 104.292C280.446 104.799 280.301 105.295 280.028 105.722C279.755 106.149 279.365 106.488 278.905 106.7Z" fill="#E4897B"/>
<path d="M240.758 76.9525C239.769 81.1221 239.15 85.371 238.91 89.6496C238.76 91.9468 238.831 94.2531 239.12 96.537C239.292 97.9468 239.654 99.3267 240.198 100.639C240.596 101.549 241.13 102.393 241.78 103.145C242.187 103.622 242.658 104.041 243.18 104.39C243.46 104.577 243.755 104.741 244.062 104.88L244.565 105.09C246.886 105.897 249.319 106.331 251.775 106.378C253.932 106.457 256.092 106.401 258.242 106.21C262.407 105.851 266.536 105.158 270.59 104.139C271.155 103.999 271.65 103.658 271.982 103.179C272.314 102.701 272.461 102.118 272.394 101.539C272.327 100.961 272.051 100.426 271.618 100.037C271.186 99.6466 270.626 99.4276 270.044 99.4208H269.96C268.014 99.4208 265.998 99.4208 264.038 99.2948C262.078 99.1688 260.104 99.1689 258.172 99.0149C256.241 98.8609 254.351 98.6789 252.573 98.3989C251.001 98.1888 249.466 97.7649 248.009 97.139L247.827 97.041L248.051 97.153C248.173 97.2177 248.286 97.2977 248.387 97.391C248.513 97.503 248.485 97.461 248.387 97.307C248.239 96.7248 248.15 96.1292 248.121 95.5291C248.056 93.7961 248.112 92.0606 248.289 90.3355C248.457 88.5016 248.737 86.6118 249.045 84.7359C249.353 82.86 249.703 80.9002 250.039 79.1363V78.9823C250.27 77.7458 250.009 76.4678 249.31 75.4218C248.611 74.3758 247.531 73.6447 246.3 73.385C245.069 73.1253 243.785 73.3575 242.723 74.0321C241.661 74.7066 240.906 75.7699 240.618 76.9945L240.758 76.9525Z" fill="#E4897B"/>
<path d="M246.511 72.2912C242.592 70.9893 239.512 75.3989 238.252 83.1404C236.992 90.8818 236.768 102.935 241.052 105.175C245.335 107.415 253.175 107.023 253.175 107.023L257.711 98.2173C257.711 98.2173 249.661 96.8174 248.919 95.6975C248.177 94.5775 249.871 83.8683 250.501 80.6486C251.131 77.4288 250.767 73.7051 246.511 72.2912Z" fill="white"/>
<path d="M203.016 104.138C203.016 104.138 198.033 62.9114 192.517 58.6697C189.394 56.1805 185.715 54.485 181.794 53.728C181.794 53.728 178.77 37.7272 173.899 35.9213C169.027 34.1155 147.301 33.4435 144.837 35.9213C142.373 38.3991 144.837 54.414 144.837 54.414C141.186 55.6498 138.149 58.2407 136.353 61.6515C133.694 67.1531 137.935 104.138 137.935 104.138H203.016Z" fill="#263238"/>
<path opacity="0.4" d="M203.016 104.138C203.016 104.138 198.033 62.9114 192.517 58.6697C189.394 56.1805 185.715 54.485 181.794 53.728C181.794 53.728 178.77 37.7272 173.899 35.9213C169.027 34.1155 147.301 33.4435 144.837 35.9213C142.373 38.3991 144.837 54.414 144.837 54.414C141.186 55.6498 138.149 58.2407 136.353 61.6515C133.694 67.1531 137.935 104.138 137.935 104.138H203.016Z" fill="white"/>
<path d="M184.272 70.3029C186.032 74.8496 188.221 79.2184 190.809 83.35C193.861 88.0116 196.661 92.0853 201.911 95.2351C210.898 99.8128 223.329 96.2011 232.232 93.0653L230.833 87.2837C224.463 87.6757 217.841 88.1516 211.64 87.2837C207.44 86.6117 206.74 85.5058 204.234 82.328C200.778 77.1355 197.83 71.6225 195.429 65.8652L184.23 70.2889L184.272 70.3029Z" fill="#FFB573"/>
<path d="M189.661 60.8677C193.091 61.6516 196.591 66.0753 206.908 84.232C206.908 84.232 208.504 86.4158 215.392 87.1578L215.91 97.923C215.91 97.923 206.25 98.5249 203.856 97.209C201.463 95.8931 185.672 75.3146 185.672 75.3146L189.661 60.8677Z" fill="#263238"/>
<path opacity="0.2" d="M215.392 87.1021L215.91 97.8533C215.91 97.8533 208.168 98.3433 204.822 97.5033C204.486 97.4308 204.161 97.3131 203.856 97.1533C202.457 96.3974 196.619 89.1879 191.929 83.2384C188.528 78.9127 185.742 75.259 185.742 75.259L189.661 60.812C193.077 61.596 196.591 66.0196 206.908 84.1763C206.908 84.3023 208.504 86.4161 215.392 87.1021Z" fill="white"/>
<path opacity="0.2" d="M204.822 97.5587C204.486 97.4862 204.161 97.3685 203.856 97.2087C202.456 96.4528 196.619 89.2433 191.929 83.2937C192.59 79.5698 193.445 75.8831 194.491 72.2485C194.491 72.2485 203.87 86.8075 204.822 97.5587Z" fill="black"/>
<path d="M228.565 88.0396L235.788 84.5259L235.942 94.6892C235.942 94.6892 229.139 96.299 227.907 92.7573L228.565 88.0396Z" fill="#FFB573"/>
<path d="M242.228 85.8978L241.962 94.3112L235.942 94.6892L235.788 84.5259L242.228 85.8978Z" fill="#FFB573"/>
<path d="M215.392 86.6958L219.353 87.4377L219.059 97.979L215.294 99.0569L215.392 86.6958Z" fill="#263238"/>
<path d="M155.308 123.499L198.579 118.908C199.099 118.847 199.58 118.602 199.935 118.217C200.29 117.831 200.494 117.331 200.511 116.808C201.407 74.3628 189.661 60.9378 189.661 60.9378C185.657 60.2356 181.603 59.8472 177.538 59.7759C171.635 59.9325 165.745 60.4326 159.9 61.2737C155.897 61.7948 151.938 62.6137 148.056 63.7236C145.999 64.8575 144.865 74.4328 150.086 103.285C151.486 110.844 152.228 117.424 152.592 121.273C152.622 121.599 152.716 121.915 152.869 122.204C153.022 122.492 153.231 122.748 153.484 122.955C153.737 123.162 154.028 123.317 154.341 123.41C154.654 123.504 154.983 123.534 155.308 123.499Z" fill="#263238"/>
<path d="M185.168 76.3365L193.511 75.4546L195.205 85.3379L191.033 88.7116L186.302 86.9758L185.168 76.3365Z" fill="#263238"/>
<path opacity="0.2" d="M200.511 116.738C200.497 117.261 200.293 117.76 199.937 118.144C199.582 118.528 199.099 118.769 198.579 118.824L155.308 123.499C154.983 123.534 154.654 123.504 154.341 123.41C154.028 123.317 153.737 123.162 153.484 122.955C153.231 122.748 153.022 122.492 152.869 122.204C152.716 121.915 152.622 121.599 152.592 121.273C152.228 117.424 151.444 110.844 150.086 103.285C149.33 99.141 148.71 95.3799 148.224 92.0015C147.228 85.8524 146.602 79.6491 146.349 73.4249C146.209 67.0553 147.007 64.3115 148.042 63.7236C151.929 62.6151 155.892 61.7962 159.9 61.2737C165.746 60.4389 171.635 59.9388 177.538 59.7759C181.603 59.8541 185.656 60.2425 189.661 60.9378C189.661 60.9378 201.407 74.2928 200.511 116.738Z" fill="white"/>
<path d="M160.236 60.7274L174.725 64.0171L174.879 59.9434C174.072 59.07 173.525 57.9886 173.3 56.8212C173.075 55.6537 173.181 54.4466 173.605 53.3359L163.133 43.5366C163.973 49.0662 163.763 56.6817 160.236 60.7274Z" fill="#FFB573"/>
<path d="M169.811 66.6352L172.681 67.4752L175.228 68.7351C175.228 68.7351 180.366 86.6817 181.108 102.221L184.034 104.138L186.624 101.563C186.624 101.563 180.086 73.5647 178.224 68.1751L178.63 66.7752L179.638 63.8774L177.118 62.8975L173.423 64.1154L170.791 64.3954L169.811 66.6352Z" fill="white"/>
<path opacity="0.2" d="M167.403 47.5688L173.591 53.3364C173.282 54.3523 173.058 55.3917 172.919 56.4442C170.511 55.9962 167.319 53.1824 167.137 50.6346C167.036 49.605 167.126 48.5657 167.403 47.5688Z" fill="black"/>
<path d="M160.838 58.0961C165.071 60.3029 169.53 62.0488 174.137 63.3037C174.405 61.3033 174.189 59.2677 173.507 57.3682L180.002 59.79C180.002 59.79 181.024 64.5356 179.876 67.1674L174.99 64.3677L170.329 69.0433C170.329 69.0433 160.292 66.3555 158.248 61.4558L160.838 58.0961Z" fill="#263238"/>
<path opacity="0.2" d="M193.665 76.3364L197.543 88.0815C173.451 107.68 152.746 99.9247 148.224 91.9313C147.228 85.7822 146.601 79.5788 146.349 73.3546C151.248 72.5986 155.7 68.8889 157.548 69.9808C160.656 71.8847 171.547 77.2603 176.726 77.9462C180.912 78.5202 193.665 76.3364 193.665 76.3364Z" fill="black"/>
<path d="M183.712 28.4181C184.986 31.3579 185.112 37.6434 180.66 36.0616C176.208 34.4797 181.472 23.3785 183.712 28.4181Z" fill="#263238"/>
<path d="M162.265 34.7872C162.601 42.6407 162.405 47.2603 166.311 51.306C172.163 57.4236 181.934 53.9099 183.95 46.0844C185.756 39.0849 184.902 27.3958 177.258 24.218C175.567 23.5123 173.725 23.2471 171.903 23.4471C170.081 23.6471 168.34 24.3058 166.843 25.3616C165.345 26.4175 164.139 27.8359 163.339 29.4843C162.538 31.1327 162.169 32.9573 162.265 34.7872Z" fill="#FFB573"/>
<path d="M156.68 27.382L165.079 24.9321L166.479 29.7618L165.919 29.6078C165.919 29.6078 167.109 36.8453 163.637 40.275C157.114 37.4052 153.838 30.9377 156.68 27.382Z" fill="#263238"/>
<path d="M159.074 41.269C159.352 42.2034 159.814 43.0732 160.432 43.8278C161.049 44.5823 161.81 45.2067 162.671 45.6647C164.995 46.8686 166.717 44.9088 166.535 42.4309C166.381 40.2051 164.981 36.8313 162.419 36.7194C161.861 36.6921 161.304 36.8036 160.799 37.0438C160.294 37.284 159.856 37.6455 159.525 38.0961C159.194 38.5466 158.979 39.0721 158.9 39.6258C158.822 40.1794 158.881 40.744 159.074 41.269Z" fill="#FFB573"/>
<path d="M174.151 37.0836C174.151 37.7135 174.459 38.2315 174.879 38.2455C175.299 38.2595 175.649 37.7275 175.663 37.0836C175.677 36.4396 175.341 35.9357 174.921 35.9217C174.501 35.9077 174.165 36.4396 174.151 37.0836Z" fill="#263238"/>
<path d="M181.374 37.1396C181.374 37.7696 181.696 38.3015 182.116 38.3015C182.536 38.3015 182.886 37.7836 182.9 37.1536C182.914 36.5237 182.578 35.9917 182.158 35.9917C181.738 35.9917 181.388 36.4957 181.374 37.1396Z" fill="#263238"/>
<path d="M179.078 37.4336C179.833 39.3278 180.846 41.1085 182.088 42.7252C181.643 43.0181 181.141 43.2133 180.615 43.2977C180.089 43.3822 179.551 43.354 179.036 43.2152L179.078 37.4336Z" fill="#ED893E"/>
<path d="M175.564 45.637C175.839 45.6584 176.116 45.6584 176.39 45.637C176.415 45.639 176.441 45.6357 176.464 45.6274C176.488 45.6191 176.51 45.606 176.528 45.5889C176.547 45.5718 176.561 45.5511 176.571 45.5281C176.581 45.505 176.586 45.4802 176.586 45.455C176.586 45.4068 176.567 45.3605 176.533 45.3264C176.499 45.2922 176.453 45.273 176.404 45.273C175.61 45.284 174.825 45.1071 174.112 44.7568C173.399 44.4065 172.779 43.8926 172.303 43.2572C172.269 43.2247 172.224 43.2065 172.177 43.2065C172.13 43.2065 172.085 43.2247 172.051 43.2572C172.033 43.273 172.019 43.2924 172.009 43.3141C171.999 43.3358 171.994 43.3594 171.994 43.3832C171.994 43.407 171.999 43.4306 172.009 43.4523C172.019 43.474 172.033 43.4934 172.051 43.5092C172.46 44.0853 172.983 44.5714 173.587 44.9374C174.191 45.3034 174.864 45.5415 175.564 45.637Z" fill="#263238"/>
<path d="M171.953 34.7318C172.02 34.7409 172.089 34.7328 172.153 34.7084C172.216 34.6839 172.273 34.6438 172.317 34.5918C172.596 34.21 172.96 33.8985 173.38 33.6822C173.801 33.466 174.266 33.3508 174.739 33.3459C174.828 33.3393 174.911 33.3014 174.975 33.2389C175.039 33.1764 175.078 33.0934 175.087 33.0045C175.095 32.9156 175.072 32.8267 175.021 32.7534C174.97 32.68 174.895 32.6271 174.809 32.604C174.209 32.5946 173.615 32.7281 173.077 32.9934C172.539 33.2587 172.072 33.6483 171.715 34.1299C171.685 34.1682 171.662 34.2121 171.65 34.2592C171.637 34.3062 171.634 34.3554 171.64 34.4037C171.647 34.452 171.663 34.4985 171.688 34.5404C171.713 34.5824 171.745 34.6189 171.785 34.6478L171.953 34.7318Z" fill="#263238"/>
<path d="M184.538 34.6758C184.611 34.696 184.689 34.696 184.762 34.6758C184.85 34.6305 184.919 34.5533 184.952 34.4597C184.986 34.3661 184.983 34.2632 184.944 34.1718C184.704 33.6267 184.336 33.1482 183.87 32.7775C183.404 32.4067 182.855 32.155 182.27 32.0439C182.179 32.0449 182.091 32.0786 182.023 32.1389C181.955 32.1993 181.911 32.2822 181.899 32.3724C181.887 32.4626 181.908 32.5541 181.958 32.6301C182.009 32.706 182.084 32.7614 182.172 32.7859C182.635 32.8672 183.07 33.0636 183.437 33.3572C183.804 33.6508 184.091 34.032 184.272 34.4658C184.295 34.5204 184.331 34.5684 184.378 34.6051C184.424 34.6418 184.479 34.6661 184.538 34.6758Z" fill="#263238"/>
<path d="M163.749 32.0717C163.936 32.1682 164.133 32.2434 164.337 32.2957C164.901 32.4766 165.501 32.5112 166.081 32.3961C166.662 32.281 167.203 32.02 167.655 31.6377C169.517 30.0838 168.719 23.9243 175.466 25.5202C176.089 25.2027 176.791 25.0721 177.486 25.1441C178.182 25.2162 178.841 25.4878 179.386 25.9261C181.388 27.438 182.004 34.6195 185.07 32.8556C188.135 31.0918 187.31 30.2238 187.31 30.2238C187.31 30.2238 186.526 31.0358 185.91 30.6998C186.296 30.172 186.51 29.5379 186.522 28.884C186.535 28.2301 186.345 27.5883 185.98 27.0461C185.98 27.0461 185.406 28.18 184.818 28.124C184.692 25.1955 183.671 22.3762 181.892 20.0466C178.826 15.7349 167.375 19.6406 167.375 19.6406C167.375 19.6406 165.289 17.5407 160.375 20.5365C155.462 23.5323 154.636 30.5038 156.176 33.1356" fill="#263238"/>
<path d="M227.529 111.236C229.97 111.226 232.391 110.79 234.682 109.948C240.078 107.901 244.519 103.918 247.14 98.7766C249.761 93.635 250.375 87.7019 248.863 82.1323C248.141 79.4529 246.865 76.9547 245.117 74.7993C243.369 72.6439 241.189 70.8792 238.716 69.6192C236.244 68.3592 233.535 67.632 230.763 67.4846C227.992 67.3371 225.221 67.7728 222.629 68.7633C217.233 70.811 212.792 74.7933 210.171 79.935C207.55 85.0766 206.936 91.0097 208.448 96.5793C209.18 99.255 210.46 101.749 212.207 103.904C213.954 106.058 216.13 107.826 218.597 109.094C221.363 110.506 224.424 111.24 227.529 111.236ZM229.768 71.5071C232.244 71.4986 234.687 72.0792 236.894 73.201C238.866 74.2219 240.605 75.6412 242 77.3689C243.395 79.0967 244.417 81.0953 244.999 83.2382C246.229 87.8345 245.71 92.7234 243.543 96.9591C241.376 101.195 237.715 104.476 233.268 106.169C231.196 106.974 228.978 107.333 226.758 107.222C224.538 107.112 222.367 106.535 220.385 105.528C218.403 104.521 216.656 103.108 215.258 101.38C213.859 99.6525 212.841 97.6493 212.27 95.5014C211.031 90.912 211.539 86.0261 213.695 81.7898C215.852 77.5536 219.505 74.2686 223.945 72.571C225.807 71.8721 227.779 71.5118 229.768 71.5071Z" fill="#263238"/>
<path d="M150.17 83.0978C156.168 86.9349 162.596 90.0546 169.321 92.3931C173.731 93.947 178.154 92.7711 182.298 91.6792C192.221 88.523 201.74 84.2146 210.66 78.8421L208.112 73.4665C203.436 75.0904 198.663 76.6863 193.959 78.1562C187.492 80.032 180.268 82.5939 173.885 82.4539C172.989 82.3139 173.745 82.4539 172.219 81.7539L169.069 80.0741C164.869 77.7642 160.6 75.2444 156.47 72.8926L150.17 83.0978Z" fill="#FFB573"/>
<path d="M207.916 73.355L215.784 71.7031L213.432 81.6004C213.432 81.6004 206.432 81.4884 206.11 77.7647L207.916 73.355Z" fill="#FFB573"/>
<path d="M221.677 74.6286L219.367 82.72L213.432 81.614L215.783 71.7168L221.677 74.6286Z" fill="#FFB573"/>
<path d="M148.042 63.6533C138.845 69.8829 144.697 79.9481 148.042 84.9038C151.388 89.8594 172.961 96.299 176.67 95.907C180.38 95.515 197.543 87.3536 197.543 87.3536L193.217 77.1343C193.217 77.1343 181.402 80.4801 177.538 80.9281C173.675 81.376 148.042 63.6533 148.042 63.6533Z" fill="#263238"/>
<path opacity="0.2" d="M148.042 63.6533C138.845 69.8829 144.697 79.9481 148.042 84.9038C151.388 89.8594 172.961 96.299 176.67 95.907C180.38 95.515 197.543 87.3536 197.543 87.3536L193.217 77.1343C193.217 77.1343 181.402 80.4801 177.538 80.9281C173.675 81.376 148.042 63.6533 148.042 63.6533Z" fill="white"/>
<path d="M192.461 76.6028L196.521 89.1879L199.839 87.046L196.255 75.7769L192.461 76.6028Z" fill="#263238"/>
<path d="M204.822 106.099C209.134 95.4733 224.001 80.9844 228.621 77.1347C233.24 73.285 245.517 71.8291 266.908 72.459C273.991 72.7731 280.912 74.6875 287.15 78.0586C303.641 78.1846 330.771 78.5346 341.858 79.4585C350.048 80.1725 371.55 82.4543 373.412 90.3217C375.274 98.1891 363.333 117.004 362.213 117.004H301.093C301.046 118.008 300.848 118.999 300.505 119.944C299.623 120.671 231.378 125.753 231.378 125.753C231.378 125.753 200.511 116.738 204.822 106.099Z" fill="#263238"/>
<path opacity="0.3" d="M204.822 106.099C209.134 95.4733 224.001 80.9844 228.621 77.1347C233.24 73.285 245.517 71.8291 266.908 72.459C273.991 72.7731 280.912 74.6875 287.15 78.0586C303.641 78.1846 330.771 78.5346 341.858 79.4585C350.048 80.1725 371.55 82.4543 373.412 90.3217C375.274 98.1891 363.333 117.004 362.213 117.004H301.093C301.046 118.008 300.848 118.999 300.505 119.944C299.623 120.671 231.378 125.753 231.378 125.753C231.378 125.753 200.511 116.738 204.822 106.099Z" fill="white"/>
<g opacity="0.3">
<path d="M46.5078 76.5885C54.4172 76.9105 62.3546 77.3305 70.2221 77.8204L72.0699 77.9464L75.5417 78.1704L77.1936 78.2824C88.1128 79.0244 98.892 79.8923 109.391 80.8442C98.934 54.5541 91.7665 31.4838 91.1926 29.678C97.4081 44.8248 111.659 59.7058 111.659 59.7058C104.393 44.7145 98.3441 29.1628 93.5724 13.2012C87.4688 13.9011 83.5351 14.6011 82.2612 14.825L81.7992 14.909C81.7952 14.9369 81.7952 14.9652 81.7992 14.993C81.4072 15.469 81.0153 15.9356 80.6233 16.3929L80.1754 16.9809C59.8069 43.075 46.5078 76.5885 46.5078 76.5885Z" fill="white"/>
<path d="M311.942 53.7001C291.252 41.6049 271.681 31.5256 269.945 30.6017C292.036 43.0188 317.318 66.6211 334.341 83.9378C361.681 85.0997 375.666 87.8015 375.666 87.8015C355.084 60.8104 331.388 36.3435 305.069 14.9089C285.039 11.9161 264.803 10.5118 244.551 10.7092C280.011 26.206 310.767 52.6921 311.942 53.7001Z" fill="white"/>
</g>
<path d="M183.39 169.234H202.051C222.797 169.234 239.61 192.472 239.61 221.142C239.61 249.812 222.811 273.05 202.051 273.05H183.39C162.643 273.05 145.831 249.812 145.831 221.142C145.831 192.472 162.643 169.234 183.39 169.234Z" fill="#263238"/>
<path opacity="0.1" d="M177.51 269.369C160.176 269.369 146.125 247.777 146.125 221.142C146.125 194.507 160.176 172.916 177.51 172.916C194.844 172.916 208.896 194.507 208.896 221.142C208.896 247.777 194.844 269.369 177.51 269.369Z" fill="white"/>
<path opacity="0.6" d="M174.795 195.076C184.16 195.076 191.747 206.751 191.747 221.142C191.747 235.533 184.16 247.208 174.795 247.208C165.429 247.208 157.828 235.533 157.828 221.142C157.828 206.751 165.429 195.076 174.795 195.076Z" fill="#263238"/>
<path d="M398.232 169.234H416.893C437.653 169.234 454.452 192.472 454.452 221.142C454.452 249.812 437.653 273.05 416.893 273.05H398.232C377.486 273.05 360.659 249.812 360.659 221.142C360.659 192.472 377.458 169.234 398.232 169.234Z" fill="#263238"/>
<path opacity="0.1" d="M392.353 269.369C375.019 269.369 360.967 247.777 360.967 221.142C360.967 194.507 375.019 172.916 392.353 172.916C409.687 172.916 423.738 194.507 423.738 221.142C423.738 247.777 409.687 269.369 392.353 269.369Z" fill="white"/>
<path opacity="0.6" d="M389.623 247.208C380.26 247.208 372.67 235.538 372.67 221.142C372.67 206.746 380.26 195.076 389.623 195.076C398.986 195.076 406.576 206.746 406.576 221.142C406.576 235.538 398.986 247.208 389.623 247.208Z" fill="#263238"/>
<path d="M13.7923 164.866L13.5263 218.286C13.5116 220.318 13.8989 222.332 14.6662 224.213C15.4334 226.095 16.5654 227.806 17.9968 229.247C19.4282 230.689 21.1307 231.833 23.0063 232.614C24.8819 233.395 26.8935 233.797 28.9252 233.797H165.107C170.773 239.556 177.527 244.131 184.978 247.256C192.428 250.38 200.425 251.991 208.504 251.996H295.662L305.573 237.129H325.41L328.041 239.621C335.351 246.506 345.018 250.332 355.059 250.316C360.327 250.305 365.539 249.235 370.385 247.169C375.231 245.104 379.612 242.084 383.267 238.291L384.457 237.045H429.786C433.412 237.046 436.922 235.768 439.698 233.435C442.474 231.102 444.338 227.864 444.961 224.292L457.07 154.717L13.7923 164.866Z" fill="#263238"/>
<path d="M2.74695 154.759L10.0124 149.411C16.62 107.652 26.0833 89.2155 26.0833 89.2155L42.4901 75.2165C48.8036 52.4402 71.664 14.209 83.6751 9.79928H83.7451C85.6909 9.29532 129.592 0 198.243 0C284.169 0 308.835 14.405 308.835 14.405C342.964 39.5191 382.021 88.2076 382.021 88.2076C402.454 95.7512 421.315 107.009 437.653 121.413C439.487 123.051 441.307 124.773 443.085 126.551C444.611 128.063 446.123 129.631 447.579 131.254C448.698 132.486 449.804 133.746 450.882 135.034C454.693 139.664 457.98 144.702 460.682 150.055C462.47 153.563 464.078 157.161 465.497 160.834C466.029 162.234 466.491 163.508 466.897 164.754C467.163 165.524 473.547 172.915 473.547 172.915C477.256 174.931 472.343 204.875 465.665 220.344C465.215 221.371 464.474 222.245 463.534 222.856C462.594 223.468 461.495 223.792 460.374 223.788H281.985C281.677 187.502 260.174 158.23 233.674 158.23C207.174 158.23 185.7 187.502 185.378 223.788H103.512C103.204 187.502 81.7012 158.23 55.2011 158.23C49.9242 158.248 44.7137 159.408 39.9283 161.632C21.9536 169.85 8.68256 192.178 7.07269 219.028C7.07269 219.462 7.07263 219.924 6.98865 220.358C6.51569 219.863 6.09796 219.319 5.74277 218.734C5.12753 218.426 4.58325 217.993 4.14459 217.462C3.70593 216.932 3.38251 216.316 3.19495 215.654C-3.67856 197.008 2.74695 154.759 2.74695 154.759ZM375.638 87.7876C355.049 60.8067 331.353 36.3452 305.041 14.9089C244.579 5.3476 181.458 14.9089 181.458 14.9089C207.412 43.6068 227.081 87.7876 227.081 87.7876C324.682 77.9463 375.638 87.7876 375.638 87.7876ZM215.195 93.7932C203.52 49.1784 172.107 14.9089 172.107 14.9089C158.244 12.8569 144.262 11.7252 130.25 11.5212C129.186 19.6826 126.974 41.157 126.47 82.51C176.67 87.6056 215.195 93.7932 215.195 93.7932ZM70.222 77.8343L72.0699 77.9463L75.5417 78.1843L77.1936 78.2823C91.9345 79.2762 106.437 80.5221 120.17 81.866C120.702 64.7033 121.99 32.8696 124.832 11.4792C110.563 11.3715 96.3107 12.4909 82.2332 14.8249L81.7712 14.9089C81.7672 14.9368 81.7672 14.9651 81.7712 14.9929C81.3792 15.4689 80.9873 15.9728 80.5953 16.3928L80.1473 16.9808C59.8628 43.0049 46.5498 76.5324 46.5498 76.5324C54.4172 76.9244 62.3546 77.3024 70.222 77.8343Z" fill="#EB222A"/>
<path d="M232.96 169.234H251.635C272.382 169.234 289.194 192.472 289.194 221.142C289.194 249.812 272.396 273.05 251.635 273.05H232.96C212.228 273.05 195.401 249.812 195.401 221.142C195.401 192.472 212.27 169.234 232.96 169.234Z" fill="#263238"/>
<path opacity="0.2" d="M227.081 269.369C209.747 269.369 195.695 247.777 195.695 221.142C195.695 194.507 209.747 172.916 227.081 172.916C244.415 172.916 258.466 194.507 258.466 221.142C258.466 247.777 244.415 269.369 227.081 269.369Z" fill="white"/>
<path opacity="0.6" d="M224.365 195.076C233.73 195.076 241.332 206.751 241.332 221.142C241.332 235.533 233.73 247.208 224.365 247.208C215 247.208 207.412 235.533 207.412 221.142C207.412 206.751 215 195.076 224.365 195.076Z" fill="white"/>
<path d="M57.7909 169.234H76.4796C97.2261 169.234 114.039 192.472 114.039 221.142C114.039 249.812 97.2401 273.05 76.4796 273.05H57.819C37.0725 273.05 20.2597 249.812 20.2597 221.142C20.2597 192.472 37.0445 169.234 57.7909 169.234Z" fill="#263238"/>
<path opacity="0.2" d="M51.9116 269.369C34.5777 269.369 20.5258 247.777 20.5258 221.142C20.5258 194.507 34.5777 172.916 51.9116 172.916C69.2454 172.916 83.2972 194.507 83.2972 221.142C83.2972 247.777 69.2454 269.369 51.9116 269.369Z" fill="white"/>
<path opacity="0.6" d="M49.1957 247.208C39.8329 247.208 32.2429 235.538 32.2429 221.142C32.2429 206.746 39.8329 195.076 49.1957 195.076C58.5584 195.076 66.1484 206.746 66.1484 221.142C66.1484 235.538 58.5584 247.208 49.1957 247.208Z" fill="white"/>
<path d="M439.767 225.832L434.336 199.583C434.082 198.306 433.391 197.158 432.382 196.335C431.372 195.512 430.108 195.067 428.806 195.076H389.903C388.103 195.073 386.338 195.579 384.813 196.535C383.287 197.491 382.062 198.858 381.279 200.479L368.96 225.832H439.767Z" fill="#263238"/>
<path opacity="0.7" d="M267.566 146.807L293.926 163.41L349.922 175.463H442.595L467.051 164.754C466.617 163.508 466.155 162.206 465.651 160.834C464.232 157.161 462.624 153.563 460.836 150.055C460.752 149.887 460.668 149.719 460.57 149.551C457.905 144.381 454.69 139.514 450.98 135.034C449.902 133.746 448.796 132.486 447.677 131.254C436.379 134.054 432.6 146.807 432.6 146.807L430.528 166.63L429.926 172.383H366.399L362.423 166.658L348.592 146.807C348.592 146.807 329.525 136.728 313.412 133.564C300.575 131.044 276.105 130.764 276.105 130.764C268.966 133.55 267.566 146.807 267.566 146.807Z" fill="white"/>
<path d="M304.117 151.315C304.747 156.299 308.457 159.924 312.404 159.434C316.352 158.944 319.04 154.479 318.396 149.495C317.752 144.512 314.056 140.872 310.109 141.376C306.161 141.88 303.487 146.331 304.117 151.315Z" fill="white"/>
<path d="M325.468 161.417C322.389 154.851 324.104 147.553 329.299 145.118C334.493 142.683 341.199 146.032 344.278 152.598C347.356 159.164 345.641 166.461 340.447 168.896C335.253 171.332 328.547 167.983 325.468 161.417Z" fill="white"/>
<path d="M434.143 161.415C431.065 154.849 432.78 147.552 437.974 145.117C443.168 142.681 449.874 146.03 452.953 152.596C456.032 159.162 454.317 166.46 449.123 168.895C443.928 171.33 437.222 167.981 434.143 161.415Z" fill="white"/>
<path d="M447.453 143.462C449.061 144.121 450.515 145.11 451.72 146.363C452.925 147.616 453.856 149.107 454.452 150.741C455.124 152.414 455.466 154.201 455.46 156.005C455.652 156.004 455.842 155.966 456.02 155.893C458.232 154.997 458.526 150.517 456.664 145.827C454.802 141.138 451.512 138.1 449.3 138.982C448.069 139.486 447.453 141.208 447.453 143.462Z" fill="white"/>
<path d="M320.188 193.704L316.87 194.502C316.224 194.656 315.661 195.049 315.295 195.603C314.928 196.157 314.786 196.829 314.896 197.483L317.822 215.15C317.925 215.762 318.242 216.318 318.716 216.718C319.19 217.118 319.791 217.336 320.412 217.334H346.66C347.356 217.334 348.023 217.059 348.516 216.568C349.009 216.078 349.288 215.412 349.292 214.716C349.293 214.103 349.079 213.508 348.688 213.035C348.297 212.562 347.753 212.241 347.15 212.126C342.95 211.342 333.011 208.081 322.96 194.712C322.651 194.286 322.222 193.963 321.728 193.783C321.234 193.603 320.698 193.576 320.188 193.704Z" fill="#263238"/>
<path d="M320.188 193.704L341.116 193.634L320.188 198.953V193.704Z" fill="#263238"/>
<path d="M454.452 193.634L470.075 195.034L462.264 218.692H450.029L452.702 212.686C458.11 209.544 462.321 204.694 464.671 198.897L454.452 193.634Z" fill="#263238"/>
<path opacity="0.7" d="M319.894 210.839C319.894 213.793 321.854 216.186 324.276 216.186C326.697 216.186 328.643 213.793 328.643 210.839C328.643 207.885 326.683 205.491 324.276 205.491C321.868 205.491 319.894 207.885 319.894 210.839Z" fill="white"/>
<path opacity="0.7" d="M458.022 210.965C457.224 213.764 457.644 216.41 458.96 216.774C460.276 217.138 461.984 215.136 462.782 212.281C463.58 209.425 463.16 206.835 461.844 206.471C460.528 206.107 458.806 208.109 458.022 210.965Z" fill="white"/>
<path opacity="0.7" d="M396.79 154.759H407.514C407.721 154.76 407.925 154.81 408.109 154.904C408.293 154.999 408.452 155.136 408.574 155.303C408.695 155.471 408.775 155.665 408.808 155.87C408.84 156.074 408.823 156.284 408.76 156.481L405.638 166.21C405.565 166.439 405.431 166.644 405.25 166.802C405.07 166.96 404.849 167.066 404.613 167.108C404.376 167.149 404.133 167.126 403.909 167.039C403.685 166.952 403.489 166.806 403.342 166.616L395.754 156.887C395.602 156.692 395.508 156.459 395.481 156.214C395.455 155.968 395.499 155.721 395.607 155.499C395.715 155.277 395.883 155.09 396.092 154.959C396.302 154.828 396.544 154.759 396.79 154.759ZM400.052 157.097L403.846 161.968C403.92 162.063 404.018 162.136 404.131 162.179C404.243 162.222 404.365 162.233 404.484 162.211C404.602 162.19 404.712 162.136 404.802 162.056C404.892 161.976 404.958 161.873 404.994 161.758L406.562 156.901C406.592 156.801 406.599 156.696 406.582 156.594C406.565 156.491 406.524 156.394 406.463 156.31C406.402 156.226 406.322 156.157 406.23 156.109C406.138 156.061 406.036 156.035 405.932 156.033H400.57C400.447 156.033 400.326 156.067 400.221 156.133C400.117 156.198 400.032 156.292 399.978 156.403C399.924 156.514 399.903 156.638 399.916 156.76C399.929 156.883 399.976 157 400.052 157.097Z" fill="white"/>
<path opacity="0.2" d="M267.566 146.807L293.926 163.41L349.922 175.463H442.595L467.051 164.754C466.617 163.508 466.155 162.206 465.651 160.834C464.168 156.984 462.476 153.217 460.584 149.551L462.487 161.296C462.651 162.298 462.478 163.325 461.997 164.219C461.516 165.112 460.754 165.822 459.828 166.238L445.829 172.495C444.712 173 443.487 173.219 442.265 173.131C441.043 173.043 439.862 172.651 438.829 171.991L430.43 166.588L429.828 172.341H366.3L362.325 166.616L353.477 172.551C352.742 173.048 351.915 173.392 351.045 173.562C350.174 173.733 349.278 173.727 348.41 173.545L298.601 162.99C297.09 162.667 295.691 161.953 294.543 160.918C293.396 159.884 292.541 158.566 292.064 157.096L289.166 147.703C288.771 146.416 288.778 145.039 289.186 143.756C289.594 142.473 290.383 141.345 291.448 140.521L298.615 134.922C285.778 132.402 276.063 130.722 276.063 130.722C268.966 133.55 267.566 146.807 267.566 146.807Z" fill="black"/>
<path d="M430.472 166.63H427.826L427.308 170.844H368.96L366.049 166.63L362.367 166.658L366.343 172.383H429.87L430.472 166.63Z" fill="#263238"/>
<path d="M432.866 175.463L430.472 173.755H366.048L364.579 175.463H432.866Z" fill="#263238"/>
<path opacity="0.2" d="M2.74701 154.759L10.0125 149.411C11.798 137.795 14.1951 126.281 17.1939 114.918C21.4776 98.9447 25.2854 90.7833 25.9713 89.3694C26.002 89.296 26.0395 89.2258 26.0833 89.1594L42.4901 75.1604C48.8036 52.3701 71.664 14.1529 83.6751 9.74321H83.7451C148.21 1.48381 174.738 11.4371 174.738 11.4371C208.49 52.5941 222.335 93.7511 222.335 93.7511C241.362 104.303 259.326 116.665 275.979 130.666C274.579 143.573 283.665 156.942 283.665 156.942L293.856 163.368L292.778 178.221C299.147 198.365 309.213 223.732 309.213 223.732H281.915C281.607 187.46 260.104 158.188 233.604 158.188C207.104 158.188 185.63 187.46 185.308 223.732H103.442C103.134 187.46 81.6313 158.188 55.1312 158.188C49.8553 158.201 44.6447 159.357 39.8583 161.576C21.8836 169.794 8.61258 192.136 7.00269 218.972C7.00269 219.42 7.00272 219.868 6.9187 220.372C6.44553 219.872 6.0278 219.323 5.67282 218.734C5.05649 218.431 4.51102 218.001 4.07199 217.473C3.633 216.944 3.3103 216.33 3.125 215.668C-3.6785 197.008 2.74701 154.759 2.74701 154.759ZM215.196 93.7931C203.52 49.1783 172.107 14.9088 172.107 14.9088C158.244 12.8597 144.261 11.7233 130.25 11.5071C129.186 19.6825 126.974 41.1569 126.47 82.5099C176.67 87.6055 215.196 93.7931 215.196 93.7931ZM70.2221 77.8202L72.07 77.9462L75.5417 78.1702L77.1936 78.2822C91.9345 79.2761 106.437 80.522 120.17 81.866C120.702 64.7032 121.99 32.7855 124.832 11.4791C110.563 11.3634 96.3097 12.4828 82.2332 14.8248L81.7712 14.9088C81.7672 14.9367 81.7672 14.965 81.7712 14.9928C81.3793 15.4688 80.9873 15.9354 80.5953 16.3927L80.1474 16.9807C59.8628 43.0048 46.5498 76.5183 46.5498 76.5183C54.4172 76.9103 62.3547 77.3023 70.2221 77.8202Z" fill="black"/>
<path d="M70.2221 77.8346L72.0699 77.9466C76.4236 42.3052 80.0353 23.8825 82.2332 14.8252L81.7712 14.9092C81.7672 14.937 81.7672 14.9653 81.7712 14.9932C81.3792 15.4692 80.9873 15.9731 80.5953 16.3931C75.0797 40.6533 71.8739 64.0316 70.2221 77.8346Z" fill="#263238"/>
<path d="M297.775 223.774H284.994C282.264 223.782 279.611 222.866 277.466 221.176C275.321 219.486 273.811 217.121 273.179 214.465C269.861 200.466 260.146 174.777 232.96 169.234C204.318 163.396 194.855 197.512 191.929 214.535C191.49 217.117 190.151 219.461 188.151 221.152C186.15 222.843 183.615 223.771 180.996 223.774H177.93C177.93 223.774 177.93 140.648 237.846 147.171C280.123 151.791 292.064 214.773 292.064 214.773L297.775 223.774Z" fill="#EB222A"/>
<path opacity="0.2" d="M297.775 223.774H284.994C282.264 223.782 279.611 222.866 277.466 221.176C275.321 219.486 273.811 217.121 273.179 214.465C269.861 200.466 260.146 174.777 232.96 169.234C204.318 163.396 194.855 197.512 191.929 214.535C191.49 217.117 190.151 219.461 188.151 221.152C186.15 222.843 183.615 223.771 180.996 223.774H177.93C177.93 223.774 177.93 140.648 237.846 147.171C280.123 151.791 292.064 214.773 292.064 214.773L297.775 223.774Z" fill="black"/>
<path d="M122.606 223.774H109.811C107.083 223.778 104.433 222.862 102.292 221.172C100.15 219.482 98.641 217.119 98.0102 214.465C94.6785 200.466 84.9632 174.777 57.7912 169.234C29.1492 163.396 19.6719 197.512 16.7461 214.535C16.3121 217.119 14.9752 219.467 12.9732 221.158C10.9712 222.85 8.43401 223.777 5.81293 223.774H2.74716C2.74716 223.774 2.74719 140.648 62.6768 147.171C104.94 151.791 116.895 214.773 116.895 214.773L122.606 223.774Z" fill="#EB222A"/>
<path opacity="0.2" d="M122.606 223.774H109.811C107.083 223.778 104.433 222.862 102.292 221.172C100.15 219.482 98.641 217.119 98.0102 214.465C94.6785 200.466 84.9632 174.777 57.7912 169.234C29.1492 163.396 19.6719 197.512 16.7461 214.535C16.3121 217.119 14.9752 219.467 12.9732 221.158C10.9712 222.85 8.43401 223.777 5.81293 223.774H2.74716C2.74716 223.774 2.74719 140.648 62.6768 147.171C104.94 151.791 116.895 214.773 116.895 214.773L122.606 223.774Z" fill="black"/>
<path opacity="0.2" d="M228.775 146.891C221.369 146.289 213.908 148.753 207.538 152.631C201.186 156.694 195.766 162.057 191.635 168.365C187.497 174.626 184.166 181.385 181.724 188.482C179.312 195.544 177.44 202.779 176.124 210.124L177.972 208.585L146.013 208.445L114.053 208.557L115.915 210.04C114.001 202.597 111.424 195.34 108.215 188.356C105.041 181.361 101.092 174.745 96.4422 168.631C91.8056 162.487 86.0605 157.264 79.5034 153.233C76.1951 151.29 72.6715 149.74 69.0042 148.613C65.3567 147.578 61.5949 147 57.805 146.891C61.5478 147.327 65.2324 148.167 68.7942 149.397C72.2938 150.71 75.6291 152.425 78.7335 154.507C84.8291 158.798 90.1221 164.129 94.3703 170.255C98.6699 176.354 102.294 182.902 105.178 189.784C108.151 196.609 110.516 203.682 112.247 210.922L112.597 212.406H114.095L146.055 212.518L178.014 212.378H179.512L179.764 210.838C180.947 203.647 182.646 196.55 184.846 189.602C187.019 182.674 190.018 176.033 193.777 169.821C197.527 163.603 202.482 158.196 208.35 153.919C214.301 149.584 221.416 147.136 228.775 146.891Z" fill="black"/>
<path d="M292.848 178.263C292.848 178.263 253.469 141.67 215.195 149.985C215.195 149.985 232.904 140.914 267.566 146.807L297.775 166.63L292.848 178.263Z" fill="#EB222A"/>
<path d="M212.27 104.139C212.27 104.139 59.5269 86.0659 26.0834 89.1596L39.2704 77.9604C39.2704 77.9604 193.371 88.9777 212.27 104.139Z" fill="#EB222A"/>
<path opacity="0.7" d="M17.1939 114.917C24.5294 101.282 32.2289 97.4326 32.2289 97.4326L40.9082 84.9175C35.6111 84.9766 30.4365 86.5188 25.9713 89.3691C25.2854 90.783 21.4776 98.9444 17.1939 114.917Z" fill="white"/>
<path d="M169.251 97.5589C169.251 100.359 197.921 105.104 198.383 105.104C198.845 105.104 204.416 104.138 204.416 104.138L214.608 105.104C214.919 104.791 215.175 104.426 215.364 104.026C215.772 103.175 216.015 102.253 216.078 101.311C216.092 101.012 216.092 100.713 216.078 100.415C216.044 98.1778 215.734 95.9537 215.154 93.7932C213.055 93.9828 210.94 93.7483 208.935 93.1038C206.929 92.4593 205.073 91.4178 203.478 90.0414C201.995 86.3737 199.979 82.384 197.767 80.6621C197.767 80.6621 177.608 82.062 173.395 84.4979C169.265 86.9477 169.251 97.5589 169.251 97.5589Z" fill="#263238"/>
<path d="M169.251 97.5589L170.343 96.6209C170.343 96.6209 201.757 102.99 202.009 96.6209C202.261 90.2514 197.809 80.6621 197.809 80.6621C197.809 80.6621 177.524 82.062 173.395 84.5258C169.265 86.9897 169.251 97.5589 169.251 97.5589Z" fill="#EB222A"/>
<path opacity="0.2" d="M169.251 97.5591C169.251 100.359 197.921 105.105 198.383 105.105C198.845 105.105 204.416 104.139 204.416 104.139L214.608 105.105C214.919 104.791 215.175 104.426 215.364 104.027C215.772 103.175 216.015 102.253 216.078 101.311L204.416 99.043L201.911 95.9212C193.483 95.8175 185.069 95.2192 176.712 94.1293C176.212 94.0546 175.755 93.8005 175.428 93.4141C175.101 93.0278 174.926 92.5356 174.934 92.0295C174.934 90.3356 174.934 87.8298 174.934 86.6819C174.761 85.8031 174.261 85.0228 173.535 84.498C169.265 86.9479 169.251 97.5591 169.251 97.5591Z" fill="black"/>
</svg>
