<svg width="531" height="243" viewBox="0 0 531 243" fill="none" xmlns="http://www.w3.org/2000/svg">
<path d="M221.301 114.109L504.629 135.244C508.157 135.508 511.646 134.362 514.33 132.056C517.014 129.751 518.674 126.476 518.947 122.948L523.196 65.8947C523.446 62.6217 522.887 59.3376 521.57 56.3311L510.64 31.4931C508.859 27.4319 506.008 23.9313 502.391 21.3659C498.774 18.8005 494.527 17.2669 490.106 16.9292L365.779 7.66617C347.282 6.27423 328.847 11.0811 313.385 21.3284L281.756 42.3136L225.96 48.6392C222.183 49.0714 218.576 50.4482 215.472 52.6427C212.367 54.8371 209.866 57.7784 208.199 61.1949L202.652 72.5072C201.146 75.5923 200.361 78.9793 200.357 82.4123V91.443C200.337 97.1686 202.486 102.689 206.372 106.894C210.258 111.099 215.592 113.677 221.301 114.109Z" fill="#263238"/>
<path d="M518.892 123.372L512.293 123.003C510.204 113.845 505.192 105.615 498.015 99.555C490.838 93.4947 481.885 89.9329 472.507 89.4069C463.128 88.881 453.833 91.4195 446.023 96.6394C438.214 101.859 432.313 109.477 429.213 118.344L297.086 110.953C295.778 100.94 291.013 91.6994 283.614 84.8275C276.216 77.9557 266.648 73.8851 256.567 73.3195C246.485 72.7539 236.522 75.7289 228.401 81.7301C220.281 87.7313 214.512 96.3814 212.093 106.185L205.439 105.816C207.073 107.797 209.027 109.492 211.218 110.83C211.437 110.967 211.669 111.062 211.901 111.185C212.134 111.308 212.571 111.568 212.926 111.732C213.281 111.896 213.664 112.087 214.033 112.251C214.402 112.415 214.866 112.593 215.29 112.743C215.713 112.893 215.973 113.003 216.328 113.112C216.683 113.221 217.366 113.399 217.886 113.522C218.186 113.522 218.473 113.672 218.76 113.727C219.593 113.877 220.454 114 221.315 114.068L297.345 119.738L426.904 129.397L504.642 135.204C505.066 135.204 505.489 135.204 505.913 135.204H506.336H507.17L507.662 135.135L508.386 134.999C508.563 134.999 508.727 134.917 508.891 134.876L509.574 134.698L510.066 134.534L510.722 134.275L511.187 134.083L511.842 133.742L512.252 133.537L512.949 133.1L513.25 132.895L513.4 132.799C514.925 131.701 516.202 130.294 517.149 128.67C518.095 127.046 518.689 125.241 518.892 123.372Z" fill="#263238"/>
<path opacity="0.4" d="M518.892 123.372L512.293 123.003C510.204 113.845 505.192 105.615 498.015 99.555C490.838 93.4947 481.885 89.9329 472.507 89.4069C463.128 88.881 453.833 91.4195 446.023 96.6394C438.214 101.859 432.313 109.477 429.213 118.344L297.086 110.953C295.778 100.94 291.013 91.6994 283.614 84.8275C276.216 77.9557 266.648 73.8851 256.567 73.3195C246.485 72.7539 236.522 75.7289 228.401 81.7301C220.281 87.7313 214.512 96.3814 212.093 106.185L205.439 105.816C207.073 107.797 209.027 109.492 211.218 110.83C211.437 110.967 211.669 111.062 211.901 111.185C212.134 111.308 212.571 111.568 212.926 111.732C213.281 111.896 213.664 112.087 214.033 112.251C214.402 112.415 214.866 112.593 215.29 112.743C215.713 112.893 215.973 113.003 216.328 113.112C216.683 113.221 217.366 113.399 217.886 113.522C218.186 113.522 218.473 113.672 218.76 113.727C219.593 113.877 220.454 114 221.315 114.068L297.345 119.738L426.904 129.397L504.642 135.204C505.066 135.204 505.489 135.204 505.913 135.204H506.336H507.17L507.662 135.135L508.386 134.999C508.563 134.999 508.727 134.917 508.891 134.876L509.574 134.698L510.066 134.534L510.722 134.275L511.187 134.083L511.842 133.742L512.252 133.537L512.949 133.1L513.25 132.895L513.4 132.799C514.925 131.701 516.202 130.294 517.149 128.67C518.095 127.046 518.689 125.241 518.892 123.372Z" fill="white"/>
<path opacity="0.7" d="M242.081 51.8365L243.256 50.5659L226.424 52.4649C223.28 52.8233 220.277 53.9673 217.691 55.7914C215.105 57.6155 213.02 60.0612 211.628 62.9029L208.322 69.734L216.751 67.3705C226.475 64.6499 235.248 59.2702 242.081 51.8365Z" fill="white"/>
<path opacity="0.7" d="M209.442 94.1623C209.182 97.7418 207.57 100.529 205.849 100.392C204.127 100.256 202.952 97.2773 203.226 93.6978C203.499 90.1183 205.097 87.3448 206.819 87.4678C208.54 87.5908 209.715 90.5964 209.442 94.1623Z" fill="white"/>
<path opacity="0.1" d="M491.074 66.186L483.744 65.6388C481.923 65.5028 480.336 66.8687 480.2 68.6896L479.652 76.0332C479.516 77.8541 480.882 79.4404 482.703 79.5764L490.033 80.1237C491.854 80.2596 493.44 78.8937 493.576 77.0728L494.124 69.7293C494.26 67.9083 492.894 66.322 491.074 66.186Z" fill="white"/>
<path d="M452.876 28.9527C451.608 26.4534 449.718 24.3231 447.387 22.7675C445.056 21.212 442.363 20.2837 439.569 20.0723L365.301 14.6074C349.767 13.4461 343.441 17.6814 329.438 26.9034L305.747 42.6286C304.999 43.1247 304.426 43.8451 304.113 44.6866C303.799 45.5281 303.76 46.4473 304.001 47.3124C304.243 48.1774 304.752 48.9438 305.456 49.5014C306.16 50.059 307.022 50.3792 307.919 50.4161L467.098 57.1243L452.876 28.9527Z" fill="#263238"/>
<path opacity="0.3" d="M452.876 28.9527C451.608 26.4534 449.718 24.3231 447.387 22.7675C445.056 21.212 442.363 20.2837 439.569 20.0723L365.301 14.6074C349.767 13.4461 343.441 17.6814 329.438 26.9034L305.747 42.6286C304.999 43.1247 304.426 43.8451 304.113 44.6866C303.799 45.5281 303.76 46.4473 304.001 47.3124C304.243 48.1774 304.752 48.9438 305.456 49.5014C306.16 50.059 307.022 50.3792 307.919 50.4161L467.098 57.1243L452.876 28.9527Z" fill="white"/>
<path d="M521.529 56.3316L510.599 31.4936C509.574 29.1575 508.191 26.9956 506.5 25.086H506.336L462.248 21.7935L486.321 52.5062C487.697 54.2595 489.437 55.6939 491.42 56.7104C493.404 57.7269 495.584 58.3015 497.811 58.3946L522.649 59.7608C522.375 58.5877 522 57.4404 521.529 56.3316Z" fill="#263238"/>
<path opacity="0.3" d="M521.529 56.3316L510.599 31.4936C509.574 29.1575 508.191 26.9956 506.5 25.086H506.336L462.248 21.7935L486.321 52.5062C487.697 54.2595 489.437 55.6939 491.42 56.7104C493.404 57.7269 495.584 58.3015 497.811 58.3946L522.649 59.7608C522.375 58.5877 522 57.4404 521.529 56.3316Z" fill="white"/>
<path d="M292.399 40.8388L338.072 10.2627C329.329 12.6069 321.024 16.3534 313.48 21.3565L281.852 42.3416L285.95 42.6012C288.235 42.7397 290.502 42.1201 292.399 40.8388Z" fill="#263238"/>
<path opacity="0.3" d="M292.399 40.8388L338.072 10.2627C329.329 12.6069 321.024 16.3534 313.48 21.3565L281.852 42.3416L285.95 42.6012C288.235 42.7397 290.502 42.1201 292.399 40.8388Z" fill="white"/>
<path opacity="0.7" d="M376.911 60.5588L362.919 59.5141C361.933 59.4405 361.075 60.18 361.001 61.1657L360.969 61.588C360.896 62.5737 361.635 63.4325 362.621 63.5061L376.613 64.5508C377.599 64.6244 378.458 63.885 378.531 62.8993L378.563 62.4769C378.636 61.4912 377.897 60.6324 376.911 60.5588Z" fill="white"/>
<path opacity="0.7" d="M466.118 64.322L452.126 63.2773C451.14 63.2037 450.281 63.9432 450.208 64.9289L450.176 65.3512C450.102 66.3369 450.842 67.1957 451.828 67.2693L465.82 68.314C466.805 68.3876 467.664 67.6482 467.738 66.6624L467.769 66.2401C467.843 65.2544 467.103 64.3956 466.118 64.322Z" fill="white"/>
<path opacity="0.7" d="M513.7 69.2013L521.679 86.1972L523.195 65.8678C523.195 65.2939 523.195 64.7202 523.195 64.1463L517.443 63.7228C516.775 63.6785 516.106 63.8094 515.504 64.1023C514.902 64.3953 514.386 64.8404 514.008 65.3935C513.63 65.9467 513.403 66.5888 513.349 67.2566C513.295 67.9243 513.416 68.5947 513.7 69.2013Z" fill="white"/>
<path d="M363.566 7.54356C369.272 5.15041 375.478 4.1889 381.641 4.74279L416.944 7.88511L416.288 11.4236L420.906 11.7652L421.548 8.28131L468 12.38C472.843 12.8001 477.563 14.1353 481.908 16.3147L490.106 16.9295L491.472 17.0798C484.888 11.7863 476.88 8.56712 468.465 7.83045L382.065 0.165933C372.287 -0.695712 362.509 1.81627 354.358 7.28397L353.797 7.65284C357.048 7.41931 360.31 7.38283 363.566 7.54356Z" fill="#263238"/>
<path opacity="0.5" d="M363.566 7.54356C369.272 5.15041 375.478 4.1889 381.641 4.74279L416.944 7.88511L416.288 11.4236L420.906 11.7652L421.548 8.28131L468 12.38C472.843 12.8001 477.563 14.1353 481.908 16.3147L490.106 16.9295L491.472 17.0798C484.888 11.7863 476.88 8.56712 468.465 7.83045L382.065 0.165933C372.287 -0.695712 362.509 1.81627 354.358 7.28397L353.797 7.65284C357.048 7.41931 360.31 7.38283 363.566 7.54356Z" fill="white"/>
<g opacity="0.3">
<path d="M298.547 54.3916C297.636 66.7332 296.726 79.0656 295.815 91.3889C295.797 91.6317 295.876 91.8718 296.035 92.0562C296.193 92.2407 296.419 92.3545 296.662 92.3726C296.905 92.3907 297.145 92.3117 297.329 92.1528C297.514 91.994 297.627 91.7683 297.646 91.5256C298.556 79.1931 299.467 66.8607 300.378 54.5282C300.396 54.2855 300.317 54.0454 300.158 53.861C300.08 53.7696 299.984 53.6946 299.876 53.6404C299.768 53.5861 299.651 53.5535 299.531 53.5445C299.288 53.5264 299.048 53.6055 298.864 53.7643C298.679 53.9232 298.565 54.1488 298.547 54.3916Z" fill="white"/>
</g>
<g opacity="0.3">
<path d="M382.843 59.0776L374.482 109.478C374.277 110.639 376.121 110.776 376.313 109.614L384.674 59.2143C384.865 58.053 383.034 57.9163 382.843 59.0776Z" fill="white"/>
</g>
<g opacity="0.3">
<path d="M471.716 64.1735C470.805 70.9409 469.922 77.7082 469.066 84.4756C468.915 85.6505 470.746 85.8418 470.896 84.6122L473.561 64.3101C473.711 63.1352 471.88 62.9439 471.716 64.1735Z" fill="white"/>
</g>
<path opacity="0.1" d="M428.079 55.4436L443.654 20.9328C442.331 20.4673 440.953 20.1779 439.555 20.0721L436.618 19.8535L420.66 55.1431L428.079 55.4436Z" fill="white"/>
<g opacity="0.1">
<path d="M381.217 53.49L389.633 34.8684L390.999 16.4517L365.287 14.539C364.44 14.4707 363.62 14.4297 362.814 14.4023L345.805 52.0008L381.217 53.49Z" fill="white"/>
<path d="M452.876 28.9525C451.714 26.6971 450.044 24.7423 447.998 23.2417L433.339 55.6622L467.098 57.0284L452.876 28.9525Z" fill="white"/>
</g>
<path d="M379.141 53.3941L389.961 53.845L396.765 16.8749L386.013 16.0825L379.141 53.3941Z" fill="#263238"/>
<path d="M274.309 140.038C287.254 128.892 288.713 109.362 277.566 96.4162C266.42 83.471 246.889 82.0127 233.944 93.1593C220.999 104.306 219.54 123.836 230.687 136.781C241.833 149.727 261.364 151.185 274.309 140.038Z" fill="#263238"/>
<path opacity="0.5" d="M270.354 127.08C276.145 118.119 273.575 106.16 264.613 100.369C255.652 94.5789 243.694 97.1492 237.903 106.11C232.112 115.071 234.683 127.03 243.644 132.821C252.605 138.611 264.564 136.041 270.354 127.08Z" fill="white"/>
<g opacity="0.3">
<path d="M256.918 111.008C257.174 111.136 257.46 111.193 257.746 111.174C258.032 111.154 258.307 111.06 258.544 110.899L264.269 106.8C264.464 106.662 264.625 106.482 264.74 106.273C264.855 106.064 264.921 105.832 264.933 105.593C264.945 105.355 264.902 105.117 264.808 104.898C264.715 104.678 264.572 104.483 264.391 104.327C262.497 102.72 260.25 101.583 257.834 101.007C257.599 100.955 257.356 100.957 257.122 101.013C256.888 101.07 256.67 101.178 256.485 101.331C256.299 101.483 256.151 101.676 256.051 101.895C255.951 102.113 255.902 102.352 255.907 102.592L256.044 109.601C256.042 109.894 256.124 110.181 256.278 110.43C256.433 110.679 256.655 110.879 256.918 111.008Z" fill="black"/>
<path d="M252.191 110.666C252.463 110.577 252.706 110.415 252.894 110.199C253.082 109.982 253.207 109.719 253.257 109.437L254.432 102.524C254.472 102.288 254.457 102.046 254.39 101.816C254.323 101.587 254.205 101.375 254.045 101.198C253.884 101.021 253.686 100.882 253.464 100.792C253.243 100.702 253.004 100.664 252.765 100.679C250.285 100.884 247.889 101.67 245.77 102.974C245.57 103.105 245.402 103.278 245.278 103.483C245.154 103.687 245.079 103.917 245.056 104.155C245.034 104.393 245.066 104.632 245.149 104.856C245.232 105.08 245.365 105.282 245.538 105.447L250.593 110.311C250.801 110.512 251.06 110.651 251.342 110.713C251.624 110.776 251.918 110.76 252.191 110.666Z" fill="black"/>
<path d="M248.584 113.781C248.718 113.529 248.779 113.244 248.76 112.959C248.74 112.675 248.642 112.401 248.475 112.169L244.376 106.444C244.24 106.248 244.061 106.086 243.852 105.97C243.644 105.853 243.412 105.786 243.173 105.773C242.935 105.76 242.697 105.801 242.477 105.894C242.257 105.986 242.061 106.128 241.903 106.308C240.301 108.208 239.168 110.46 238.597 112.879C238.543 113.113 238.543 113.356 238.597 113.59C238.651 113.824 238.758 114.042 238.91 114.228C239.062 114.414 239.254 114.563 239.472 114.663C239.69 114.763 239.928 114.812 240.168 114.806L247.177 114.669C247.472 114.669 247.76 114.586 248.009 114.429C248.258 114.272 248.458 114.047 248.584 113.781Z" fill="black"/>
<path d="M265.252 107.961L260.375 113.03C260.178 113.237 260.042 113.495 259.982 113.774C259.921 114.054 259.939 114.345 260.033 114.615C260.124 114.885 260.286 115.126 260.502 115.311C260.719 115.497 260.982 115.62 261.263 115.667L268.176 116.842C268.412 116.884 268.655 116.872 268.886 116.806C269.117 116.74 269.329 116.622 269.507 116.461C269.685 116.3 269.824 116.101 269.913 115.878C270.002 115.655 270.039 115.414 270.021 115.175C269.809 112.699 269.018 110.308 267.712 108.194C267.583 107.994 267.41 107.826 267.207 107.702C267.004 107.578 266.775 107.502 266.538 107.48C266.302 107.458 266.063 107.489 265.84 107.573C265.617 107.656 265.416 107.789 265.252 107.961Z" fill="black"/>
<path d="M256.085 122.443C255.812 122.527 255.568 122.686 255.38 122.9C255.192 123.115 255.067 123.378 255.019 123.659L253.844 130.586C253.804 130.822 253.819 131.063 253.886 131.293C253.953 131.523 254.071 131.734 254.231 131.911C254.391 132.089 254.59 132.228 254.811 132.318C255.033 132.407 255.272 132.446 255.511 132.43C257.99 132.215 260.385 131.424 262.506 130.121C262.706 129.991 262.874 129.817 262.998 129.613C263.121 129.408 263.197 129.179 263.22 128.941C263.242 128.703 263.21 128.463 263.127 128.24C263.043 128.016 262.911 127.814 262.738 127.648L257.683 122.785C257.474 122.587 257.214 122.45 256.932 122.39C256.65 122.329 256.357 122.348 256.085 122.443Z" fill="black"/>
<path d="M248.284 118.509C248.192 118.239 248.03 117.999 247.813 117.814C247.597 117.629 247.335 117.505 247.054 117.457L240.141 116.282C239.905 116.239 239.662 116.251 239.431 116.317C239.2 116.383 238.988 116.501 238.81 116.662C238.632 116.823 238.493 117.023 238.404 117.246C238.315 117.469 238.278 117.709 238.297 117.948C238.508 120.429 239.299 122.825 240.606 124.943C240.734 125.143 240.907 125.312 241.11 125.435C241.313 125.559 241.542 125.635 241.779 125.657C242.016 125.679 242.254 125.648 242.477 125.564C242.7 125.481 242.901 125.348 243.065 125.176L247.928 120.121C248.134 119.913 248.277 119.651 248.34 119.366C248.403 119.081 248.383 118.783 248.284 118.509Z" fill="black"/>
<path d="M259.678 119.342C259.544 119.597 259.484 119.883 259.503 120.17C259.522 120.457 259.621 120.733 259.787 120.968L263.886 126.692C264.023 126.887 264.203 127.049 264.412 127.164C264.621 127.279 264.854 127.345 265.092 127.357C265.331 127.369 265.569 127.326 265.788 127.232C266.007 127.138 266.203 126.996 266.359 126.815C267.971 124.919 269.109 122.666 269.679 120.244C269.731 120.011 269.729 119.769 269.673 119.537C269.618 119.305 269.511 119.089 269.359 118.904C269.208 118.72 269.016 118.573 268.8 118.473C268.583 118.374 268.346 118.325 268.108 118.331L261.085 118.454C260.792 118.459 260.505 118.544 260.257 118.7C260.009 118.857 259.808 119.079 259.678 119.342Z" fill="black"/>
<path d="M251.358 122.102C251.101 121.973 250.814 121.916 250.528 121.938C250.241 121.96 249.966 122.059 249.732 122.225L244.007 126.323C243.811 126.46 243.649 126.639 243.533 126.847C243.416 127.056 243.349 127.288 243.336 127.526C243.323 127.765 243.364 128.003 243.457 128.223C243.549 128.443 243.691 128.639 243.871 128.796C245.772 130.4 248.023 131.537 250.442 132.116C250.681 132.171 250.93 132.171 251.169 132.113C251.407 132.056 251.63 131.944 251.818 131.787C252.006 131.629 252.155 131.43 252.253 131.205C252.351 130.98 252.395 130.735 252.382 130.49L252.246 123.468C252.237 123.181 252.149 122.902 251.993 122.661C251.836 122.42 251.617 122.226 251.358 122.102Z" fill="black"/>
</g>
<path d="M490.264 156.139C503.209 144.992 504.668 125.462 493.521 112.517C482.375 99.5716 462.844 98.1133 449.899 109.26C436.954 120.406 435.496 139.937 446.642 152.882C457.789 165.827 477.319 167.285 490.264 156.139Z" fill="#263238"/>
<path opacity="0.5" d="M476.254 150.94C486.367 147.541 491.81 136.587 488.41 126.473C485.011 116.36 474.057 110.918 463.943 114.317C453.83 117.717 448.388 128.671 451.787 138.784C455.187 148.897 466.141 154.34 476.254 150.94Z" fill="white"/>
<g opacity="0.3">
<path d="M472.864 127.116C473.119 127.247 473.405 127.306 473.692 127.287C473.978 127.267 474.254 127.171 474.489 127.007L480.214 122.908C480.41 122.772 480.572 122.593 480.689 122.384C480.805 122.176 480.872 121.944 480.885 121.705C480.899 121.467 480.857 121.229 480.765 121.009C480.672 120.789 480.53 120.593 480.35 120.435C478.448 118.835 476.198 117.703 473.779 117.129C473.545 117.075 473.302 117.075 473.068 117.129C472.834 117.183 472.616 117.29 472.43 117.442C472.244 117.594 472.095 117.786 471.995 118.004C471.895 118.222 471.846 118.46 471.853 118.7L471.989 125.709C471.988 126.002 472.069 126.29 472.224 126.539C472.378 126.788 472.6 126.988 472.864 127.116Z" fill="black"/>
<path d="M468.137 126.802C468.409 126.712 468.652 126.55 468.839 126.334C469.027 126.117 469.152 125.854 469.202 125.572L470.377 118.659C470.417 118.423 470.403 118.181 470.336 117.952C470.269 117.722 470.15 117.511 469.99 117.333C469.83 117.156 469.631 117.017 469.41 116.927C469.188 116.837 468.949 116.799 468.71 116.814C466.23 117.023 463.833 117.815 461.715 119.123C461.515 119.252 461.347 119.425 461.224 119.628C461.1 119.831 461.024 120.06 461.002 120.297C460.979 120.533 461.011 120.772 461.095 120.995C461.178 121.218 461.311 121.419 461.483 121.583L466.538 126.446C466.744 126.649 467.004 126.791 467.286 126.853C467.569 126.916 467.864 126.898 468.137 126.802Z" fill="black"/>
<path d="M464.543 129.889C464.677 129.637 464.738 129.353 464.719 129.068C464.7 128.783 464.601 128.509 464.434 128.277L460.335 122.553C460.199 122.357 460.02 122.194 459.811 122.078C459.603 121.962 459.371 121.894 459.132 121.881C458.894 121.868 458.656 121.909 458.436 122.002C458.216 122.095 458.02 122.236 457.863 122.416C456.253 124.314 455.116 126.566 454.543 128.988C454.491 129.221 454.493 129.463 454.548 129.696C454.604 129.929 454.711 130.146 454.862 130.331C455.013 130.516 455.204 130.665 455.421 130.766C455.638 130.867 455.875 130.918 456.114 130.914L463.136 130.778C463.43 130.775 463.717 130.69 463.966 130.533C464.214 130.376 464.414 130.153 464.543 129.889Z" fill="black"/>
<path d="M481.198 124.069L476.334 129.124C476.133 129.329 475.994 129.586 475.931 129.866C475.868 130.146 475.885 130.438 475.979 130.709C476.068 130.981 476.23 131.224 476.446 131.412C476.663 131.599 476.926 131.725 477.208 131.775L484.121 132.949C484.358 132.995 484.602 132.987 484.834 132.925C485.067 132.862 485.282 132.748 485.464 132.59C485.646 132.432 485.789 132.234 485.883 132.013C485.977 131.791 486.019 131.551 486.007 131.31C485.798 128.829 485.007 126.433 483.698 124.315C483.571 124.107 483.398 123.931 483.192 123.801C482.985 123.671 482.752 123.591 482.509 123.568C482.267 123.544 482.022 123.577 481.794 123.664C481.567 123.751 481.362 123.889 481.198 124.069Z" fill="black"/>
<path d="M472.031 138.565C471.757 138.652 471.513 138.812 471.325 139.029C471.136 139.246 471.012 139.511 470.965 139.794L469.79 146.707C469.75 146.943 469.765 147.185 469.832 147.415C469.899 147.644 470.017 147.856 470.177 148.033C470.337 148.21 470.536 148.349 470.757 148.439C470.979 148.529 471.218 148.568 471.457 148.552C473.938 148.343 476.334 147.552 478.452 146.243C478.652 146.114 478.82 145.942 478.944 145.738C479.067 145.535 479.143 145.307 479.165 145.07C479.188 144.833 479.156 144.594 479.073 144.371C478.989 144.149 478.857 143.948 478.684 143.784L473.629 138.906C473.42 138.708 473.16 138.571 472.878 138.511C472.596 138.451 472.303 138.469 472.031 138.565Z" fill="black"/>
<path d="M464.147 134.616C464.057 134.346 463.895 134.105 463.678 133.92C463.461 133.734 463.199 133.611 462.917 133.564L456.004 132.389C455.768 132.349 455.527 132.364 455.297 132.431C455.068 132.498 454.856 132.616 454.679 132.776C454.501 132.937 454.362 133.135 454.273 133.357C454.183 133.578 454.144 133.817 454.16 134.056C454.369 136.537 455.16 138.933 456.469 141.051C456.598 141.251 456.77 141.419 456.973 141.543C457.177 141.666 457.405 141.742 457.642 141.765C457.879 141.787 458.118 141.755 458.34 141.672C458.563 141.588 458.764 141.456 458.928 141.283L463.805 136.228C464.006 136.018 464.144 135.755 464.205 135.471C464.265 135.186 464.245 134.89 464.147 134.616Z" fill="black"/>
<path d="M475.624 135.45C475.49 135.705 475.43 135.991 475.449 136.278C475.468 136.565 475.566 136.841 475.733 137.076L479.832 142.8C479.969 142.995 480.149 143.157 480.358 143.272C480.567 143.387 480.8 143.453 481.038 143.465C481.277 143.477 481.514 143.434 481.734 143.34C481.953 143.246 482.148 143.104 482.305 142.923C483.91 141.024 485.043 138.772 485.611 136.352C485.666 136.119 485.666 135.876 485.612 135.643C485.557 135.41 485.45 135.192 485.298 135.007C485.146 134.822 484.954 134.674 484.735 134.576C484.517 134.477 484.279 134.431 484.04 134.439L477.031 134.576C476.738 134.576 476.451 134.658 476.203 134.812C475.954 134.967 475.754 135.188 475.624 135.45Z" fill="black"/>
<path d="M467.303 138.21C467.049 138.077 466.762 138.016 466.475 138.035C466.188 138.055 465.912 138.153 465.677 138.319L459.953 142.418C459.757 142.554 459.595 142.734 459.478 142.942C459.362 143.151 459.295 143.383 459.281 143.621C459.268 143.86 459.31 144.098 459.402 144.318C459.495 144.538 459.637 144.734 459.816 144.891C461.718 146.495 463.968 147.632 466.388 148.211C466.621 148.263 466.864 148.261 467.096 148.205C467.329 148.15 467.546 148.043 467.731 147.892C467.917 147.74 468.065 147.549 468.166 147.333C468.267 147.116 468.318 146.879 468.314 146.64L468.178 139.617C468.177 139.325 468.096 139.038 467.941 138.789C467.787 138.541 467.566 138.34 467.303 138.21Z" fill="black"/>
</g>
<path d="M247.41 130.094L248.503 130.586C248.647 130.651 248.776 130.746 248.879 130.866C248.983 130.985 249.06 131.126 249.104 131.278C249.148 131.43 249.159 131.59 249.135 131.746C249.112 131.903 249.054 132.052 248.967 132.184L238.324 148.128L234.444 146.106L246.084 130.436C246.235 130.238 246.447 130.097 246.688 130.036C246.928 129.974 247.182 129.994 247.41 130.094Z" fill="#EB222A"/>
<path d="M258.107 130.9L256.946 131.214C256.794 131.259 256.654 131.335 256.534 131.439C256.415 131.543 256.32 131.671 256.255 131.815C256.19 131.959 256.157 132.116 256.158 132.274C256.16 132.432 256.195 132.588 256.263 132.731L264.46 150.068L268.559 148.702L259.378 131.488C259.271 131.255 259.084 131.068 258.851 130.96C258.618 130.852 258.354 130.831 258.107 130.9Z" fill="#EB222A"/>
<g opacity="0.5">
<path d="M247.41 130.094L248.503 130.586C248.647 130.651 248.776 130.746 248.879 130.866C248.983 130.985 249.06 131.126 249.104 131.278C249.148 131.43 249.159 131.59 249.135 131.746C249.112 131.903 249.054 132.052 248.967 132.184L238.324 148.128L234.444 146.106L246.084 130.436C246.235 130.238 246.447 130.097 246.688 130.036C246.928 129.974 247.182 129.994 247.41 130.094Z" fill="white"/>
<path d="M258.107 130.9L256.946 131.214C256.794 131.259 256.654 131.335 256.534 131.439C256.415 131.543 256.32 131.671 256.255 131.815C256.19 131.959 256.157 132.116 256.158 132.274C256.16 132.432 256.195 132.588 256.263 132.731L264.46 150.068L268.559 148.702L259.378 131.488C259.271 131.255 259.084 131.068 258.851 130.96C258.618 130.852 258.354 130.831 258.107 130.9Z" fill="white"/>
</g>
<path d="M464.024 146.256L465.131 146.748C465.274 146.814 465.401 146.911 465.504 147.031C465.606 147.151 465.681 147.292 465.724 147.444C465.767 147.596 465.776 147.755 465.752 147.911C465.727 148.067 465.669 148.215 465.582 148.347L454.939 164.277L451.059 162.323L462.781 146.598C462.924 146.415 463.122 146.283 463.346 146.221C463.57 146.16 463.808 146.172 464.024 146.256Z" fill="#EB222A"/>
<path d="M474.722 147.049L473.574 147.377C473.421 147.419 473.279 147.495 473.158 147.598C473.037 147.701 472.94 147.829 472.874 147.973C472.808 148.118 472.774 148.275 472.774 148.434C472.775 148.593 472.81 148.749 472.877 148.893L481.075 166.231L485.173 164.864L475.979 147.65C475.87 147.421 475.685 147.236 475.457 147.127C475.228 147.017 474.968 146.99 474.722 147.049Z" fill="#EB222A"/>
<g opacity="0.5">
<path d="M464.024 146.256L465.131 146.748C465.274 146.814 465.401 146.911 465.504 147.031C465.606 147.151 465.681 147.292 465.724 147.444C465.767 147.596 465.776 147.755 465.752 147.911C465.727 148.067 465.669 148.215 465.582 148.347L454.939 164.277L451.059 162.323L462.781 146.598C462.924 146.415 463.122 146.283 463.346 146.221C463.57 146.16 463.808 146.172 464.024 146.256Z" fill="white"/>
<path d="M474.722 147.049L473.574 147.377C473.421 147.419 473.279 147.495 473.158 147.598C473.037 147.701 472.94 147.829 472.874 147.973C472.808 148.118 472.774 148.275 472.774 148.434C472.775 148.593 472.81 148.749 472.877 148.893L481.075 166.231L485.173 164.864L475.979 147.65C475.87 147.421 475.685 147.236 475.457 147.127C475.228 147.017 474.968 146.99 474.722 147.049Z" fill="white"/>
</g>
<path d="M427.218 147.418H293.028V194.075H427.218V147.418Z" fill="#263238"/>
<path opacity="0.3" d="M427.218 147.418H293.028V194.075H427.218V147.418Z" fill="white"/>
<path d="M141.923 159.81V136.639H53.0505V194.075H175.027V159.81H141.923Z" fill="#263238"/>
<path opacity="0.3" d="M141.923 159.81V136.639H53.0505V194.075H175.027V159.81H141.923Z" fill="white"/>
<path d="M374.783 239.529C397.562 239.529 416.029 221.062 416.029 198.282C416.029 175.503 397.562 157.036 374.783 157.036C352.003 157.036 333.536 175.503 333.536 198.282C333.536 221.062 352.003 239.529 374.783 239.529Z" fill="#263238"/>
<path opacity="0.5" d="M391.825 215.311C401.231 205.905 401.231 190.654 391.825 181.248C382.418 171.841 367.167 171.841 357.761 181.248C348.355 190.654 348.355 205.905 357.761 215.311C367.167 224.717 382.418 224.717 391.825 215.311Z" fill="white"/>
<g opacity="0.5">
<path d="M359.645 195.113C360.032 193.166 360.788 191.311 361.872 189.648C362.118 189.29 362.24 188.862 362.221 188.428C362.201 187.994 362.04 187.578 361.762 187.244C361.563 187.001 361.31 186.809 361.023 186.682C360.735 186.555 360.423 186.497 360.109 186.513C359.795 186.529 359.49 186.618 359.217 186.774C358.945 186.929 358.712 187.146 358.538 187.408C357.163 189.482 356.198 191.801 355.696 194.239C355.636 194.548 355.648 194.866 355.731 195.169C355.815 195.473 355.969 195.752 356.18 195.986C356.391 196.219 356.653 196.4 356.946 196.514C357.24 196.629 357.555 196.673 357.869 196.643C358.288 196.606 358.685 196.439 359.003 196.164C359.322 195.89 359.546 195.522 359.645 195.113Z" fill="white"/>
<path d="M366.285 185.372C367.922 184.284 369.755 183.523 371.682 183.131C372.106 183.048 372.492 182.83 372.782 182.51C373.072 182.19 373.252 181.785 373.294 181.355C373.324 181.042 373.28 180.727 373.166 180.434C373.052 180.141 372.87 179.879 372.636 179.669C372.402 179.459 372.122 179.307 371.819 179.225C371.516 179.143 371.197 179.133 370.889 179.197C368.451 179.691 366.132 180.651 364.058 182.025C363.797 182.198 363.58 182.431 363.424 182.704C363.269 182.977 363.18 183.282 363.164 183.596C363.148 183.909 363.206 184.222 363.332 184.509C363.459 184.796 363.652 185.05 363.894 185.249C364.229 185.519 364.64 185.677 365.07 185.699C365.499 185.721 365.925 185.607 366.285 185.372Z" fill="white"/>
<path d="M387.816 187.367C387.539 187.701 387.377 188.115 387.354 188.549C387.332 188.982 387.451 189.411 387.693 189.771C388.787 191.431 389.548 193.287 389.934 195.236C390.017 195.66 390.235 196.046 390.555 196.337C390.875 196.627 391.28 196.807 391.71 196.849C392.023 196.878 392.339 196.834 392.632 196.72C392.925 196.605 393.188 196.424 393.399 196.191C393.61 195.957 393.763 195.678 393.847 195.375C393.931 195.071 393.943 194.753 393.882 194.444C393.375 192.008 392.411 189.69 391.04 187.613C390.874 187.346 390.646 187.122 390.377 186.959C390.108 186.796 389.804 186.699 389.49 186.675C389.177 186.651 388.862 186.701 388.571 186.822C388.28 186.942 388.022 187.129 387.816 187.367Z" fill="white"/>
<path d="M377.898 183.131C379.824 183.525 381.656 184.286 383.295 185.372C383.655 185.612 384.082 185.73 384.515 185.711C384.947 185.691 385.362 185.534 385.699 185.263C385.942 185.063 386.134 184.81 386.261 184.523C386.388 184.236 386.445 183.923 386.43 183.609C386.414 183.296 386.324 182.99 386.169 182.717C386.014 182.445 385.797 182.212 385.535 182.038C383.46 180.667 381.141 179.707 378.704 179.21C378.396 179.147 378.078 179.157 377.774 179.239C377.471 179.321 377.191 179.473 376.957 179.683C376.723 179.893 376.542 180.155 376.428 180.448C376.313 180.74 376.269 181.056 376.299 181.369C376.343 181.795 376.522 182.195 376.81 182.512C377.097 182.829 377.478 183.046 377.898 183.131Z" fill="white"/>
<path d="M371.682 213.421C369.756 213.034 367.923 212.278 366.285 211.194C365.926 210.95 365.498 210.829 365.065 210.848C364.631 210.868 364.216 211.028 363.88 211.303C363.638 211.502 363.446 211.756 363.319 212.043C363.192 212.33 363.134 212.643 363.15 212.957C363.166 213.27 363.255 213.575 363.411 213.848C363.566 214.121 363.783 214.354 364.044 214.527C366.117 215.905 368.437 216.87 370.876 217.369C371.184 217.43 371.503 217.418 371.806 217.334C372.109 217.25 372.389 217.097 372.622 216.886C372.856 216.675 373.037 216.412 373.151 216.119C373.265 215.826 373.309 215.51 373.28 215.197C373.237 214.769 373.059 214.367 372.771 214.047C372.484 213.728 372.102 213.509 371.682 213.421Z" fill="white"/>
<path d="M389.934 201.384C389.551 203.334 388.79 205.191 387.693 206.849C387.451 207.209 387.332 207.638 387.354 208.071C387.377 208.505 387.539 208.92 387.816 209.253C388.016 209.496 388.269 209.688 388.556 209.815C388.843 209.942 389.156 210 389.47 209.984C389.783 209.968 390.089 209.879 390.361 209.723C390.634 209.568 390.867 209.351 391.04 209.089C392.412 207.013 393.376 204.695 393.882 202.258C393.943 201.949 393.93 201.63 393.846 201.326C393.762 201.022 393.609 200.742 393.399 200.508C393.188 200.273 392.926 200.091 392.633 199.975C392.34 199.859 392.024 199.813 391.71 199.84C391.289 199.878 390.891 200.047 390.572 200.325C390.253 200.602 390.03 200.972 389.934 201.384Z" fill="white"/>
<path d="M361.872 206.781C360.785 205.12 360.029 203.264 359.645 201.316C359.562 200.892 359.344 200.506 359.024 200.216C358.704 199.926 358.299 199.746 357.869 199.704C357.555 199.675 357.24 199.719 356.946 199.833C356.653 199.947 356.391 200.128 356.18 200.362C355.969 200.595 355.815 200.875 355.731 201.178C355.648 201.481 355.636 201.8 355.696 202.109C356.195 204.547 357.16 206.867 358.538 208.94C358.712 209.201 358.945 209.418 359.217 209.574C359.49 209.729 359.795 209.818 360.109 209.834C360.423 209.85 360.735 209.792 361.023 209.666C361.31 209.539 361.563 209.346 361.762 209.104C362.021 208.777 362.171 208.377 362.191 207.96C362.21 207.543 362.099 207.131 361.872 206.781Z" fill="white"/>
<path d="M383.294 211.194C381.655 212.275 379.823 213.031 377.898 213.421C377.475 213.506 377.09 213.724 376.8 214.044C376.51 214.363 376.33 214.767 376.286 215.197C376.256 215.51 376.301 215.826 376.415 216.119C376.529 216.412 376.71 216.675 376.943 216.886C377.177 217.096 377.456 217.25 377.76 217.334C378.063 217.418 378.382 217.43 378.69 217.369C381.128 216.867 383.447 215.903 385.521 214.527C385.783 214.353 386 214.121 386.155 213.848C386.311 213.575 386.4 213.27 386.416 212.956C386.432 212.643 386.374 212.33 386.247 212.043C386.12 211.756 385.928 211.502 385.685 211.303C385.351 211.031 384.938 210.873 384.508 210.853C384.077 210.833 383.652 210.953 383.294 211.194Z" fill="white"/>
</g>
<path d="M422.833 142.65H195.002V82.6454L186.463 22.1899H148.714V147.363L166.475 199.758H327.785C327.785 199.266 327.785 198.774 327.785 198.283C327.678 192.039 328.816 185.836 331.132 180.037C333.448 174.237 336.895 168.957 341.273 164.504C345.651 160.051 350.872 156.514 356.631 154.1C362.39 151.685 368.572 150.442 374.817 150.442C381.062 150.442 387.244 151.685 393.003 154.1C398.762 156.514 403.983 160.051 408.361 164.504C412.739 168.957 416.186 174.237 418.502 180.037C420.818 185.836 421.956 192.039 421.849 198.283C421.849 198.774 421.849 199.266 421.849 199.758H430.757L530.191 195.236V179.634L422.833 142.65Z" fill="#EB222A"/>
<g opacity="0.9">
<path d="M200.698 149.017H194.468V155.247H200.698V149.017Z" fill="white"/>
<path d="M206.928 155.055H200.698V161.285H206.928V155.055Z" fill="white"/>
<path d="M213.158 149.017H206.928V155.247H213.158V149.017Z" fill="white"/>
<path d="M219.388 155.055H213.158V161.285H219.388V155.055Z" fill="white"/>
<path d="M225.618 149.017H219.388V155.247H225.618V149.017Z" fill="white"/>
<path d="M231.848 155.055H225.618V161.285H231.848V155.055Z" fill="white"/>
<path d="M238.079 149.017H231.849V155.247H238.079V149.017Z" fill="white"/>
<path d="M244.308 155.055H238.078V161.285H244.308V155.055Z" fill="white"/>
<path d="M250.538 149.017H244.308V155.247H250.538V149.017Z" fill="white"/>
<path d="M256.768 155.055H250.538V161.285H256.768V155.055Z" fill="white"/>
<path d="M262.998 149.017H256.768V155.247H262.998V149.017Z" fill="white"/>
<path d="M269.228 155.055H262.998V161.285H269.228V155.055Z" fill="white"/>
<path d="M275.458 149.017H269.228V155.247H275.458V149.017Z" fill="white"/>
<path d="M281.688 155.055H275.458V161.285H281.688V155.055Z" fill="white"/>
<path d="M287.918 149.017H281.688V155.247H287.918V149.017Z" fill="white"/>
<path d="M294.148 155.055H287.918V161.285H294.148V155.055Z" fill="white"/>
<path d="M300.378 149.017H294.148V155.247H300.378V149.017Z" fill="white"/>
<path d="M306.608 155.055H300.378V161.285H306.608V155.055Z" fill="white"/>
<path d="M312.838 149.017H306.608V155.247H312.838V149.017Z" fill="white"/>
<path d="M319.068 155.055H312.838V161.285H319.068V155.055Z" fill="white"/>
<path d="M325.298 149.017H319.068V155.247H325.298V149.017Z" fill="white"/>
<path d="M331.514 155.055H325.284V161.285H331.514V155.055Z" fill="white"/>
<path d="M337.744 149.017H331.514V155.247H337.744V149.017Z" fill="white"/>
<path d="M409.375 149.017H403.146V155.247H409.375V149.017Z" fill="white"/>
<path d="M415.605 155.055H409.375V161.285H415.605V155.055Z" fill="white"/>
<path d="M421.836 149.017H415.606V155.247H421.836V149.017Z" fill="white"/>
<path d="M428.065 155.055H421.835V161.285H428.065V155.055Z" fill="white"/>
<path d="M434.295 149.017H428.065V155.247H434.295V149.017Z" fill="white"/>
<path d="M440.525 155.055H434.295V161.285H440.525V155.055Z" fill="white"/>
</g>
<path opacity="0.5" d="M240.497 167.214H253.544C254.472 167.214 255.361 167.583 256.017 168.239C256.673 168.895 257.042 169.784 257.042 170.712V183.145C257.042 184.072 256.673 184.962 256.017 185.618C255.361 186.274 254.472 186.642 253.544 186.642H240.497C240.118 186.642 239.743 186.568 239.394 186.423C239.044 186.278 238.726 186.065 238.458 185.798C238.191 185.53 237.978 185.212 237.833 184.863C237.689 184.513 237.614 184.138 237.614 183.759V170.097C237.614 169.719 237.689 169.344 237.833 168.994C237.978 168.644 238.191 168.326 238.458 168.059C238.726 167.791 239.044 167.579 239.394 167.434C239.743 167.289 240.118 167.214 240.497 167.214Z" fill="white"/>
<path opacity="0.2" d="M253.749 176.929C253.749 176.507 253.624 176.095 253.39 175.745C253.156 175.394 252.823 175.121 252.434 174.96C252.044 174.798 251.616 174.756 251.202 174.838C250.789 174.921 250.409 175.124 250.111 175.422C249.813 175.72 249.61 176.099 249.528 176.513C249.445 176.926 249.487 177.355 249.649 177.744C249.81 178.134 250.083 178.467 250.434 178.701C250.784 178.935 251.196 179.06 251.618 179.06C252.183 179.06 252.725 178.835 253.125 178.436C253.525 178.036 253.749 177.494 253.749 176.929Z" fill="black"/>
<path d="M108.888 239.529C131.668 239.529 150.134 221.062 150.134 198.282C150.134 175.503 131.668 157.036 108.888 157.036C86.1085 157.036 67.6418 175.503 67.6418 198.282C67.6418 221.062 86.1085 239.529 108.888 239.529Z" fill="#263238"/>
<path opacity="0.5" d="M125.92 215.321C135.326 205.914 135.326 190.664 125.92 181.257C116.514 171.851 101.263 171.851 91.8565 181.257C82.4501 190.664 82.4501 205.914 91.8565 215.321C101.263 224.727 116.514 224.727 125.92 215.321Z" fill="white"/>
<g opacity="0.5">
<path d="M93.7502 195.113C94.1309 193.164 94.8873 191.308 95.9772 189.648C96.2212 189.29 96.3424 188.861 96.3226 188.428C96.3029 187.994 96.1434 187.579 95.8679 187.244C95.6685 187.001 95.4151 186.809 95.128 186.682C94.8408 186.555 94.5279 186.497 94.2144 186.513C93.9009 186.529 93.5955 186.618 93.3227 186.774C93.0499 186.929 92.8173 187.146 92.6436 187.408C91.2681 189.482 90.3034 191.801 89.8018 194.239C89.7384 194.547 89.7481 194.865 89.8302 195.169C89.9122 195.472 90.0644 195.752 90.2744 195.986C90.4844 196.22 90.7463 196.401 91.0392 196.515C91.332 196.63 91.6476 196.673 91.9605 196.643C92.3812 196.607 92.7801 196.44 93.1011 196.166C93.4221 195.891 93.6491 195.523 93.7502 195.113Z" fill="white"/>
<path d="M100.39 185.372C102.028 184.283 103.86 183.523 105.787 183.131C106.21 183.046 106.595 182.828 106.885 182.508C107.175 182.188 107.355 181.784 107.399 181.355C107.427 181.042 107.381 180.726 107.265 180.433C107.149 180.141 106.966 179.879 106.731 179.669C106.496 179.46 106.216 179.308 105.912 179.226C105.608 179.144 105.289 179.134 104.981 179.197C102.543 179.692 100.224 180.652 98.1497 182.025C97.8882 182.198 97.6711 182.431 97.5158 182.704C97.3604 182.976 97.2712 183.282 97.2553 183.595C97.2393 183.909 97.2971 184.222 97.424 184.509C97.5508 184.796 97.7432 185.05 97.9857 185.249C98.3214 185.522 98.7355 185.682 99.1679 185.704C99.6003 185.726 100.029 185.61 100.39 185.372Z" fill="white"/>
<path d="M121.922 187.366C121.651 187.704 121.494 188.118 121.474 188.551C121.454 188.983 121.573 189.411 121.813 189.771C122.907 191.43 123.668 193.286 124.053 195.236C124.137 195.66 124.354 196.046 124.674 196.336C124.994 196.627 125.399 196.806 125.83 196.848C126.142 196.878 126.458 196.834 126.751 196.72C127.044 196.606 127.306 196.424 127.516 196.19C127.726 195.957 127.878 195.677 127.96 195.373C128.042 195.07 128.052 194.751 127.988 194.443C127.491 192.006 126.531 189.687 125.16 187.612C124.994 187.343 124.766 187.117 124.495 186.952C124.225 186.788 123.919 186.689 123.604 186.665C123.288 186.641 122.971 186.692 122.679 186.814C122.387 186.936 122.127 187.125 121.922 187.366Z" fill="white"/>
<path d="M112.003 183.131C113.929 183.525 115.761 184.286 117.4 185.372C117.76 185.612 118.188 185.73 118.62 185.711C119.052 185.691 119.467 185.534 119.804 185.263C120.047 185.063 120.239 184.81 120.366 184.523C120.493 184.236 120.551 183.923 120.535 183.609C120.519 183.296 120.43 182.99 120.274 182.717C120.119 182.445 119.902 182.212 119.64 182.038C117.565 180.667 115.246 179.707 112.809 179.21C112.501 179.147 112.183 179.157 111.879 179.239C111.576 179.321 111.296 179.473 111.062 179.683C110.828 179.893 110.647 180.155 110.533 180.448C110.419 180.74 110.375 181.056 110.405 181.369C110.449 181.795 110.627 182.195 110.915 182.512C111.202 182.829 111.584 183.046 112.003 183.131Z" fill="white"/>
<path d="M105.787 213.421C103.861 213.034 102.028 212.278 100.39 211.194C100.031 210.95 99.6033 210.829 99.1698 210.848C98.7364 210.868 98.3209 211.028 97.9857 211.303C97.7432 211.502 97.5508 211.756 97.424 212.043C97.2971 212.33 97.2393 212.643 97.2553 212.957C97.2712 213.27 97.3604 213.575 97.5158 213.848C97.6711 214.121 97.8882 214.354 98.1497 214.527C100.223 215.904 102.542 216.869 104.981 217.369C105.29 217.429 105.609 217.417 105.913 217.333C106.217 217.249 106.497 217.096 106.731 216.885C106.966 216.675 107.148 216.413 107.264 216.12C107.38 215.827 107.426 215.511 107.399 215.197C107.353 214.768 107.172 214.365 106.882 214.046C106.593 213.727 106.209 213.508 105.787 213.421Z" fill="white"/>
<path d="M124.04 201.384C123.657 203.335 122.895 205.191 121.799 206.849C121.559 207.209 121.44 207.637 121.46 208.069C121.48 208.502 121.637 208.917 121.908 209.254C122.108 209.496 122.361 209.689 122.648 209.815C122.935 209.942 123.248 210 123.562 209.984C123.875 209.968 124.181 209.879 124.453 209.724C124.726 209.568 124.959 209.351 125.133 209.09C126.505 207.015 127.465 204.696 127.961 202.259C128.023 201.95 128.014 201.631 127.931 201.327C127.849 201.023 127.697 200.743 127.488 200.508C127.278 200.273 127.017 200.091 126.724 199.975C126.431 199.859 126.116 199.813 125.802 199.84C125.384 199.881 124.988 200.052 124.672 200.329C124.356 200.606 124.135 200.975 124.04 201.384Z" fill="white"/>
<path d="M95.9772 206.781C94.8852 205.122 94.1286 203.266 93.7503 201.316C93.6643 200.891 93.444 200.505 93.1217 200.214C92.7994 199.924 92.3923 199.745 91.9605 199.704C91.6484 199.677 91.3341 199.723 91.0427 199.838C90.7513 199.953 90.4906 200.134 90.2813 200.368C90.0719 200.601 89.9197 200.879 89.8365 201.182C89.7533 201.484 89.7415 201.801 89.8019 202.108C90.3009 204.547 91.2658 206.867 92.6437 208.94C92.8174 209.201 93.05 209.418 93.3228 209.573C93.5956 209.729 93.901 209.818 94.2145 209.834C94.528 209.85 94.8409 209.792 95.128 209.665C95.4152 209.538 95.6686 209.346 95.8679 209.103C96.1248 208.775 96.2733 208.376 96.2929 207.96C96.3125 207.543 96.2022 207.132 95.9772 206.781Z" fill="white"/>
<path d="M117.399 211.194C115.76 212.275 113.928 213.031 112.003 213.421C111.58 213.506 111.195 213.724 110.905 214.044C110.615 214.363 110.435 214.767 110.391 215.197C110.361 215.51 110.405 215.826 110.52 216.119C110.634 216.412 110.815 216.675 111.048 216.886C111.282 217.096 111.561 217.25 111.865 217.334C112.168 217.418 112.486 217.43 112.795 217.369C115.233 216.867 117.552 215.903 119.626 214.527C119.888 214.353 120.105 214.121 120.26 213.848C120.416 213.575 120.505 213.27 120.521 212.956C120.537 212.643 120.479 212.33 120.352 212.043C120.225 211.756 120.033 211.502 119.79 211.303C119.456 211.031 119.043 210.873 118.613 210.853C118.182 210.833 117.757 210.953 117.399 211.194Z" fill="white"/>
</g>
<path d="M6.57149 94.9141H4.08496V108.139H6.57149V94.9141Z" fill="#263238"/>
<path opacity="0.6" d="M6.57149 94.9141H4.08496V108.139H6.57149V94.9141Z" fill="black"/>
<path d="M69.7323 164.209L85.3892 152.132L100.91 149.017H144.724V35.2652C144.724 31.8035 143.35 28.4835 140.904 26.0344C138.457 23.5854 135.139 22.2077 131.677 22.2041H54.7585C50.1488 22.2074 45.6543 23.6437 41.897 26.3142C38.1397 28.9847 35.3055 32.7573 33.7869 37.1096L16.1763 87.4686C13.6781 94.6322 12.4034 102.165 12.4055 109.752V194.075H49.1706L69.7323 164.209Z" fill="#EB222A"/>
<path d="M12.4599 124.247H13.2933C14.4963 124.247 15.65 124.725 16.5006 125.576C17.3513 126.426 17.8292 127.58 17.8292 128.783V144.481C17.8292 145.684 17.3513 146.838 16.5006 147.688C15.65 148.539 14.4963 149.017 13.2933 149.017H12.4326C11.4108 149.017 10.4308 148.611 9.70828 147.888C8.98575 147.166 8.57983 146.186 8.57983 145.164V128.086C8.57983 127.064 8.98575 126.084 9.70828 125.362C10.4308 124.639 11.4108 124.233 12.4326 124.233L12.4599 124.247Z" fill="#EB222A"/>
<path opacity="0.8" d="M12.4599 124.247H13.2933C14.4963 124.247 15.65 124.725 16.5006 125.576C17.3513 126.426 17.8292 127.58 17.8292 128.783V144.481C17.8292 145.684 17.3513 146.838 16.5006 147.688C15.65 148.539 14.4963 149.017 13.2933 149.017H12.4326C11.4108 149.017 10.4308 148.611 9.70828 147.888C8.98575 147.166 8.57983 146.186 8.57983 145.164V128.086C8.57983 127.064 8.98575 126.084 9.70828 125.362C10.4308 124.639 11.4108 124.233 12.4326 124.233L12.4599 124.247Z" fill="white"/>
<path d="M116.375 113.399H116.198C114.907 113.399 113.861 114.445 113.861 115.736V128.018C113.861 129.308 114.907 130.354 116.198 130.354H116.375C117.665 130.354 118.711 129.308 118.711 128.018V115.736C118.711 114.445 117.665 113.399 116.375 113.399Z" fill="#263238"/>
<path d="M12.2275 114.971L4.71325 111.623C4.29723 111.421 3.94769 111.103 3.70568 110.709C3.46368 110.314 3.33925 109.859 3.34702 109.396V107.484C3.34702 106.839 3.60323 106.22 4.0593 105.764C4.51537 105.308 5.13393 105.052 5.7789 105.052H13.2931C14.0178 105.052 14.7128 105.34 15.2253 105.852C15.7377 106.365 16.0256 107.06 16.0256 107.784V112.566C16.0077 113.008 15.8829 113.438 15.662 113.821C15.441 114.204 15.1305 114.528 14.757 114.764C14.3835 115.001 13.9582 115.143 13.5177 115.179C13.0771 115.215 12.6344 115.143 12.2275 114.971Z" fill="#EB222A"/>
<path d="M112.208 84.0664H115.228C117.402 84.0664 119.487 83.2028 121.024 81.6655C122.561 80.1282 123.425 78.0432 123.425 75.8691V35.2649C123.427 34.8583 123.348 34.4553 123.194 34.0791C123.04 33.7029 122.812 33.3609 122.525 33.0728C122.239 32.7846 121.898 32.5559 121.522 32.3999C121.147 32.2439 120.744 32.1636 120.337 32.1636H54.7585C52.2147 32.1622 49.733 32.9499 47.6556 34.418C45.5782 35.8862 44.0073 37.9626 43.1593 40.3609L25.5897 90.7472C25.3255 91.4905 25.102 92.2476 24.9202 93.0152C24.4637 94.8254 24.5056 96.7254 25.0416 98.5136C25.5776 100.302 26.5876 101.912 27.9645 103.172C29.3414 104.433 31.0339 105.298 32.8624 105.674C34.6909 106.051 36.5872 105.925 38.3502 105.311L86.414 88.452C94.7032 85.5459 103.424 84.0631 112.208 84.0664Z" fill="#263238"/>
<path opacity="0.5" d="M112.208 84.0664H115.228C117.402 84.0664 119.487 83.2028 121.024 81.6655C122.561 80.1282 123.425 78.0432 123.425 75.8691V35.2649C123.427 34.8583 123.348 34.4553 123.194 34.0791C123.04 33.7029 122.812 33.3609 122.525 33.0728C122.239 32.7846 121.898 32.5559 121.522 32.3999C121.147 32.2439 120.744 32.1636 120.337 32.1636H54.7585C52.2147 32.1622 49.733 32.9499 47.6556 34.418C45.5782 35.8862 44.0073 37.9626 43.1593 40.3609L25.5897 90.7472C25.3255 91.4905 25.102 92.2476 24.9202 93.0152C24.4637 94.8254 24.5056 96.7254 25.0416 98.5136C25.5776 100.302 26.5876 101.912 27.9645 103.172C29.3414 104.433 31.0339 105.298 32.8624 105.674C34.6909 106.051 36.5872 105.925 38.3502 105.311L86.414 88.452C94.7032 85.5459 103.424 84.0631 112.208 84.0664Z" fill="white"/>
<path d="M143.153 143.333H101.415C93.6446 143.343 86.0148 145.405 79.2974 149.311C72.58 153.217 67.0133 158.827 63.1606 165.575L46.8752 194.075H59.9773L73.0384 171.218C75.9054 166.208 80.0441 162.043 85.0363 159.145C90.0285 156.247 95.6972 154.719 101.47 154.714H143.208C144.001 154.714 144.762 154.398 145.323 153.837C145.885 153.276 146.2 152.515 146.2 151.722V146.325C146.2 145.927 146.121 145.534 145.967 145.167C145.813 144.801 145.588 144.468 145.304 144.19C145.021 143.911 144.684 143.692 144.315 143.545C143.946 143.398 143.551 143.326 143.153 143.333Z" fill="#EB222A"/>
<path opacity="0.4" d="M143.153 143.333H101.415C93.6446 143.343 86.0148 145.405 79.2974 149.311C72.58 153.217 67.0133 158.827 63.1606 165.575L46.8752 194.075H59.9773L73.0384 171.218C75.9054 166.208 80.0441 162.043 85.0363 159.145C90.0285 156.247 95.6972 154.719 101.47 154.714H143.208C144.001 154.714 144.762 154.398 145.323 153.837C145.885 153.276 146.2 152.515 146.2 151.722V146.325C146.2 145.927 146.121 145.534 145.967 145.167C145.813 144.801 145.588 144.468 145.304 144.19C145.021 143.911 144.684 143.692 144.315 143.545C143.946 143.398 143.551 143.326 143.153 143.333Z" fill="white"/>
<path d="M19.9878 171.546H9.20828C7.69919 171.546 6.47583 172.769 6.47583 174.278V185.058C6.47583 186.567 7.69919 187.79 9.20828 187.79H19.9878C21.4969 187.79 22.7202 186.567 22.7202 185.058V174.278C22.7202 172.769 21.4969 171.546 19.9878 171.546Z" fill="#263238"/>
<path opacity="0.7" d="M19.9878 171.546H9.20828C7.69919 171.546 6.47583 172.769 6.47583 174.278V185.058C6.47583 186.567 7.69919 187.79 9.20828 187.79H19.9878C21.4969 187.79 22.7202 186.567 22.7202 185.058V174.278C22.7202 172.769 21.4969 171.546 19.9878 171.546Z" fill="white"/>
<path d="M53.7613 199.758H7.30965C6.5125 199.758 5.74798 199.442 5.1843 198.878C4.62062 198.314 4.30396 197.55 4.30396 196.753V188.719C4.30396 187.922 4.62062 187.157 5.1843 186.594C5.74798 186.03 6.5125 185.713 7.30965 185.713H61.863C62.2227 185.712 62.5762 185.806 62.8872 185.987C63.1982 186.168 63.4554 186.428 63.6322 186.741C63.809 187.055 63.899 187.409 63.893 187.769C63.887 188.129 63.7852 188.48 63.5981 188.787L58.5977 196.985C58.0948 197.821 57.3864 198.515 56.54 199C55.6935 199.485 54.737 199.746 53.7613 199.758Z" fill="#263238"/>
<path opacity="0.6" d="M53.7613 199.758H7.30965C6.5125 199.758 5.74798 199.442 5.1843 198.878C4.62062 198.314 4.30396 197.55 4.30396 196.753V188.719C4.30396 187.922 4.62062 187.157 5.1843 186.594C5.74798 186.03 6.5125 185.713 7.30965 185.713H61.863C62.2227 185.712 62.5762 185.806 62.8872 185.987C63.1982 186.168 63.4554 186.428 63.6322 186.741C63.809 187.055 63.899 187.409 63.893 187.769C63.887 188.129 63.7852 188.48 63.5981 188.787L58.5977 196.985C58.0948 197.821 57.3864 198.515 56.54 199C55.6935 199.485 54.737 199.746 53.7613 199.758Z" fill="white"/>
<path d="M5.01437 69.8442H5.3286C5.98933 69.8442 6.6232 70.1058 7.09168 70.5717C7.56017 71.0376 7.82518 71.6701 7.82879 72.3308V95.7888C7.82879 96.4519 7.56538 97.0879 7.0965 97.5567C6.62762 98.0256 5.99169 98.289 5.3286 98.289H5.01437C3.68456 98.289 2.40922 97.7608 1.4689 96.8205C0.528586 95.8801 0.000318598 94.6048 0.000318598 93.275V74.8856C-0.00328227 74.2249 0.123758 73.5699 0.374125 72.9584C0.624492 72.3469 0.993252 71.7909 1.45921 71.3225C1.92516 70.854 2.47912 70.4822 3.08924 70.2285C3.69936 69.9748 4.35361 69.8442 5.01437 69.8442Z" fill="#263238"/>
<g opacity="0.3">
<path d="M23.5264 108.713V169.701C23.5264 169.984 23.6386 170.255 23.8385 170.455C24.0383 170.655 24.3094 170.767 24.592 170.767C24.8746 170.767 25.1457 170.655 25.3456 170.455C25.5454 170.255 25.6577 169.984 25.6577 169.701V108.713C25.6577 108.43 25.5454 108.159 25.3456 107.96C25.1457 107.76 24.8746 107.647 24.592 107.647C24.3094 107.647 24.0383 107.76 23.8385 107.96C23.6386 108.159 23.5264 108.43 23.5264 108.713Z" fill="black"/>
</g>
<g opacity="0.3">
<path d="M122.318 87.5094V138.06C122.348 138.323 122.473 138.567 122.671 138.743C122.869 138.92 123.125 139.018 123.39 139.018C123.656 139.018 123.912 138.92 124.109 138.743C124.307 138.567 124.433 138.323 124.463 138.06V87.5094C124.433 87.2458 124.307 87.0024 124.109 86.8257C123.912 86.649 123.656 86.5513 123.39 86.5513C123.125 86.5513 122.869 86.649 122.671 86.8257C122.473 87.0024 122.348 87.2458 122.318 87.5094Z" fill="black"/>
</g>
<g opacity="0.2">
<path d="M72.1505 32.1504H65.3467L38.6643 105.216L46.4518 102.484L72.1505 32.1504Z" fill="white"/>
<path d="M98.1769 32.1504H77.5059L52.5996 100.325L76.3173 92.0047L98.1769 32.1504Z" fill="white"/>
</g>
<path d="M204.292 223.489L207.639 235.593H213.063L211.041 221.986L204.292 223.489Z" fill="#FFC3BD"/>
<path d="M213.199 234.473L207.065 234.596C206.935 234.602 206.811 234.651 206.712 234.735C206.614 234.819 206.545 234.934 206.518 235.061L205.33 240.853C205.281 241.1 205.331 241.355 205.469 241.565C205.607 241.774 205.822 241.921 206.067 241.974H206.272C208.827 241.878 211.095 241.7 214.278 241.646C218.036 241.577 217.093 242.042 221.506 242.028C224.17 242.028 224.607 238.982 223.473 238.845C220.166 238.745 217.032 237.34 214.757 234.938C214.314 234.592 213.758 234.426 213.199 234.473Z" fill="#263238"/>
<path opacity="0.2" d="M212.557 232.178L211.041 221.986L204.292 223.489L206.792 232.56L212.557 232.178Z" fill="black"/>
<path d="M198.403 117.156L213.063 228.134L204.865 228.913C204.865 228.913 195.001 193.746 193.198 181.737C192.856 179.579 192.228 175.179 191.831 173.034C191.381 170.561 190.219 165.875 189.482 163.471C188.115 158.88 184.153 145.027 184.153 145.027L178.251 121.077L198.403 117.156Z" fill="#263238"/>
<path opacity="0.5" d="M181.79 126.801L180.793 131.405L184.154 145.068C184.154 145.068 185.916 151.311 187.501 156.804C188.225 133.223 184.331 126.815 184.331 126.815L181.79 126.801Z" fill="black"/>
<path d="M203.034 226.563L204.127 230.716L214.101 229.609L213.855 225.237L203.034 226.563Z" fill="#EB222A"/>
<path d="M172.623 222.915L174.044 235.389L179.413 235.443L179.522 222.478L172.623 222.915Z" fill="#FFC3BD"/>
<path opacity="0.2" d="M179.522 222.478L172.623 222.915L173.729 232.656L179.44 232.615L179.522 222.478Z" fill="black"/>
<path d="M186.612 118.385L180.464 229.541L172.199 229.623C172.199 229.623 168.865 193.282 169.179 181.136C169.179 178.95 169.384 174.51 169.384 172.324C169.384 169.81 169.07 164.987 168.77 162.487C168.196 157.733 166.57 142.69 166.146 137.895C165.586 131.761 165.286 118.768 165.286 118.768L186.612 118.385Z" fill="#263238"/>
<path d="M170.6 226.139L171.311 230.375L181.325 230.224L181.762 225.853L170.6 226.139Z" fill="#EB222A"/>
<path d="M179.672 234.473L173.524 234.596C173.395 234.605 173.272 234.654 173.174 234.738C173.075 234.822 173.007 234.935 172.978 235.061L171.803 240.854C171.777 240.976 171.775 241.102 171.798 241.224C171.821 241.347 171.869 241.464 171.937 241.568C172.006 241.672 172.095 241.762 172.198 241.831C172.302 241.901 172.418 241.949 172.54 241.974H172.732C175.286 241.878 177.568 241.701 180.751 241.646C184.508 241.578 183.566 242.042 187.979 242.029C190.643 242.029 191.066 238.982 189.946 238.845C186.635 238.741 183.499 237.337 181.216 234.938C180.779 234.592 180.227 234.426 179.672 234.473Z" fill="#263238"/>
<path d="M211.396 72.9036L227.258 68.8732L230.482 66.4277C230.752 66.2188 231.083 66.1037 231.425 66.0998H233.802C233.964 66.1056 234.126 66.0825 234.28 66.0315L235.059 65.7719C235.318 65.689 235.595 65.6749 235.861 65.731C236.127 65.7871 236.375 65.9115 236.579 66.092C236.782 66.2724 236.936 66.5028 237.024 66.7604C237.112 67.0181 237.132 67.2942 237.081 67.5617L236.521 70.5127C236.458 70.8259 236.302 71.1127 236.073 71.3348C235.843 71.5569 235.551 71.7038 235.236 71.756L228.255 72.9036L212.27 78.7374L211.396 72.9036Z" fill="#FFC3BD"/>
<path d="M190.615 68.0537L209.92 71.8518L215.289 71.0594L216.205 77.9998L210.576 79.366L191.995 79.489C191.995 79.489 187.418 72.5213 190.615 68.0537Z" fill="#EB222A"/>
<path opacity="0.5" d="M190.615 68.0537L209.92 71.8518L215.289 71.0594L216.205 77.9998L210.576 79.366L191.995 79.489C191.995 79.489 187.418 72.5213 190.615 68.0537Z" fill="black"/>
<path d="M213.978 70.3076L215.686 79.3247L218.309 78.0541L216.861 70.3076H213.978Z" fill="#EB222A"/>
<path opacity="0.5" d="M213.978 70.3076L215.686 79.3247L218.309 78.0541L216.861 70.3076H213.978Z" fill="white"/>
<path opacity="0.2" d="M192.733 71.3052L191.367 72.1386L192.159 74.871L193.334 79.5025H202.898C195.179 78.8467 192.733 71.3052 192.733 71.3052Z" fill="black"/>
<path d="M175.027 88.2328L187.678 86.7846L186.722 68.6958L168.824 71.5649L175.027 88.2328Z" fill="#EB222A"/>
<path opacity="0.4" d="M175.027 88.2328L187.678 86.7846L186.722 68.6958L168.824 71.5649L175.027 88.2328Z" fill="black"/>
<path d="M190.616 68.0537L182.514 69.4199C183.156 73.4413 182.908 77.5544 181.79 81.47C180.301 76.8522 174.303 72.8492 171.489 71.1687L162.349 72.6306L164.617 121.91C164.644 122.527 164.887 123.114 165.304 123.569C165.722 124.024 166.286 124.317 166.898 124.397C172.363 125.094 187.132 126.241 197.816 120.407C198.251 120.167 198.611 119.809 198.852 119.374C199.094 118.939 199.208 118.445 199.182 117.948C198.758 109.71 196.559 72.6169 190.616 68.0537Z" fill="#EB222A"/>
<path opacity="0.5" d="M190.616 68.0537L182.514 69.4199C183.156 73.4413 182.908 77.5544 181.79 81.47C180.301 76.8522 174.303 72.8492 171.489 71.1687L162.349 72.6306L164.617 121.91C164.644 122.527 164.887 123.114 165.304 123.569C165.722 124.024 166.286 124.317 166.898 124.397C172.363 125.094 187.132 126.241 197.816 120.407C198.251 120.167 198.611 119.809 198.852 119.374C199.094 118.939 199.208 118.445 199.182 117.948C198.758 109.71 196.559 72.6169 190.616 68.0537Z" fill="white"/>
<path opacity="0.8" d="M162.977 86.1967L163.209 91.402C174.441 91.4619 185.596 89.5427 196.163 85.7322C195.848 83.6965 195.507 81.7292 195.124 79.8984C184.87 83.8978 173.983 86.0308 162.977 86.1967Z" fill="white"/>
<path opacity="0.2" d="M163.387 95.1047C169.521 84.9126 165.819 78.71 165.819 78.71L164.78 79.0925L162.758 81.5244L163.387 95.1047Z" fill="black"/>
<path d="M173.565 72.0019C175.136 73.1768 177.582 74.5704 179.986 74.0922C180.383 74.0425 180.765 73.9107 181.109 73.7052C181.452 73.4997 181.749 73.225 181.98 72.8986C182.211 72.5722 182.372 72.2012 182.452 71.8093C182.532 71.4173 182.53 71.013 182.445 70.622C180.259 69.5154 179.713 67.0562 179.795 64.7336L171.352 60.1021C172.649 63.2034 174.426 68.6 173.565 72.0019Z" fill="#FFC3BD"/>
<path opacity="0.2" d="M174.795 62.0146L179.795 64.7471C179.774 65.4643 179.815 66.182 179.918 66.8921C178.952 66.9227 177.994 66.7157 177.127 66.2893C176.26 65.8629 175.51 65.2301 174.945 64.4465C174.317 63.4219 174.412 62.2196 174.795 62.0146Z" fill="black"/>
<path d="M178.934 54.5417C175.109 52.5607 172.8 48.1341 173.046 47.0958C173.292 46.0575 178.989 43.9398 179.809 44.3634C183.907 46.1258 181.749 51.7546 181.749 51.7546L183.238 53.476L178.934 54.5417Z" fill="#263238"/>
<path d="M168.824 54.9786C170.532 59.897 171.283 62.8617 174.535 64.7061C179.413 67.5205 184.946 63.4765 184.741 58.1619C184.55 53.3391 181.776 46.1255 176.325 45.5106C175.122 45.3675 173.903 45.5348 172.783 45.9965C171.664 46.4583 170.681 47.1992 169.929 48.1486C169.177 49.0979 168.68 50.2241 168.487 51.4197C168.294 52.6153 168.41 53.8406 168.824 54.9786Z" fill="#FFC3BD"/>
<path d="M168.756 58.5723C165.149 56.2361 162.198 52.3287 162.595 51.3587C163.647 48.7765 167.8 46.6862 170.614 47.8474C174.713 49.5279 171.844 56.0448 171.844 56.0448L173.21 57.9302L168.756 58.5723Z" fill="#263238"/>
<path d="M167.676 60.3342C168.156 60.7675 168.717 61.1017 169.327 61.3174C169.937 61.5331 170.583 61.6261 171.229 61.5911C172.964 61.4955 173.264 59.8151 172.322 58.4625C171.379 57.1099 169.589 55.8667 168.018 56.6181C167.687 56.7886 167.405 57.0396 167.197 57.348C166.989 57.6564 166.863 58.0122 166.829 58.3825C166.795 58.7529 166.854 59.1258 167.003 59.4669C167.151 59.808 167.383 60.1063 167.676 60.3342Z" fill="#FFC3BD"/>
<path d="M177.049 54.2271C177.172 54.637 177.472 54.9102 177.746 54.8282C178.019 54.7463 178.128 54.3637 178.019 53.9538C177.91 53.544 177.595 53.2844 177.322 53.3527C177.049 53.421 176.94 53.8172 177.049 54.2271Z" fill="#263238"/>
<path d="M181.653 52.9431C181.776 53.3393 182.077 53.6126 182.35 53.5306C182.623 53.4486 182.732 53.0661 182.623 52.6699C182.514 52.2737 182.199 51.9868 181.926 52.0687C181.653 52.1507 181.544 52.5333 181.653 52.9431Z" fill="#263238"/>
<path d="M179.973 53.5718C180.814 54.6754 181.803 55.6591 182.91 56.4955C182.686 56.7752 182.403 57.003 182.083 57.1634C181.762 57.3237 181.41 57.4128 181.052 57.4245L179.973 53.5718Z" fill="#ED847E"/>
<path d="M174.931 52.7654H174.808C174.751 52.7386 174.706 52.6919 174.681 52.634C174.656 52.5762 174.653 52.5112 174.672 52.4512C174.809 52.0811 175.031 51.7485 175.321 51.4802C175.61 51.212 175.959 51.0158 176.339 50.9074C176.404 50.8929 176.472 50.9049 176.529 50.9407C176.585 50.9766 176.625 51.0334 176.639 51.0986C176.654 51.1638 176.642 51.2322 176.606 51.2885C176.57 51.3449 176.513 51.3847 176.448 51.3992C176.136 51.4752 175.848 51.6274 175.61 51.8419C175.372 52.0565 175.19 52.3269 175.082 52.6288C175.05 52.6911 174.997 52.7397 174.931 52.7654Z" fill="#263238"/>
<path d="M182.924 50.5793C182.883 50.5837 182.843 50.5785 182.805 50.5643C182.767 50.5501 182.733 50.5271 182.705 50.4973C182.508 50.2571 182.257 50.0673 181.971 49.9437C181.686 49.8202 181.376 49.7664 181.066 49.7869C181.033 49.7928 181 49.7921 180.968 49.7849C180.936 49.7777 180.906 49.7641 180.879 49.745C180.852 49.7259 180.83 49.7016 180.812 49.6736C180.795 49.6456 180.784 49.6145 180.779 49.582C180.774 49.5158 180.794 49.4501 180.834 49.3973C180.874 49.3445 180.932 49.3082 180.997 49.2951C181.39 49.2614 181.786 49.3233 182.15 49.4756C182.514 49.6279 182.836 49.8659 183.088 50.1695C183.111 50.1912 183.13 50.2176 183.143 50.247C183.156 50.2764 183.163 50.3082 183.163 50.3402C183.163 50.3723 183.156 50.4041 183.143 50.4335C183.13 50.4629 183.111 50.4893 183.088 50.511C183.067 50.5332 183.041 50.5508 183.013 50.5626C182.985 50.5743 182.954 50.58 182.924 50.5793Z" fill="#263238"/>
<path d="M180.628 59.8563C180.876 59.8607 181.124 59.8378 181.366 59.788C181.383 59.7885 181.4 59.7851 181.415 59.778C181.431 59.7709 181.444 59.7603 181.455 59.747C181.466 59.7338 181.473 59.7182 181.477 59.7016C181.48 59.685 181.48 59.6678 181.475 59.6514C181.472 59.635 181.466 59.6195 181.456 59.6057C181.447 59.592 181.435 59.5803 181.421 59.5713C181.407 59.5624 181.391 59.5564 181.375 59.5537C181.358 59.551 181.341 59.5517 181.325 59.5557C180.788 59.6586 180.233 59.6344 179.707 59.4849C179.18 59.3355 178.696 59.065 178.292 58.695C178.265 58.6728 178.231 58.6606 178.197 58.6606C178.162 58.6606 178.128 58.6728 178.101 58.695C178.089 58.7065 178.079 58.7203 178.073 58.7355C178.066 58.7508 178.063 58.7672 178.063 58.7838C178.063 58.8004 178.066 58.8168 178.073 58.8321C178.079 58.8474 178.089 58.8611 178.101 58.8726C178.784 59.5156 179.69 59.8683 180.628 59.8563Z" fill="#263238"/>
<path d="M166.638 57.124C166.638 57.124 162.471 54.3916 162.212 51.6591C162.201 49.8422 162.609 48.0472 163.402 46.4127C164.196 44.7782 165.354 43.3479 166.788 42.2322C169.903 40.1282 176.229 38.3658 181.735 45.5384L172.8 48.2709L169.248 51.946L166.638 57.124Z" fill="#EB222A"/>
<path opacity="0.3" d="M166.638 57.124C166.638 57.124 162.471 54.3916 162.212 51.6591C162.201 49.8422 162.609 48.0472 163.402 46.4127C164.196 44.7782 165.354 43.3479 166.788 42.2322C169.903 40.1282 176.229 38.3658 181.735 45.5384L172.8 48.2709L169.248 51.946L166.638 57.124Z" fill="black"/>
<path d="M166.843 57.4517C166.843 57.4517 170.942 46.2214 182.049 46.358C182.049 46.358 185.068 38.0923 179.18 38.9257C173.292 39.7591 169.849 50.5386 169.849 50.5386C169.849 50.5386 164.493 56.3314 166.843 57.4517Z" fill="#EB222A"/>
<path opacity="0.5" d="M166.843 57.4517C166.843 57.4517 170.942 46.2214 182.049 46.358C182.049 46.358 185.068 38.0923 179.18 38.9257C173.292 39.7591 169.849 50.5386 169.849 50.5386C169.849 50.5386 164.493 56.3314 166.843 57.4517Z" fill="white"/>
<path opacity="0.8" d="M198.963 113.959C198.854 112.265 198.717 110.256 198.553 108.043C181.298 112.811 168.496 111.95 164.138 111.418L164.37 116.691C181.913 118.276 194.236 115.366 198.963 113.959Z" fill="white"/>
<path d="M168.428 94.6265L182.46 96.2933C182.46 96.2933 179.618 109.669 184.331 115.284L173.197 115.407L168.428 94.6265Z" fill="#263238"/>
<path opacity="0.7" d="M168.428 94.6265L182.46 96.2933C182.46 96.2933 179.618 109.669 184.331 115.284L173.197 115.407L168.428 94.6265Z" fill="white"/>
<path d="M181.028 94.9916L168.939 93.5629C167.755 93.423 166.682 94.2694 166.542 95.4533L164.398 113.593C164.258 114.777 165.104 115.851 166.288 115.991L178.377 117.419C179.561 117.559 180.634 116.713 180.774 115.529L182.918 97.3887C183.058 96.2047 182.212 95.1315 181.028 94.9916Z" fill="#263238"/>
<path opacity="0.5" d="M181.028 94.9916L168.939 93.5629C167.755 93.423 166.682 94.2694 166.542 95.4533L164.398 113.593C164.258 114.777 165.104 115.851 166.288 115.991L178.377 117.419C179.561 117.559 180.634 116.713 180.774 115.529L182.918 97.3887C183.058 96.2047 182.212 95.1315 181.028 94.9916Z" fill="white"/>
<path d="M175.505 93.3012L176.748 91.935C176.815 91.8619 176.859 91.7719 176.877 91.6749C176.895 91.578 176.886 91.4779 176.851 91.3859C176.815 91.2938 176.755 91.2134 176.677 91.1535C176.598 91.0937 176.505 91.0568 176.407 91.0469L174.426 90.8147C174.327 90.8016 174.227 90.8163 174.137 90.8571C174.046 90.8979 173.969 90.9632 173.913 91.0456C173.858 91.1279 173.827 91.2242 173.823 91.3234C173.82 91.4226 173.844 91.5209 173.893 91.6071L174.781 93.2466L171.215 92.823L171.01 94.5855C170.968 94.9672 171.077 95.3504 171.315 95.6521C171.553 95.9537 171.9 96.1497 172.281 96.1976L177.24 96.7441C177.622 96.7866 178.005 96.6771 178.307 96.4394C178.608 96.2016 178.804 95.8546 178.852 95.4735L179.057 93.7111L175.505 93.3012Z" fill="#263238"/>
<path d="M153.768 98.6982L164.097 104.846L170.491 103.179C170.886 103.073 171.306 103.107 171.679 103.275C172.1 103.472 172.427 103.824 172.593 104.257C172.758 104.69 172.749 105.171 172.568 105.598L171.324 108.439C171.166 108.798 170.895 109.094 170.551 109.281C170.208 109.469 169.812 109.538 169.425 109.478L163.059 108.453L150.626 103.22L153.768 98.6982Z" fill="#FFC3BD"/>
<path d="M162.348 72.5889C162.348 72.5889 145.27 94.3801 145.53 98.4378C145.79 102.495 153.522 104.982 153.522 104.982L156.924 100.146L154.014 97.2629C154.014 97.2629 160.845 90.1448 163.113 87.6993C165.614 84.9259 168.961 81.0321 162.348 72.5889Z" fill="#EB222A"/>
<path opacity="0.5" d="M162.348 72.5889C162.348 72.5889 145.27 94.3801 145.53 98.4378C145.79 102.495 153.522 104.982 153.522 104.982L156.924 100.146L154.014 97.2629C154.014 97.2629 160.845 90.1448 163.113 87.6993C165.614 84.9259 168.961 81.0321 162.348 72.5889Z" fill="black"/>
<path d="M156.733 98.6299L152.143 105.447L154.438 106.226L158.236 100.666L156.733 98.6299Z" fill="#EB222A"/>
<path opacity="0.5" d="M156.733 98.6299L152.143 105.447L154.438 106.226L158.236 100.666L156.733 98.6299Z" fill="white"/>
<path d="M187.405 123.932L183.197 82.6998C183.173 82.3543 183.018 82.0309 182.765 81.795C182.511 81.5591 182.177 81.4284 181.831 81.4292L186.285 124.151L187.405 123.932Z" fill="#EB222A"/>
</svg>
