<svg width="641" height="368" viewBox="0 0 641 368" fill="none" xmlns="http://www.w3.org/2000/svg">
<g opacity="0.5">
<path d="M233.92 299.996C240.43 304.616 277.26 277.396 284.17 272.156C291.08 266.916 286.17 247.746 277.92 244.096C269.67 240.446 262.68 236.306 261.02 226.096C259.36 215.886 262.09 210.536 269.72 207.996C277.35 205.456 292.46 200.997 289.07 184.837C285.68 168.676 268.07 172.367 258.51 169.236C248.95 166.106 238.33 161.416 239.07 150.476C239.81 139.536 250.07 141.086 266.31 140.566C282.55 140.046 294.31 112.686 295.58 104.566C296.85 96.4465 294.93 78.8965 285.94 78.2465C276.95 77.5965 270.83 90.3565 265.35 85.5365C259.87 80.7165 275.35 76.0265 275.13 70.0365C274.91 64.0465 269.52 58.7365 263.27 63.1365C257.02 67.5365 245.68 72.6465 240.59 64.3065C235.5 55.9665 240.72 47.4965 247.5 45.0265C254.28 42.5565 263.66 41.2465 265.35 33.1665C267.04 25.0865 255.45 14.9265 260.27 6.16649C265.09 -2.59351 272.39 1.60649 272.39 1.60649C272.39 1.60649 263.79 -2.69351 258.45 2.77649C253.11 8.24649 263.01 24.7765 256.88 29.4865C250.75 34.1965 229.39 33.0065 222.61 40.3065C215.83 47.6065 207.11 59.1965 212.97 68.8365C218.83 78.4765 234.6 79.6565 240.85 79.6565C247.1 79.6565 252.71 76.7865 254.93 77.9665C257.15 79.1465 254.02 82.6565 248.54 84.8665C243.06 87.0765 231.08 96.8665 239.54 104.936C248 113.006 261.43 102.846 266.78 100.246C272.13 97.6465 266.78 128.776 252.44 131.126C238.1 133.477 231.07 123.046 222.08 124.746C213.09 126.446 201.08 141.416 207.86 159.146C214.64 176.876 248.53 182.146 251.53 187.196C254.53 192.246 253.53 197.626 248.88 200.196C244.23 202.766 220.13 205.196 213.88 223.796C207.63 242.396 206.87 280.806 233.92 299.996Z" fill="#EB222A"/>
<path d="M280.33 270.467C286.82 267.017 289.17 257.467 287.48 250.597C287.148 248.944 286.362 247.417 285.21 246.187C279.74 241.507 270.33 241.107 266.47 233.877C264.227 229.773 263.518 225.005 264.47 220.427C265.7 214.997 270.96 211.427 275.99 210.277C280.14 209.517 284.24 208.347 287.43 205.467C293.93 199.987 295.93 190.607 294.2 182.467C293.862 180.428 293.078 178.489 291.902 176.789C290.726 175.09 289.189 173.672 287.4 172.637C283.77 170.457 279.35 169.447 274.99 168.227C270.63 167.007 265.4 165.817 262.73 161.527C259.88 157.097 262.41 151.277 266.49 148.707C268.446 147.394 270.647 146.489 272.96 146.047C275.21 145.617 277.4 145.617 279.48 144.647C287.71 140.827 291.86 131.507 294.41 123.227C292.07 131.767 288.24 141.227 279.85 145.477C277.85 146.537 275.37 146.677 273.2 147.147C271.072 147.633 269.062 148.541 267.29 149.817C261.29 154.147 261.97 161.737 269.19 164.137C275.62 166.597 282.44 166.817 288.78 170.247C290.952 171.434 292.842 173.078 294.32 175.065C295.797 177.052 296.828 179.334 297.34 181.757C300.95 195.857 293.79 211.457 278.7 214.367C271.95 215.687 267.62 220.077 269.63 227.177C269.972 228.571 270.493 229.916 271.18 231.177C272.36 233.117 274.18 234.177 276.46 235.287C281.87 237.637 289.1 239.137 292.17 245.137C294.136 249.309 294.973 253.925 294.598 258.522C294.222 263.12 292.647 267.538 290.03 271.337C288.417 273.602 286.346 275.503 283.95 276.917L280.33 270.487V270.467Z" fill="#EB222A"/>
<path d="M227.08 304.137C209.5 287.057 195.3 262.967 198.54 237.647C200.1 227.277 204.13 217.067 211.18 209.327C217.12 203.397 224.98 200.087 232.71 197.377C234.528 196.793 236.311 196.106 238.05 195.317C240.27 194.207 240.74 190.247 238.52 188.937C225.43 181.517 204.04 175.937 202.25 158.267C204.98 175.697 226.46 179.837 239.85 186.567C244.05 188.827 243.52 195.567 239.56 197.797C237.692 198.743 235.769 199.574 233.8 200.287C228.38 202.417 222.9 204.877 218.29 208.347C215.251 210.541 212.709 213.353 210.83 216.597C206.866 223.174 204.396 230.543 203.596 238.181C202.796 245.819 203.685 253.54 206.2 260.797C211.09 275.307 220.62 288.337 231.93 298.577L227.08 304.137Z" fill="#EB222A"/>
</g>
<path d="M257.69 244.456L286.41 266.036L250.5 259.736L249.73 288.136L239.3 262.136L220.94 287.346L228.52 260.136L194.17 266.066L224.92 249.736L204.31 245.456L226.67 241.876L203.67 215.116L234.87 229.846L239.25 192.846L247.43 227.896C247.43 227.896 273.21 206.746 272.43 207.336C271.65 207.926 254.71 234.486 254.71 234.486L282.71 226.436L257.69 244.456Z" fill="#EB222A"/>
<path opacity="0.4" d="M257.69 244.456L286.41 266.036L250.5 259.736L249.73 288.136L239.3 262.136L220.94 287.346L228.52 260.136L194.17 266.066L224.92 249.736L204.31 245.456L226.67 241.876L203.67 215.116L234.87 229.846L239.25 192.846L247.43 227.896C247.43 227.896 273.21 206.746 272.43 207.336C271.65 207.926 254.71 234.486 254.71 234.486L282.71 226.436L257.69 244.456Z" fill="white"/>
<path opacity="0.4" d="M252.87 244.407L273 259.537L247.87 255.137L247.33 275.067L240.02 256.797L227.14 274.477L232.46 255.427L208.58 261.237L229.93 248.137L215.48 245.137L231.15 242.627L215.02 223.867L236.93 234.137L240 208.197L245.73 232.767C245.73 232.767 263.8 217.937 263.23 218.357C262.66 218.777 250.81 237.357 250.81 237.357L270.41 231.717L252.87 244.407Z" fill="white"/>
<path d="M23.61 278.187H11.25C5.03679 278.187 0 283.223 0 289.437V339.637C0 345.85 5.03679 350.887 11.25 350.887H23.61C29.8232 350.887 34.86 345.85 34.86 339.637V289.437C34.86 283.223 29.8232 278.187 23.61 278.187Z" fill="#263238"/>
<path d="M209.743 349.104L222.036 350.389C228.215 351.036 233.749 346.55 234.395 340.371L239.616 290.443C240.262 284.263 235.777 278.73 229.597 278.084L217.304 276.798C211.125 276.152 205.591 280.638 204.945 286.817L199.724 336.745C199.078 342.924 203.563 348.458 209.743 349.104Z" fill="#263238"/>
<path d="M32.59 224.987C32.59 224.987 27.83 222.777 27.15 221.607C26.47 220.437 23.51 215.537 22.41 215.307C18.29 214.447 6.94005 214.427 3.05005 216.307C0.930047 217.307 2.80005 225.717 4.63005 227.737C6.46005 229.757 20.11 230.687 22.34 230.337C23.8968 229.929 25.2792 229.027 26.2801 227.767L31.66 229.496L32.59 224.987Z" fill="#455A64"/>
<path d="M34.1701 218.947C34.1701 218.947 30.47 219.337 29.55 220.067C28.63 220.797 25.55 226.877 25.69 229.017C25.83 231.157 27.96 233.447 27.96 233.447L34.1701 218.947Z" fill="#455A64"/>
<path opacity="0.1" d="M34.1701 218.947C34.1701 218.947 30.47 219.337 29.55 220.067C28.63 220.797 25.55 226.877 25.69 229.017C25.83 231.157 27.96 233.447 27.96 233.447L34.1701 218.947Z" fill="black"/>
<path d="M218.94 232.857C218.94 232.857 224.19 232.857 225.3 232.127C226.41 231.397 231.19 228.177 232.3 228.447C236.39 229.447 246.67 234.247 249.37 237.617C250.85 239.467 245.59 246.237 243.07 247.277C240.55 248.317 227.8 243.347 225.95 242.077C224.714 241.045 223.844 239.642 223.47 238.077L217.87 237.337L218.94 232.857Z" fill="#455A64"/>
<path d="M214.29 228.927C214.29 228.927 217.92 229.767 218.74 230.607C219.56 231.447 221.84 237.847 221.49 239.957C221.14 242.067 218.7 244.077 218.7 244.077L214.29 228.927Z" fill="#455A64"/>
<path opacity="0.1" d="M214.29 228.927C214.29 228.927 217.92 229.767 218.74 230.607C219.56 231.447 221.84 237.847 221.49 239.957C221.14 242.067 218.7 244.077 218.7 244.077L214.29 228.927Z" fill="black"/>
<path d="M15.03 252.937C15.03 252.937 6.78998 256.737 4.74998 260.467C2.70998 264.197 3.04998 303.527 2.93998 306.537C2.82998 309.547 7.93998 329.407 8.93998 331.537C9.93998 333.667 25.23 336.617 25.23 336.617L15.03 252.937Z" fill="#455A64"/>
<path opacity="0.1" d="M15.03 252.937C15.03 252.937 6.78998 256.737 4.74998 260.467C2.70998 264.197 3.04998 303.527 2.93998 306.537C2.82998 309.547 7.93998 329.407 8.93998 331.537C9.93998 333.667 25.23 336.617 25.23 336.617L15.03 252.937Z" fill="black"/>
<path d="M228.92 261.337C228.92 261.337 233.87 266.477 234.68 268.547C234.88 269.037 235.16 272.797 235.33 273.747C235.33 273.747 237.22 278.747 237.33 280.507C237.39 281.917 233.5 307.697 233.69 310.377C233.88 313.057 235.28 314.617 235.23 315.757C234.843 316.909 234.388 318.037 233.87 319.137C233.87 319.397 234.44 321.727 234.22 322.467C232.22 329.337 229.7 338.687 228.84 340.127C227.65 342.127 212.2 343.917 212.2 343.917L228.92 261.337Z" fill="#455A64"/>
<g opacity="0.1">
<path d="M228.92 261.337C228.92 261.337 233.87 266.477 234.68 268.547C234.88 269.037 235.16 272.797 235.33 273.747C235.33 273.747 237.22 278.747 237.33 280.507C237.39 281.917 233.5 307.697 233.69 310.377C233.88 313.057 235.28 314.617 235.23 315.757C234.843 316.909 234.388 318.037 233.87 319.137C233.87 319.397 234.44 321.727 234.22 322.467C232.22 329.337 229.7 338.687 228.84 340.127C227.65 342.127 212.2 343.917 212.2 343.917L228.92 261.337Z" fill="black"/>
</g>
<path d="M229.49 326.767C229.38 327.767 225.31 342.377 223.83 343.827C222.35 345.277 193.83 345.337 192.05 345.277C190.27 345.217 184.98 341.907 183.96 341.627C182.94 341.347 125.75 339.267 118.76 338.987C111.77 338.707 54.6 336.307 53.56 336.507C52.52 336.707 46.94 339.577 45.19 339.507C43.44 339.437 15 337.137 13.64 335.567C12.28 333.997 9.37004 319.137 9.33004 318.137C9.29004 317.137 10.54 313.507 10.57 312.707C10.6 311.907 11.92 256.707 12.2 255.707C12.48 254.707 15.02 247.257 16.1 245.707C17.18 244.157 26.64 233.037 26.87 232.337C33.07 215.897 49.55 192.147 52.01 190.097C54.2958 188.213 57.0708 187.02 60.01 186.657C62.39 186.457 94.56 186.537 124.61 187.717C154.66 188.897 186.74 191.347 189.1 191.717C192.013 192.309 194.7 193.713 196.85 195.767C199.13 198.007 213.7 222.987 218.6 239.857C218.81 240.577 227.39 252.327 228.34 253.977C229.29 255.627 231.24 263.187 231.44 264.257C231.53 264.767 230.29 276.777 229.61 289.857C229.53 291.477 229.94 293.457 229.98 295.087C229.98 295.827 225.6 303.017 225.64 303.437C225.82 305.227 228.64 320.917 228.59 321.257C228.65 322.057 229.61 325.737 229.49 326.767Z" fill="#455A64"/>
<path opacity="0.1" d="M222.97 316.677C222.97 317.627 221.35 324.967 220.51 325.137C197.36 329.947 142.09 332.577 119.06 331.297C96 330.767 41.12 323.817 18.41 317.207C17.58 316.967 16.59 309.527 16.63 308.577C16.67 307.627 18.03 297.137 19.21 296.867C20.39 296.597 44.48 301.867 64.77 305.417C82.9984 308.455 101.403 310.322 119.87 311.007C138.331 311.775 156.823 311.354 175.23 309.747C195.72 307.847 220.15 304.437 221.32 304.807C222.49 305.177 223 315.727 222.97 316.677Z" fill="black"/>
<path opacity="0.5" d="M200.87 306.966L192.19 328.876C166.64 331.186 135.04 332.186 119.02 331.296C103.02 330.926 71.57 327.456 46.27 323.146L39.34 300.626C47.17 302.176 56.28 303.956 64.73 305.416C82.9716 308.456 101.389 310.323 119.87 311.006C138.331 311.775 156.823 311.354 175.23 309.746C183.75 308.956 192.98 307.906 200.87 306.966Z" fill="white"/>
<path d="M175.22 309.747C175.31 310.287 170.59 318.827 167.07 323.877C166.07 325.387 161.15 328.757 160.07 328.957C158.99 329.157 145.14 332.317 119.07 331.297C93 330.277 79.51 326.027 78.41 325.747C77.31 325.467 72.72 321.747 71.79 320.137C68.69 314.827 64.65 305.937 64.79 305.417C64.93 304.897 81.1 309.477 119.88 311.007C158.66 312.537 175.14 309.217 175.22 309.747Z" fill="#263238"/>
<path d="M33.58 309.137C33.5417 310.087 33.2226 311.004 32.663 311.773C32.1034 312.542 31.3284 313.128 30.436 313.457C29.5436 313.785 28.5737 313.842 27.6491 313.62C26.7245 313.397 25.8865 312.906 25.2411 312.207C24.5957 311.509 24.1718 310.635 24.0231 309.695C23.8743 308.756 24.0073 307.794 24.4053 306.93C24.8033 306.066 25.4484 305.34 26.2591 304.843C27.0698 304.346 28.0097 304.1 28.96 304.137C29.5918 304.161 30.2126 304.31 30.7868 304.575C31.3611 304.839 31.8775 305.214 32.3066 305.679C32.7357 306.143 33.0691 306.688 33.2876 307.281C33.5061 307.874 33.6054 308.505 33.58 309.137Z" fill="white"/>
<path d="M25.51 305.397C26.2488 304.727 27.1645 304.284 28.1479 304.121C29.1314 303.957 30.1411 304.08 31.0569 304.474C31.9726 304.868 32.7558 305.517 33.313 306.344C33.8703 307.17 34.1782 308.14 34.2 309.137C34.1965 309.857 34.0448 310.568 33.7545 311.227C33.4642 311.887 33.0414 312.479 32.5124 312.967C31.9834 313.456 31.3595 313.831 30.6796 314.068C29.9996 314.305 29.2781 314.4 28.56 314.347C27.5627 314.246 26.6156 313.859 25.8329 313.233C25.0502 312.607 24.4652 311.768 24.1482 310.817C23.8312 309.866 23.7958 308.844 24.0463 307.873C24.2968 306.903 24.8224 306.025 25.56 305.347L25.51 305.397ZM25.51 305.397C24.8714 305.987 24.4189 306.75 24.2077 307.594C23.9965 308.437 24.0359 309.324 24.321 310.145C24.6061 310.966 25.1246 311.687 25.8129 312.218C26.5012 312.749 27.3295 313.068 28.1963 313.136C29.0632 313.203 29.9309 313.017 30.6932 312.599C31.4556 312.181 32.0794 311.549 32.4884 310.782C32.8974 310.015 33.0738 309.145 32.9959 308.279C32.918 307.413 32.5893 306.589 32.05 305.907C31.6661 305.426 31.1876 305.029 30.6442 304.741C30.1007 304.453 29.5039 304.28 28.8906 304.232C28.2774 304.184 27.6609 304.263 27.0794 304.463C26.4979 304.664 25.9637 304.981 25.51 305.397Z" fill="#EB222A"/>
<path d="M205.49 315.877C205.453 316.827 205.699 317.767 206.196 318.577C206.693 319.388 207.42 320.033 208.283 320.431C209.147 320.829 210.109 320.962 211.049 320.813C211.988 320.665 212.862 320.241 213.561 319.595C214.259 318.95 214.751 318.112 214.973 317.187C215.195 316.263 215.139 315.293 214.81 314.401C214.481 313.508 213.896 312.733 213.127 312.174C212.358 311.614 211.44 311.295 210.49 311.257C209.858 311.231 209.228 311.331 208.634 311.549C208.041 311.767 207.496 312.101 207.032 312.53C206.568 312.959 206.192 313.475 205.928 314.05C205.663 314.624 205.514 315.245 205.49 315.877Z" fill="white"/>
<path d="M213.87 312.797C213.28 312.158 212.516 311.706 211.673 311.494C210.83 311.283 209.943 311.323 209.121 311.608C208.3 311.893 207.58 312.411 207.048 313.1C206.517 313.788 206.198 314.616 206.131 315.483C206.063 316.35 206.25 317.217 206.668 317.98C207.086 318.742 207.717 319.366 208.485 319.775C209.252 320.184 210.122 320.36 210.988 320.283C211.854 320.205 212.678 319.876 213.36 319.337C213.839 318.952 214.235 318.473 214.522 317.93C214.809 317.386 214.982 316.79 215.03 316.177C215.078 315.564 214.999 314.948 214.8 314.367C214.6 313.785 214.284 313.251 213.87 312.797ZM213.87 312.797C214.544 313.535 214.991 314.452 215.157 315.437C215.322 316.423 215.2 317.436 214.804 318.354C214.408 319.271 213.755 320.055 212.924 320.611C212.093 321.167 211.119 321.471 210.12 321.487C209.4 321.482 208.689 321.329 208.031 321.038C207.373 320.747 206.781 320.325 206.292 319.796C205.804 319.267 205.429 318.644 205.192 317.965C204.954 317.285 204.858 316.564 204.91 315.847C205.01 314.849 205.397 313.902 206.023 313.12C206.649 312.337 207.488 311.752 208.439 311.435C209.39 311.118 210.413 311.082 211.383 311.333C212.354 311.583 213.231 312.109 213.91 312.847L213.87 312.797Z" fill="#EB222A"/>
<path d="M214.39 238.887C214.39 238.887 171.39 239.077 122.76 237.167C74.13 235.257 31.27 231.697 31.27 231.697C40.92 210.037 53.07 193.467 54.37 192.567C56.6461 191.409 59.0489 190.52 61.53 189.917C66.98 188.777 105.53 190.057 124.58 190.807C143.63 191.557 182.16 193.297 187.5 194.857C189.925 195.658 192.25 196.735 194.43 198.067C195.66 199.067 206.47 216.537 214.39 238.887Z" fill="#37474F"/>
<path d="M214.39 238.887C214.39 238.887 171.39 239.077 122.76 237.167C74.13 235.257 31.27 231.697 31.27 231.697C32.1767 229.657 33.1034 227.657 34.05 225.697C43.91 226.477 81.32 229.327 123 230.967C164.68 232.607 202.2 232.697 212.09 232.687C212.87 234.713 213.637 236.78 214.39 238.887Z" fill="#263238"/>
<g opacity="0.3">
<path d="M214.39 238.887C210.3 235.887 205.04 232.457 201.25 229.417L201.31 223.187L201.44 223.397L192.13 218.917H192.07V218.867L185.13 208.437C180.53 206.787 174.7 204.437 169.71 202.437C174.96 204.347 180.29 206.167 185.47 208.187L192.47 218.577L192.38 218.487L201.66 223.007L201.79 223.067V223.207L201.68 229.427C205.37 231.857 210.34 235.897 214.42 238.897L214.39 238.887Z" fill="white"/>
<path d="M206.49 233.136C202.2 233.416 197.91 233.736 193.62 233.956L184 231.056C179.75 230.736 174.94 230.356 170.51 229.976C166.08 229.596 161.44 229.216 156.9 228.796C154.35 225.516 151.83 222.196 149.31 218.886C151.74 221.976 154.98 225.686 157 228.476C161.52 228.796 166.037 229.13 170.55 229.476C175.063 229.823 179.59 230.196 184.13 230.596L193.72 233.596C197.72 233.386 202.31 233.256 206.49 233.096V233.136Z" fill="white"/>
<path d="M181.14 230.577C178.08 228.827 174.97 226.826 172.05 224.846C170.35 224.576 167.7 223.916 165.71 223.406C167.9 223.696 170.09 224.036 172.26 224.406C175.26 226.316 178.32 228.406 181.14 230.536V230.577Z" fill="white"/>
<path d="M200.35 222.617C199.35 221.007 198.51 219.367 197.65 217.707C198.01 215.877 198.59 213.277 199.03 211.437V211.587C198.28 210.217 197.53 208.857 196.83 207.457C197.74 208.757 198.58 210.097 199.43 211.457C199.06 213.327 198.51 215.917 198.07 217.747C198.907 219.336 199.662 220.969 200.33 222.637L200.35 222.617Z" fill="white"/>
<path d="M200.2 233.427C198.41 232.227 196.33 230.747 194.74 229.597L190.74 227.897L186.74 226.137H186.64C186.36 224.897 186.12 223.637 185.86 222.387C185.6 221.137 185.39 219.947 185.17 218.727C185.51 219.917 185.84 221.117 186.17 222.317C186.5 223.517 186.8 224.727 187.07 225.937L186.95 225.777L190.95 227.487L194.95 229.237C196.737 230.617 198.5 232.027 200.24 233.467L200.2 233.427Z" fill="white"/>
<path d="M187.2 231.777C185.43 232.777 183.64 233.777 181.82 234.777C178.94 234.777 176.053 234.713 173.16 234.587C172.21 234.587 171.25 234.477 170.3 234.407C171.25 234.357 172.21 234.317 173.17 234.297C175.86 234.297 179.37 234.207 181.67 234.357C183.49 233.47 185.333 232.623 187.2 231.817V231.777Z" fill="white"/>
</g>
<path d="M46.34 228.657L61.42 229.247C61.1127 227.953 60.6945 226.688 60.17 225.467C59.76 224.977 55.9 224.147 54.07 224.077C52.24 224.007 48.33 224.537 47.89 224.987C47.2687 226.163 46.7501 227.391 46.34 228.657Z" fill="#263238"/>
<path d="M53.61 224.447C53.61 224.447 62.52 221.537 63.36 221.447C64.2 221.357 99.77 220.017 99.77 220.017L99.83 220.797C99.83 220.797 65.46 223.297 64.9 223.357C64.34 223.417 53.79 227.137 53.79 227.137L53.61 224.447Z" fill="#263238"/>
<path d="M146.05 232.567L161.14 233.167C160.833 231.872 160.412 230.607 159.88 229.387C159.48 228.897 155.61 228.067 153.79 227.987C151.97 227.907 148.04 228.447 147.6 228.907C146.977 230.079 146.459 231.304 146.05 232.567Z" fill="#263238"/>
<path d="M153.32 228.357C153.32 228.357 162.23 225.457 163.07 225.357C163.91 225.257 199.49 223.927 199.49 223.927L199.54 224.707L164.62 227.257C164.06 227.307 153.5 230.996 153.5 230.996L153.32 228.357Z" fill="#263238"/>
<g opacity="0.1">
<path d="M109.34 190.246L62.09 233.926C58.09 233.676 54.46 233.426 51.09 233.196L97.92 189.896L109.34 190.246Z" fill="white"/>
<path d="M195.87 199.967L154.51 238.137L143.08 237.827L189.01 195.367C190.908 196.053 192.726 196.945 194.43 198.027C194.968 198.628 195.45 199.277 195.87 199.967Z" fill="white"/>
<path d="M211.43 231.057L202.98 238.877C199.68 238.877 195.76 238.877 191.31 238.787L208.12 223.257C209.23 225.737 210.34 228.347 211.43 231.057Z" fill="white"/>
<path d="M94.36 189.797L47.69 232.947L46.01 232.827L92.6 189.757L94.36 189.797Z" fill="white"/>
<path d="M148.72 191.867L100.77 236.187L99.0599 236.097L147 191.787L148.72 191.867Z" fill="white"/>
<path d="M206.13 218.947L184.74 238.717H182.96L205.58 217.807C205.76 218.137 205.95 218.547 206.13 218.947Z" fill="white"/>
<path d="M69.79 189.477L37.09 219.707C38.5 217.017 39.91 214.477 41.27 212.097L65.65 189.567C66.87 189.527 68.23 189.487 69.79 189.477Z" fill="white"/>
<path d="M163.87 192.677L116.05 236.897L112.19 236.727L160.07 192.457L163.87 192.677Z" fill="white"/>
</g>
<path opacity="0.1" d="M31.27 231.697C28.9899 236.256 26.313 240.606 23.27 244.697C23.19 244.807 23.03 245.027 22.96 245.137C22.79 245.617 23.31 246.657 23.59 247.187C23.98 247.957 24.45 248.707 24.91 249.477C23.75 248.477 21.05 246.027 22.09 244.357C24.6912 239.827 27.7795 235.595 31.3 231.737L31.27 231.697Z" fill="black"/>
<path opacity="0.1" d="M214.39 238.887C217.606 243.007 220.356 247.471 222.59 252.197C223.49 253.947 220.59 256.197 219.37 257.077C219.89 256.347 220.42 255.637 220.87 254.897C221.19 254.387 221.79 253.397 221.66 252.897C221.6 252.787 221.46 252.557 221.38 252.437C218.659 248.131 216.317 243.597 214.38 238.887H214.39Z" fill="black"/>
<path d="M143.687 300.928L96.8733 299.088L96.3818 311.599L143.196 313.438L143.687 300.928Z" fill="white"/>
<path opacity="0.1" d="M147.67 268.517L142.77 260.457L114.37 271.777L143.53 270.507L147.67 268.517Z" fill="black"/>
<path opacity="0.1" d="M196.69 260.897L167.32 238.487L163.84 251.847L196.69 260.897Z" fill="black"/>
<path d="M221.66 252.897C221.31 257.107 211.99 263.307 211.99 263.307C211.99 263.307 202.99 266.247 191.45 269.307C188.87 269.787 186.14 270.237 183.28 270.637C167.7 272.817 123.59 272.167 110.49 272.027C115.68 271.777 145.74 269.197 147.71 268.507C149.68 267.817 161.87 252.967 163.87 251.847C164.82 251.307 193.87 259.647 196.72 260.897C197 261.017 210.56 250.897 210.9 250.207C211.24 249.517 214.42 238.887 214.42 238.887C214.42 238.887 221.87 250.767 221.66 252.897Z" fill="#263238"/>
<path opacity="0.1" d="M210.87 250.207L198.27 238.907L214.39 238.887L210.87 250.207Z" fill="black"/>
<path opacity="0.1" d="M229.66 275.437C229.66 276.437 229.35 282.217 228.54 282.657C226.3 283.887 216.54 286.567 210.43 287.447C181.97 291.547 140.78 292.877 120.62 291.747C100.42 291.287 59.4699 286.747 31.4199 280.417C25.4199 279.067 15.8699 275.627 13.7299 274.227C12.9699 273.717 13.1499 267.947 13.1899 266.947C13.2299 265.947 20.4799 252.777 21.7399 252.487C22.9999 252.197 36.6399 260.677 59.8499 265.807C83.64 271.057 121.37 272.657 121.37 272.657C121.37 272.657 159.1 274.027 183.23 270.657C206.77 267.367 221 260.657 222.23 261.087C223.46 261.517 229.7 274.437 229.66 275.437Z" fill="black"/>
<path opacity="0.5" d="M228.54 282.657C220.31 286.657 211.26 288.537 202.24 289.727C193.22 290.917 184.18 292.027 175.11 292.837C156.96 294.387 138.73 295.507 120.5 294.757C90.92 293.347 61.56 288.497 32.76 281.757C26.1119 280.128 19.7189 277.594 13.76 274.227C19.8804 277.192 26.352 279.369 33.02 280.707C61.96 286.057 91.22 290.597 120.64 291.907C138.73 292.717 156.89 291.697 174.97 290.627C184.02 290.007 193.07 289.287 202.1 288.347C206.615 288.001 211.106 287.393 215.55 286.527C219.981 285.589 224.328 284.295 228.55 282.657H228.54Z" fill="white"/>
<path d="M26.98 250.017C31.83 250.657 54.4 265.927 55.33 267.147C56.26 268.367 58.13 280.337 56.63 281.447C55.13 282.557 37.63 281.267 32.44 280.217C27.25 279.167 16.44 275.787 14.06 273.807C11.68 271.827 14.06 258.627 16.6 256.057C19.87 252.757 23.87 249.607 26.98 250.017Z" fill="white"/>
<path d="M26.98 250.017C28.2233 250.316 29.4255 250.766 30.56 251.357C34.01 253.027 37.31 255.007 40.56 256.977C45.47 259.977 50.39 262.977 55.05 266.407C55.6274 266.849 56.0196 267.491 56.15 268.207C56.5041 269.454 56.7912 270.719 57.01 271.997C57.5203 274.551 57.7616 277.152 57.73 279.757C57.63 281.237 57.34 282.217 55.73 282.357C51.5351 282.633 47.3247 282.57 43.14 282.167C39.2799 281.932 35.4388 281.451 31.64 280.727C25.9799 279.432 20.4799 277.518 15.24 275.017C14.6175 274.716 14.0497 274.314 13.56 273.827C12.23 271.487 12.86 268.577 13.12 266.057C13.76 262.637 14.37 258.947 16.46 256.057C19.26 253.417 22.83 249.767 26.96 249.987L26.98 250.017ZM26.98 250.017C23.05 249.857 19.92 253.017 17.24 255.487C16.3123 256.362 15.6238 257.46 15.24 258.677C14.4031 261.092 13.8461 263.595 13.58 266.137C13.3301 268.012 13.3301 269.911 13.58 271.787C13.5955 272.217 13.7189 272.637 13.9391 273.008C14.1593 273.378 14.4691 273.687 14.84 273.907C19.04 276.127 23.71 277.307 28.27 278.577C33.1844 279.805 38.2095 280.539 43.27 280.767C45.81 280.967 48.36 281.117 50.89 281.187C52.6796 281.317 54.4782 281.24 56.25 280.957C56.25 281.027 56.38 280.787 56.42 280.527C56.702 277.742 56.5943 274.931 56.1 272.177C55.9103 270.625 55.5755 269.095 55.1 267.607C55.04 267.377 54.8 267.237 54.6 267.037C50.09 263.497 45.3 260.297 40.49 257.167C37.2838 255.064 33.9655 253.138 30.55 251.397C29.4197 250.8 28.2208 250.343 26.98 250.037V250.017Z" fill="#EB222A"/>
<path d="M38.2899 268.207C38.2452 269.321 37.9237 270.407 37.3545 271.366C36.7853 272.325 35.9863 273.128 35.0295 273.701C34.0728 274.275 32.9883 274.601 31.874 274.65C30.7597 274.7 29.6506 274.471 28.6467 273.985C27.6428 273.499 26.7756 272.771 26.1235 271.866C25.4714 270.961 25.0548 269.908 24.9112 268.802C24.7677 267.696 24.9017 266.571 25.3013 265.53C25.7009 264.488 26.3534 263.563 27.1999 262.837C28.1958 261.994 29.4147 261.458 30.7089 261.295C32.0031 261.131 33.317 261.347 34.4911 261.915C35.6652 262.484 36.6491 263.381 37.3234 264.498C37.9977 265.614 38.3335 266.903 38.2899 268.207ZM38.2899 268.207C38.3278 267.231 38.1272 266.262 37.7056 265.382C37.284 264.502 36.6541 263.738 35.8705 263.156C35.087 262.575 34.1734 262.193 33.209 262.044C32.2445 261.895 31.2584 261.984 30.336 262.303C29.4136 262.621 28.5829 263.16 27.9157 263.872C27.2486 264.584 26.7652 265.448 26.5075 266.389C26.2498 267.331 26.2255 268.32 26.4368 269.273C26.648 270.226 27.0885 271.113 27.7199 271.857C28.502 272.778 29.5441 273.442 30.7098 273.761C31.8755 274.08 33.1105 274.04 34.2529 273.645C35.3953 273.251 36.3919 272.521 37.1123 271.55C37.8326 270.58 38.2431 269.414 38.2899 268.207Z" fill="#EB222A"/>
<path d="M51.06 272.927C51.0067 274.038 50.634 275.11 49.9865 276.015C49.339 276.919 48.4442 277.617 47.4096 278.026C46.3749 278.435 45.2443 278.536 44.1535 278.318C43.0627 278.1 42.058 277.572 41.26 276.797C40.7026 276.228 40.2672 275.551 39.9806 274.808C39.6939 274.065 39.562 273.271 39.5929 272.476C39.6238 271.68 39.8169 270.899 40.1603 270.18C40.5037 269.462 40.9902 268.821 41.59 268.297C42.4465 267.585 43.4902 267.137 44.5957 267.004C45.7012 266.872 46.8214 267.061 47.8216 267.551C48.8218 268.04 49.6596 268.807 50.234 269.761C50.8085 270.715 51.0953 271.814 51.06 272.927ZM51.06 272.927C51.0883 271.957 50.8338 271 50.3276 270.172C49.8213 269.344 49.0852 268.682 48.2088 268.265C47.3325 267.848 46.354 267.696 45.3924 267.826C44.4309 267.956 43.5279 268.363 42.7936 268.997C42.0594 269.631 41.5255 270.465 41.2571 271.398C40.9888 272.33 40.9975 273.321 41.2823 274.248C41.5671 275.176 42.1156 276 42.8609 276.622C43.6063 277.243 44.5163 277.634 45.48 277.747C46.1687 277.827 46.8667 277.764 47.5296 277.561C48.1925 277.357 48.8058 277.018 49.3305 276.565C49.8553 276.111 50.28 275.554 50.5778 274.927C50.8755 274.301 51.0397 273.62 51.06 272.927Z" fill="#EB222A"/>
<path d="M24.39 261.697C23.56 263.837 22.39 274.327 22.7 275.697C23.0013 276.501 23.4375 277.249 23.99 277.907C19.67 276.547 15.44 274.907 14.06 273.767C11.68 271.767 14.06 258.587 16.6 256.017C19.82 252.717 23.87 249.557 26.98 250.017C28.9356 250.537 30.8075 251.331 32.54 252.377C32.54 252.377 25.22 259.567 24.39 261.697Z" fill="#EB222A"/>
<path d="M217.24 257.486C212.35 257.746 188.65 271.196 187.63 272.346C186.61 273.496 183.8 285.276 185.21 286.496C186.62 287.716 204.13 287.806 209.43 287.166C214.73 286.526 225.73 284.006 228.25 282.216C230.77 280.426 229.42 267.076 227.12 264.326C224.16 260.786 220.38 257.316 217.24 257.486Z" fill="white"/>
<path d="M217.24 257.487C215.977 257.695 214.744 258.058 213.57 258.567C210.026 260.038 206.567 261.707 203.21 263.567C198.21 266.317 193.14 269.117 188.37 272.297C188.15 272.487 187.91 272.607 187.82 272.827C187.234 274.275 186.785 275.775 186.48 277.307C185.769 280.015 185.433 282.807 185.48 285.607C185.48 285.867 185.63 286.127 185.62 286.047C185.831 286.14 186.053 286.208 186.28 286.247C190.357 286.742 194.464 286.952 198.57 286.877C203.644 287.05 208.723 286.715 213.73 285.877C218.36 284.967 223.12 284.147 227.48 282.267C227.865 282.079 228.197 281.797 228.445 281.448C228.693 281.098 228.85 280.692 228.9 280.267C229.291 278.417 229.429 276.523 229.31 274.637C229.237 272.09 228.874 269.561 228.23 267.097C227.947 265.852 227.348 264.701 226.49 263.757C224.03 261.047 221.14 257.687 217.22 257.537L217.24 257.487ZM217.24 257.487C221.37 257.597 224.64 261.487 227.24 264.357C229.1 267.357 229.42 271.107 229.79 274.557C229.85 277.117 230.24 280.027 228.73 282.277C228.205 282.721 227.61 283.076 226.97 283.327C221.553 285.409 215.922 286.885 210.18 287.727C203.773 288.365 197.324 288.468 190.9 288.037C189.265 287.966 187.637 287.775 186.03 287.467C185.629 287.397 185.246 287.251 184.9 287.037C184.717 286.879 184.569 286.686 184.462 286.47C184.356 286.253 184.294 286.017 184.28 285.777C184.05 282.777 184.87 279.907 185.55 277.037C185.868 275.781 186.252 274.542 186.7 273.327C186.887 272.625 187.329 272.019 187.94 271.627C192.85 268.627 197.99 265.967 203.12 263.357C206.56 261.647 210 259.937 213.57 258.537C214.752 258.056 215.987 257.72 217.25 257.537L217.24 257.487Z" fill="#EB222A"/>
<path d="M204.54 274.727C204.493 275.704 204.685 276.677 205.1 277.563C205.515 278.448 206.141 279.219 206.922 279.808C207.703 280.396 208.616 280.785 209.582 280.94C210.547 281.095 211.536 281.012 212.463 280.697C213.389 280.383 214.224 279.847 214.895 279.136C215.567 278.424 216.054 277.56 216.315 276.617C216.576 275.675 216.603 274.683 216.393 273.727C216.183 272.772 215.742 271.883 215.11 271.137C214.328 270.216 213.287 269.552 212.122 269.232C210.958 268.913 209.723 268.952 208.581 269.346C207.439 269.739 206.443 270.468 205.722 271.437C205.001 272.406 204.589 273.57 204.54 274.777V274.727ZM204.54 274.727C204.59 273.613 204.916 272.53 205.489 271.574C206.062 270.618 206.864 269.82 207.822 269.251C208.781 268.682 209.866 268.36 210.979 268.314C212.093 268.269 213.2 268.501 214.202 268.99C215.203 269.479 216.067 270.21 216.716 271.116C217.365 272.022 217.779 273.075 217.919 274.181C218.06 275.286 217.924 276.409 217.522 277.449C217.121 278.489 216.467 279.412 215.62 280.137C214.624 280.976 213.406 281.509 212.113 281.671C210.821 281.832 209.509 281.616 208.337 281.048C207.165 280.48 206.182 279.584 205.508 278.47C204.835 277.355 204.498 276.069 204.54 274.767V274.727Z" fill="#EB222A"/>
<path d="M191.43 278.437C191.391 279.42 191.64 280.393 192.147 281.237C192.653 282.081 193.395 282.758 194.282 283.186C195.168 283.613 196.16 283.773 197.136 283.644C198.112 283.515 199.028 283.105 199.774 282.462C200.519 281.819 201.06 280.973 201.331 280.027C201.602 279.08 201.59 278.076 201.298 277.136C201.005 276.196 200.445 275.363 199.685 274.738C198.925 274.112 197.998 273.723 197.02 273.617C196.333 273.547 195.638 273.617 194.979 273.825C194.32 274.032 193.711 274.372 193.187 274.823C192.664 275.274 192.238 275.827 191.936 276.449C191.634 277.07 191.462 277.747 191.43 278.437ZM191.43 278.437C191.466 277.479 191.741 276.545 192.229 275.72C192.718 274.895 193.404 274.205 194.227 273.712C195.049 273.22 195.981 272.94 196.939 272.899C197.897 272.858 198.85 273.057 199.711 273.477C200.573 273.898 201.316 274.526 201.873 275.306C202.43 276.087 202.784 276.993 202.902 277.945C203.02 278.896 202.899 279.862 202.549 280.755C202.2 281.647 201.633 282.439 200.9 283.057C200.043 283.763 199.001 284.208 197.898 284.338C196.795 284.469 195.678 284.279 194.679 283.792C193.681 283.305 192.844 282.541 192.268 281.592C191.692 280.642 191.401 279.547 191.43 278.437Z" fill="#EB222A"/>
<path d="M218.87 269.337C219.53 271.527 219.87 282.087 219.46 283.467C219.092 284.242 218.599 284.952 218 285.567C222.41 284.567 226.75 283.267 228.22 282.217C230.75 280.427 229.39 267.077 227.08 264.327C224.13 260.777 220.34 257.327 217.21 257.487C215.219 257.848 213.29 258.491 211.48 259.397C211.48 259.397 218.25 267.137 218.87 269.337Z" fill="#EB222A"/>
<path d="M229.61 275.947L226.27 278.596L224.27 282.466L221.81 280.036L219.72 280.857L216.79 282.017L213.89 281.246L211.89 281.857L209.99 277.517H206.68L206.29 274.917L208.06 271.637L212.95 268.107L211.05 267.246L211.55 263.996L214.06 262.376L216.84 260.577L220.15 258.667L223.43 262.177L226.27 263.307C226.59 263.657 226.89 264.007 227.19 264.367C228.09 265.437 228.85 268.136 229.29 271.126L228.52 273.477L229.66 274.876C229.59 275.206 229.61 275.577 229.61 275.947Z" fill="#263238"/>
<path d="M211.47 263.957C210.4 264.017 209.32 264.057 208.25 264.077C207.13 264.887 205.11 266.007 203.68 266.907C200.93 267.997 198.18 269.067 195.36 269.977C197.96 268.727 200.89 267.507 203.43 266.477C205.02 265.567 206.6 264.627 208.21 263.757C209.3 263.807 210.39 263.877 211.47 263.957Z" fill="#EB222A"/>
<path d="M206.6 277.477C205.02 277.312 203.451 277.058 201.9 276.717C199.955 276.945 197.998 277.058 196.04 277.057C197.973 276.67 199.926 276.393 201.89 276.227C203.47 276.577 205.05 276.967 206.6 277.477Z" fill="#EB222A"/>
<path d="M183.23 270.647C183.33 271.187 176.96 283.597 175.83 285.097C174.7 286.597 169.49 289.097 168.29 289.257C167.09 289.417 148.67 292.437 120.63 291.337C92.59 290.237 74.46 285.817 73.28 285.527C72.1 285.237 67.1 282.377 66.1 280.797C65.1 279.217 59.7 266.327 59.85 265.797C60 265.267 77.42 269.387 88.03 270.217C93.25 270.637 109.6 272.217 121.37 272.647C133.14 273.077 149.55 272.847 154.79 272.847C165.43 272.857 183.14 270.137 183.23 270.647Z" fill="#263238"/>
<path d="M71.3499 267.757C73.7299 268.197 76.28 268.657 78.81 269.057L60.7 268.347C60.55 267.977 60.4299 267.627 60.3199 267.347L71.3499 267.757ZM171.61 271.697C169.21 271.947 166.61 272.197 164.08 272.397L182.18 273.117C182.36 272.757 182.51 272.427 182.65 272.117L171.61 271.697ZM132.29 272.897C128.52 272.897 124.75 272.787 121.37 272.657C117.99 272.527 114.22 272.297 110.45 272.037L61.3999 270.137L61.81 271.137L180.87 275.797L181.36 274.797L132.29 272.897ZM62.5399 272.897C62.6799 273.237 62.8199 273.577 62.9699 273.897L179.49 278.477C179.66 278.157 179.83 277.827 179.99 277.477L62.5399 272.897ZM63.7199 275.687L64.17 276.687L178.07 281.137L178.6 280.137L63.7199 275.687ZM64.95 278.477C65.12 278.847 65.29 279.187 65.42 279.477L176.6 283.837L177.15 282.837L64.95 278.477ZM66.4799 281.277C66.8507 281.64 67.2485 281.974 67.67 282.277L174.14 286.457C174.586 286.172 175.011 285.854 175.41 285.507L66.4799 281.277ZM70.4799 284.177C71.1268 284.569 71.7944 284.926 72.4799 285.247L168.98 289.037C169.706 288.773 170.417 288.469 171.11 288.127L70.4799 284.177ZM82.4099 287.387C84.7899 287.807 87.5999 288.257 90.7999 288.707L150.53 291.057C153.77 290.857 156.6 290.627 159.01 290.387L82.4099 287.387Z" fill="#455A64"/>
<path d="M225.73 303.447L222.3 298.127L212.54 297.847L204.53 296.857L190.26 301.177L184.23 301.117L190.26 301.947L204.53 298.847L212.65 300.517H219.14L226.42 307.697L225.73 303.447Z" fill="#37474F"/>
<path d="M303.99 242.346C290.62 231.596 270.58 215.556 267.66 213.426C266.01 213.686 260.08 215.916 257.46 216.886C253.71 218.296 253.71 218.296 253.12 218.106C252.24 217.816 244.83 209.496 243.18 207.626C241.97 207.366 237.68 206.786 233.87 206.336L234.22 203.336C244.57 204.566 244.76 204.806 245.22 205.336C245.57 205.756 252 212.846 253.98 214.906L256.41 214.016C267.11 210.016 267.99 210.016 268.94 210.596C270.76 211.716 302.28 237.056 305.87 239.936L303.99 242.346ZM242.87 207.256L242.96 207.366L242.87 207.256Z" fill="#EB222A"/>
<path d="M609.96 308.787L516.48 309.237C516.48 309.237 526.48 265.517 563.01 265.337C599.54 265.157 608.3 299.037 609.96 308.787Z" fill="#EB222A"/>
<path opacity="0.2" d="M609.96 308.787L516.48 309.237C516.48 309.237 526.48 265.517 563.01 265.337C599.54 265.157 608.3 299.037 609.96 308.787Z" fill="black"/>
<path d="M338.69 314.797L245.22 315.247C245.22 315.247 255.22 271.527 291.75 271.357C328.28 271.187 337.04 305.057 338.69 314.797Z" fill="#EB222A"/>
<path opacity="0.2" d="M338.69 314.797L245.22 315.247C245.22 315.247 255.22 271.527 291.75 271.357C328.28 271.187 337.04 305.057 338.69 314.797Z" fill="black"/>
<path d="M630.95 229.027C632.95 232.197 636.66 267.257 636.87 268.477C637.08 269.697 640.02 275.067 640.07 276.087C640.12 277.107 640.92 292.907 640.52 293.927C639.582 295.797 638.513 297.598 637.32 299.317C636.81 299.937 623.62 311.397 622.14 311.557C620.66 311.717 606.95 311.887 606.7 311.637C606.45 311.387 604.65 269.197 563.07 269.397C521.49 269.597 522.17 314.397 521.41 314.547C520.65 314.697 334.56 319.847 334.56 319.847C334.56 312.997 333.8 272.187 293.01 272.377C266.44 272.507 254.12 294.487 253.74 310.637C253.58 317.367 254.74 324.747 254.37 324.747C253.14 324.747 248.95 325.087 248.24 324.747C247.53 324.407 248.8 318.917 248.08 318.747C247.36 318.577 242.35 318.467 241.08 318.167C239.81 317.867 231.03 308.397 230.87 308.137C230.71 307.877 235.77 286.727 235.76 285.757C235.76 285.377 235.22 272.947 235.38 271.627C235.57 270.017 238.97 268.887 239.55 267.277C242.66 258.727 245.2 248.627 247.47 248.057C248.25 247.867 254.69 252.057 255.59 251.557C256.93 250.767 258.39 247.977 260.74 245.877C260.87 245.767 264.61 245.877 264.74 245.717C264.87 245.557 267.16 239.537 267.66 239.577C269.2 239.687 273.71 242.867 274.66 242.787C275.61 242.707 278.15 237.647 278.23 237.627C279.75 237.257 281.44 237.227 283.11 236.827C287.11 235.877 300.18 239.687 302.17 239.527C305.61 239.257 317.44 230.977 318.01 230.527C319.54 229.447 391.35 187.797 403.86 184.707C413.98 182.197 531.21 185.017 537.35 185.287C543.49 185.557 560.48 188.557 562.11 188.547C563.74 188.537 582.57 188.347 583.7 188.857C584.83 189.367 583.7 193.857 582.29 194.687C580.88 195.517 627.45 223.517 630.95 229.027Z" fill="#EB222A"/>
<path opacity="0.2" d="M324.38 289.047C324.38 289.047 509.86 283.927 510.92 285.507C511.98 287.087 326.66 296.647 326.66 296.647L324.38 289.047Z" fill="white"/>
<path opacity="0.2" d="M630.95 229.027C630.95 229.027 547.79 238.227 544.07 238.167C540.35 238.107 342.65 245.507 339.07 245.307C335.49 245.107 302.19 239.487 302.19 239.487C305.63 239.227 317.46 230.937 318.03 230.487C319.57 229.397 391.37 187.746 403.88 184.656C414 182.146 531.23 184.956 537.37 185.246C543.51 185.536 560.5 188.506 562.13 188.496C563.76 188.486 582.59 188.297 583.72 188.807C584.85 189.317 583.72 193.807 582.31 194.637C580.9 195.467 627.44 223.517 630.95 229.027Z" fill="white"/>
<path opacity="0.1" d="M285.24 246.526C285.24 246.896 281.41 246.466 281.08 246.466C280.75 246.466 274.67 242.746 274.67 242.746C275.48 242.666 278.16 237.596 278.24 237.586C278.32 237.576 285.24 246.136 285.24 246.526Z" fill="black"/>
<path opacity="0.1" d="M264.71 252.976C264.54 253.476 260.93 253.136 260.77 253.176C260.61 253.216 255.59 251.516 255.59 251.516C256.93 250.736 258.39 247.946 260.74 245.836C260.74 245.836 264.87 252.476 264.71 252.976Z" fill="black"/>
<path opacity="0.1" d="M267.67 239.537L267.36 246.187L264.75 245.667C264.87 245.577 267.16 239.527 267.67 239.537Z" fill="black"/>
<path d="M628.25 226.377C627.81 226.787 620.48 227.007 619.71 226.707C618.94 226.407 572.63 195.907 572.6 195.017C572.6 194.567 581.25 194.647 582.3 194.687C583.35 194.727 629.09 225.607 628.25 226.377Z" fill="#455A64"/>
<path d="M576.87 226.137C574.87 232.057 341.22 241.997 339.87 239.137C338.87 237.017 351.76 221.777 361.87 216.047C371.98 210.317 400.87 193.767 415.15 192.047C429.43 190.327 458.35 190.297 483.57 190.647C508.57 190.987 538.04 191.457 548.49 195.857C557.62 199.687 578.4 221.437 576.87 226.137Z" fill="#263238"/>
<path d="M570.06 222.726C569.46 224.946 515.94 230.966 453.21 234.176C390.48 237.386 359.48 238.006 358.71 237.696C357.94 237.386 360.78 220.696 361.85 219.276C362.92 217.856 407.76 194.656 414.85 194.016C421.94 193.376 460.03 193.106 479.29 193.316C498.55 193.526 538.67 195.646 545.51 198.376C551.49 200.766 570.66 220.496 570.06 222.726Z" fill="#37474F"/>
<g opacity="0.1">
<path d="M486.87 193.477L522.97 229.237C529.38 228.647 535.3 228.057 540.63 227.487L507.14 194.317C500.04 193.927 492.96 193.637 486.87 193.477Z" fill="white"/>
<path d="M358.87 234.137L362.51 237.737C366.16 237.737 372.51 237.577 381.51 237.287L362.73 218.687C362.441 218.842 362.172 219.034 361.93 219.257C361.09 220.267 359.42 229.137 358.87 234.137Z" fill="white"/>
<path d="M460.04 193.257L498.44 231.257C501.51 231.027 504.51 230.797 507.44 230.547L469.75 193.217L460.04 193.257Z" fill="white"/>
<path d="M378.08 210.396L404.4 236.456L413.71 236.056L384.52 207.136C382.31 208.246 380.14 209.336 378.08 210.396Z" fill="white"/>
<path d="M513.58 194.687L546.06 226.867L548.52 226.577L516.52 194.867L513.58 194.687Z" fill="white"/>
<path d="M372.52 213.277L396.24 236.777L398.9 236.677L374.33 212.337L372.52 213.277Z" fill="white"/>
<path d="M406.36 196.896L444.45 234.616L447.09 234.496L408.32 196.136L406.36 196.896Z" fill="white"/>
<path d="M539.25 197.027L566.43 223.947C567.343 223.753 568.083 223.573 568.65 223.407L542.58 197.597C541.62 197.397 540.5 197.207 539.25 197.027Z" fill="white"/>
</g>
<path d="M536.34 196.627C536.09 196.627 535.98 196.957 536.2 197.547C537.48 201.027 547.38 220.687 549.86 225.277C550.01 225.53 550.211 225.75 550.45 225.922C550.689 226.094 550.962 226.215 551.25 226.277L533.97 228.137C534.271 228.013 534.52 227.789 534.675 227.503C534.83 227.217 534.881 226.886 534.82 226.567C534.64 225.477 528.11 202.337 526.07 196.657C525.835 196.128 525.42 195.7 524.9 195.447C524.56 195.447 527.9 195.447 530.98 195.797C533.73 196.137 536.34 196.627 536.34 196.627Z" fill="#263238"/>
<path d="M513.54 194.677C513.54 194.677 513.22 194.857 513.21 195.487C513.13 200.937 512.65 228.237 513.21 229.737C513.28 229.927 513.36 230.047 513.47 230.087L510.2 230.367C510.37 230.125 510.471 229.841 510.49 229.547C510.84 224.927 511.05 199.907 510.97 195.277C510.937 194.997 510.83 194.731 510.66 194.507L513.54 194.677Z" fill="#263238"/>
<path d="M459.79 194.387C459.41 195.597 458.95 231.237 458.95 232.387C458.95 233.537 460.26 233.807 460.26 233.807L440.01 234.807C440.01 234.807 441.32 234.437 441.55 233.807C441.78 233.177 447.95 194.737 447.91 194.237C447.87 193.737 446.91 193.237 446.91 193.237L461.03 193.177C460.751 193.281 460.496 193.442 460.282 193.65C460.069 193.859 459.901 194.11 459.79 194.387Z" fill="#263238"/>
<path d="M627.39 234.056C629.88 234.366 635.5 240.156 635.92 241.376C636.34 242.596 637.92 250.886 637.09 252.116C636.26 253.346 633.33 256.426 630.77 256.546C628.21 256.666 615.71 250.786 614.58 249.766C613.45 248.746 612.58 242.526 613.92 240.516C615.26 238.506 624.22 233.666 627.39 234.056Z" fill="white"/>
<path d="M614.58 249.766C615.71 250.766 628.22 256.656 630.77 256.546C632.77 256.456 634.91 254.636 636.19 253.236C634.741 254.297 632.986 254.858 631.19 254.836C629.81 254.716 618.1 249.746 616.59 248.376C615.08 247.006 615 241.836 615.19 240.896C615.38 239.956 622.91 235.066 622.91 235.066C619.18 236.516 614.8 239.166 613.91 240.516C612.61 242.526 613.45 248.746 614.58 249.766Z" fill="#EBEBEB"/>
<path d="M637.95 280.286C638.64 280.976 638.89 286.166 638.18 286.626C637.47 287.086 633.27 287.066 632.45 286.626C631.63 286.186 629.52 282.346 629.66 281.016C629.8 279.686 637.12 279.476 637.95 280.286Z" fill="white"/>
<path d="M261.46 260.496C260.61 262.996 248.32 266.846 242.37 266.796C240.43 266.796 239.53 264.976 238.78 264.036L239.63 261.957H240.18L240.76 260.566L241.34 260.686L241.95 258.316L242.75 256.996L241.75 255.886C242.098 255.321 242.526 254.809 243.02 254.367C244.19 253.417 249.21 251.696 253.71 251.716C255.24 251.726 262.78 256.586 261.46 260.496Z" fill="#263238"/>
<path d="M261.46 260.496C260.61 262.996 248.32 266.846 242.37 266.796C241.75 266.743 241.152 266.538 240.629 266.2C240.106 265.862 239.674 265.4 239.37 264.856L239.99 264.527L242.22 264.316L247.8 264.147L249.61 259.966L250.46 261.147L251.97 259.066L250.42 257.557L252.01 256.277L249.32 254.436L245.32 254.186L244.16 255.087L243.61 254.296L241.94 255.647C242.251 255.178 242.621 254.751 243.04 254.376C244.21 253.426 249.23 251.706 253.73 251.726C255.24 251.726 262.78 256.586 261.46 260.496Z" fill="white"/>
<path d="M245.9 270.386L248.54 268.336L249.01 269.796L250.05 269.976L248.48 272.366L246.99 270.786L245.9 270.386Z" fill="white"/>
<path d="M251.98 268.446L253.32 267.796L253.97 269.286L251.98 268.446Z" fill="white"/>
<path d="M240.06 267.586L239.75 268.076L240.42 267.836L240.06 267.586Z" fill="white"/>
<path d="M240.48 268.366L240.72 270.806L241.56 269.916L241.96 269.836L241.69 268.836L240.48 268.366Z" fill="white"/>
<path d="M249.5 274.466L250.21 275.116L250.68 274.646L251.55 274.496L250.26 273.366L249.5 274.466Z" fill="white"/>
<path d="M257.87 261.267C256.35 261.687 254.51 262.137 253.13 262.417C252.13 263.047 251.13 263.667 250.18 264.277C249.38 264.277 248.59 264.197 247.8 264.147C248.51 264.147 249.59 264.067 250.11 264.147C251.06 263.507 252.03 262.877 253 262.257C254.61 261.887 256.24 261.577 257.87 261.307V261.267Z" fill="#EB222A"/>
<path d="M256.02 259.386C255.623 260.347 255.076 261.238 254.4 262.026C254.791 261.063 255.338 260.171 256.02 259.386Z" fill="#EB222A"/>
<path d="M252.02 256.277C252.5 256.507 252.96 256.757 253.42 257.017H253.35C254.561 256.755 255.786 256.568 257.02 256.457C255.812 256.796 254.582 257.057 253.34 257.237C252.89 256.937 252.45 256.627 252.02 256.297V256.277Z" fill="#EB222A"/>
<g opacity="0.1">
<path d="M578.04 245.136C579.581 243.535 581.694 242.611 583.915 242.566C586.137 242.521 588.286 243.359 589.89 244.896C590.688 245.667 591.326 246.588 591.765 247.607C592.205 248.625 592.438 249.721 592.45 250.831C592.463 251.94 592.255 253.041 591.839 254.069C591.423 255.098 590.807 256.033 590.026 256.822C589.246 257.61 588.316 258.236 587.292 258.662C586.268 259.089 585.169 259.308 584.06 259.306C582.95 259.305 581.852 259.083 580.829 258.654C579.806 258.225 578.878 257.597 578.1 256.806C576.573 255.252 575.712 253.163 575.701 250.984C575.69 248.804 576.529 246.707 578.04 245.136ZM578.17 256.736C578.928 257.472 579.824 258.05 580.807 258.438C581.79 258.825 582.84 259.014 583.896 258.993C584.952 258.973 585.994 258.744 586.961 258.318C587.928 257.893 588.801 257.281 589.53 256.516C590.993 255.021 591.812 253.013 591.812 250.921C591.812 248.83 590.993 246.821 589.53 245.326C588.794 244.567 587.915 243.961 586.943 243.544C585.972 243.127 584.927 242.906 583.87 242.895C582.813 242.884 581.764 243.082 580.784 243.479C579.804 243.876 578.912 244.463 578.16 245.206C577.388 245.957 576.776 246.855 576.359 247.848C575.943 248.841 575.731 249.908 575.737 250.984C575.742 252.061 575.965 253.125 576.392 254.114C576.819 255.102 577.44 255.994 578.22 256.736H578.17Z" fill="black"/>
<path d="M609.8 275.767C610.62 273.917 611.37 272.037 612.12 270.157C612.87 268.277 613.54 266.367 614.26 264.477C614.98 262.587 615.62 260.667 616.26 258.747C616.9 256.827 617.52 254.907 618.07 252.957C617.25 254.807 616.5 256.687 615.75 258.567C615 260.447 614.33 262.357 613.61 264.247C612.89 266.137 612.25 268.057 611.61 269.977C610.97 271.897 610.35 273.817 609.8 275.767Z" fill="black"/>
<path d="M638.57 275.637C634.57 275.577 630.51 275.637 626.49 275.637L614.41 275.817L602.34 276.167C598.34 276.317 594.29 276.467 590.27 276.707C594.27 276.757 598.32 276.707 602.35 276.707L614.43 276.527L626.5 276.177C630.52 276.017 634.54 275.867 638.57 275.637Z" fill="black"/>
<path d="M448.28 237.366L446.94 247.186L446.37 252.136C446.28 252.956 446.2 253.786 446.14 254.616C446.08 255.446 446.14 256.266 446.14 257.096L446.42 276.916L446.62 286.816L446.73 291.816L446.78 294.286L446.98 296.756L447.79 306.636L448.68 316.506L448.13 306.616L447.51 296.736L447.36 294.266V291.786L447.28 286.836L447.14 276.946L446.7 257.146C446.7 256.326 446.62 255.496 446.7 254.676C446.78 253.856 446.81 253.036 446.88 252.216L447.36 247.296L448.28 237.366Z" fill="black"/>
<path d="M339.51 242.396L337.87 252.266L337.06 257.206L336.86 258.436C336.775 258.845 336.725 259.26 336.71 259.676C336.71 260.516 336.71 261.346 336.71 262.186C336.8 268.856 336.99 275.516 337.23 282.186C337.29 283.856 337.37 285.516 337.46 287.186C337.571 288.864 337.907 290.519 338.46 292.106C339.39 295.316 340.46 298.486 341.61 301.616C342.725 304.764 344.061 307.828 345.61 310.786L346.23 311.886C346.45 312.246 346.69 312.586 346.92 312.946C347.151 313.299 347.408 313.633 347.69 313.946L348.1 314.436C348.323 314.565 348.573 314.64 348.83 314.656C350.51 314.816 352.17 314.836 353.83 314.886C367.17 315.096 380.5 314.886 393.83 314.756C407.16 314.626 420.5 314.336 433.83 314.026C447.16 313.716 460.49 313.286 473.83 312.726C480.49 312.426 487.15 312.176 493.83 311.546C494.683 311.475 495.529 311.338 496.36 311.136C496.83 310.946 497.1 310.726 497.5 310.556C497.9 310.386 498.24 310.186 498.61 310.016C500.12 309.326 501.68 308.716 503.18 307.956C504.705 307.223 506.116 306.273 507.37 305.136C508.455 303.851 509.457 302.499 510.37 301.086C514.1 295.546 517.66 289.906 521.23 284.276C524.8 278.646 528.3 272.966 531.8 267.276C535.3 261.586 538.8 255.896 542.16 250.166L543.43 248.006L543.73 247.446L543.88 247.156C543.89 247.053 543.89 246.95 543.88 246.846L544 245.596C544.13 243.936 544.25 242.276 544.3 240.596C544.3 240.176 544.3 239.756 544.3 239.336C544.246 238.923 544.155 238.514 544.03 238.116C543.79 237.316 543.52 236.526 543.24 235.746C542.667 234.173 542.067 232.616 541.44 231.076C542.05 232.626 542.65 234.186 543.2 235.756C543.47 236.546 543.74 237.336 543.97 238.136C544.091 238.532 544.178 238.936 544.23 239.346C544.23 239.756 544.23 240.176 544.23 240.596C544.16 242.256 544.03 243.916 543.88 245.596L543.76 246.836C543.766 246.94 543.766 247.043 543.76 247.146L543.61 247.406C543.51 247.586 543.43 247.766 543.32 247.946L542.09 250.136C538.63 255.836 535.09 261.506 531.58 267.136C524.52 278.446 517.49 289.786 510.06 300.856C509.143 302.25 508.141 303.586 507.06 304.856C505.833 305.956 504.456 306.875 502.97 307.586C501.49 308.326 499.97 308.936 498.41 309.586C498.03 309.766 497.65 309.936 497.28 310.126C496.91 310.316 496.5 310.576 496.19 310.686C495.401 310.874 494.599 310.998 493.79 311.056C487.16 311.666 480.49 311.896 473.79 312.186C460.47 312.706 447.14 313.056 433.79 313.366C420.44 313.676 407.13 313.996 393.79 314.206C380.45 314.416 367.12 314.626 353.79 314.456C352.12 314.456 350.45 314.396 348.79 314.236C348.635 314.218 348.482 314.191 348.33 314.156L347.93 313.686C347.66 313.371 347.413 313.037 347.19 312.686C346.96 312.336 346.72 312.006 346.51 311.686L345.89 310.616C344.348 307.676 343.011 304.632 341.89 301.506C340.72 298.386 339.65 295.226 338.72 292.036C338.166 290.477 337.829 288.848 337.72 287.196L337.47 282.196C337.17 275.546 336.92 268.876 336.78 262.196C336.78 261.356 336.78 260.526 336.78 259.696C336.794 259.281 336.838 258.866 336.91 258.456L337.1 257.226L337.87 252.286L339.51 242.396Z" fill="black"/>
<path d="M257.87 263.396C259.323 264.476 260.85 265.452 262.44 266.316C264.02 267.216 265.63 268.076 267.23 268.946C268.83 269.816 270.47 270.626 272.11 271.426C273.75 272.226 275.4 273.036 277.11 273.776C275.55 272.846 273.96 271.966 272.36 271.086L267.55 268.496L262.7 265.976L260.27 264.716C259.446 264.321 258.645 263.88 257.87 263.396Z" fill="black"/>
<path d="M534.58 277.917L508.61 278.727L482.63 279.637L430.69 281.477L378.76 283.536L352.79 284.577L326.83 285.716L352.8 284.917L378.77 283.996L430.72 282.167L482.65 280.096L508.62 279.057L534.58 277.917Z" fill="black"/>
<path d="M535.93 240.686H536.93H537.18C537.24 240.686 537.25 240.686 537.28 240.816C537.325 240.973 537.356 241.134 537.37 241.296C537.44 241.961 537.46 242.629 537.43 243.296C537.43 243.626 537.43 243.966 537.34 244.296C537.324 244.444 537.287 244.589 537.23 244.726H537.15H536.96C536.3 244.786 535.62 244.806 534.96 244.836C532.26 244.936 529.55 245.036 526.85 245.096L522.79 245.226L520.79 245.276H519.96C519.91 245.276 519.88 245.276 519.96 245.276C519.912 245.198 519.875 245.114 519.85 245.026C519.809 244.875 519.779 244.722 519.76 244.566C519.665 243.904 519.632 243.235 519.66 242.566C519.666 242.232 519.692 241.898 519.74 241.566C519.757 241.435 519.794 241.306 519.85 241.186C519.969 241.127 520.098 241.09 520.23 241.076C521.54 240.846 522.9 240.756 524.23 240.616C522.869 240.59 521.507 240.633 520.15 240.746C519.946 240.747 519.747 240.81 519.58 240.926C519.454 241.094 519.372 241.289 519.34 241.496C519.274 241.827 519.228 242.161 519.2 242.496C519.135 243.185 519.135 243.878 519.2 244.566C519.216 244.748 519.246 244.929 519.29 245.106C519.308 245.228 519.349 245.344 519.413 245.449C519.476 245.554 519.561 245.645 519.66 245.716C519.717 245.762 519.787 245.787 519.86 245.786H520.01H520.29H522.84L526.9 245.716C529.61 245.596 532.31 245.506 535.02 245.296C535.7 245.236 536.37 245.186 537.02 245.086C537.122 245.077 537.223 245.057 537.32 245.026C537.38 245.012 537.437 244.988 537.49 244.956C537.546 244.907 537.591 244.845 537.62 244.776C537.686 244.6 537.726 244.414 537.74 244.226C537.759 243.893 537.759 243.559 537.74 243.226C537.723 242.555 537.652 241.886 537.53 241.226C537.502 241.055 537.455 240.887 537.39 240.726C537.379 240.678 537.355 240.633 537.32 240.596C537.32 240.596 537.19 240.506 537.16 240.526H536.91L535.93 240.686Z" fill="black"/>
<path d="M436.52 243.616H437.52H437.77C437.83 243.616 437.84 243.616 437.87 243.746C437.916 243.903 437.947 244.064 437.96 244.226C438.03 244.891 438.05 245.559 438.02 246.226C438.02 246.556 438.02 246.886 437.93 247.226C437.915 247.374 437.878 247.519 437.82 247.656H437.74H437.55C436.89 247.716 436.21 247.736 435.55 247.766C432.85 247.856 430.14 247.956 427.44 248.016L423.38 248.156H421.38H420.55C420.5 248.156 420.47 248.156 420.55 248.156C420.502 248.078 420.465 247.994 420.44 247.906C420.4 247.755 420.37 247.602 420.35 247.446C420.255 246.784 420.222 246.115 420.25 245.446C420.255 245.112 420.282 244.778 420.33 244.446C420.35 244.315 420.387 244.188 420.44 244.066C420.559 244.007 420.688 243.969 420.82 243.956C422.13 243.716 423.49 243.636 424.82 243.496C423.459 243.461 422.097 243.502 420.74 243.616C420.537 243.624 420.341 243.686 420.17 243.796C420.046 243.965 419.964 244.16 419.93 244.366C419.866 244.697 419.819 245.031 419.79 245.366C419.725 246.058 419.725 246.754 419.79 247.446C419.806 247.625 419.836 247.802 419.88 247.976C419.897 248.099 419.939 248.217 420.003 248.324C420.066 248.43 420.15 248.523 420.25 248.596C420.311 248.633 420.379 248.657 420.45 248.666H423.45L427.51 248.586C430.22 248.476 432.92 248.386 435.63 248.176C436.31 248.116 436.98 248.066 437.63 247.966C437.732 247.953 437.833 247.929 437.93 247.896C437.99 247.885 438.047 247.865 438.1 247.836C438.152 247.783 438.196 247.722 438.23 247.656C438.296 247.476 438.336 247.288 438.35 247.096C438.369 246.763 438.369 246.429 438.35 246.096C438.334 245.425 438.263 244.756 438.14 244.096C438.111 243.923 438.068 243.752 438.01 243.586C437.991 243.544 437.967 243.504 437.94 243.466C437.92 243.441 437.894 243.42 437.865 243.406C437.835 243.392 437.803 243.386 437.77 243.386H437.52L436.52 243.616Z" fill="black"/>
</g>
<path d="M592.138 339.996C607.236 324.898 607.236 300.42 592.138 285.322C577.04 270.225 552.562 270.225 537.464 285.322C522.367 300.42 522.367 324.898 537.464 339.996C552.562 355.093 577.04 355.093 592.138 339.996Z" fill="#263238"/>
<path d="M532.6 313.447C532.726 319.816 534.738 326.005 538.382 331.231C542.025 336.458 547.137 340.486 553.07 342.807C559.003 345.128 565.491 345.637 571.713 344.27C577.936 342.904 583.613 339.722 588.028 335.129C592.442 330.535 595.395 324.736 596.514 318.464C597.632 312.192 596.865 305.729 594.31 299.893C591.756 294.057 587.527 289.11 582.161 285.677C576.794 282.244 570.53 280.479 564.16 280.607C559.919 280.65 555.73 281.538 551.837 283.22C547.943 284.902 544.424 287.343 541.486 290.401C538.547 293.459 536.248 297.072 534.722 301.029C533.196 304.986 532.475 309.207 532.6 313.447Z" fill="#37474F"/>
<path d="M577.519 337.867C591.439 330.845 597.03 313.868 590.008 299.948C582.986 286.028 566.008 280.436 552.088 287.458C538.169 294.481 532.577 311.458 539.599 325.378C546.622 339.298 563.599 344.889 577.519 337.867Z" fill="#EB222A"/>
<path d="M583.207 331.065C593.373 320.9 593.373 304.418 583.207 294.253C573.042 284.088 556.561 284.088 546.395 294.253C536.23 304.418 536.23 320.9 546.395 331.065C556.561 341.23 573.042 341.23 583.207 331.065Z" fill="#A6A6A6"/>
<path d="M560.59 306.207L568.76 306.047C565.92 302.117 575.26 288.047 575.26 288.047L570.93 286.687C568.17 291.687 566.77 293.127 564.42 293.167C562.07 293.207 560.6 291.807 557.64 286.957L553.38 288.477C553.38 288.477 563.27 302.137 560.59 306.207Z" fill="#EB222A"/>
<path d="M569.45 306.527L572.14 314.257C575 310.337 591.29 314.867 591.29 314.867V310.327C585.71 309.237 583.88 308.327 583.11 306.137C582.34 303.947 583.23 302.087 586.93 297.767L584.16 294.187C584.16 294.187 574.13 307.827 569.45 306.527Z" fill="#EB222A"/>
<path d="M571.87 315.066L565.35 319.996C569.96 321.516 570.69 338.406 570.69 338.406L574.99 336.956C574.3 331.316 574.57 329.306 576.45 327.876C578.33 326.446 580.34 326.746 585.59 328.926L588.14 325.186C588.14 325.186 572.1 319.906 571.87 315.066Z" fill="#EB222A"/>
<path d="M564.53 320.016L557.87 315.346C557.87 320.196 542.02 326.106 542.02 326.106L544.72 329.746C549.88 327.356 551.87 326.986 553.8 328.336C555.73 329.686 556.08 331.676 555.63 337.336L559.98 338.606C559.98 338.606 559.99 321.706 564.53 320.016Z" fill="#EB222A"/>
<path d="M557.54 314.547L559.91 306.717C555.3 308.207 544.78 294.967 544.78 294.967L542.15 298.667C546.02 302.827 546.99 304.667 546.3 306.867C545.61 309.067 543.83 310.067 538.3 311.397L538.43 315.917C538.43 315.917 554.53 310.747 557.54 314.547Z" fill="#EB222A"/>
<path d="M557.24 312.626C557.27 314.121 557.743 315.574 558.598 316.8C559.453 318.026 560.653 318.971 562.045 319.516C563.438 320.06 564.96 320.18 566.421 319.859C567.881 319.538 569.213 318.792 570.249 317.714C571.285 316.636 571.978 315.275 572.241 313.803C572.504 312.331 572.324 310.814 571.725 309.445C571.125 308.075 570.133 306.914 568.874 306.108C567.615 305.302 566.145 304.887 564.65 304.916C562.646 304.959 560.74 305.794 559.351 307.239C557.962 308.685 557.203 310.622 557.24 312.626Z" fill="#EB222A"/>
<path d="M322.2 351.047H266.49C261.37 351.047 264.6 348.387 265.67 348.387C266.57 348.387 266.55 346.647 267.17 346.067L267.36 345.897L294.36 344.527L321.36 345.897L321.49 346.027C322.03 346.517 322.11 348.387 323.04 348.387C323.97 348.387 327.31 351.047 322.2 351.047Z" fill="#263238"/>
<path d="M333 317.927C333.129 324.527 331.544 331.049 328.4 336.854C325.256 342.659 320.659 347.549 315.06 351.047H273.49C271.215 349.605 269.097 347.929 267.17 346.047C259.981 339.044 255.854 329.481 255.69 319.447C255.486 309.195 259.363 299.281 266.467 291.888C273.572 284.494 283.323 280.226 293.575 280.022C303.827 279.817 313.74 283.694 321.134 290.799C328.528 297.904 332.796 307.655 333 317.907V317.927Z" fill="#263238"/>
<path d="M262.14 319.316C262.435 327.771 266.044 335.771 272.188 341.586C278.332 347.402 286.517 350.567 294.976 350.397C303.434 350.228 311.486 346.738 317.392 340.681C323.298 334.624 326.584 326.486 326.54 318.026C326.518 313.756 325.647 309.533 323.978 305.603C322.309 301.673 319.875 298.114 316.817 295.132C313.76 292.151 310.141 289.808 306.17 288.239C302.198 286.669 297.955 285.905 293.686 285.99C289.416 286.076 285.207 287.009 281.302 288.737C277.396 290.464 273.874 292.95 270.938 296.052C268.003 299.153 265.713 302.806 264.203 306.8C262.693 310.794 261.991 315.049 262.14 319.316Z" fill="#37474F"/>
<path d="M305.59 344.59C319.889 338.376 326.443 321.746 320.229 307.448C314.014 293.149 297.385 286.595 283.086 292.809C268.787 299.024 262.233 315.653 268.448 329.952C274.662 344.251 291.292 350.805 305.59 344.59Z" fill="#EB222A"/>
<path d="M312.744 337.1C322.909 326.934 322.909 310.453 312.744 300.288C302.579 290.123 286.097 290.123 275.932 300.288C265.767 310.453 265.767 326.934 275.932 337.1C286.097 347.265 302.579 347.265 312.744 337.1Z" fill="#A6A6A6"/>
<path d="M290.13 312.257L298.3 312.097C295.46 308.167 304.8 294.097 304.8 294.097L300.47 292.747C297.71 297.747 296.31 299.177 293.95 299.227C291.59 299.277 290.14 297.857 287.18 293.007L282.87 294.507C282.87 294.507 292.8 308.217 290.13 312.257Z" fill="#EB222A"/>
<path d="M298.99 312.577L301.67 320.297C304.53 316.387 320.82 320.907 320.82 320.907L320.77 316.377C315.2 315.287 313.37 314.377 312.6 312.177C311.83 309.977 312.72 308.177 316.41 303.817L313.65 300.237C313.65 300.237 303.66 313.877 298.99 312.577Z" fill="#EB222A"/>
<path d="M301.43 321.136L294.87 326.046C299.48 327.556 300.21 344.446 300.21 344.446L304.51 342.996C303.82 337.356 304.09 335.346 305.97 333.926C307.85 332.506 309.85 332.786 315.1 334.926L317.66 331.196C317.66 331.196 301.64 325.956 301.43 321.136Z" fill="#EB222A"/>
<path d="M294.07 326.066L287.36 321.386C287.36 326.236 271.51 332.156 271.51 332.156L274.21 335.786C279.36 333.396 281.36 333.036 283.29 334.376C285.22 335.716 285.57 337.726 285.12 343.376L289.47 344.656C289.47 344.656 289.52 327.756 294.07 326.066Z" fill="#EB222A"/>
<path d="M287.08 320.587L289.45 312.767C284.84 314.247 274.32 301.017 274.32 301.017L271.69 304.717C275.56 308.877 276.52 310.657 275.84 312.917C275.16 315.177 273.37 316.117 267.84 317.437L267.97 321.967C267.97 321.967 284.07 316.797 287.08 320.587Z" fill="#EB222A"/>
<path d="M286.78 318.667C286.808 320.162 287.279 321.615 288.133 322.843C288.987 324.07 290.186 325.017 291.579 325.563C292.971 326.109 294.494 326.23 295.955 325.91C297.416 325.591 298.749 324.845 299.786 323.767C300.823 322.69 301.517 321.329 301.781 319.857C302.044 318.384 301.865 316.867 301.266 315.497C300.667 314.127 299.675 312.965 298.415 312.158C297.156 311.352 295.685 310.937 294.19 310.967C292.188 311.009 290.283 311.843 288.895 313.286C287.506 314.729 286.745 316.664 286.78 318.667Z" fill="#EB222A"/>
<path d="M367.52 223.236C368.94 224.636 368.87 237.236 367.85 238.236C366.83 239.236 352.85 240.236 351.66 232.436C350.47 224.636 365.31 221.046 367.52 223.236Z" fill="#EB222A"/>
<path d="M398.01 191.686C398.01 191.686 357.39 211.246 327.81 230.946L317.35 231.006C317.7 230.766 317.92 230.596 318 230.556L318.25 230.396L318.47 230.256L320.17 229.256L320.85 228.856L321.24 228.636L322.02 228.176L322.5 227.886L325.59 226.096C326.08 225.816 326.59 225.526 327.12 225.206L327.73 224.856L328.98 224.136C329.19 224.016 329.41 223.896 329.63 223.756L331.56 222.656L331.77 222.526C332.44 222.156 333.11 221.766 333.77 221.366L333.98 221.256L336.8 219.636C337.57 219.196 338.36 218.736 339.18 218.286L340.32 217.636L341.66 216.876L344.41 215.316L345.93 214.466L351.26 211.466L353.06 210.466L356.06 208.806L358.64 207.376L359.57 206.856L361.43 205.856L363.28 204.856C366.07 203.326 368.85 201.856 371.57 200.346L373.38 199.346L374.29 198.856C374.67 198.666 375.05 198.466 375.42 198.256L376.06 197.916L377.81 196.986L378.68 196.526L380.41 195.626L381.25 195.176C382.1 194.746 382.93 194.306 383.74 193.886L385.34 193.056C385.68 192.896 386.01 192.726 386.34 192.556L388.46 191.486C389.4 191.006 390.31 190.566 391.2 190.126L398.01 191.686Z" fill="#37474F"/>
<g opacity="0.5">
<path d="M609.87 285.587C607.467 281.667 604.532 278.1 601.15 274.987C590.934 265.402 577.365 260.206 563.36 260.517L559.9 260.697L558.18 260.787C557.6 260.857 557.03 260.947 556.46 261.027L553.04 261.537C551.91 261.777 550.79 262.077 549.67 262.347C545.183 263.482 540.911 265.34 537.02 267.847C533.155 270.374 529.707 273.488 526.8 277.077C523.972 280.7 521.557 284.628 519.6 288.787C521.706 284.724 524.237 280.896 527.15 277.367C530.085 273.881 533.543 270.872 537.4 268.447C545.12 263.577 554.31 261.567 563.4 261.447C567.929 261.359 572.453 261.823 576.87 262.827C585.794 264.904 594.048 269.2 600.87 275.317C604.309 278.329 607.335 281.782 609.87 285.587Z" fill="white"/>
<path d="M338.97 286.886C336.567 282.967 333.632 279.4 330.25 276.286C320.034 266.701 306.465 261.506 292.46 261.816L289 261.996L287.28 262.086C286.7 262.156 286.13 262.246 285.56 262.336L282.14 262.836C281.01 263.076 279.89 263.376 278.77 263.646C274.283 264.782 270.011 266.639 266.12 269.146C262.244 271.671 258.786 274.786 255.87 278.376C253.042 282 250.627 285.928 248.67 290.086C250.776 286.024 253.307 282.195 256.22 278.666C259.155 275.181 262.613 272.172 266.47 269.746C274.19 264.876 283.38 262.866 292.47 262.746C297.02 262.658 301.564 263.124 306 264.136C314.906 266.222 323.143 270.518 329.95 276.626C333.395 279.635 336.428 283.085 338.97 286.886Z" fill="white"/>
<path d="M603.94 221.456C597.89 216.756 591.76 212.186 585.58 207.666C579.4 203.146 573.17 198.716 566.75 194.506C565.94 193.996 565.12 193.506 564.28 193.006C563.87 192.756 563.44 192.526 562.99 192.306C562.537 192.089 562.065 191.915 561.58 191.786C559.73 191.246 557.87 190.786 556.01 190.336C552.28 189.436 548.55 188.576 544.79 187.856C541.009 187.155 537.175 186.78 533.33 186.736C529.5 186.676 525.67 186.736 521.85 186.896C525.67 186.896 529.5 186.976 533.31 187.186C537.122 187.316 540.917 187.774 544.65 188.556C548.38 189.376 552.1 190.216 555.81 191.146C557.66 191.616 559.51 192.086 561.33 192.626C561.768 192.744 562.194 192.905 562.6 193.106C563.01 193.316 563.42 193.546 563.83 193.786C564.65 194.256 565.45 194.786 566.26 195.286C572.68 199.396 578.9 203.866 585.17 208.286L603.94 221.456Z" fill="white"/>
</g>
<path opacity="0.1" d="M304.28 273.527C333.94 280.157 334.53 313.697 334.56 319.847C334.56 319.847 520.64 314.707 521.41 314.547C522.02 314.417 521.7 285.047 543.61 273.747C533.77 278.677 521.18 290.547 516.48 307.827C515.97 309.667 488.88 312.687 442.56 314.387C396.24 316.087 355.96 315.387 348.32 314.307C340.68 313.227 331.51 273.277 304.28 273.527Z" fill="black"/>
<path opacity="0.1" d="M252.74 310.626C252.58 317.346 253.74 324.736 253.38 324.726C252.59 324.726 250.6 324.876 249.07 324.886C248.799 324.892 248.529 324.855 248.27 324.776C247.55 324.476 248.82 318.946 248.11 318.776C247.4 318.606 242.38 318.496 241.16 318.196C239.94 317.896 231.02 308.396 230.87 308.136C232.7 308.596 242.6 313.936 243.78 312.636C244.96 311.336 243.65 310.546 248.78 299.786C253.91 289.026 266.53 278.536 274.15 276.886C267.972 280.184 262.754 285.024 259.002 290.937C255.25 296.85 253.093 303.633 252.74 310.626Z" fill="black"/>
<path d="M303.99 242.346C290.62 231.596 270.58 215.556 267.66 213.426C266.01 213.686 260.08 215.916 257.46 216.886C253.71 218.296 253.71 218.296 253.12 218.106C252.24 217.816 244.83 209.496 243.18 207.626C241.97 207.366 237.68 206.786 233.87 206.336L234.22 203.336C244.57 204.566 244.76 204.806 245.22 205.336C245.57 205.756 252 212.846 253.98 214.906L256.41 214.016C267.11 210.016 267.99 210.016 268.94 210.596C270.76 211.716 302.28 237.056 305.87 239.936L303.99 242.346ZM242.87 207.256L242.96 207.366L242.87 207.256Z" fill="#EB222A"/>
<path d="M609.96 308.787L516.48 309.237C516.48 309.237 526.48 265.517 563.01 265.337C599.54 265.157 608.3 299.037 609.96 308.787Z" fill="#EB222A"/>
<path opacity="0.2" d="M609.96 308.787L516.48 309.237C516.48 309.237 526.48 265.517 563.01 265.337C599.54 265.157 608.3 299.037 609.96 308.787Z" fill="black"/>
<path d="M338.69 314.797L245.22 315.247C245.22 315.247 255.22 271.527 291.75 271.357C328.28 271.187 337.04 305.057 338.69 314.797Z" fill="#EB222A"/>
<path opacity="0.2" d="M338.69 314.797L245.22 315.247C245.22 315.247 255.22 271.527 291.75 271.357C328.28 271.187 337.04 305.057 338.69 314.797Z" fill="black"/>
<path d="M630.95 229.027C632.95 232.197 636.66 267.257 636.87 268.477C637.08 269.697 640.02 275.067 640.07 276.087C640.12 277.107 640.92 292.907 640.52 293.927C639.582 295.797 638.513 297.598 637.32 299.317C636.81 299.937 623.62 311.397 622.14 311.557C620.66 311.717 606.95 311.887 606.7 311.637C606.45 311.387 604.65 269.197 563.07 269.397C521.49 269.597 522.17 314.397 521.41 314.547C520.65 314.697 334.56 319.847 334.56 319.847C334.56 312.997 333.8 272.187 293.01 272.377C266.44 272.507 254.12 294.487 253.74 310.637C253.58 317.367 254.74 324.747 254.37 324.747C253.14 324.747 248.95 325.087 248.24 324.747C247.53 324.407 248.8 318.917 248.08 318.747C247.36 318.577 242.35 318.467 241.08 318.167C239.81 317.867 231.03 308.397 230.87 308.137C230.71 307.877 235.77 286.727 235.76 285.757C235.76 285.377 235.22 272.947 235.38 271.627C235.57 270.017 238.97 268.887 239.55 267.277C242.66 258.727 245.2 248.627 247.47 248.057C248.25 247.867 254.69 252.057 255.59 251.557C256.93 250.767 258.39 247.977 260.74 245.877C260.87 245.767 264.61 245.877 264.74 245.717C264.87 245.557 267.16 239.537 267.66 239.577C269.2 239.687 273.71 242.867 274.66 242.787C275.61 242.707 278.15 237.647 278.23 237.627C279.75 237.257 281.44 237.227 283.11 236.827C287.11 235.877 300.18 239.687 302.17 239.527C305.61 239.257 317.44 230.977 318.01 230.527C319.54 229.447 391.35 187.797 403.86 184.707C413.98 182.197 531.21 185.017 537.35 185.287C543.49 185.557 560.48 188.557 562.11 188.547C563.74 188.537 582.57 188.347 583.7 188.857C584.83 189.367 583.7 193.857 582.29 194.687C580.88 195.517 627.45 223.517 630.95 229.027Z" fill="#EB222A"/>
<path opacity="0.2" d="M324.38 289.047C324.38 289.047 509.86 283.927 510.92 285.507C511.98 287.087 326.66 296.647 326.66 296.647L324.38 289.047Z" fill="white"/>
<path opacity="0.2" d="M630.95 229.027C630.95 229.027 547.79 238.227 544.07 238.167C540.35 238.107 342.65 245.507 339.07 245.307C335.49 245.107 302.19 239.487 302.19 239.487C305.63 239.227 317.46 230.937 318.03 230.487C319.57 229.397 391.37 187.746 403.88 184.656C414 182.146 531.23 184.956 537.37 185.246C543.51 185.536 560.5 188.506 562.13 188.496C563.76 188.486 582.59 188.297 583.72 188.807C584.85 189.317 583.72 193.807 582.31 194.637C580.9 195.467 627.44 223.517 630.95 229.027Z" fill="white"/>
<path opacity="0.1" d="M285.24 246.526C285.24 246.896 281.41 246.466 281.08 246.466C280.75 246.466 274.67 242.746 274.67 242.746C275.48 242.666 278.16 237.596 278.24 237.586C278.32 237.576 285.24 246.136 285.24 246.526Z" fill="black"/>
<path opacity="0.1" d="M264.71 252.976C264.54 253.476 260.93 253.136 260.77 253.176C260.61 253.216 255.59 251.516 255.59 251.516C256.93 250.736 258.39 247.946 260.74 245.836C260.74 245.836 264.87 252.476 264.71 252.976Z" fill="black"/>
<path opacity="0.1" d="M267.67 239.537L267.36 246.187L264.75 245.667C264.87 245.577 267.16 239.527 267.67 239.537Z" fill="black"/>
<path d="M628.25 226.377C627.81 226.787 620.48 227.007 619.71 226.707C618.94 226.407 572.63 195.907 572.6 195.017C572.6 194.567 581.25 194.647 582.3 194.687C583.35 194.727 629.09 225.607 628.25 226.377Z" fill="#455A64"/>
<path d="M576.87 226.137C574.87 232.057 341.22 241.997 339.87 239.137C338.87 237.017 351.76 221.777 361.87 216.047C371.98 210.317 400.87 193.767 415.15 192.047C429.43 190.327 458.35 190.297 483.57 190.647C508.57 190.987 538.04 191.457 548.49 195.857C557.62 199.687 578.4 221.437 576.87 226.137Z" fill="#263238"/>
<path d="M570.06 222.726C569.46 224.946 515.94 230.966 453.21 234.176C390.48 237.386 359.48 238.006 358.71 237.696C357.94 237.386 360.78 220.696 361.85 219.276C362.92 217.856 407.76 194.656 414.85 194.016C421.94 193.376 460.03 193.106 479.29 193.316C498.55 193.526 538.67 195.646 545.51 198.376C551.49 200.766 570.66 220.496 570.06 222.726Z" fill="#37474F"/>
<g opacity="0.1">
<path d="M486.87 193.477L522.97 229.237C529.38 228.647 535.3 228.057 540.63 227.487L507.14 194.317C500.04 193.927 492.96 193.637 486.87 193.477Z" fill="white"/>
<path d="M358.87 234.137L362.51 237.737C366.16 237.737 372.51 237.577 381.51 237.287L362.73 218.687C362.441 218.842 362.172 219.034 361.93 219.257C361.09 220.267 359.42 229.137 358.87 234.137Z" fill="white"/>
<path d="M460.04 193.257L498.44 231.257C501.51 231.027 504.51 230.797 507.44 230.547L469.75 193.217L460.04 193.257Z" fill="white"/>
<path d="M378.08 210.396L404.4 236.456L413.71 236.056L384.52 207.136C382.31 208.246 380.14 209.336 378.08 210.396Z" fill="white"/>
<path d="M513.58 194.687L546.06 226.867L548.52 226.577L516.52 194.867L513.58 194.687Z" fill="white"/>
<path d="M372.52 213.277L396.24 236.777L398.9 236.677L374.33 212.337L372.52 213.277Z" fill="white"/>
<path d="M406.36 196.896L444.45 234.616L447.09 234.496L408.32 196.136L406.36 196.896Z" fill="white"/>
<path d="M539.25 197.027L566.43 223.947C567.343 223.753 568.083 223.573 568.65 223.407L542.58 197.597C541.62 197.397 540.5 197.207 539.25 197.027Z" fill="white"/>
</g>
<path d="M536.34 196.627C536.09 196.627 535.98 196.957 536.2 197.547C537.48 201.027 547.38 220.687 549.86 225.277C550.01 225.53 550.211 225.75 550.45 225.922C550.689 226.094 550.962 226.215 551.25 226.277L533.97 228.137C534.271 228.013 534.52 227.789 534.675 227.503C534.83 227.217 534.881 226.886 534.82 226.567C534.64 225.477 528.11 202.337 526.07 196.657C525.835 196.128 525.42 195.7 524.9 195.447C524.56 195.447 527.9 195.447 530.98 195.797C533.73 196.137 536.34 196.627 536.34 196.627Z" fill="#263238"/>
<path d="M513.54 194.677C513.54 194.677 513.22 194.857 513.21 195.487C513.13 200.937 512.65 228.237 513.21 229.737C513.28 229.927 513.36 230.047 513.47 230.087L510.2 230.367C510.37 230.125 510.471 229.841 510.49 229.547C510.84 224.927 511.05 199.907 510.97 195.277C510.937 194.997 510.83 194.731 510.66 194.507L513.54 194.677Z" fill="#263238"/>
<path d="M459.79 194.387C459.41 195.597 458.95 231.237 458.95 232.387C458.95 233.537 460.26 233.807 460.26 233.807L440.01 234.807C440.01 234.807 441.32 234.437 441.55 233.807C441.78 233.177 447.95 194.737 447.91 194.237C447.87 193.737 446.91 193.237 446.91 193.237L461.03 193.177C460.751 193.281 460.496 193.442 460.282 193.65C460.069 193.859 459.901 194.11 459.79 194.387Z" fill="#263238"/>
<path d="M627.39 234.056C629.88 234.366 635.5 240.156 635.92 241.376C636.34 242.596 637.92 250.886 637.09 252.116C636.26 253.346 633.33 256.426 630.77 256.546C628.21 256.666 615.71 250.786 614.58 249.766C613.45 248.746 612.58 242.526 613.92 240.516C615.26 238.506 624.22 233.666 627.39 234.056Z" fill="white"/>
<path d="M614.58 249.766C615.71 250.766 628.22 256.656 630.77 256.546C632.77 256.456 634.91 254.636 636.19 253.236C634.741 254.297 632.986 254.858 631.19 254.836C629.81 254.716 618.1 249.746 616.59 248.376C615.08 247.006 615 241.836 615.19 240.896C615.38 239.956 622.91 235.066 622.91 235.066C619.18 236.516 614.8 239.166 613.91 240.516C612.61 242.526 613.45 248.746 614.58 249.766Z" fill="#EBEBEB"/>
<path d="M637.95 280.286C638.64 280.976 638.89 286.166 638.18 286.626C637.47 287.086 633.27 287.066 632.45 286.626C631.63 286.186 629.52 282.346 629.66 281.016C629.8 279.686 637.12 279.476 637.95 280.286Z" fill="white"/>
<path d="M261.46 260.496C260.61 262.996 248.32 266.846 242.37 266.796C240.43 266.796 239.53 264.976 238.78 264.036L239.63 261.957H240.18L240.76 260.566L241.34 260.686L241.95 258.316L242.75 256.996L241.75 255.886C242.098 255.321 242.526 254.809 243.02 254.367C244.19 253.417 249.21 251.696 253.71 251.716C255.24 251.726 262.78 256.586 261.46 260.496Z" fill="#263238"/>
<path d="M261.46 260.496C260.61 262.996 248.32 266.846 242.37 266.796C241.75 266.743 241.152 266.538 240.629 266.2C240.106 265.862 239.674 265.4 239.37 264.856L239.99 264.527L242.22 264.316L247.8 264.147L249.61 259.966L250.46 261.147L251.97 259.066L250.42 257.557L252.01 256.277L249.32 254.436L245.32 254.186L244.16 255.087L243.61 254.296L241.94 255.647C242.251 255.178 242.621 254.751 243.04 254.376C244.21 253.426 249.23 251.706 253.73 251.726C255.24 251.726 262.78 256.586 261.46 260.496Z" fill="white"/>
<path d="M245.9 270.386L248.54 268.336L249.01 269.796L250.05 269.976L248.48 272.366L246.99 270.786L245.9 270.386Z" fill="white"/>
<path d="M251.98 268.446L253.32 267.796L253.97 269.286L251.98 268.446Z" fill="white"/>
<path d="M240.06 267.586L239.75 268.076L240.42 267.836L240.06 267.586Z" fill="white"/>
<path d="M240.48 268.366L240.72 270.806L241.56 269.916L241.96 269.836L241.69 268.836L240.48 268.366Z" fill="white"/>
<path d="M249.5 274.466L250.21 275.116L250.68 274.646L251.55 274.496L250.26 273.366L249.5 274.466Z" fill="white"/>
<path d="M257.87 261.267C256.35 261.687 254.51 262.137 253.13 262.417C252.13 263.047 251.13 263.667 250.18 264.277C249.38 264.277 248.59 264.197 247.8 264.147C248.51 264.147 249.59 264.067 250.11 264.147C251.06 263.507 252.03 262.877 253 262.257C254.61 261.887 256.24 261.577 257.87 261.307V261.267Z" fill="#EB222A"/>
<path d="M256.02 259.386C255.623 260.347 255.076 261.238 254.4 262.026C254.791 261.063 255.338 260.171 256.02 259.386Z" fill="#EB222A"/>
<path d="M252.02 256.277C252.5 256.507 252.96 256.757 253.42 257.017H253.35C254.561 256.755 255.786 256.568 257.02 256.457C255.812 256.796 254.582 257.057 253.34 257.237C252.89 256.937 252.45 256.627 252.02 256.297V256.277Z" fill="#EB222A"/>
<g opacity="0.1">
<path d="M578.04 245.136C579.581 243.535 581.694 242.611 583.915 242.566C586.137 242.521 588.286 243.359 589.89 244.896C590.688 245.667 591.326 246.588 591.765 247.607C592.205 248.625 592.438 249.721 592.45 250.831C592.463 251.94 592.255 253.041 591.839 254.069C591.423 255.098 590.807 256.033 590.026 256.822C589.246 257.61 588.316 258.236 587.292 258.662C586.268 259.089 585.169 259.308 584.06 259.306C582.95 259.305 581.852 259.083 580.829 258.654C579.806 258.225 578.878 257.597 578.1 256.806C576.573 255.252 575.712 253.163 575.701 250.984C575.69 248.804 576.529 246.707 578.04 245.136ZM578.17 256.736C578.928 257.472 579.824 258.05 580.807 258.438C581.79 258.825 582.84 259.014 583.896 258.993C584.952 258.973 585.994 258.744 586.961 258.318C587.928 257.893 588.801 257.281 589.53 256.516C590.993 255.021 591.812 253.013 591.812 250.921C591.812 248.83 590.993 246.821 589.53 245.326C588.794 244.567 587.915 243.961 586.943 243.544C585.972 243.127 584.927 242.906 583.87 242.895C582.813 242.884 581.764 243.082 580.784 243.479C579.804 243.876 578.912 244.463 578.16 245.206C577.388 245.957 576.776 246.855 576.359 247.848C575.943 248.841 575.731 249.908 575.737 250.984C575.742 252.061 575.965 253.125 576.392 254.114C576.819 255.102 577.44 255.994 578.22 256.736H578.17Z" fill="black"/>
<path d="M609.8 275.767C610.62 273.917 611.37 272.037 612.12 270.157C612.87 268.277 613.54 266.367 614.26 264.477C614.98 262.587 615.62 260.667 616.26 258.747C616.9 256.827 617.52 254.907 618.07 252.957C617.25 254.807 616.5 256.687 615.75 258.567C615 260.447 614.33 262.357 613.61 264.247C612.89 266.137 612.25 268.057 611.61 269.977C610.97 271.897 610.35 273.817 609.8 275.767Z" fill="black"/>
<path d="M638.57 275.637C634.57 275.577 630.51 275.637 626.49 275.637L614.41 275.817L602.34 276.167C598.34 276.317 594.29 276.467 590.27 276.707C594.27 276.757 598.32 276.707 602.35 276.707L614.43 276.527L626.5 276.177C630.52 276.017 634.54 275.867 638.57 275.637Z" fill="black"/>
<path d="M448.28 237.366L446.94 247.186L446.37 252.136C446.28 252.956 446.2 253.786 446.14 254.616C446.08 255.446 446.14 256.266 446.14 257.096L446.42 276.916L446.62 286.816L446.73 291.816L446.78 294.286L446.98 296.756L447.79 306.636L448.68 316.506L448.13 306.616L447.51 296.736L447.36 294.266V291.786L447.28 286.836L447.14 276.946L446.7 257.146C446.7 256.326 446.62 255.496 446.7 254.676C446.78 253.856 446.81 253.036 446.88 252.216L447.36 247.296L448.28 237.366Z" fill="black"/>
<path d="M339.51 242.396L337.87 252.266L337.06 257.206L336.86 258.436C336.775 258.845 336.725 259.26 336.71 259.676C336.71 260.516 336.71 261.346 336.71 262.186C336.8 268.856 336.99 275.516 337.23 282.186C337.29 283.856 337.37 285.516 337.46 287.186C337.571 288.864 337.907 290.519 338.46 292.106C339.39 295.316 340.46 298.486 341.61 301.616C342.725 304.764 344.061 307.828 345.61 310.786L346.23 311.886C346.45 312.246 346.69 312.586 346.92 312.946C347.151 313.299 347.408 313.633 347.69 313.946L348.1 314.436C348.323 314.565 348.573 314.64 348.83 314.656C350.51 314.816 352.17 314.836 353.83 314.886C367.17 315.096 380.5 314.886 393.83 314.756C407.16 314.626 420.5 314.336 433.83 314.026C447.16 313.716 460.49 313.286 473.83 312.726C480.49 312.426 487.15 312.176 493.83 311.546C494.683 311.475 495.529 311.338 496.36 311.136C496.83 310.946 497.1 310.726 497.5 310.556C497.9 310.386 498.24 310.186 498.61 310.016C500.12 309.326 501.68 308.716 503.18 307.956C504.705 307.223 506.116 306.273 507.37 305.136C508.455 303.851 509.457 302.499 510.37 301.086C514.1 295.546 517.66 289.906 521.23 284.276C524.8 278.646 528.3 272.966 531.8 267.276C535.3 261.586 538.8 255.896 542.16 250.166L543.43 248.006L543.73 247.446L543.88 247.156C543.89 247.053 543.89 246.95 543.88 246.846L544 245.596C544.13 243.936 544.25 242.276 544.3 240.596C544.3 240.176 544.3 239.756 544.3 239.336C544.246 238.923 544.155 238.514 544.03 238.116C543.79 237.316 543.52 236.526 543.24 235.746C542.667 234.173 542.067 232.616 541.44 231.076C542.05 232.626 542.65 234.186 543.2 235.756C543.47 236.546 543.74 237.336 543.97 238.136C544.091 238.532 544.178 238.936 544.23 239.346C544.23 239.756 544.23 240.176 544.23 240.596C544.16 242.256 544.03 243.916 543.88 245.596L543.76 246.836C543.766 246.94 543.766 247.043 543.76 247.146L543.61 247.406C543.51 247.586 543.43 247.766 543.32 247.946L542.09 250.136C538.63 255.836 535.09 261.506 531.58 267.136C524.52 278.446 517.49 289.786 510.06 300.856C509.143 302.25 508.141 303.586 507.06 304.856C505.833 305.956 504.456 306.875 502.97 307.586C501.49 308.326 499.97 308.936 498.41 309.586C498.03 309.766 497.65 309.936 497.28 310.126C496.91 310.316 496.5 310.576 496.19 310.686C495.401 310.874 494.599 310.998 493.79 311.056C487.16 311.666 480.49 311.896 473.79 312.186C460.47 312.706 447.14 313.056 433.79 313.366C420.44 313.676 407.13 313.996 393.79 314.206C380.45 314.416 367.12 314.626 353.79 314.456C352.12 314.456 350.45 314.396 348.79 314.236C348.635 314.218 348.482 314.191 348.33 314.156L347.93 313.686C347.66 313.371 347.413 313.037 347.19 312.686C346.96 312.336 346.72 312.006 346.51 311.686L345.89 310.616C344.348 307.676 343.011 304.632 341.89 301.506C340.72 298.386 339.65 295.226 338.72 292.036C338.166 290.477 337.829 288.848 337.72 287.196L337.47 282.196C337.17 275.546 336.92 268.876 336.78 262.196C336.78 261.356 336.78 260.526 336.78 259.696C336.794 259.281 336.838 258.866 336.91 258.456L337.1 257.226L337.87 252.286L339.51 242.396Z" fill="black"/>
<path d="M257.87 263.396C259.323 264.476 260.85 265.452 262.44 266.316C264.02 267.216 265.63 268.076 267.23 268.946C268.83 269.816 270.47 270.626 272.11 271.426C273.75 272.226 275.4 273.036 277.11 273.776C275.55 272.846 273.96 271.966 272.36 271.086L267.55 268.496L262.7 265.976L260.27 264.716C259.446 264.321 258.645 263.88 257.87 263.396Z" fill="black"/>
<path d="M534.58 277.917L508.61 278.727L482.63 279.637L430.69 281.477L378.76 283.536L352.79 284.577L326.83 285.716L352.8 284.917L378.77 283.996L430.72 282.167L482.65 280.096L508.62 279.057L534.58 277.917Z" fill="black"/>
<path d="M535.93 240.686H536.93H537.18C537.24 240.686 537.25 240.686 537.28 240.816C537.325 240.973 537.356 241.134 537.37 241.296C537.44 241.961 537.46 242.629 537.43 243.296C537.43 243.626 537.43 243.966 537.34 244.296C537.324 244.444 537.287 244.589 537.23 244.726H537.15H536.96C536.3 244.786 535.62 244.806 534.96 244.836C532.26 244.936 529.55 245.036 526.85 245.096L522.79 245.226L520.79 245.276H519.96C519.91 245.276 519.88 245.276 519.96 245.276C519.912 245.198 519.875 245.114 519.85 245.026C519.809 244.875 519.779 244.722 519.76 244.566C519.665 243.904 519.632 243.235 519.66 242.566C519.666 242.232 519.692 241.898 519.74 241.566C519.757 241.435 519.794 241.306 519.85 241.186C519.969 241.127 520.098 241.09 520.23 241.076C521.54 240.846 522.9 240.756 524.23 240.616C522.869 240.59 521.507 240.633 520.15 240.746C519.946 240.747 519.747 240.81 519.58 240.926C519.454 241.094 519.372 241.289 519.34 241.496C519.274 241.827 519.228 242.161 519.2 242.496C519.135 243.185 519.135 243.878 519.2 244.566C519.216 244.748 519.246 244.929 519.29 245.106C519.308 245.228 519.349 245.344 519.413 245.449C519.476 245.554 519.561 245.645 519.66 245.716C519.717 245.762 519.787 245.787 519.86 245.786H520.01H520.29H522.84L526.9 245.716C529.61 245.596 532.31 245.506 535.02 245.296C535.7 245.236 536.37 245.186 537.02 245.086C537.122 245.077 537.223 245.057 537.32 245.026C537.38 245.012 537.437 244.988 537.49 244.956C537.546 244.907 537.591 244.845 537.62 244.776C537.686 244.6 537.726 244.414 537.74 244.226C537.759 243.893 537.759 243.559 537.74 243.226C537.723 242.555 537.652 241.886 537.53 241.226C537.502 241.055 537.455 240.887 537.39 240.726C537.379 240.678 537.355 240.633 537.32 240.596C537.32 240.596 537.19 240.506 537.16 240.526H536.91L535.93 240.686Z" fill="black"/>
<path d="M436.52 243.616H437.52H437.77C437.83 243.616 437.84 243.616 437.87 243.746C437.916 243.903 437.947 244.064 437.96 244.226C438.03 244.891 438.05 245.559 438.02 246.226C438.02 246.556 438.02 246.886 437.93 247.226C437.915 247.374 437.878 247.519 437.82 247.656H437.74H437.55C436.89 247.716 436.21 247.736 435.55 247.766C432.85 247.856 430.14 247.956 427.44 248.016L423.38 248.156H421.38H420.55C420.5 248.156 420.47 248.156 420.55 248.156C420.502 248.078 420.465 247.994 420.44 247.906C420.4 247.755 420.37 247.602 420.35 247.446C420.255 246.784 420.222 246.115 420.25 245.446C420.255 245.112 420.282 244.778 420.33 244.446C420.35 244.315 420.387 244.188 420.44 244.066C420.559 244.007 420.688 243.969 420.82 243.956C422.13 243.716 423.49 243.636 424.82 243.496C423.459 243.461 422.097 243.502 420.74 243.616C420.537 243.624 420.341 243.686 420.17 243.796C420.046 243.965 419.964 244.16 419.93 244.366C419.866 244.697 419.819 245.031 419.79 245.366C419.725 246.058 419.725 246.754 419.79 247.446C419.806 247.625 419.836 247.802 419.88 247.976C419.897 248.099 419.939 248.217 420.003 248.324C420.066 248.43 420.15 248.523 420.25 248.596C420.311 248.633 420.379 248.657 420.45 248.666H423.45L427.51 248.586C430.22 248.476 432.92 248.386 435.63 248.176C436.31 248.116 436.98 248.066 437.63 247.966C437.732 247.953 437.833 247.929 437.93 247.896C437.99 247.885 438.047 247.865 438.1 247.836C438.152 247.783 438.196 247.722 438.23 247.656C438.296 247.476 438.336 247.288 438.35 247.096C438.369 246.763 438.369 246.429 438.35 246.096C438.334 245.425 438.263 244.756 438.14 244.096C438.111 243.923 438.068 243.752 438.01 243.586C437.991 243.544 437.967 243.504 437.94 243.466C437.92 243.441 437.894 243.42 437.865 243.406C437.835 243.392 437.803 243.386 437.77 243.386H437.52L436.52 243.616Z" fill="black"/>
</g>
<path d="M592.138 339.996C607.236 324.898 607.236 300.42 592.138 285.322C577.04 270.225 552.562 270.225 537.464 285.322C522.367 300.42 522.367 324.898 537.464 339.996C552.562 355.093 577.04 355.093 592.138 339.996Z" fill="#263238"/>
<path d="M532.6 313.447C532.726 319.816 534.738 326.005 538.382 331.231C542.025 336.458 547.137 340.486 553.07 342.807C559.003 345.128 565.491 345.637 571.713 344.27C577.936 342.904 583.613 339.722 588.028 335.129C592.442 330.535 595.395 324.736 596.514 318.464C597.632 312.192 596.865 305.729 594.31 299.893C591.756 294.057 587.527 289.11 582.161 285.677C576.794 282.244 570.53 280.479 564.16 280.607C559.919 280.65 555.73 281.538 551.837 283.22C547.943 284.902 544.424 287.343 541.486 290.401C538.547 293.459 536.248 297.072 534.722 301.029C533.196 304.986 532.475 309.207 532.6 313.447Z" fill="#37474F"/>
<path d="M577.519 337.867C591.439 330.845 597.03 313.868 590.008 299.948C582.986 286.028 566.008 280.436 552.088 287.458C538.169 294.481 532.577 311.458 539.599 325.378C546.622 339.298 563.599 344.889 577.519 337.867Z" fill="#EB222A"/>
<path d="M583.207 331.065C593.373 320.9 593.373 304.418 583.207 294.253C573.042 284.088 556.561 284.088 546.395 294.253C536.23 304.418 536.23 320.9 546.395 331.065C556.561 341.23 573.042 341.23 583.207 331.065Z" fill="#A6A6A6"/>
<path d="M560.59 306.207L568.76 306.047C565.92 302.117 575.26 288.047 575.26 288.047L570.93 286.687C568.17 291.687 566.77 293.127 564.42 293.167C562.07 293.207 560.6 291.807 557.64 286.957L553.38 288.477C553.38 288.477 563.27 302.137 560.59 306.207Z" fill="#EB222A"/>
<path d="M569.45 306.527L572.14 314.257C575 310.337 591.29 314.867 591.29 314.867V310.327C585.71 309.237 583.88 308.327 583.11 306.137C582.34 303.947 583.23 302.087 586.93 297.767L584.16 294.187C584.16 294.187 574.13 307.827 569.45 306.527Z" fill="#EB222A"/>
<path d="M571.87 315.066L565.35 319.996C569.96 321.516 570.69 338.406 570.69 338.406L574.99 336.956C574.3 331.316 574.57 329.306 576.45 327.876C578.33 326.446 580.34 326.746 585.59 328.926L588.14 325.186C588.14 325.186 572.1 319.906 571.87 315.066Z" fill="#EB222A"/>
<path d="M564.53 320.016L557.87 315.346C557.87 320.196 542.02 326.106 542.02 326.106L544.72 329.746C549.88 327.356 551.87 326.986 553.8 328.336C555.73 329.686 556.08 331.676 555.63 337.336L559.98 338.606C559.98 338.606 559.99 321.706 564.53 320.016Z" fill="#EB222A"/>
<path d="M557.54 314.547L559.91 306.717C555.3 308.207 544.78 294.967 544.78 294.967L542.15 298.667C546.02 302.827 546.99 304.667 546.3 306.867C545.61 309.067 543.83 310.067 538.3 311.397L538.43 315.917C538.43 315.917 554.53 310.747 557.54 314.547Z" fill="#EB222A"/>
<path d="M557.24 312.626C557.27 314.121 557.743 315.574 558.598 316.8C559.453 318.026 560.653 318.971 562.045 319.516C563.438 320.06 564.96 320.18 566.421 319.859C567.881 319.538 569.213 318.792 570.249 317.714C571.285 316.636 571.978 315.275 572.241 313.803C572.504 312.331 572.324 310.814 571.725 309.445C571.125 308.075 570.133 306.914 568.874 306.108C567.615 305.302 566.145 304.887 564.65 304.916C562.646 304.959 560.74 305.794 559.351 307.239C557.962 308.685 557.203 310.622 557.24 312.626Z" fill="#EB222A"/>
<path d="M322.2 351.047H266.49C261.37 351.047 264.6 348.387 265.67 348.387C266.57 348.387 266.55 346.647 267.17 346.067L267.36 345.897L294.36 344.527L321.36 345.897L321.49 346.027C322.03 346.517 322.11 348.387 323.04 348.387C323.97 348.387 327.31 351.047 322.2 351.047Z" fill="#263238"/>
<path d="M333 317.927C333.129 324.527 331.544 331.049 328.4 336.854C325.256 342.659 320.659 347.549 315.06 351.047H273.49C271.215 349.605 269.097 347.929 267.17 346.047C259.981 339.044 255.854 329.481 255.69 319.447C255.486 309.195 259.363 299.281 266.467 291.888C273.572 284.494 283.323 280.226 293.575 280.022C303.827 279.817 313.74 283.694 321.134 290.799C328.528 297.904 332.796 307.655 333 317.907V317.927Z" fill="#263238"/>
<path d="M262.14 319.316C262.435 327.771 266.044 335.771 272.188 341.586C278.332 347.402 286.517 350.567 294.976 350.397C303.434 350.228 311.486 346.738 317.392 340.681C323.298 334.624 326.584 326.486 326.54 318.026C326.518 313.756 325.647 309.533 323.978 305.603C322.309 301.673 319.875 298.114 316.817 295.132C313.76 292.151 310.141 289.808 306.17 288.239C302.198 286.669 297.955 285.905 293.686 285.99C289.416 286.076 285.207 287.009 281.302 288.737C277.396 290.464 273.874 292.95 270.938 296.052C268.003 299.153 265.713 302.806 264.203 306.8C262.693 310.794 261.991 315.049 262.14 319.316Z" fill="#37474F"/>
<path d="M305.59 344.59C319.889 338.376 326.443 321.746 320.229 307.448C314.014 293.149 297.385 286.595 283.086 292.809C268.787 299.024 262.233 315.653 268.448 329.952C274.662 344.251 291.292 350.805 305.59 344.59Z" fill="#EB222A"/>
<path d="M312.744 337.1C322.909 326.934 322.909 310.453 312.744 300.288C302.579 290.123 286.097 290.123 275.932 300.288C265.767 310.453 265.767 326.934 275.932 337.1C286.097 347.265 302.579 347.265 312.744 337.1Z" fill="#A6A6A6"/>
<path d="M290.13 312.257L298.3 312.097C295.46 308.167 304.8 294.097 304.8 294.097L300.47 292.747C297.71 297.747 296.31 299.177 293.95 299.227C291.59 299.277 290.14 297.857 287.18 293.007L282.87 294.507C282.87 294.507 292.8 308.217 290.13 312.257Z" fill="#EB222A"/>
<path d="M298.99 312.577L301.67 320.297C304.53 316.387 320.82 320.907 320.82 320.907L320.77 316.377C315.2 315.287 313.37 314.377 312.6 312.177C311.83 309.977 312.72 308.177 316.41 303.817L313.65 300.237C313.65 300.237 303.66 313.877 298.99 312.577Z" fill="#EB222A"/>
<path d="M301.43 321.136L294.87 326.046C299.48 327.556 300.21 344.446 300.21 344.446L304.51 342.996C303.82 337.356 304.09 335.346 305.97 333.926C307.85 332.506 309.85 332.786 315.1 334.926L317.66 331.196C317.66 331.196 301.64 325.956 301.43 321.136Z" fill="#EB222A"/>
<path d="M294.07 326.066L287.36 321.386C287.36 326.236 271.51 332.156 271.51 332.156L274.21 335.786C279.36 333.396 281.36 333.036 283.29 334.376C285.22 335.716 285.57 337.726 285.12 343.376L289.47 344.656C289.47 344.656 289.52 327.756 294.07 326.066Z" fill="#EB222A"/>
<path d="M287.08 320.587L289.45 312.767C284.84 314.247 274.32 301.017 274.32 301.017L271.69 304.717C275.56 308.877 276.52 310.657 275.84 312.917C275.16 315.177 273.37 316.117 267.84 317.437L267.97 321.967C267.97 321.967 284.07 316.797 287.08 320.587Z" fill="#EB222A"/>
<path d="M286.78 318.667C286.808 320.162 287.279 321.615 288.133 322.843C288.987 324.07 290.186 325.017 291.579 325.563C292.971 326.109 294.494 326.23 295.955 325.91C297.416 325.591 298.749 324.845 299.786 323.767C300.823 322.69 301.517 321.329 301.781 319.857C302.044 318.384 301.865 316.867 301.266 315.497C300.667 314.127 299.675 312.965 298.415 312.158C297.156 311.352 295.685 310.937 294.19 310.967C292.188 311.009 290.283 311.843 288.895 313.286C287.506 314.729 286.745 316.664 286.78 318.667Z" fill="#EB222A"/>
<path d="M367.52 223.236C368.94 224.636 368.87 237.236 367.85 238.236C366.83 239.236 352.85 240.236 351.66 232.436C350.47 224.636 365.31 221.046 367.52 223.236Z" fill="#EB222A"/>
<path d="M398.01 191.686C398.01 191.686 357.39 211.246 327.81 230.946L317.35 231.006C317.7 230.766 317.92 230.596 318 230.556L318.25 230.396L318.47 230.256L320.17 229.256L320.85 228.856L321.24 228.636L322.02 228.176L322.5 227.886L325.59 226.096C326.08 225.816 326.59 225.526 327.12 225.206L327.73 224.856L328.98 224.136C329.19 224.016 329.41 223.896 329.63 223.756L331.56 222.656L331.77 222.526C332.44 222.156 333.11 221.766 333.77 221.366L333.98 221.256L336.8 219.636C337.57 219.196 338.36 218.736 339.18 218.286L340.32 217.636L341.66 216.876L344.41 215.316L345.93 214.466L351.26 211.466L353.06 210.466L356.06 208.806L358.64 207.376L359.57 206.856L361.43 205.856L363.28 204.856C366.07 203.326 368.85 201.856 371.57 200.346L373.38 199.346L374.29 198.856C374.67 198.666 375.05 198.466 375.42 198.256L376.06 197.916L377.81 196.986L378.68 196.526L380.41 195.626L381.25 195.176C382.1 194.746 382.93 194.306 383.74 193.886L385.34 193.056C385.68 192.896 386.01 192.726 386.34 192.556L388.46 191.486C389.4 191.006 390.31 190.566 391.2 190.126L398.01 191.686Z" fill="#37474F"/>
<g opacity="0.5">
<path d="M609.87 285.587C607.467 281.667 604.532 278.1 601.15 274.987C590.934 265.402 577.365 260.206 563.36 260.517L559.9 260.697L558.18 260.787C557.6 260.857 557.03 260.947 556.46 261.027L553.04 261.537C551.91 261.777 550.79 262.077 549.67 262.347C545.183 263.482 540.911 265.34 537.02 267.847C533.155 270.374 529.707 273.488 526.8 277.077C523.972 280.7 521.557 284.628 519.6 288.787C521.706 284.724 524.237 280.896 527.15 277.367C530.085 273.881 533.543 270.872 537.4 268.447C545.12 263.577 554.31 261.567 563.4 261.447C567.929 261.359 572.453 261.823 576.87 262.827C585.794 264.904 594.048 269.2 600.87 275.317C604.309 278.329 607.335 281.782 609.87 285.587Z" fill="white"/>
<path d="M338.97 286.886C336.567 282.967 333.632 279.4 330.25 276.286C320.034 266.701 306.465 261.506 292.46 261.816L289 261.996L287.28 262.086C286.7 262.156 286.13 262.246 285.56 262.336L282.14 262.836C281.01 263.076 279.89 263.376 278.77 263.646C274.283 264.782 270.011 266.639 266.12 269.146C262.244 271.671 258.786 274.786 255.87 278.376C253.042 282 250.627 285.928 248.67 290.086C250.776 286.024 253.307 282.195 256.22 278.666C259.155 275.181 262.613 272.172 266.47 269.746C274.19 264.876 283.38 262.866 292.47 262.746C297.02 262.658 301.564 263.124 306 264.136C314.906 266.222 323.143 270.518 329.95 276.626C333.395 279.635 336.428 283.085 338.97 286.886Z" fill="white"/>
<path d="M603.94 221.456C597.89 216.756 591.76 212.186 585.58 207.666C579.4 203.146 573.17 198.716 566.75 194.506C565.94 193.996 565.12 193.506 564.28 193.006C563.87 192.756 563.44 192.526 562.99 192.306C562.537 192.089 562.065 191.915 561.58 191.786C559.73 191.246 557.87 190.786 556.01 190.336C552.28 189.436 548.55 188.576 544.79 187.856C541.009 187.155 537.175 186.78 533.33 186.736C529.5 186.676 525.67 186.736 521.85 186.896C525.67 186.896 529.5 186.976 533.31 187.186C537.122 187.316 540.917 187.774 544.65 188.556C548.38 189.376 552.1 190.216 555.81 191.146C557.66 191.616 559.51 192.086 561.33 192.626C561.768 192.744 562.194 192.905 562.6 193.106C563.01 193.316 563.42 193.546 563.83 193.786C564.65 194.256 565.45 194.786 566.26 195.286C572.68 199.396 578.9 203.866 585.17 208.286L603.94 221.456Z" fill="white"/>
</g>
<path opacity="0.1" d="M304.28 273.527C333.94 280.157 334.53 313.697 334.56 319.847C334.56 319.847 520.64 314.707 521.41 314.547C522.02 314.417 521.7 285.047 543.61 273.747C533.77 278.677 521.18 290.547 516.48 307.827C515.97 309.667 488.88 312.687 442.56 314.387C396.24 316.087 355.96 315.387 348.32 314.307C340.68 313.227 331.51 273.277 304.28 273.527Z" fill="black"/>
<path opacity="0.1" d="M252.74 310.626C252.58 317.346 253.74 324.736 253.38 324.726C252.59 324.726 250.6 324.876 249.07 324.886C248.799 324.892 248.529 324.855 248.27 324.776C247.55 324.476 248.82 318.946 248.11 318.776C247.4 318.606 242.38 318.496 241.16 318.196C239.94 317.896 231.02 308.396 230.87 308.136C232.7 308.596 242.6 313.936 243.78 312.636C244.96 311.336 243.65 310.546 248.78 299.786C253.91 289.026 266.53 278.536 274.15 276.886C267.972 280.184 262.754 285.024 259.002 290.937C255.25 296.85 253.093 303.633 252.74 310.626Z" fill="black"/>
</svg>
