<svg width="616" height="327" viewBox="0 0 616 327" fill="none" xmlns="http://www.w3.org/2000/svg">
<path d="M401.143 55.2134C400.265 55.2128 399.413 54.9165 398.723 54.3723C398.034 53.8281 397.548 53.0676 397.343 52.2134C396.446 48.4542 394.308 45.1072 391.274 42.7126C388.24 40.318 384.488 39.0156 380.623 39.0156C376.759 39.0156 373.006 40.318 369.973 42.7126C366.939 45.1072 364.801 48.4542 363.903 52.2134C363.807 52.7345 363.606 53.2306 363.312 53.6716C363.018 54.1126 362.638 54.4892 362.194 54.7786C361.75 55.068 361.252 55.2642 360.73 55.3553C360.208 55.4463 359.673 55.4302 359.157 55.3081C358.642 55.186 358.156 54.9603 357.731 54.6448C357.305 54.3293 356.948 53.9306 356.681 53.4728C356.414 53.015 356.243 52.5078 356.178 51.9819C356.113 51.4559 356.156 50.9223 356.303 50.4134C357.606 44.943 360.715 40.0715 365.128 36.586C369.541 33.1005 375 31.2046 380.623 31.2046C386.247 31.2046 391.706 33.1005 396.119 36.586C400.532 40.0715 403.641 44.943 404.943 50.4134C405.181 51.4212 405.009 52.4819 404.465 53.363C403.921 54.2441 403.051 54.8736 402.043 55.1134C401.748 55.1807 401.446 55.2143 401.143 55.2134Z" fill="#EB222A"/>
<path d="M414.283 44.5133C413.539 44.5124 412.811 44.2993 412.184 43.899C411.557 43.4987 411.057 42.9278 410.743 42.2533C408.083 36.5053 403.833 31.6386 398.496 28.2278C393.159 24.8171 386.957 23.0047 380.623 23.0047C374.289 23.0047 368.088 24.8171 362.751 28.2278C357.413 31.6386 353.164 36.5053 350.503 42.2533C350.068 43.1922 349.278 43.9198 348.307 44.2762C347.335 44.6325 346.262 44.5883 345.323 44.1533C344.384 43.7184 343.657 42.9283 343.3 41.9568C342.944 40.9854 342.988 39.9122 343.423 38.9733C346.712 31.877 351.961 25.8693 358.553 21.659C365.144 17.4488 372.802 15.2117 380.623 15.2117C388.444 15.2117 396.103 17.4488 402.694 21.659C409.285 25.8693 414.535 31.877 417.823 38.9733C418.04 39.438 418.163 39.9409 418.185 40.4532C418.207 40.9655 418.127 41.4771 417.95 41.9585C417.774 42.4399 417.504 42.8816 417.156 43.2583C416.808 43.635 416.389 43.9392 415.923 44.1533C415.41 44.3932 414.85 44.5161 414.283 44.5133Z" fill="#EB222A"/>
<path d="M426.283 34.5934C425.588 34.5942 424.906 34.4091 424.306 34.0575C423.707 33.7059 423.212 33.2004 422.873 32.5934C418.67 25.0794 412.54 18.8222 405.113 14.4668C397.687 10.1114 389.233 7.81531 380.623 7.81531C372.014 7.81531 363.56 10.1114 356.133 14.4668C348.707 18.8222 342.576 25.0794 338.373 32.5934C338.131 33.0564 337.798 33.466 337.394 33.798C336.991 34.1301 336.524 34.3779 336.023 34.5267C335.522 34.6755 334.997 34.7224 334.477 34.6646C333.958 34.6067 333.455 34.4453 332.999 34.1899C332.543 33.9345 332.143 33.5903 331.822 33.1776C331.502 32.7649 331.267 32.292 331.132 31.7871C330.997 31.2821 330.965 30.7552 331.038 30.2376C331.11 29.72 331.285 29.2221 331.553 28.7734C336.434 20.0478 343.554 12.7816 352.179 7.72394C360.803 2.66625 370.62 0 380.618 0C390.616 0 400.434 2.66625 409.058 7.72394C417.683 12.7816 424.802 20.0478 429.683 28.7734C430.017 29.3669 430.189 30.0372 430.183 30.7179C430.177 31.3985 429.993 32.0657 429.649 32.6532C429.305 33.2407 428.814 33.7279 428.223 34.0666C427.633 34.4052 426.964 34.5834 426.283 34.5834V34.5934Z" fill="#EB222A"/>
<path d="M329.217 326.83C310.415 326.83 295.17 296.639 295.17 259.395C295.17 222.151 310.415 191.96 329.217 191.96H372.823V326.83H329.217Z" fill="#263238"/>
<path d="M373.048 326.83C354.244 326.83 339.001 296.638 339.001 259.395C339.001 222.152 354.244 191.96 373.048 191.96C391.852 191.96 407.096 222.152 407.096 259.395C407.096 296.638 391.852 326.83 373.048 326.83Z" fill="#263238"/>
<path d="M79.5704 326.83C60.7685 326.83 45.5379 296.639 45.5379 259.395C45.5379 222.151 60.7085 191.96 79.5704 191.96H123.251V326.83H79.5704Z" fill="#263238"/>
<path d="M123.417 326.83C104.613 326.83 89.3693 296.638 89.3693 259.395C89.3693 222.152 104.613 191.96 123.417 191.96C142.221 191.96 157.464 222.152 157.464 259.395C157.464 296.638 142.221 326.83 123.417 326.83Z" fill="#263238"/>
<path d="M552.379 292.873L575.698 287.125C579.644 286.159 583.33 284.341 586.498 281.798C589.666 279.255 592.238 276.049 594.035 272.405C595.625 269.189 597.821 266.311 600.502 263.927L606.234 258.825C609.508 255.91 612.048 252.265 613.649 248.185C615.25 244.105 615.866 239.704 615.448 235.341L612.297 202.329C611.768 196.794 609.597 191.544 606.062 187.252C602.528 182.961 597.79 179.824 592.459 178.245L575.788 173.324L515.646 169.032L552.379 292.873Z" fill="#EB222A"/>
<path d="M501.526 326.83C482.724 326.83 467.478 296.639 467.478 259.395C467.478 222.151 482.724 191.96 501.526 191.96H545.192V326.83H501.526Z" fill="#263238"/>
<path d="M545.357 326.83C526.553 326.83 511.309 296.638 511.309 259.395C511.309 222.152 526.553 191.96 545.357 191.96C564.161 191.96 579.405 222.152 579.405 259.395C579.405 296.638 564.161 326.83 545.357 326.83Z" fill="#263238"/>
<path d="M545.357 312.695C532.163 312.695 521.468 288.832 521.468 259.395C521.468 229.958 532.163 206.095 545.357 206.095C558.55 206.095 569.246 229.958 569.246 259.395C569.246 288.832 558.55 312.695 545.357 312.695Z" fill="#EB222A"/>
<path d="M199.885 292.873L141.093 161.484C141.093 161.484 229.055 96 340.667 96C521.558 96 515.346 120.384 575.878 173.323L549.453 191.96C502.441 191.96 498.525 266.478 491.007 287.441C490.445 289.029 489.405 290.405 488.029 291.378C486.653 292.35 485.009 292.873 483.324 292.873H199.885Z" fill="#EB222A"/>
<path d="M251.879 326.83C233.077 326.83 217.846 296.639 217.846 259.395C217.846 222.151 233.077 191.96 251.879 191.96H295.56V326.83H251.879Z" fill="#263238"/>
<path d="M295.725 326.83C276.921 326.83 261.677 296.638 261.677 259.395C261.677 222.152 276.921 191.96 295.725 191.96C314.529 191.96 329.772 222.152 329.772 259.395C329.772 296.638 314.529 326.83 295.725 326.83Z" fill="#263238"/>
<path d="M295.725 312.695C282.532 312.695 271.836 288.832 271.836 259.395C271.836 229.958 282.532 206.095 295.725 206.095C308.918 206.095 319.614 229.958 319.614 259.395C319.614 288.832 308.918 312.695 295.725 312.695Z" fill="#EB222A"/>
<path d="M234.968 282.023C240.385 257.414 266.284 191.99 297.331 191.99L330.973 161.439H141.093C127.948 161.439 69.5616 169.512 36.4745 191.915C9.74963 210.012 6.46341 237.487 2.62201 277.627C1.82672 285.82 8.99933 292.857 18.0627 292.872C94.1407 292.872 186.215 293.157 219.737 293.263C227.135 293.338 233.512 288.611 234.968 282.023Z" fill="#EB222A"/>
<path opacity="0.8" d="M154.823 161.484H278.603C281.466 161.496 284.289 160.805 286.824 159.474C289.358 158.143 291.528 156.21 293.144 153.846C306.919 133.439 331.303 112.761 349.174 102.963C224.028 102.963 154.823 161.484 154.823 161.484Z" fill="white"/>
<path opacity="0.8" d="M352.235 109.1C337.23 119.964 320.154 136.8 310.565 153.531C310.101 154.329 309.854 155.235 309.849 156.158C309.843 157.082 310.08 157.99 310.536 158.793C310.991 159.596 311.649 160.266 312.444 160.736C313.239 161.205 314.144 161.458 315.067 161.469H517.926C539.444 161.469 532.302 107.869 419.895 103.848C409.301 102.933 384.602 102.903 370.947 102.963C364.221 102.999 357.676 105.146 352.235 109.1Z" fill="white"/>
<path d="M213.51 263.657L148.491 268.564C147.477 268.639 146.53 269.096 145.839 269.843C145.149 270.589 144.767 271.569 144.77 272.585V277.087C144.77 278.153 145.193 279.176 145.947 279.93C146.702 280.684 147.724 281.108 148.791 281.108H213.765C214.833 281.108 215.857 280.685 216.614 279.931C217.37 279.177 217.797 278.155 217.801 277.087V267.738C217.809 267.182 217.701 266.631 217.485 266.118C217.269 265.606 216.95 265.143 216.547 264.76C216.144 264.377 215.666 264.081 215.144 263.891C214.621 263.701 214.065 263.622 213.51 263.657Z" fill="#263238"/>
<path d="M6.83876 264.557L24.6953 268.158C25.609 268.339 26.4316 268.831 27.0228 269.551C27.6139 270.271 27.9368 271.173 27.9365 272.105V276.982C27.9365 277.511 27.832 278.035 27.629 278.524C27.4259 279.013 27.1284 279.457 26.7534 279.831C26.3783 280.204 25.9332 280.5 25.4436 280.701C24.9539 280.903 24.4294 281.005 23.9 281.003H4.99306C4.42327 281.005 3.85955 280.886 3.33928 280.654C2.81902 280.421 2.35411 280.081 1.97529 279.655C1.59647 279.23 1.31239 278.728 1.14194 278.185C0.971497 277.641 0.918573 277.067 0.986612 276.501L1.99196 268.038C2.05699 267.48 2.23775 266.942 2.52266 266.458C2.80755 265.974 3.19033 265.555 3.64651 265.227C4.1027 264.9 4.62225 264.671 5.17193 264.555C5.72161 264.44 6.28932 264.441 6.83876 264.557Z" fill="#263238"/>
<path opacity="0.8" d="M160 187.999L250.783 183.587C250.783 183.587 251.714 199.673 218.071 203.094C197.547 204.975 177.01 199.637 160 187.999Z" fill="white"/>
<path opacity="0.3" d="M612.311 202.314C612.058 199.676 611.426 197.089 610.436 194.631L604.284 194.451C604.284 194.451 603.998 218.055 612.912 216.569C613.162 216.531 613.408 216.47 613.647 216.389L612.311 202.314Z" fill="black"/>
<path opacity="0.8" d="M45.4178 186.558C42.3531 188.203 39.3732 190.001 36.4895 191.945C32.1035 194.883 28.0968 198.35 24.5601 202.269C25.8286 202.63 27.116 202.921 28.4165 203.139C48.569 206.606 63.2144 187.999 63.2144 187.999L45.4178 186.558Z" fill="white"/>
<path d="M131.88 213.358H67.641C65.3891 213.371 63.1951 214.073 61.3537 215.369L50.1296 223.247C48.8555 224.13 47.7779 225.267 46.9645 226.587C46.151 227.906 45.6193 229.38 45.4028 230.915L42.5368 252.178C42.3228 253.554 42.4115 254.96 42.7967 256.298C43.182 257.636 43.8546 258.874 44.7675 259.925C45.6804 260.977 46.8117 261.817 48.0825 262.386C49.3533 262.955 50.733 263.24 52.1253 263.222H120.821C122.875 263.193 124.882 262.606 126.627 261.522C128.372 260.438 129.789 258.898 130.724 257.069L143.554 232.055C144.479 230.351 144.895 228.416 144.751 226.482C144.607 224.548 143.911 222.695 142.744 221.146L139.533 217.02C138.623 215.863 137.46 214.932 136.133 214.297C134.806 213.662 133.351 213.341 131.88 213.358Z" fill="#263238"/>
<path opacity="0.1" d="M470.509 265.232H344.883C344.467 265.231 344.054 265.316 343.673 265.483C343.291 265.649 342.948 265.893 342.666 266.2C342.383 266.506 342.168 266.868 342.033 267.262C341.898 267.656 341.847 268.074 341.882 268.489L342.527 275.796C342.595 276.544 342.941 277.24 343.496 277.746C344.052 278.251 344.777 278.53 345.528 278.527H471.17C471.586 278.529 471.998 278.444 472.38 278.277C472.762 278.111 473.105 277.866 473.387 277.56C473.67 277.254 473.885 276.892 474.02 276.498C474.155 276.104 474.206 275.686 474.171 275.271L473.526 267.948C473.454 267.2 473.105 266.506 472.546 266.003C471.988 265.5 471.261 265.225 470.509 265.232Z" fill="black"/>
<path d="M430.46 102.963L422.942 101.507L438.322 169.032H445.525L430.46 102.963Z" fill="#EB222A"/>
<path d="M403.014 176.625H428.749L429.409 179.326C429.611 179.919 429.664 180.552 429.564 181.171C429.465 181.789 429.216 182.374 428.838 182.874C428.461 183.375 427.967 183.775 427.4 184.04C426.832 184.306 426.208 184.428 425.583 184.398H410.022C408.566 184.329 407.169 183.801 406.032 182.89C404.894 181.979 404.075 180.731 403.69 179.326L403.014 176.625Z" fill="#263238"/>
<path d="M491.532 176.625H517.251L517.912 179.326C518.113 179.919 518.166 180.552 518.067 181.171C517.967 181.789 517.718 182.374 517.341 182.874C516.963 183.375 516.469 183.775 515.902 184.04C515.335 184.306 514.711 184.428 514.085 184.398H498.524C497.069 184.329 495.672 183.801 494.534 182.89C493.397 181.979 492.577 180.731 492.192 179.326L491.532 176.625Z" fill="#263238"/>
<path opacity="0.1" d="M441.159 256.499C441.383 256.499 441.598 256.411 441.758 256.254C441.918 256.097 442.01 255.883 442.014 255.659L443.905 167.246C443.905 167.019 443.818 166.8 443.661 166.636C443.505 166.471 443.291 166.372 443.064 166.361C442.84 166.361 442.625 166.449 442.465 166.606C442.305 166.763 442.213 166.977 442.209 167.201L440.348 255.629C440.348 255.854 440.436 256.071 440.592 256.234C440.749 256.396 440.963 256.491 441.189 256.499H441.159Z" fill="black"/>
</svg>
