<svg width="74" height="87" viewBox="0 0 74 87" fill="none" xmlns="http://www.w3.org/2000/svg">
<path d="M61 56.5C61 52.4947 60.2111 48.5286 58.6783 44.8282C57.1456 41.1277 54.8989 37.7654 52.0668 34.9332C49.2346 32.1011 45.8723 29.8544 42.1718 28.3217C38.4714 26.7889 34.5053 26 30.5 26C26.4947 26 22.5286 26.7889 18.8282 28.3217C15.1277 29.8544 11.7654 32.1011 8.93324 34.9332C6.10106 37.7654 3.85444 41.1277 2.32167 44.8282C0.788905 48.5286 -3.50156e-07 61.7773 0 65.7826L61 64.4565V56.5Z" fill="#D9D9D9"/>
<path d="M61 56.5C61 52.4947 60.2111 48.5286 58.6783 44.8282C57.1456 41.1277 54.8989 37.7654 52.0668 34.9332C49.2346 32.1011 45.8723 29.8544 42.1718 28.3217C38.4714 26.7889 34.5053 26 30.5 26C26.4947 26 22.5286 26.7889 18.8282 28.3217C15.1277 29.8544 11.7654 32.1011 8.93324 34.9332C6.10106 37.7654 3.85444 41.1277 2.32167 44.8282C0.788905 48.5286 -3.50156e-07 61.7773 0 65.7826L61 64.4565V56.5Z" fill="url(#paint0_linear_204_10616)"/>
<path d="M11 65.5L61 64.4492V87H10.6087L11 65.5Z" fill="#60627B"/>
<g clip-path="url(#clip0_204_10616)">
<path d="M47.7329 7.7019C38.1947 7.7019 30.4348 15.462 30.4348 25C30.4348 34.5381 38.1947 42.2978 47.7329 42.2978C57.2709 42.2978 65.0307 34.538 65.0307 25C65.0307 15.4619 57.2709 7.7019 47.7329 7.7019ZM61.2275 30.8833C59.9285 31.3969 58.4857 31.8278 56.9365 32.1695C57.1647 30.2953 57.3023 28.3188 57.3435 26.2875H62.3987C62.2577 27.9083 61.8528 29.4546 61.2275 30.8833ZM33.0669 26.2875H38.1219C38.163 28.3183 38.3006 30.2943 38.5287 32.1679C36.9794 31.8263 35.5366 31.396 34.2382 30.8834C33.6129 29.4547 33.2081 27.9083 33.0669 26.2875ZM34.2384 19.1161C35.5379 18.6024 36.9808 18.1715 38.5306 17.8299C38.3018 19.7065 38.1633 21.6837 38.122 23.7123H33.0669C33.2081 22.0914 33.6129 20.5451 34.2384 19.1161ZM49.0204 16.9052C50.8366 16.9532 52.602 17.1027 54.2784 17.347C54.5553 19.3473 54.7213 21.4916 54.7679 23.7123H49.0204V16.9052ZM49.0204 14.3294V10.334C50.3862 10.4529 51.6992 10.759 52.9337 11.2267C53.2772 12.2892 53.5761 13.4499 53.8278 14.6884C52.2771 14.4919 50.6662 14.371 49.0204 14.3294ZM46.4453 14.3294C44.7999 14.3709 43.1897 14.4918 41.6395 14.6881C41.8909 13.4493 42.1895 12.2885 42.5325 11.2265C43.7668 10.7589 45.0797 10.4529 46.4453 10.334V14.3294ZM46.4453 16.9052L46.4454 23.7123H40.6978C40.7444 21.4952 40.9112 19.3499 41.1889 17.3466C42.8649 17.1025 44.6295 16.9531 46.4453 16.9052ZM40.6977 26.2875H46.4454L46.4455 33.0948C44.6321 33.0465 42.8657 32.897 41.1868 32.6518C40.91 30.6519 40.7441 28.5079 40.6977 26.2875ZM46.4455 35.6704V39.6658C45.0795 39.5469 43.7665 39.2408 42.532 38.773C42.1883 37.7103 41.8892 36.549 41.6375 35.31C43.1899 35.5072 44.8014 35.6287 46.4455 35.6704ZM49.0206 35.6705C50.6664 35.6289 52.2771 35.5079 53.8278 35.3114C53.5761 36.5499 53.2771 37.7106 52.9338 38.773C51.6993 39.2408 50.3863 39.5468 49.0205 39.6658V35.6705H49.0206ZM49.0206 33.0948L49.0204 26.2875H54.7679C54.7213 28.5082 54.5555 30.6526 54.2784 32.653C52.602 32.8974 50.8368 33.0467 49.0206 33.0948ZM57.3436 23.7123C57.3025 21.681 57.1648 19.7046 56.9366 17.8303C58.4858 18.172 59.9284 18.6028 61.2276 19.1164C61.8529 20.5453 62.2578 22.0915 62.3988 23.7122H57.3436V23.7123ZM59.1602 15.7281C58.3161 15.4981 57.4371 15.295 56.5298 15.1194C56.3902 14.3425 56.2339 13.59 56.0609 12.8659C57.2257 13.6678 58.2701 14.633 59.1602 15.7281ZM39.4058 12.8651C39.2332 13.5893 39.0765 14.3418 38.937 15.1187C38.0293 15.2945 37.1502 15.4977 36.3056 15.7277C37.1962 14.6324 38.2406 13.6672 39.4058 12.8651ZM36.305 34.2711C37.1492 34.5008 38.0282 34.7041 38.9354 34.8798C39.075 35.6568 39.2314 36.4096 39.4044 37.1336C38.2394 36.3316 37.1952 35.3665 36.305 34.2711ZM56.0611 37.1338C56.2338 36.41 56.3903 35.6574 56.5298 34.8807C57.4375 34.705 58.3161 34.5017 59.1602 34.2717C58.2701 35.3669 57.2259 36.3319 56.0611 37.1338Z" fill="#EB262E"/>
<path d="M73.9347 23.8765C73.8173 23.6198 73.5612 23.4552 73.2788 23.4552H71.447C71.0794 17.693 68.6615 12.3263 64.5419 8.20679C60.0564 3.72118 54.0924 1.25098 47.749 1.25098C41.4055 1.25098 35.4416 3.72118 30.956 8.20689C26.4703 12.6925 24 18.6564 24 25C24 31.3434 26.4703 37.3072 30.956 41.7929C35.4416 46.2786 41.4054 48.7489 47.749 48.7489C53.1304 48.7489 58.4021 46.8986 62.5931 43.5392C63.1481 43.0944 63.2372 42.284 62.7923 41.7292C62.3478 41.1745 61.5376 41.0852 60.9824 41.53C57.1927 44.568 52.6165 46.1738 47.749 46.1738C36.0738 46.1738 26.5751 36.6752 26.5751 25C26.5751 13.3246 36.0738 3.82608 47.749 3.82608C58.9048 3.82608 68.0723 12.4983 68.8661 23.4552H67.142C66.86 23.4552 66.6036 23.6198 66.4862 23.8765C66.369 24.1331 66.4121 24.4347 66.5968 24.6481L69.665 28.1936C69.8019 28.352 70.0009 28.4428 70.2102 28.4428C70.4197 28.4428 70.6185 28.3519 70.7555 28.1937L73.8241 24.6482C74.0088 24.4348 74.0521 24.1331 73.9347 23.8765Z" fill="#EB262E"/>
</g>
<defs>
<linearGradient id="paint0_linear_204_10616" x1="36" y1="56" x2="41.5" y2="28.5" gradientUnits="userSpaceOnUse">
<stop stop-color="#64647C"/>
<stop offset="1" stop-color="#1E3D73"/>
</linearGradient>
<clipPath id="clip0_204_10616">
<rect width="50" height="50" fill="white" transform="translate(24)"/>
</clipPath>
</defs>
</svg>
