<svg width="79" height="87" viewBox="0 0 79 87" fill="none" xmlns="http://www.w3.org/2000/svg">
<path d="M61 56.5C61 52.4947 60.2111 48.5286 58.6783 44.8282C57.1456 41.1277 54.8989 37.7654 52.0668 34.9332C49.2346 32.1011 45.8723 29.8544 42.1718 28.3217C38.4714 26.7889 34.5053 26 30.5 26C26.4947 26 22.5286 26.7889 18.8282 28.3217C15.1277 29.8544 11.7654 32.1011 8.93324 34.9332C6.10106 37.7654 3.85444 41.1277 2.32167 44.8282C0.788905 48.5286 -3.50156e-07 61.7773 0 65.7826L61 64.4565V56.5Z" fill="#D9D9D9"/>
<path d="M61 56.5C61 52.4947 60.2111 48.5286 58.6783 44.8282C57.1456 41.1277 54.8989 37.7654 52.0668 34.9332C49.2346 32.1011 45.8723 29.8544 42.1718 28.3217C38.4714 26.7889 34.5053 26 30.5 26C26.4947 26 22.5286 26.7889 18.8282 28.3217C15.1277 29.8544 11.7654 32.1011 8.93324 34.9332C6.10106 37.7654 3.85444 41.1277 2.32167 44.8282C0.788905 48.5286 -3.50156e-07 61.7773 0 65.7826L61 64.4565V56.5Z" fill="url(#paint0_linear_204_10602)"/>
<path d="M11 65.5L61 64.4492V87H10.6087L11 65.5Z" fill="#60627B"/>
<g clip-path="url(#clip0_204_10602)">
<path d="M70.6667 0H37.3333C32.7375 0 29 3.7375 29 8.33333V41.6667C29 46.2625 32.7375 50 37.3333 50H70.6667C75.2625 50 79 46.2625 79 41.6667V8.33333C79 3.7375 75.2625 0 70.6667 0ZM74.8333 41.6667C74.8333 43.9667 72.9667 45.8333 70.6667 45.8333H37.3333C35.0354 45.8333 33.1667 43.9667 33.1667 41.6667V8.33333C33.1667 6.03542 35.0354 4.16667 37.3333 4.16667H70.6667C72.9667 4.16667 74.8333 6.03542 74.8333 8.33333V41.6667Z" fill="#EB262E"/>
<path d="M41.3458 20.7666L50.6167 24.7395V24.7895L41.3458 28.7645V31.4103L53.3396 25.9124V23.6145L41.3458 18.1187V20.7666Z" fill="#EB262E"/>
<path d="M67.2917 33.2854H54.7979V34.5375H67.2917V33.2854Z" fill="#EB262E"/>
</g>
<defs>
<linearGradient id="paint0_linear_204_10602" x1="36" y1="56" x2="41.5" y2="28.5" gradientUnits="userSpaceOnUse">
<stop stop-color="#64647C"/>
<stop offset="1" stop-color="#1E3D73"/>
</linearGradient>
<clipPath id="clip0_204_10602">
<rect width="50" height="50" fill="white" transform="translate(29)"/>
</clipPath>
</defs>
</svg>
