<svg width="71" height="87" viewBox="0 0 71 87" fill="none" xmlns="http://www.w3.org/2000/svg">
<path d="M61 56.5C61 52.4947 60.2111 48.5286 58.6783 44.8282C57.1456 41.1277 54.8989 37.7654 52.0668 34.9332C49.2346 32.1011 45.8723 29.8544 42.1718 28.3217C38.4714 26.7889 34.5053 26 30.5 26C26.4947 26 22.5286 26.7889 18.8282 28.3217C15.1277 29.8544 11.7654 32.1011 8.93324 34.9332C6.10106 37.7654 3.85444 41.1277 2.32167 44.8282C0.788905 48.5286 -3.50156e-07 61.7773 0 65.7826L61 64.4565V56.5Z" fill="#D9D9D9"/>
<path d="M61 56.5C61 52.4947 60.2111 48.5286 58.6783 44.8282C57.1456 41.1277 54.8989 37.7654 52.0668 34.9332C49.2346 32.1011 45.8723 29.8544 42.1718 28.3217C38.4714 26.7889 34.5053 26 30.5 26C26.4947 26 22.5286 26.7889 18.8282 28.3217C15.1277 29.8544 11.7654 32.1011 8.93324 34.9332C6.10106 37.7654 3.85444 41.1277 2.32167 44.8282C0.788905 48.5286 -3.50156e-07 61.7773 0 65.7826L61 64.4565V56.5Z" fill="url(#paint0_linear_204_10642)"/>
<path d="M11 65.5L61 64.4492V87H10.6087L11 65.5Z" fill="#60627B"/>
<path d="M66.3125 4.6875H25.6875V45.3125H66.3125V4.6875Z" stroke="#EB222A" stroke-width="2" stroke-miterlimit="10" stroke-linecap="round" stroke-linejoin="round"/>
<path d="M46 4.6875V45.3125" stroke="#EB222A" stroke-width="2" stroke-miterlimit="10" stroke-linecap="round" stroke-linejoin="round"/>
<path d="M25.6875 25H66.3125" stroke="#EB222A" stroke-width="2" stroke-miterlimit="10" stroke-linecap="round" stroke-linejoin="round"/>
<path d="M30.375 10.9375L31.9375 9.375" stroke="#EB222A" stroke-width="2" stroke-miterlimit="10" stroke-linecap="round" stroke-linejoin="round"/>
<path d="M30.375 17.1875L38.1875 9.375" stroke="#EB222A" stroke-width="2" stroke-miterlimit="10" stroke-linecap="round" stroke-linejoin="round"/>
<path d="M50.6875 10.9375L52.25 9.375" stroke="#EB222A" stroke-width="2" stroke-miterlimit="10" stroke-linecap="round" stroke-linejoin="round"/>
<path d="M50.6875 17.1875L58.5 9.375" stroke="#EB222A" stroke-width="2" stroke-miterlimit="10" stroke-linecap="round" stroke-linejoin="round"/>
<path d="M30.375 31.25L31.9375 29.6875" stroke="#EB222A" stroke-width="2" stroke-miterlimit="10" stroke-linecap="round" stroke-linejoin="round"/>
<path d="M30.375 37.5L38.1875 29.6875" stroke="#EB222A" stroke-width="2" stroke-miterlimit="10" stroke-linecap="round" stroke-linejoin="round"/>
<path d="M50.6875 31.25L52.25 29.6875" stroke="#EB222A" stroke-width="2" stroke-miterlimit="10" stroke-linecap="round" stroke-linejoin="round"/>
<path d="M50.6875 37.5L58.5 29.6875" stroke="#EB222A" stroke-width="2" stroke-miterlimit="10" stroke-linecap="round" stroke-linejoin="round"/>
<defs>
<linearGradient id="paint0_linear_204_10642" x1="36" y1="56" x2="41.5" y2="28.5" gradientUnits="userSpaceOnUse">
<stop stop-color="#64647C"/>
<stop offset="1" stop-color="#1E3D73"/>
</linearGradient>
</defs>
</svg>
