<svg width="78" height="87" viewBox="0 0 78 87" fill="none" xmlns="http://www.w3.org/2000/svg">
<path d="M61 56.5C61 52.4947 60.2111 48.5286 58.6783 44.8282C57.1456 41.1277 54.8989 37.7654 52.0668 34.9332C49.2346 32.1011 45.8723 29.8544 42.1718 28.3217C38.4714 26.7889 34.5053 26 30.5 26C26.4947 26 22.5286 26.7889 18.8282 28.3217C15.1277 29.8544 11.7654 32.1011 8.93324 34.9332C6.10106 37.7654 3.85444 41.1277 2.32167 44.8282C0.788905 48.5286 -3.50156e-07 61.7773 0 65.7826L61 64.4565V56.5Z" fill="#D9D9D9"/>
<path d="M61 56.5C61 52.4947 60.2111 48.5286 58.6783 44.8282C57.1456 41.1277 54.8989 37.7654 52.0668 34.9332C49.2346 32.1011 45.8723 29.8544 42.1718 28.3217C38.4714 26.7889 34.5053 26 30.5 26C26.4947 26 22.5286 26.7889 18.8282 28.3217C15.1277 29.8544 11.7654 32.1011 8.93324 34.9332C6.10106 37.7654 3.85444 41.1277 2.32167 44.8282C0.788905 48.5286 -3.50156e-07 61.7773 0 65.7826L61 64.4565V56.5Z" fill="url(#paint0_linear_204_10589)"/>
<path d="M11 65.5L61 64.4492V87H10.6087L11 65.5Z" fill="#60627B"/>
<g clip-path="url(#clip0_204_10589)">
<path d="M45.0471 21.5072H32.97C31.7472 21.506 30.5747 21.0199 29.7099 20.1554C28.8452 19.2908 28.3586 18.1186 28.3571 16.8957V4.96861C28.3586 3.7458 28.8452 2.57352 29.7099 1.709C30.5747 0.844476 31.7472 0.358312 32.97 0.357178H45.0471C46.2697 0.35869 47.4417 0.845021 48.3062 1.7095C49.1707 2.57399 49.657 3.74604 49.6585 4.96861V16.8957C49.657 18.1183 49.1707 19.2904 48.3062 20.1549C47.4417 21.0193 46.2697 21.5057 45.0471 21.5072ZM32.97 3.92861C32.6941 3.92898 32.4297 4.03863 32.2345 4.23355C32.0393 4.42846 31.9293 4.69277 31.9285 4.96861V16.8957C31.9293 17.1716 32.0393 17.4359 32.2345 17.6308C32.4297 17.8257 32.6941 17.9354 32.97 17.9358H45.0471C45.3228 17.9354 45.5871 17.8257 45.7821 17.6307C45.977 17.4358 46.0867 17.1715 46.0871 16.8957V4.96861C46.0867 4.6929 45.977 4.42859 45.7821 4.23363C45.5871 4.03868 45.3228 3.92898 45.0471 3.92861H32.97Z" fill="#EB262E"/>
<path d="M45.1057 49.6427H33.0286C31.8056 49.6412 30.6332 49.1547 29.7685 48.2899C28.9037 47.4252 28.4172 46.2528 28.4157 45.0298V33.1041C28.4172 31.8813 28.9038 30.709 29.7685 29.8445C30.6333 28.98 31.8058 28.4938 33.0286 28.4927H45.1057C46.3278 28.4949 47.4991 28.9816 48.363 29.846C49.2268 30.7104 49.7128 31.882 49.7143 33.1041V45.0298C49.7132 46.2521 49.2274 47.4241 48.3635 48.2888C47.4996 49.1535 46.328 49.6404 45.1057 49.6427ZM33.0286 32.0641C32.7527 32.0645 32.4883 32.1741 32.2931 32.369C32.0979 32.564 31.9879 32.8283 31.9871 33.1041V45.0298C31.9875 45.3059 32.0974 45.5706 32.2926 45.7658C32.4878 45.961 32.7525 46.0709 33.0286 46.0712H45.1057C45.3815 46.0705 45.6459 45.9605 45.8408 45.7653C46.0357 45.5701 46.1453 45.3057 46.1457 45.0298V33.1041C46.1453 32.8284 46.0356 32.5641 45.8407 32.3691C45.6457 32.1742 45.3814 32.0645 45.1057 32.0641H33.0286Z" fill="#EB262E"/>
<path d="M73.0314 49.6427H60.9543C59.7313 49.6412 58.5589 49.1547 57.6942 48.2899C56.8294 47.4252 56.3429 46.2528 56.3414 45.0298V33.1041C56.3429 31.8813 56.8295 30.709 57.6943 29.8445C58.5591 28.98 59.7315 28.4938 60.9543 28.4927H73.0314C74.254 28.4942 75.426 28.9805 76.2905 29.845C77.155 30.7095 77.6413 31.8815 77.6429 33.1041V45.0298C77.6417 46.2526 77.1556 47.4251 76.291 48.2898C75.4265 49.1546 74.2542 49.6412 73.0314 49.6427ZM60.9543 32.0712C60.6784 32.0716 60.414 32.1813 60.2188 32.3762C60.0236 32.5711 59.9136 32.8354 59.9129 33.1112V45.037C59.9132 45.313 60.0231 45.5777 60.2183 45.7729C60.4135 45.9682 60.6782 46.078 60.9543 46.0784H73.0314C73.3073 46.0776 73.5716 45.9676 73.7665 45.7724C73.9614 45.5773 74.0711 45.3128 74.0714 45.037V33.1041C74.0711 32.8284 73.9614 32.5641 73.7664 32.3691C73.5714 32.1742 73.3071 32.0645 73.0314 32.0641L60.9543 32.0712Z" fill="#EB262E"/>
<path d="M67 21.5073C64.9126 21.4918 62.8765 20.8586 61.1484 19.6876C59.4203 18.5166 58.0776 16.8602 57.2895 14.9273C56.5014 12.9943 56.3032 10.8712 56.7199 8.82576C57.1367 6.78031 58.1497 4.90402 59.6312 3.43343C61.1127 1.96283 62.9964 0.963778 65.0449 0.562205C67.0934 0.160632 69.2149 0.374519 71.142 1.1769C73.0691 1.97929 74.7155 3.33425 75.8737 5.07097C77.0319 6.80768 77.6499 8.84842 77.65 10.9359C77.636 13.7489 76.507 16.4416 74.5105 18.4233C72.514 20.4051 69.8131 21.5142 67 21.5073ZM67 3.93589C65.619 3.95139 64.2734 4.37507 63.1326 5.1536C61.9919 5.93214 61.1069 7.03073 60.5891 8.3111C60.0713 9.59147 59.9439 10.9964 60.2228 12.349C60.5017 13.7017 61.1745 14.9416 62.1565 15.9127C63.1385 16.8839 64.3859 17.5428 65.7416 17.8066C67.0973 18.0704 68.5007 17.9272 69.7752 17.3952C71.0497 16.8631 72.1383 15.966 72.9041 14.8166C73.6698 13.6672 74.0785 12.317 74.0786 10.9359C74.0672 9.06859 73.3155 7.28206 71.9885 5.96837C70.6614 4.65468 68.8673 3.92114 67 3.92875V3.93589Z" fill="#EB262E"/>
</g>
<defs>
<linearGradient id="paint0_linear_204_10589" x1="36" y1="56" x2="41.5" y2="28.5" gradientUnits="userSpaceOnUse">
<stop stop-color="#64647C"/>
<stop offset="1" stop-color="#1E3D73"/>
</linearGradient>
<clipPath id="clip0_204_10589">
<rect width="50" height="50" fill="white" transform="translate(28)"/>
</clipPath>
</defs>
</svg>
