<svg width="39" height="39" viewBox="0 0 39 39" fill="none" xmlns="http://www.w3.org/2000/svg">
<path d="M17.4769 8.08613L6.12365 27.7491C5.91857 28.1042 5.81058 28.507 5.81055 28.9171C5.81051 29.3271 5.91842 29.73 6.12344 30.0851C6.32845 30.4402 6.62334 30.7351 6.97846 30.9401C7.33358 31.1452 7.73642 31.2531 8.14647 31.253H30.8512C31.2612 31.2531 31.6641 31.1452 32.0192 30.9401C32.3743 30.7351 32.6692 30.4402 32.8742 30.0851C33.0792 29.73 33.1871 29.3271 33.1871 28.9171C33.1871 28.507 33.0791 28.1042 32.874 27.7491L21.5219 8.08613C21.317 7.73111 21.0222 7.4363 20.6671 7.23133C20.3121 7.02636 19.9094 6.91846 19.4994 6.91846C19.0895 6.91846 18.6868 7.02636 18.3317 7.23133C17.9767 7.4363 17.6819 7.73111 17.4769 8.08613V8.08613Z" fill="#D32727"/>
<path d="M19.6457 14.1509H19.3495C18.6204 14.1509 18.0293 14.742 18.0293 15.4711V21.7815C18.0293 22.5106 18.6204 23.1017 19.3495 23.1017H19.6457C20.3748 23.1017 20.9659 22.5106 20.9659 21.7815V15.4711C20.9659 14.742 20.3748 14.1509 19.6457 14.1509Z" fill="#FFF7ED"/>
<path d="M19.4976 28.106C20.3085 28.106 20.9659 27.4486 20.9659 26.6377C20.9659 25.8268 20.3085 25.1694 19.4976 25.1694C18.6867 25.1694 18.0293 25.8268 18.0293 26.6377C18.0293 27.4486 18.6867 28.106 19.4976 28.106Z" fill="#FFF7ED"/>
</svg>
